<svg xmlns="http://www.w3.org/2000/svg" viewBox="0 0 489.02 379.48"><defs><style>.cls-1{isolation:isolate;}.cls-2,.cls-3,.cls-7{fill:#9dcff9;}.cls-2{opacity:0.25;}.cls-3,.cls-8{opacity:0.5;}.cls-35,.cls-4,.cls-6,.cls-8{mix-blend-mode:multiply;}.cls-5,.cls-6{fill:#0056ec;}.cls-35,.cls-7{opacity:0.75;}.cls-9{fill:#84c3f7;}.cls-10{fill:#1d4259;}.cls-11{fill:#0f222c;}.cls-12{fill:#e8bf7c;}.cls-13{fill:#d0a569;}.cls-14{fill:#ab7a45;}.cls-15{fill:#d0a56b;}.cls-16{fill:#986e3e;}.cls-17{fill:#a87944;}.cls-18{fill:#00ad9f;}.cls-19,.cls-22{fill:#f2f2f2;}.cls-19,.cls-25{opacity:0.42;}.cls-20,.cls-27{fill:#7ee8d4;}.cls-20{opacity:0.53;}.cls-21{fill:#222846;}.cls-23{fill:#ce3836;}.cls-24{fill:#ff524f;}.cls-26{fill:#1b3241;}.cls-28{fill:#236ddb;}.cls-29{fill:#ec5f61;}.cls-30{fill:#a9aaff;}.cls-31{fill:#52d2bc;}.cls-32{fill:#4193b7;}.cls-33{fill:#1c538e;}.cls-34{fill:#0d2644;}.cls-35{fill:#15ccbe;}</style></defs><title>Asset 2</title><g class="cls-1"><g id="Layer_2" data-name="Layer 2"><g id="Layer_1-2" data-name="Layer 1"><rect class="cls-2" x="374.45" y="175.03" width="86.36" height="168.13"/><polygon class="cls-2" points="331.3 111.34 331.3 94.54 290.45 94.54 290.45 111.34 275.16 111.34 275.16 299.66 346.58 299.66 346.58 111.34 331.3 111.34"/><rect class="cls-2" x="104.27" y="181.7" width="91.93" height="161.46"/><polygon class="cls-2" points="371.48 111.34 356.2 111.34 356.2 299.66 427.62 299.66 427.62 72.54 371.48 111.34"/><polygon class="cls-3" points="264.94 95.97 264.94 60.46 248.49 60.46 248.49 28.2 208.43 28.2 208.43 60.46 191.98 60.46 191.98 95.97 169.3 95.97 169.3 343.17 287.62 343.17 287.62 95.97 264.94 95.97"/><g class="cls-4"><rect class="cls-5" x="180.95" y="134.32" width="12.55" height="9.11"/><rect class="cls-5" x="202.5" y="134.32" width="12.56" height="9.11"/><rect class="cls-5" x="223.71" y="134.32" width="12.55" height="9.11"/><rect class="cls-5" x="245.26" y="134.32" width="12.55" height="9.11"/><rect class="cls-5" x="266.47" y="134.32" width="12.55" height="9.11"/><rect class="cls-5" x="180.95" y="146.64" width="12.55" height="9.11"/><rect class="cls-5" x="202.5" y="146.64" width="12.56" height="9.11"/><rect class="cls-5" x="223.71" y="146.64" width="12.55" height="9.11"/><rect class="cls-5" x="245.26" y="146.64" width="12.55" height="9.11"/><rect class="cls-5" x="266.47" y="146.64" width="12.55" height="9.11"/><rect class="cls-5" x="180.95" y="159.46" width="12.55" height="9.11"/><rect class="cls-5" x="202.5" y="159.46" width="12.56" height="9.11"/><rect class="cls-5" x="223.71" y="159.46" width="12.55" height="9.11"/><rect class="cls-5" x="245.26" y="159.46" width="12.55" height="9.11"/><rect class="cls-5" x="266.47" y="159.46" width="12.55" height="9.11"/></g><rect class="cls-5" x="265.16" y="141.07" width="15.18" height="2.36"/><rect class="cls-5" x="265.16" y="153.55" width="15.18" height="2.19"/><rect class="cls-5" x="265.16" y="166.2" width="15.18" height="2.36"/><rect class="cls-5" x="243.95" y="141.07" width="15.18" height="2.36"/><rect class="cls-5" x="243.95" y="153.55" width="15.18" height="2.19"/><rect class="cls-5" x="243.95" y="166.2" width="15.18" height="2.36"/><rect class="cls-5" x="222.4" y="141.07" width="15.18" height="2.36"/><rect class="cls-5" x="222.4" y="153.55" width="15.18" height="2.19"/><rect class="cls-5" x="222.4" y="166.2" width="15.18" height="2.36"/><rect class="cls-5" x="201.19" y="141.07" width="15.18" height="2.36"/><rect class="cls-5" x="201.19" y="153.55" width="15.18" height="2.19"/><rect class="cls-5" x="201.19" y="166.2" width="15.18" height="2.36"/><rect class="cls-5" x="179.64" y="141.07" width="15.18" height="2.36"/><rect class="cls-5" x="179.64" y="153.55" width="15.18" height="2.19"/><rect class="cls-5" x="179.64" y="166.2" width="15.18" height="2.36"/><g class="cls-4"><rect class="cls-5" x="203.71" y="86.5" width="11.52" height="8.36"/><rect class="cls-5" x="223.49" y="86.5" width="11.52" height="8.36"/><rect class="cls-5" x="242.95" y="86.5" width="11.52" height="8.36"/><rect class="cls-5" x="203.71" y="97.8" width="11.52" height="8.36"/><rect class="cls-5" x="223.49" y="97.8" width="11.52" height="8.36"/><rect class="cls-5" x="242.95" y="97.8" width="11.52" height="8.36"/><rect class="cls-5" x="203.71" y="109.57" width="11.52" height="8.36"/><rect class="cls-5" x="223.49" y="109.57" width="11.52" height="8.36"/><rect class="cls-5" x="242.95" y="109.57" width="11.52" height="8.36"/></g><rect class="cls-5" x="241.74" y="92.7" width="13.93" height="2.17"/><rect class="cls-5" x="241.74" y="104.15" width="13.93" height="2.01"/><rect class="cls-5" x="241.74" y="115.76" width="13.93" height="2.17"/><rect class="cls-5" x="222.28" y="92.7" width="13.93" height="2.17"/><rect class="cls-5" x="222.28" y="104.15" width="13.93" height="2.01"/><rect class="cls-5" x="222.28" y="115.76" width="13.93" height="2.17"/><rect class="cls-5" x="202.5" y="92.7" width="13.93" height="2.17"/><rect class="cls-5" x="202.5" y="104.15" width="13.93" height="2.01"/><rect class="cls-5" x="202.5" y="115.76" width="13.93" height="2.17"/><g class="cls-4"><rect class="cls-5" x="180.95" y="175.5" width="12.55" height="9.11"/><rect class="cls-5" x="202.5" y="175.5" width="12.56" height="9.11"/><rect class="cls-5" x="223.71" y="175.5" width="12.55" height="9.11"/><rect class="cls-5" x="245.26" y="175.5" width="12.55" height="9.11"/><rect class="cls-5" x="266.47" y="175.5" width="12.55" height="9.11"/><rect class="cls-5" x="180.95" y="187.81" width="12.55" height="9.11"/><rect class="cls-5" x="202.5" y="187.81" width="12.56" height="9.11"/><rect class="cls-5" x="223.71" y="187.81" width="12.55" height="9.11"/><rect class="cls-5" x="245.26" y="187.81" width="12.55" height="9.11"/><rect class="cls-5" x="266.47" y="187.81" width="12.55" height="9.11"/><rect class="cls-5" x="180.95" y="200.63" width="12.55" height="9.11"/><rect class="cls-5" x="202.5" y="200.63" width="12.56" height="9.11"/><rect class="cls-5" x="223.71" y="200.63" width="12.55" height="9.11"/><rect class="cls-5" x="245.26" y="200.63" width="12.55" height="9.11"/><rect class="cls-5" x="266.47" y="200.63" width="12.55" height="9.11"/></g><rect class="cls-5" x="265.16" y="182.24" width="15.18" height="2.36"/><rect class="cls-5" x="265.16" y="194.72" width="15.18" height="2.19"/><rect class="cls-5" x="265.16" y="207.37" width="15.18" height="2.36"/><rect class="cls-5" x="243.95" y="182.24" width="15.18" height="2.36"/><rect class="cls-5" x="243.95" y="194.72" width="15.18" height="2.19"/><rect class="cls-5" x="243.95" y="207.37" width="15.18" height="2.36"/><rect class="cls-5" x="222.4" y="182.24" width="15.18" height="2.36"/><rect class="cls-5" x="222.4" y="194.72" width="15.18" height="2.19"/><rect class="cls-5" x="222.4" y="207.37" width="15.18" height="2.36"/><rect class="cls-5" x="201.19" y="182.24" width="15.18" height="2.36"/><rect class="cls-5" x="201.19" y="194.72" width="15.18" height="2.19"/><rect class="cls-5" x="201.19" y="207.37" width="15.18" height="2.36"/><rect class="cls-5" x="179.64" y="182.24" width="15.18" height="2.36"/><rect class="cls-5" x="179.64" y="194.72" width="15.18" height="2.19"/><rect class="cls-5" x="179.64" y="207.37" width="15.18" height="2.36"/><g class="cls-4"><rect class="cls-5" x="180.95" y="216.67" width="12.55" height="9.11"/><rect class="cls-5" x="202.5" y="216.67" width="12.56" height="9.11"/><rect class="cls-5" x="223.71" y="216.67" width="12.55" height="9.11"/><rect class="cls-5" x="245.26" y="216.67" width="12.55" height="9.11"/><rect class="cls-5" x="266.47" y="216.67" width="12.55" height="9.11"/><rect class="cls-5" x="180.95" y="228.98" width="12.55" height="9.11"/><rect class="cls-5" x="202.5" y="228.98" width="12.56" height="9.11"/><rect class="cls-5" x="223.71" y="228.98" width="12.55" height="9.11"/><rect class="cls-5" x="245.26" y="228.98" width="12.55" height="9.11"/><rect class="cls-5" x="266.47" y="228.98" width="12.55" height="9.11"/><rect class="cls-5" x="180.95" y="241.8" width="12.55" height="9.11"/><rect class="cls-5" x="202.5" y="241.8" width="12.56" height="9.11"/><rect class="cls-5" x="223.71" y="241.8" width="12.55" height="9.11"/><rect class="cls-5" x="245.26" y="241.8" width="12.55" height="9.11"/><rect class="cls-5" x="266.47" y="241.8" width="12.55" height="9.11"/></g><rect class="cls-5" x="265.16" y="223.41" width="15.18" height="2.36"/><rect class="cls-5" x="265.16" y="235.9" width="15.18" height="2.19"/><rect class="cls-5" x="265.16" y="248.55" width="15.18" height="2.36"/><rect class="cls-5" x="243.95" y="223.41" width="15.18" height="2.36"/><rect class="cls-5" x="243.95" y="235.9" width="15.18" height="2.19"/><rect class="cls-5" x="243.95" y="248.55" width="15.18" height="2.36"/><rect class="cls-5" x="222.4" y="223.41" width="15.18" height="2.36"/><rect class="cls-5" x="222.4" y="235.9" width="15.18" height="2.19"/><rect class="cls-5" x="222.4" y="248.55" width="15.18" height="2.36"/><rect class="cls-5" x="201.19" y="223.41" width="15.18" height="2.36"/><rect class="cls-5" x="201.19" y="235.9" width="15.18" height="2.19"/><rect class="cls-5" x="201.19" y="248.55" width="15.18" height="2.36"/><rect class="cls-5" x="179.64" y="223.41" width="15.18" height="2.36"/><rect class="cls-5" x="179.64" y="235.9" width="15.18" height="2.19"/><rect class="cls-5" x="179.64" y="248.55" width="15.18" height="2.36"/><rect class="cls-3" x="307.46" y="134.67" width="71.14" height="208.5"/><rect class="cls-6" x="317.4" y="148.09" width="13.82" height="5.81"/><rect class="cls-6" x="317.4" y="162.11" width="13.82" height="5.81"/><rect class="cls-6" x="317.4" y="176.13" width="13.82" height="5.81"/><rect class="cls-6" x="317.4" y="190.15" width="13.82" height="5.81"/><rect class="cls-6" x="317.4" y="204.17" width="13.82" height="5.81"/><rect class="cls-6" x="317.4" y="218.19" width="13.82" height="5.81"/><rect class="cls-6" x="317.4" y="232.21" width="13.82" height="5.81"/><rect class="cls-6" x="317.4" y="246.23" width="13.82" height="5.81"/><rect class="cls-6" x="317.4" y="260.25" width="13.82" height="5.81"/><rect class="cls-6" x="337.14" y="148.09" width="13.82" height="5.81"/><rect class="cls-6" x="337.14" y="162.11" width="13.82" height="5.81"/><rect class="cls-6" x="337.14" y="176.13" width="13.82" height="5.81"/><rect class="cls-6" x="337.14" y="190.15" width="13.82" height="5.81"/><rect class="cls-6" x="337.14" y="204.17" width="13.82" height="5.81"/><rect class="cls-6" x="337.14" y="218.19" width="13.82" height="5.81"/><rect class="cls-6" x="337.14" y="232.21" width="13.82" height="5.81"/><rect class="cls-6" x="337.14" y="246.23" width="13.82" height="5.81"/><rect class="cls-6" x="337.14" y="260.25" width="13.82" height="5.81"/><rect class="cls-6" x="356.87" y="148.09" width="13.82" height="5.81"/><rect class="cls-6" x="356.87" y="162.11" width="13.82" height="5.81"/><rect class="cls-6" x="356.87" y="176.13" width="13.82" height="5.81"/><rect class="cls-6" x="356.87" y="190.15" width="13.82" height="5.81"/><rect class="cls-6" x="356.87" y="204.17" width="13.82" height="5.81"/><rect class="cls-6" x="356.87" y="218.19" width="13.82" height="5.81"/><rect class="cls-6" x="356.87" y="232.21" width="13.82" height="5.81"/><rect class="cls-6" x="356.87" y="246.23" width="13.82" height="5.81"/><rect class="cls-6" x="356.87" y="260.25" width="13.82" height="5.81"/><g class="cls-4"><rect class="cls-5" x="317.4" y="148.09" width="3.39" height="5.81"/></g><g class="cls-4"><rect class="cls-5" x="317.4" y="162.11" width="3.39" height="5.81"/></g><g class="cls-4"><rect class="cls-5" x="317.4" y="176.13" width="3.39" height="5.81"/></g><g class="cls-4"><rect class="cls-5" x="317.4" y="190.15" width="3.39" height="5.81"/></g><g class="cls-4"><rect class="cls-5" x="317.4" y="204.17" width="3.39" height="5.81"/></g><g class="cls-4"><rect class="cls-5" x="317.4" y="218.19" width="3.39" height="5.81"/></g><g class="cls-4"><rect class="cls-5" x="317.4" y="232.21" width="3.39" height="5.81"/></g><g class="cls-4"><rect class="cls-5" x="317.4" y="246.23" width="3.39" height="5.81"/></g><g class="cls-4"><rect class="cls-5" x="317.4" y="260.25" width="3.39" height="5.81"/></g><g class="cls-4"><rect class="cls-5" x="337.14" y="148.09" width="3.36" height="5.81"/></g><g class="cls-4"><rect class="cls-5" x="337.14" y="162.11" width="3.36" height="5.81"/></g><g class="cls-4"><rect class="cls-5" x="337.14" y="176.13" width="3.36" height="5.81"/></g><g class="cls-4"><rect class="cls-5" x="337.14" y="190.15" width="3.36" height="5.81"/></g><g class="cls-4"><rect class="cls-5" x="337.14" y="204.17" width="3.36" height="5.81"/></g><g class="cls-4"><rect class="cls-5" x="337.14" y="218.19" width="3.36" height="5.81"/></g><g class="cls-4"><rect class="cls-5" x="337.14" y="232.21" width="3.36" height="5.81"/></g><g class="cls-4"><rect class="cls-5" x="337.14" y="246.23" width="3.36" height="5.81"/></g><g class="cls-4"><rect class="cls-5" x="337.14" y="260.25" width="3.36" height="5.81"/></g><g class="cls-4"><rect class="cls-5" x="356.87" y="148.09" width="3.14" height="5.81"/></g><g class="cls-4"><rect class="cls-5" x="356.87" y="162.11" width="3.14" height="5.81"/></g><g class="cls-4"><rect class="cls-5" x="356.87" y="176.13" width="3.14" height="5.81"/></g><g class="cls-4"><rect class="cls-5" x="356.87" y="190.15" width="3.14" height="5.81"/></g><g class="cls-4"><rect class="cls-5" x="356.87" y="204.17" width="3.14" height="5.81"/></g><g class="cls-4"><rect class="cls-5" x="356.87" y="218.19" width="3.14" height="5.81"/></g><g class="cls-4"><rect class="cls-5" x="356.87" y="232.21" width="3.14" height="5.81"/></g><g class="cls-4"><rect class="cls-5" x="356.87" y="246.23" width="3.14" height="5.81"/></g><g class="cls-4"><rect class="cls-5" x="356.87" y="260.25" width="3.14" height="5.81"/></g><rect class="cls-3" x="405.53" y="211.45" width="83.49" height="131.72"/><rect class="cls-6" x="422.27" y="230.98" width="10.26" height="19.8"/><rect class="cls-6" x="422.27" y="260.33" width="10.26" height="19.8"/><rect class="cls-6" x="422.27" y="289.67" width="10.26" height="19.8"/><rect class="cls-6" x="422.27" y="319.02" width="10.26" height="19.8"/><rect class="cls-6" x="443.41" y="230.98" width="10.26" height="19.8"/><rect class="cls-6" x="443.41" y="260.33" width="10.26" height="19.8"/><rect class="cls-6" x="443.41" y="289.67" width="10.26" height="19.8"/><rect class="cls-6" x="443.41" y="319.02" width="10.26" height="19.8"/><rect class="cls-6" x="464.56" y="230.98" width="10.26" height="19.8"/><rect class="cls-6" x="464.56" y="260.33" width="10.26" height="19.8"/><rect class="cls-6" x="464.56" y="289.67" width="10.26" height="19.8"/><rect class="cls-6" x="464.56" y="319.02" width="10.26" height="19.8"/><polygon class="cls-3" points="165.31 238.71 83.26 238.71 83.26 245.88 85.2 245.88 85.2 343.17 162.66 343.17 162.66 245.88 165.31 245.88 165.31 238.71"/><rect class="cls-6" x="99.22" y="265.05" width="47.97" height="9.08"/><rect class="cls-6" x="99.22" y="278.51" width="47.97" height="9.08"/><rect class="cls-6" x="99.22" y="291.97" width="47.97" height="9.08"/><rect class="cls-6" x="99.22" y="305.44" width="47.97" height="9.09"/><rect class="cls-6" x="99.22" y="332.36" width="47.97" height="9.08"/><rect class="cls-6" x="99.22" y="318.9" width="47.97" height="9.08"/><rect class="cls-5" x="96.9" y="263.93" width="2.32" height="78.98"/><rect class="cls-5" x="146.03" y="264.19" width="2.32" height="78.98"/><polygon class="cls-7" points="233.42 325.19 118.54 325.19 118.54 332.37 121.33 332.37 121.33 343.17 229.27 343.17 229.27 332.37 233.42 332.37 233.42 325.19"/><polygon class="cls-3" points="361.38 283.42 361.38 217.96 287.3 217.96 287.3 283.42 256.88 283.42 256.88 343.17 391.8 343.17 391.8 283.42 361.38 283.42"/><g class="cls-8"><g class="cls-4"><rect class="cls-9" x="272.77" y="302.86" width="103.15" height="13.88"/></g><g class="cls-4"><rect class="cls-9" x="272.77" y="323.42" width="103.15" height="13.88"/></g><g class="cls-4"><rect class="cls-9" x="300.71" y="228.42" width="47.26" height="13.88"/></g><g class="cls-4"><rect class="cls-9" x="300.71" y="248.98" width="47.26" height="13.88"/></g><g class="cls-4"><rect class="cls-9" x="300.71" y="269.55" width="47.26" height="13.88"/></g><rect class="cls-9" x="297.05" y="281.95" width="54.81" height="2.95"/><rect class="cls-9" x="297.05" y="261.38" width="54.81" height="2.95"/><rect class="cls-9" x="297.05" y="240.82" width="54.81" height="2.95"/></g><rect class="cls-7" x="347.15" y="298.98" width="63.43" height="44.19"/><path class="cls-10" d="M434.3,375.7c0,2.09-74.4,3.78-166.16,3.78S138,377.79,138,375.7s38.39-3.78,130.16-3.78S434.3,373.61,434.3,375.7Z"/><path class="cls-11" d="M187.43,334.93a21.26,21.26,0,0,1,0,42.52h-5.9V334.93Z"/><path class="cls-11" d="M298.43,334.93a21.26,21.26,0,0,1,0,42.52h-5.9V334.93Z"/><path class="cls-11" d="M187.43,334.93a21.26,21.26,0,0,1,0,42.52h-5.9V334.93Z"/><path class="cls-11" d="M206.39,352.22a21.26,21.26,0,1,1,21.26,21.26A21.26,21.26,0,0,1,206.39,352.22Z"/><path class="cls-11" d="M347.06,331a21.26,21.26,0,0,1,0,42.52h-5.9V331Z"/><path class="cls-11" d="M319.9,352.22a21.27,21.27,0,1,1,21.26,21.26A21.26,21.26,0,0,1,319.9,352.22Z"/><rect class="cls-12" x="292.53" y="217.26" width="109.05" height="37.66" transform="translate(694.12 472.18) rotate(180)"/><rect class="cls-12" x="248.91" y="254.82" width="87.24" height="87.24" transform="translate(585.07 596.88) rotate(180)"/><rect class="cls-13" x="285.83" y="254.82" width="13.4" height="87.24" transform="translate(590.97 5.91) rotate(90)"/><rect class="cls-14" x="283.43" y="291.74" width="18.2" height="13.4" transform="translate(585.07 596.88) rotate(180)"/><rect class="cls-13" x="285.83" y="254.82" width="13.4" height="87.24" transform="translate(585.07 596.88) rotate(180)"/><rect class="cls-15" x="336.15" y="254.82" width="65.43" height="87.24" transform="translate(737.74 596.88) rotate(180)"/><rect class="cls-14" x="362.17" y="265.72" width="13.4" height="65.43" transform="translate(667.31 -70.43) rotate(90)"/><rect class="cls-16" x="359.5" y="291.74" width="18.2" height="13.4" transform="translate(737.21 596.88) rotate(180)"/><polygon class="cls-17" points="336.15 254.92 401.58 254.92 434.3 222.4 368.87 222.4 336.15 254.92"/><rect class="cls-14" x="361.9" y="254.82" width="13.4" height="87.24"/><polygon class="cls-16" points="361.9 254.82 375.3 254.82 407.72 222.4 394.32 222.4 361.9 254.82"/><polygon class="cls-15" points="336.15 254.82 248.91 254.82 216.2 222.1 303.44 222.1 336.15 254.82"/><polygon class="cls-14" points="299.23 254.82 285.83 254.82 253.12 222.1 266.52 222.1 299.23 254.82"/><path class="cls-10" d="M138,342.06H332a4.2,4.2,0,0,1,4.2,4.2V352a4.2,4.2,0,0,1-4.2,4.2H138a0,0,0,0,1,0,0V342.06A0,0,0,0,1,138,342.06Z" transform="translate(474.13 698.25) rotate(180)"/><path class="cls-18" d="M142.18,342.06H248.91V254.82H195.43a31.45,31.45,0,0,0-26.05,13.83l-21.81,32.29a31.39,31.39,0,0,0-5.39,17.6Z"/><path class="cls-19" d="M223.3,306.44v-41.8H195.43a21.57,21.57,0,0,0-17.91,9.51L155.7,306.44Z"/><rect class="cls-20" x="236.06" y="254.82" width="12.85" height="87.24" transform="translate(484.97 596.88) rotate(180)"/><path class="cls-11" d="M291.55,331a25.23,25.23,0,0,1,25.23,25.23H266.32A25.23,25.23,0,0,1,291.55,331Z"/><path class="cls-11" d="M180.55,331a25.22,25.22,0,0,1,25.23,25.23H155.32A25.23,25.23,0,0,1,180.55,331Z"/><path class="cls-21" d="M271.27,356.19a21.27,21.27,0,1,1,21.26,21.26A21.26,21.26,0,0,1,271.27,356.19Z"/><circle class="cls-22" cx="292.53" cy="356.19" r="10.46" transform="translate(-105.79 588.1) rotate(-80.81)"/><circle class="cls-21" cx="181.53" cy="356.19" r="21.26"/><circle class="cls-22" cx="181.53" cy="356.19" r="10.46" transform="translate(-199.07 478.53) rotate(-80.81)"/><rect class="cls-23" x="336.15" y="326.62" width="9.11" height="8.67" transform="translate(681.42 661.92) rotate(180)"/><rect class="cls-24" x="327.04" y="326.62" width="9.11" height="8.67" transform="translate(663.19 661.92) rotate(180)"/><rect class="cls-23" x="392.47" y="326.62" width="9.11" height="8.67" transform="translate(794.05 661.92) rotate(180)"/><g class="cls-25"><path class="cls-22" d="M209.58,309.94H223.3a0,0,0,0,1,0,0v1.91a2.66,2.66,0,0,1-2.66,2.66h-8.39a2.67,2.67,0,0,1-2.67-2.67v-1.91A0,0,0,0,1,209.58,309.94Z"/></g><path class="cls-19" d="M150.46,331a8.29,8.29,0,0,0-8.28-8.29v16.57A8.28,8.28,0,0,0,150.46,331Z"/><rect class="cls-26" x="331.96" y="342.06" width="73.82" height="14.13" rx="4.2" ry="4.2"/><path class="cls-22" d="M343.71,349.12a3,3,0,1,0-3,3A3,3,0,0,0,343.71,349.12Z"/><path class="cls-22" d="M348.88,349.12a1.5,1.5,0,1,0-1.5,1.5A1.5,1.5,0,0,0,348.88,349.12Z"/><path class="cls-22" d="M394,349.12a3,3,0,1,0,3-3A3,3,0,0,0,394,349.12Z"/><path class="cls-22" d="M388.85,349.12a1.51,1.51,0,1,0,1.5-1.5A1.5,1.5,0,0,0,388.85,349.12Z"/><path class="cls-27" d="M187.92,238.05h-1V14.94A15,15,0,0,1,201.85,0H370.42a15,15,0,0,1,14.94,14.94V200.49h-1V14.94A14,14,0,0,0,370.42,1H201.85a14,14,0,0,0-13.93,13.94Z"/><polygon class="cls-27" points="204.17 238.05 203.17 238.05 203.17 27.7 369.11 27.7 369.11 200.49 368.11 200.49 368.11 28.7 204.17 28.7 204.17 238.05"/><path class="cls-27" d="M318,18.06H254.31a3.71,3.71,0,0,1,0-7.42H318a3.71,3.71,0,0,1,0,7.42Zm-63.66-6.42a2.71,2.71,0,0,0,0,5.42H318a2.71,2.71,0,0,0,0-5.42Z"/><path class="cls-27" d="M335.24,18.06A3.71,3.71,0,1,1,339,14.35,3.71,3.71,0,0,1,335.24,18.06Zm0-6.42A2.71,2.71,0,1,0,338,14.35,2.71,2.71,0,0,0,335.24,11.64Z"/><path class="cls-28" d="M433.88,182s-.39-.58-1.15-1.6l.8-.59c.78,1,1.18,1.63,1.18,1.63Z"/><path class="cls-28" d="M133.52,206.59l-.06-1c1.35-.09,2.69-.19,4-.3l.08,1Q135.56,206.46,133.52,206.59Zm8-.7-.11-1c1.35-.15,2.68-.31,4-.49l.13,1C144.25,205.58,142.92,205.74,141.56,205.89Zm8-1.09-.16-1c1.34-.22,2.65-.46,3.94-.71l.19,1C152.23,204.35,150.9,204.58,149.55,204.8Zm7.92-1.53-.22-1c1.31-.3,2.62-.62,3.89-1l.25,1C160.11,202.65,158.79,203,157.47,203.27Zm7.81-2-.29-1c1.28-.38,2.56-.79,3.81-1.21l.32.94C167.86,200.43,166.57,200.85,165.28,201.23Zm7.64-2.61-.36-.93c1.26-.49,2.5-1,3.69-1.52l.4.92C175.45,197.62,174.19,198.13,172.92,198.62Zm7.4-3.23-.44-.89c1.21-.6,2.4-1.22,3.54-1.85l.48.88C182.75,194.16,181.55,194.79,180.32,195.39Zm7.07-3.9-.52-.85c1.12-.7,2.24-1.43,3.34-2.18l.57.82C189.67,190,188.53,190.79,187.39,191.49ZM194,186.9l-.61-.79c1.06-.81,2.1-1.66,3.1-2.52l.65.76C196.17,185.22,195.11,186.08,194,186.9Zm6.14-5.25-.69-.73c1-.91,1.91-1.86,2.83-2.82l.72.69C202.12,179.76,201.16,180.72,200.18,181.65Zm230.08-4.42c-.82-1-1.7-2-2.59-3.06l.75-.66c.9,1,1.79,2.07,2.62,3.09Zm-224.5-1.44-.76-.65c.85-1,1.71-2,2.54-3.09l.78.62C207.49,173.73,206.62,174.78,205.76,175.79ZM425,171.2c-.91-1-1.85-1.93-2.8-2.87l.71-.71c.95.95,1.9,1.92,2.82,2.9Zm-214.22-1.77-.82-.58c.76-1.06,1.53-2.17,2.27-3.3l.83.55C212.28,167.24,211.51,168.36,210.75,169.43Zm208.53-3.87c-1-.91-2-1.81-3-2.67l.66-.76c1,.87,2,1.77,3,2.69ZM215.2,162.68l-.86-.52c.7-1.15,1.38-2.3,2-3.45l.87.49Q216.25,160.94,215.2,162.68Zm98.53-.48c-.42,0-.83,0-1.24,0l.05-1c.39,0,.76,0,1.19,0,.9,0,1.82,0,2.75-.14l.1,1C315.62,162.15,314.66,162.2,313.73,162.2Zm-5.29-.56a22.38,22.38,0,0,1-3.9-1.24l.39-.92a21.86,21.86,0,0,0,3.73,1.18Zm12.17-.25-.22-1c1.23-.28,2.52-.64,3.82-1.07l.32.95C323.19,160.73,321.87,161.1,320.61,161.39Zm92.58-1c-1.06-.84-2.13-1.66-3.19-2.43l.59-.81c1.07.78,2.15,1.61,3.22,2.45Zm-84.86-1.48-.39-.92c1.18-.5,2.4-1.06,3.63-1.66l.45.89C330.77,157.79,329.53,158.36,328.33,158.86Zm-27.41-.36a27.81,27.81,0,0,1-3.29-2.43l.65-.76a29.1,29.1,0,0,0,3.17,2.35Zm-81.73-2.84-.88-.47c.64-1.19,1.26-2.38,1.87-3.56l.89.46C220.46,153.27,219.84,154.47,219.19,155.66Zm187.52,0c-1.12-.74-2.26-1.46-3.38-2.13l.51-.86c1.14.68,2.29,1.41,3.43,2.16Zm-71.11-.34-.49-.87c1-.57,2.05-1.18,3.08-1.81l.37-.23.52.86-.37.22C337.67,154.09,336.62,154.71,335.6,155.28Zm-40.91-2c-.87-.92-1.77-2-2.65-3.08l.78-.62c.87,1.1,1.74,2.11,2.6,3Zm105.16-1.73c-1.19-.63-2.39-1.24-3.58-1.79l.42-.91c1.21.57,2.42,1.17,3.63,1.81Zm-57.3-.27-.47-.88c1.2-.65,2.42-1.26,3.63-1.82l.42.91C344.94,150,343.74,150.61,342.55,151.25Zm-119.67-2.76L222,148l1.78-3.61.9.44C224.08,146.06,223.49,147.27,222.88,148.49Zm169.72-.35c-1.24-.49-2.5-.95-3.75-1.36l.31-.95c1.27.42,2.55.88,3.81,1.39Zm-42.8-.25-.37-.93c1.27-.5,2.55-1,3.82-1.37l.31.95C352.31,146.94,351,147.39,349.8,147.89Zm-60.19-1c-.72-1-1.46-2.13-2.26-3.36l.84-.54c.79,1.22,1.52,2.31,2.24,3.33ZM385,145.65c-1.29-.34-2.6-.63-3.89-.88l.18-1c1.32.25,2.65.55,4,.89Zm-27.63-.2-.24-1c1.32-.33,2.65-.61,4-.85l.18,1C360,144.85,358.69,145.12,357.39,145.45Zm19.8-1.28c-1.32-.16-2.66-.27-4-.32l.05-1c1.34.06,2.7.17,4,.33Zm-11.94-.1-.11-1c1.35-.14,2.71-.23,4.06-.27l0,1C367.9,143.85,366.56,143.94,365.25,144.07Zm-138.8-2.81-.9-.44c.61-1.23,1.22-2.43,1.83-3.61l.88.46C227.66,138.84,227.06,140,226.45,141.26Zm58.75-1.11c-.64-1-1.27-2.07-1.9-3.1l-.21-.35.85-.52.22.35q.93,1.54,1.89,3.09Zm-55-6-.88-.48c.71-1.28,1.37-2.42,2-3.5l.86.52C231.5,131.74,230.85,132.87,230.15,134.13Zm50.83-.86c-.71-1.15-1.43-2.28-2.16-3.38l.83-.55c.74,1.11,1.46,2.25,2.18,3.4Zm-46.64-5.94-.82-.58c.82-1.16,1.65-2.24,2.48-3.22l.76.65C236,125.13,235.14,126.19,234.34,127.33Zm42.19-.73c-.84-1.16-1.65-2.18-2.46-3.14l.76-.65c.83,1,1.65,2,2.51,3.2Zm-37-5.29-.69-.73A28.66,28.66,0,0,1,242,118l.57.82A26.61,26.61,0,0,0,239.48,121.31Zm31.87-.74a27.22,27.22,0,0,0-3.05-2.5l.58-.82a28.21,28.21,0,0,1,3.16,2.6Zm-25.43-3.68-.42-.9a24.44,24.44,0,0,1,3.81-1.42l.27,1A24.26,24.26,0,0,0,245.92,116.89Zm19-.76a18.8,18.8,0,0,0-3.7-1.2l.21-1a19.53,19.53,0,0,1,3.9,1.27Zm-11.5-1.36-.12-1a32.82,32.82,0,0,1,4-.24v1h0A33,33,0,0,0,253.41,114.77Z"/><path class="cls-28" d="M127,206.9l0-1,2-.07,0,1Z"/><path class="cls-29" d="M439,181.7a4.66,4.66,0,1,0-4.66,4.66A4.66,4.66,0,0,0,439,181.7Z"/><path class="cls-29" d="M443.16,147.85a12.53,12.53,0,0,0-20.05,14.49h0l0,.09a12.7,12.7,0,0,0,.65,1.13l10.5,18.14,10.49-18.13a13,13,0,0,0,.66-1.14l.05-.09h0A12.54,12.54,0,0,0,443.16,147.85Zm-8.86,14.77a5.91,5.91,0,1,1,5.91-5.91A5.9,5.9,0,0,1,434.3,162.62Z"/><path class="cls-29" d="M257.77,114a4.66,4.66,0,1,0-4.65,4.66A4.66,4.66,0,0,0,257.77,114Z"/><path class="cls-29" d="M262,80.19a12.53,12.53,0,0,0-20.05,14.48h0l.05.08a12.86,12.86,0,0,0,.65,1.14L253.12,114,263.61,95.9a13,13,0,0,0,.66-1.14l.05-.08h0A12.52,12.52,0,0,0,262,80.19ZM253.12,95A5.91,5.91,0,1,1,259,89.05,5.91,5.91,0,0,1,253.12,95Z"/><path class="cls-29" d="M131.64,206.4a4.66,4.66,0,1,0-4.66,4.66A4.66,4.66,0,0,0,131.64,206.4Z"/><path class="cls-29" d="M135.84,172.55a12.53,12.53,0,0,0-20,14.48h0l0,.08a13,13,0,0,0,.66,1.14L127,206.4l10.49-18.14a13,13,0,0,0,.66-1.14l.05-.08h0A12.52,12.52,0,0,0,135.84,172.55ZM127,187.32a5.91,5.91,0,1,1,5.91-5.91A5.91,5.91,0,0,1,127,187.32Z"/><rect class="cls-29" x="433.04" y="28.27" width="1" height="13.47"/><rect class="cls-29" x="426.8" y="34.51" width="13.47" height="1"/><rect class="cls-29" x="457.75" y="22.73" width="1" height="11.09"/><rect class="cls-29" x="452.71" y="27.77" width="11.09" height="1"/><rect class="cls-29" x="448.52" y="7.31" width="1" height="7.39"/><rect class="cls-29" x="445.32" y="10.51" width="7.39" height="1"/><rect class="cls-29" x="439.78" y="49.52" width="1" height="4.55"/><rect class="cls-29" x="438" y="51.29" width="4.55" height="1"/><rect class="cls-30" x="27.91" y="300.28" width="1" height="13.48"/><rect class="cls-30" x="21.67" y="306.52" width="13.47" height="1"/><rect class="cls-30" x="3.19" y="307.02" width="1" height="7.39"/><rect class="cls-30" y="310.21" width="7.39" height="1"/><rect class="cls-30" x="18.89" y="284.91" width="1" height="4.55"/><rect class="cls-30" x="17.11" y="286.69" width="4.55" height="1"/><rect class="cls-31" x="99.4" y="51.67" width="17.23" height="1"/><rect class="cls-31" x="107.51" y="43.55" width="1" height="17.23"/><rect class="cls-31" x="111.44" y="76.02" width="10.38" height="1"/><rect class="cls-31" x="116.13" y="71.33" width="1" height="10.38"/><rect class="cls-31" x="130.6" y="67.14" width="7.39" height="1"/><rect class="cls-31" x="133.8" y="63.95" width="1" height="7.39"/><rect class="cls-31" x="88.95" y="67.14" width="4.55" height="1"/><rect class="cls-31" x="90.73" y="65.36" width="1" height="4.55"/><rect class="cls-31" x="126.05" y="44.28" width="4.55" height="1"/><rect class="cls-31" x="127.83" y="42.51" width="1" height="4.55"/><rect class="cls-28" x="449.99" y="346.53" width="5.29" height="0.39"/><rect class="cls-28" x="452.44" y="344.08" width="0.39" height="5.29"/><rect class="cls-28" x="452.64" y="356.23" width="2.9" height="0.39"/><rect class="cls-28" x="453.89" y="354.97" width="0.39" height="2.9"/><rect class="cls-28" x="443.96" y="350.07" width="1.79" height="0.39"/><rect class="cls-28" x="444.66" y="349.37" width="0.39" height="1.79"/><ellipse class="cls-32" cx="437.5" cy="353.71" rx="14.75" ry="3.91"/><ellipse class="cls-33" cx="437.5" cy="353.63" rx="13.19" ry="2.95"/><path class="cls-34" d="M424.91,354.52c1.68-1.2,6.68-2.07,12.59-2.07s10.91.87,12.59,2.07a1.17,1.17,0,0,0,.6-.89c0-1.63-5.91-2.95-13.19-2.95s-13.19,1.32-13.19,2.95A1.17,1.17,0,0,0,424.91,354.52Z"/><path class="cls-31" d="M447.89,330.2c.95-3.43-.21-6.13-1.46-9.19a17.78,17.78,0,0,1-1-9.51c.64-4.37,2.09-8.58.42-12.81-1.56-4-3.08-9.25-7.4-10.94s-7.37,2.35-7.3,6.17,2.24,7.25,1.15,11c-.82,3.08-1.9,6.74-.29,9.69,1.93,3.66,5.52,6.24,4.18,10.69-.53,1.59-1.4,2.94-1.58,4.55-.22,2.42,1,3,2.1,4.94,4.62,8.13-3.84,11.4-.52,20.33a.61.61,0,0,0,.6.4h0a.61.61,0,0,0,.57-.53c1.06-10,8.17-6.54,8.24-14.63,0-1.5-.45-3-.27-4.51C445.55,333.57,447.34,332.37,447.89,330.2Z"/><path class="cls-18" d="M442.18,338.55h0c-3.45-.58-3.9-5.26-3.9-5.31a.2.2,0,1,1,.39,0s.42,4.42,3.57,5a.2.2,0,0,1,.16.23A.18.18,0,0,1,442.18,338.55Z"/><path class="cls-18" d="M439.78,317.79h-.06c-4.37-1.41-4.66-6.61-4.66-6.66a.21.21,0,0,1,.19-.21.19.19,0,0,1,.2.19s.29,5,4.39,6.31a.2.2,0,0,1,.13.25A.21.21,0,0,1,439.78,317.79Z"/><path class="cls-18" d="M440.41,310.48a.19.19,0,0,1,0-.38c4-.77,4.21-5.88,4.21-5.93a.2.2,0,0,1,.21-.19.19.19,0,0,1,.19.2c0,.06-.26,5.48-4.54,6.3Z"/><path class="cls-18" d="M442.27,328.25a.19.19,0,0,1-.08-.37c3.2-1.41,2.27-7,2.26-7.08a.2.2,0,0,1,.16-.23.2.2,0,0,1,.23.16c0,.24,1,6-2.49,7.51Z"/><path class="cls-18" d="M438.45,346.32a.2.2,0,0,1-.2-.18.19.19,0,0,1,.18-.21c5.08-.52,5.14-5.43,5.14-5.63a.2.2,0,0,1,.2-.2.19.19,0,0,1,.19.2c0,.05-.06,5.47-5.5,6Z"/><path class="cls-18" d="M440.69,303.22h-.05c-3.27-.93-3.7-6.19-3.71-6.42a.19.19,0,0,1,.18-.21.2.2,0,0,1,.21.18c0,.05.42,5.22,3.43,6.07a.2.2,0,0,1,.13.24A.18.18,0,0,1,440.69,303.22Z"/><path class="cls-18" d="M436.81,355.55a.2.2,0,0,1-.2-.18c-.62-5.85,1.31-8.91,3-11.6a17.09,17.09,0,0,0,2.14-4.19c2-6.64.49-11.78-1.36-16.9-1.38-3.78-.71-8.66-.26-11.89.11-.81.21-1.5.25-2.05.56-7.73-.46-12.95-3-15.49a.19.19,0,0,1,0-.28.21.21,0,0,1,.28,0c2.65,2.63,3.71,7.94,3.14,15.8,0,.56-.14,1.26-.25,2.08-.44,3.19-1.1,8,.24,11.7,1.88,5.18,3.4,10.38,1.37,17.14A17.37,17.37,0,0,1,440,344c-1.75,2.77-3.56,5.63-2.95,11.35a.19.19,0,0,1-.17.22Z"/><path class="cls-35" d="M445.6,339.93a3.38,3.38,0,0,1,0,.45c0,5.31-3.13,5.65-5.54,8.08.28-1.41.35-3.17,1.3-4.32s2.42-1.39,3.46-2.77A5.38,5.38,0,0,0,445.6,339.93Zm.83-18.92a17.78,17.78,0,0,1-1-9.51l.15-.95a6.81,6.81,0,0,0-3.74,3.52c-2.33,4.95-.49,8.32,1.52,12.06,1.64,3.06.58,5.89.92,9.12a10.8,10.8,0,0,0,1.19,3.41,11.91,11.91,0,0,1-.14-2.79c.21-2.3,2-3.5,2.55-5.67C448.84,326.77,447.68,324.07,446.43,321Zm-8.73,26a7.32,7.32,0,0,1-.78-2.23c-1.05,2.76-2.23,5.62-1,9.66v0c.07.23.15.46.24.7a.83.83,0,0,0,.07.13v0a.94.94,0,0,0,.1.1h0a.63.63,0,0,0,.42.14h0a.68.68,0,0,0,.32-.11.61.61,0,0,0,.24-.38s0,0,0,0a14.2,14.2,0,0,1,.83-3.65l-.66.42C438.25,350.16,438.74,349.2,437.7,347Z"/><path class="cls-27" d="M458.76,328.42c-2.08-3.81-2.07-6.32-1.84-10.38s-1-9.7-6.12-10.62c-3.81-.7-6.91.85-8.33,3.86-2.33,5-.49,8.32,1.52,12.06,1.64,3.06.58,5.89.92,9.12s3.23,4.73.81,8.08c-1,1.39-2.42,1.62-3.46,2.77s-1,3.26-1.39,4.73c-.93,3.72-4.57,3.2-4.72,7,0,.28.21.56.41.55s.36,0,.5-.22c.85-1.52,2.26-1.29,3.84-2,1.18-.52,1.54-2,4.36-2.3,3.68-.45,7,2,8.89-3,.69-1.73.46-3.23.8-5,.35-2.31,1.85-3.69,3.35-5.31C461,334.77,460.61,331.77,458.76,328.42Z"/><path class="cls-18" d="M451.45,321.35h0c-3.45-.3-5.86-4.5-6-4.68a.19.19,0,1,1,.34-.19s2.41,4.2,5.65,4.48a.19.19,0,0,1,.18.21A.2.2,0,0,1,451.45,321.35Z"/><path class="cls-18" d="M450.47,339.42a.2.2,0,0,1-.11,0c-2.53-1.68-2.37-9.21-2.37-9.53a.2.2,0,0,1,.4,0c0,.08-.16,7.63,2.19,9.19a.2.2,0,0,1-.11.36Z"/><path class="cls-18" d="M451.76,332.69a.2.2,0,0,1-.19-.14.19.19,0,0,1,.14-.24c4-1.12,4.29-7.56,4.3-7.63a.2.2,0,0,1,.2-.18.19.19,0,0,1,.19.2,14.46,14.46,0,0,1-.67,3.52c-.8,2.42-2.15,4-3.92,4.46Z"/><path class="cls-18" d="M445.93,349.35a7.66,7.66,0,0,1-1.32-.11.2.2,0,1,1,.07-.39c5.81,1,7.92-5.15,7.94-5.22a.2.2,0,0,1,.25-.12.2.2,0,0,1,.13.25C453,343.82,451.07,349.35,445.93,349.35Z"/><path class="cls-18" d="M451.07,318.29a.21.21,0,0,1-.15-.07.2.2,0,0,1,0-.28c2.49-2.27.84-7.17.82-7.22a.21.21,0,0,1,.12-.25.2.2,0,0,1,.25.12c.08.21,1.76,5.19-.92,7.64A.19.19,0,0,1,451.07,318.29Z"/><path class="cls-18" d="M436.6,355.4h-.05a.2.2,0,0,1-.14-.24c.46-1.67,2.39-2.52,3.67-3.08a8,8,0,0,0,.92-.45c10.39-6.75,13.22-19.59,8.66-39.25a.19.19,0,0,1,.15-.23.2.2,0,0,1,.24.14c2.34,10.1,2.71,18.6,1.09,25.25A23.05,23.05,0,0,1,441.21,352a6.91,6.91,0,0,1-1,.48c-1.21.53-3,1.34-3.44,2.82A.19.19,0,0,1,436.6,355.4Z"/><path class="cls-35" d="M436.15,355c0,.28.21.56.41.55h0c.62-.47-.16-1.14.78-3.34A3.75,3.75,0,0,0,436.15,355Z"/><path class="cls-27" d="M436.84,345.87c-1.14-2.46-.06-5.62-1.19-7.42-1.38-2.24-3.68-.53-6.36-3.62-2.24-2.59-.63-6.18-5.74-8.85a2.65,2.65,0,0,0-4,1.35c-.73,1.65.43,4,1,5.61.53,1.36,1.15,2.36.89,3.86a.43.43,0,0,1,0,.05c-.3,1.16-1.06,1.77-.65,3.13.85,3.31,5.54,3,7.91,5.08,1.66,1.45.16,3.19,1.79,5.39s2.45-.19,5.37,5a.38.38,0,0,0,.52.15h0a.4.4,0,0,0,.2-.37C436.12,349.62,438.53,349.49,436.84,345.87Z"/><path class="cls-18" d="M423.83,333.48h-.06a4.41,4.41,0,0,1-2.83-3.52.19.19,0,0,1,.17-.22.2.2,0,0,1,.22.18,4,4,0,0,0,2.56,3.19.19.19,0,0,1,.13.24A.2.2,0,0,1,423.83,333.48Z"/><path class="cls-18" d="M426.48,339.31a6.22,6.22,0,0,1-4.15-2,.19.19,0,0,1,0-.27.2.2,0,0,1,.28,0s2.38,2.69,5.23,1.62a.19.19,0,0,1,.25.11.2.2,0,0,1-.11.26A4.46,4.46,0,0,1,426.48,339.31Z"/><path class="cls-18" d="M432,342a.19.19,0,0,1-.14-.05.19.19,0,0,1,0-.28c1.23-1.28-.49-4.16-.5-4.19a.2.2,0,0,1,.06-.27.2.2,0,0,1,.27.07c.08.13,1.89,3.17.45,4.66A.2.2,0,0,1,432,342Z"/><path class="cls-18" d="M433.5,348.35a.21.21,0,0,1-.16-.08.2.2,0,0,1,0-.28c1.75-1.28.73-4.86.72-4.89a.19.19,0,0,1,.14-.24.18.18,0,0,1,.24.13c0,.16,1.1,3.88-.87,5.32A.21.21,0,0,1,433.5,348.35Z"/><path class="cls-18" d="M425.94,337.1a.19.19,0,0,1-.14-.05.2.2,0,0,1,0-.28c1.25-1.3-.25-5-.27-5.09a.2.2,0,0,1,.11-.26.19.19,0,0,1,.25.11c.07.16,1.62,4,.19,5.51A.2.2,0,0,1,425.94,337.1Z"/><path class="cls-18" d="M432.75,345.13c-3.62,0-4.93-2.15-5-2.25a.2.2,0,0,1,.07-.27.21.21,0,0,1,.27.07c0,.09,1.4,2.27,5.2,2a.2.2,0,0,1,.21.19.21.21,0,0,1-.19.21Z"/><path class="cls-18" d="M434.91,351h0c-4-.58-4.44-3-4.45-3.12a.2.2,0,0,1,.16-.23.19.19,0,0,1,.22.16h0c0,.1.43,2.27,4.13,2.8a.21.21,0,0,1,.17.22A.2.2,0,0,1,434.91,351Z"/><path class="cls-18" d="M436.12,355.6a.2.2,0,0,1-.19-.19,9.35,9.35,0,0,0-1.67-5.3,5.28,5.28,0,0,1-1.11-3.24c.08-2.48-.08-4.5-2.77-6.11-5-3-7-6.18-8-12.61a.2.2,0,0,1,.16-.23.21.21,0,0,1,.23.17c1,6.29,2.94,9.41,7.84,12.34,2.87,1.71,3,3.93,3,6.45a5.09,5.09,0,0,0,1,3,9.69,9.69,0,0,1,1.73,5.48.21.21,0,0,1-.19.21Z"/><rect class="cls-28" x="71.69" y="339.98" width="8.34" height="0.62"/><rect class="cls-28" x="75.56" y="336.12" width="0.62" height="8.34"/><rect class="cls-28" x="75.86" y="355.28" width="4.57" height="0.62"/><rect class="cls-28" x="77.84" y="353.3" width="0.62" height="4.57"/><rect class="cls-28" x="62.18" y="345.56" width="2.82" height="0.62"/><rect class="cls-28" x="63.28" y="344.46" width="0.62" height="2.82"/><ellipse class="cls-32" cx="51.99" cy="351.3" rx="23.26" ry="6.17"/><ellipse class="cls-33" cx="51.99" cy="351.19" rx="20.8" ry="4.65"/><path class="cls-34" d="M32.14,352.58c2.65-1.89,10.54-3.26,19.85-3.26s17.2,1.37,19.85,3.26a1.84,1.84,0,0,0,1-1.39c0-2.57-9.31-4.66-20.8-4.66s-20.8,2.09-20.8,4.66A1.86,1.86,0,0,0,32.14,352.58Z"/><path class="cls-31" d="M68.38,314.23c1.5-5.4-.33-9.67-2.31-14.49a28.07,28.07,0,0,1-1.56-15c1-6.88,3.3-13.52.67-20.19-2.47-6.3-4.86-14.6-11.67-17.25C46.89,244.47,41.88,251,42,257s3.53,11.44,1.82,17.38c-1.29,4.86-3,10.62-.45,15.28,3,5.78,8.69,9.84,6.58,16.86-.84,2.51-2.2,4.64-2.49,7.18-.34,3.81,1.58,4.75,3.31,7.79,7.29,12.81-6.06,18-.82,32.05a1,1,0,0,0,1,.63h0a.93.93,0,0,0,.89-.83c1.67-15.74,12.89-10.32,13-23.07,0-2.37-.71-4.76-.43-7.12C64.69,319.54,67.5,317.66,68.38,314.23Z"/><path class="cls-18" d="M59.37,327.41h0c-5.44-.92-6.14-8.3-6.15-8.37a.33.33,0,0,1,.29-.34.3.3,0,0,1,.33.28c0,.07.67,7,5.63,7.82a.31.31,0,0,1,.25.36A.3.3,0,0,1,59.37,327.41Z"/><path class="cls-18" d="M55.59,294.67l-.1,0c-6.88-2.22-7.34-10.42-7.34-10.5a.31.31,0,1,1,.61,0c0,.07.45,7.85,6.92,9.94a.32.32,0,0,1,.2.39A.3.3,0,0,1,55.59,294.67Z"/><path class="cls-18" d="M56.57,283.14a.31.31,0,0,1-.3-.25.31.31,0,0,1,.25-.36c6.26-1.21,6.64-9.27,6.64-9.35a.32.32,0,0,1,.32-.3.31.31,0,0,1,.3.32c0,.09-.4,8.64-7.15,9.94Z"/><path class="cls-18" d="M59.51,311.17a.3.3,0,0,1-.28-.19.31.31,0,0,1,.16-.41c5-2.22,3.58-11.07,3.57-11.16a.31.31,0,1,1,.61-.11c.06.39,1.55,9.43-3.93,11.84A.31.31,0,0,1,59.51,311.17Z"/><path class="cls-18" d="M53.48,339.65a.31.31,0,0,1,0-.62c8-.8,8.12-8.55,8.12-8.88a.31.31,0,0,1,.61,0c0,.09-.1,8.64-8.67,9.5Z"/><path class="cls-18" d="M57,271.7l-.08,0c-5.16-1.45-5.83-9.76-5.86-10.11a.3.3,0,0,1,.28-.33.31.31,0,0,1,.34.28c0,.08.66,8.23,5.4,9.57a.31.31,0,0,1,.22.38A.32.32,0,0,1,57,271.7Z"/><path class="cls-18" d="M50.9,354.21a.3.3,0,0,1-.3-.28c-1-9.24,2-14.05,4.74-18.3A26.6,26.6,0,0,0,58.71,329c3.15-10.47.78-18.58-2.15-26.64-2.16-6-1.11-13.66-.41-18.75.18-1.27.33-2.38.4-3.24.88-12.19-.72-20.41-4.78-24.42a.31.31,0,0,1,.44-.44c4.19,4.14,5.86,12.52,5,24.9-.08.89-.23,2-.4,3.28-.69,5-1.74,12.64.37,18.46,3,8.16,5.36,16.37,2.16,27A27.27,27.27,0,0,1,55.86,336c-2.76,4.37-5.62,8.88-4.65,17.9a.31.31,0,0,1-.27.35Z"/><path class="cls-35" d="M64.77,329.58c0,.24,0,.48,0,.71-.08,8.37-4.94,8.91-8.74,12.74.44-2.23.55-5,2-6.82s3.82-2.18,5.46-4.37A8.31,8.31,0,0,0,64.77,329.58Zm1.3-29.84a28.07,28.07,0,0,1-1.56-15l.24-1.49a10.72,10.72,0,0,0-5.89,5.54c-3.69,7.82-.78,13.12,2.39,19,2.58,4.83.91,9.29,1.45,14.38a17,17,0,0,0,1.88,5.38,18.19,18.19,0,0,1-.22-4.41c.33-3.63,3.14-5.51,4-8.94C69.88,308.83,68.05,304.56,66.07,299.74ZM52.32,340.69a10.81,10.81,0,0,1-1.24-3.52c-1.67,4.36-3.52,8.88-1.53,15.24l0,0c.11.36.23.73.37,1.1a1.28,1.28,0,0,0,.11.2l0,0a.8.8,0,0,0,.15.17h0a1,1,0,0,0,.66.22h0a1,1,0,0,0,.5-.17.93.93,0,0,0,.38-.61.09.09,0,0,0,0-.05,21.63,21.63,0,0,1,1.32-5.75l-1.05.65C53.17,345.71,54,344.2,52.32,340.69Z"/><path class="cls-27" d="M85.52,311.43c-3.28-6-3.27-10-2.91-16.38C83,288.5,81,279.76,73,278.31c-6-1.1-10.89,1.34-13.12,6.08-3.69,7.82-.79,13.12,2.38,19,2.59,4.83.91,9.29,1.46,14.38s5.1,7.46,1.27,12.74c-1.63,2.19-3.82,2.55-5.46,4.37-1.63,2-1.6,5.14-2.18,7.46-1.47,5.87-7.21,5-7.45,11,0,.45.34.89.65.87s.56,0,.78-.35c1.35-2.39,3.58-2,6.07-3.12,1.85-.82,2.42-3.11,6.87-3.64,5.8-.71,11.1,3.09,14-4.74,1.09-2.73.73-5.09,1.27-7.82.55-3.64,2.92-5.83,5.28-8.38C89,321.44,88.43,316.71,85.52,311.43Z"/><path class="cls-18" d="M74,300.28h0c-5.44-.46-9.24-7.09-9.4-7.37a.31.31,0,0,1,.54-.3c0,.06,3.8,6.62,8.91,7.06a.31.31,0,0,1,.29.33A.32.32,0,0,1,74,300.28Z"/><path class="cls-18" d="M72.44,328.78a.27.27,0,0,1-.17-.06c-4-2.64-3.74-14.51-3.73-15a.3.3,0,0,1,.32-.3.31.31,0,0,1,.3.32c0,.12-.25,12,3.45,14.49a.31.31,0,0,1,.09.43A.31.31,0,0,1,72.44,328.78Z"/><path class="cls-18" d="M74.48,318.16a.31.31,0,0,1-.3-.22.32.32,0,0,1,.22-.39c6.27-1.75,6.77-11.91,6.77-12a.34.34,0,0,1,.33-.3.3.3,0,0,1,.29.32,22.67,22.67,0,0,1-1.05,5.55c-1.25,3.82-3.39,6.26-6.18,7Z"/><path class="cls-18" d="M65.28,344.44a12.6,12.6,0,0,1-2.07-.18.31.31,0,0,1-.25-.36.3.3,0,0,1,.35-.25c9.16,1.56,12.5-8.13,12.53-8.23a.31.31,0,0,1,.39-.2.32.32,0,0,1,.2.39C76.4,335.71,73.39,344.44,65.28,344.44Z"/><path class="cls-18" d="M73.38,295.45a.32.32,0,0,1-.22-.1.3.3,0,0,1,0-.44c3.92-3.6,1.32-11.32,1.29-11.39a.31.31,0,1,1,.58-.21c.12.34,2.77,8.19-1.46,12.06A.32.32,0,0,1,73.38,295.45Z"/><path class="cls-18" d="M50.58,354h-.09a.31.31,0,0,1-.21-.38c.71-2.63,3.76-4,5.77-4.86a11.18,11.18,0,0,0,1.46-.71c16.38-10.65,20.85-30.89,13.66-61.89a.31.31,0,0,1,.61-.14c3.69,15.92,4.27,29.32,1.72,39.81-2.4,9.9-7.67,17.55-15.66,22.74a11.61,11.61,0,0,1-1.54.76c-1.9.84-4.79,2.1-5.43,4.45A.3.3,0,0,1,50.58,354Z"/><path class="cls-35" d="M49.86,353.35c0,.45.34.89.65.87h.05c1-.73-.26-1.78,1.22-5.26A6,6,0,0,0,49.86,353.35Z"/><path class="cls-27" d="M51,339c-1.8-3.88-.1-8.87-1.87-11.7-2.18-3.54-5.81-.85-10-5.71-3.54-4.09-1-9.75-9-14-2.47-1.29-5.32-.66-6.28,2.12-1.15,2.61.67,6.35,1.52,8.86.83,2.13,1.81,3.72,1.39,6.09,0,0,0,.05,0,.07-.47,1.82-1.68,2.79-1,4.94,1.34,5.21,8.74,4.75,12.47,8,2.63,2.29.26,5,2.84,8.51s3.86-.3,8.45,7.84a.62.62,0,0,0,.83.23h0a.6.6,0,0,0,.31-.58C49.82,344.86,53.61,344.66,51,339Z"/><path class="cls-18" d="M30.44,319.4h-.1a6.94,6.94,0,0,1-4.46-5.55.3.3,0,0,1,.27-.34.3.3,0,0,1,.34.27,6.22,6.22,0,0,0,4.05,5,.31.31,0,0,1-.1.6Z"/><path class="cls-18" d="M34.62,328.59c-3.75,0-6.51-3.13-6.54-3.17a.3.3,0,0,1,0-.43.31.31,0,0,1,.44,0s3.75,4.24,8.24,2.55a.32.32,0,0,1,.4.19.3.3,0,0,1-.18.39A6.78,6.78,0,0,1,34.62,328.59Z"/><path class="cls-18" d="M43.25,332.77a.3.3,0,0,1-.21-.09.3.3,0,0,1,0-.43c1.94-2-.76-6.57-.79-6.61a.31.31,0,1,1,.53-.32c.12.2,3,5,.71,7.36A.33.33,0,0,1,43.25,332.77Z"/><path class="cls-18" d="M45.68,342.85a.3.3,0,0,1-.25-.13.31.31,0,0,1,.07-.43c2.76-2,1.15-7.66,1.14-7.72a.3.3,0,0,1,.21-.38.31.31,0,0,1,.38.21c.07.25,1.74,6.12-1.37,8.39A.3.3,0,0,1,45.68,342.85Z"/><path class="cls-18" d="M33.76,325.12a.3.3,0,0,1-.21-.09.3.3,0,0,1,0-.43c2-2.05-.4-8-.42-8a.31.31,0,1,1,.57-.23c.11.26,2.54,6.37.3,8.7A.33.33,0,0,1,33.76,325.12Z"/><path class="cls-18" d="M44.51,337.78c-5.71,0-7.79-3.4-7.88-3.55a.31.31,0,0,1,.54-.31c.08.14,2.21,3.57,8.2,3.22a.3.3,0,0,1,.32.29.3.3,0,0,1-.29.32Z"/><path class="cls-18" d="M47.91,347.05h0c-6.31-.91-7-4.76-7-4.93a.3.3,0,0,1,.25-.35.32.32,0,0,1,.36.25h0c0,.15.67,3.58,6.51,4.42a.31.31,0,0,1,.26.35A.31.31,0,0,1,47.91,347.05Z"/><path class="cls-18" d="M49.82,354.28a.32.32,0,0,1-.31-.3,14.56,14.56,0,0,0-2.63-8.34,8.35,8.35,0,0,1-1.74-5.12c.11-3.9-.14-7.09-4.37-9.63-7.92-4.73-11.11-9.75-12.67-19.89a.32.32,0,0,1,.26-.36.31.31,0,0,1,.35.26c1.52,9.93,4.65,14.84,12.37,19.46,4.52,2.7,4.79,6.21,4.67,10.18a7.86,7.86,0,0,0,1.66,4.77A15.32,15.32,0,0,1,50.13,354a.31.31,0,0,1-.3.32Z"/></g></g></g></svg>