<?xml version="1.0" encoding="UTF-8"?>
<svg width="1440px" height="807px" viewBox="0 0 1440 807" version="1.1" xmlns="http://www.w3.org/2000/svg" xmlns:xlink="http://www.w3.org/1999/xlink">
    <!-- Generator: Sketch 49.3 (51167) - http://www.bohemiancoding.com/sketch -->
    <title>Hero 2@2x</title>
    <desc>Created with Sketch.</desc>
    <defs>
        <linearGradient x1="85.7476128%" y1="109.37882%" x2="37.828776%" y2="16.3713898%" id="linearGradient-1">
            <stop stop-color="#6EFFC3" offset="0%"></stop>
            <stop stop-color="#5A95FF" offset="100%"></stop>
        </linearGradient>
        <rect id="path-2" x="0" y="0" width="1440" height="807"></rect>
        <linearGradient x1="-5.21418101%" y1="13.6219909%" x2="55.3845434%" y2="69.7006147%" id="linearGradient-4">
            <stop stop-color="#6EFFC3" offset="0%"></stop>
            <stop stop-color="#5A95FF" offset="100%"></stop>
        </linearGradient>
        <linearGradient x1="33.3967247%" y1="8.25424787%" x2="87.1069562%" y2="81.9462991%" id="linearGradient-5">
            <stop stop-color="#6EFFC3" offset="0%"></stop>
            <stop stop-color="#5A95FF" offset="100%"></stop>
        </linearGradient>
        <path d="M689.928942,168.793395 C851.940126,345.836335 853.720365,666.751257 681.681576,738.994866 C595.305781,772.648609 485.997578,736.357146 380.440548,714.927984 C273.13026,696.702319 169.396632,690.38428 91.5243368,634.327259 C10.1832465,579.612399 -15.7379755,471.711272 8.98152986,368.574713 C31.1674544,263.996105 70.4015353,160.400986 127.99208,88.4811861 C233.148508,-56.5079457 519.808735,-17.3218427 689.928942,168.793395 Z" id="path-6"></path>
        <path d="M22.1920476,396.260602 C16.119398,396.260602 11.1959184,391.315993 11.1959184,385.215742 L11.1959184,19.695297 C11.1959184,13.5965868 16.119398,8.6519782 22.1920476,8.6519782 L190.528867,8.6519782 C196.603051,8.6519782 201.526531,13.5965868 201.526531,19.695297 L201.526531,385.215742 C201.526531,391.315993 196.603051,396.260602 190.528867,396.260602 L22.1920476,396.260602 Z" id="path-8"></path>
        <polygon id="path-10" points="0.479058186 0.412660359 42.3366316 0.412660359 42.3366316 14.6869593 0.479058186 14.6869593"></polygon>
        <filter x="-202.9%" y="-136.5%" width="506.2%" height="508.2%" filterUnits="objectBoundingBox" id="filter-12">
            <feOffset dx="0" dy="32" in="SourceAlpha" result="shadowOffsetOuter1"></feOffset>
            <feGaussianBlur stdDeviation="27" in="shadowOffsetOuter1" result="shadowBlurOuter1"></feGaussianBlur>
            <feColorMatrix values="0 0 0 0 0   0 0 0 0 0   0 0 0 0 0  0 0 0 0.252774004 0" type="matrix" in="shadowBlurOuter1" result="shadowMatrixOuter1"></feColorMatrix>
            <feMerge>
                <feMergeNode in="shadowMatrixOuter1"></feMergeNode>
                <feMergeNode in="SourceGraphic"></feMergeNode>
            </feMerge>
        </filter>
        <polygon id="path-13" points="0.268653385 0.265096856 46.9004811 0.265096856 46.9004811 46.6478037 0.268653385 46.6478037"></polygon>
        <polygon id="path-15" points="9.12960785e-05 0.247619737 47.8662646 0.247619737 47.8662646 41 9.12960785e-05 41"></polygon>
        <polygon id="path-17" points="0 0.73943943 170.974318 0.73943943 170.974318 90.29698 0 90.29698"></polygon>
        <polygon id="path-19" points="0.699134967 0.379984383 147.79336 0.379984383 147.79336 78.9187886 0.699134967 78.9187886"></polygon>
    </defs>
    <g id="Page-1" stroke="none" stroke-width="1" fill="none" fill-rule="evenodd">
        <g id="Desktop-HD">
            <g id="Hero-2">
                <mask id="mask-3" fill="white">
                    <use xlink:href="#path-2"></use>
                </mask>
                <use id="Rectangle-7" fill="url(#linearGradient-1)" opacity="0.89232337" xlink:href="#path-2"></use>
                <g id="Group-14" mask="url(#mask-3)">
                    <g transform="translate(685.000000, 64.000000)">
                        <g id="Hero">
                            <path d="M708.467162,405.142559 C703.788391,195.672409 548.936357,36.1702067 386.76881,70.4937633 C302.540419,84.576067 190.592024,107.969723 111.058192,161.819361 C30.6401827,213.387035 -17.3685267,295.410689 5.86217309,373.976111 C25.8508903,451.506414 97.8744803,502.509479 161.57207,572.168184 C229.022149,636.778339 288.135701,720.044135 369.006324,745.672704 C533.273792,793.433968 713.045936,604.501492 708.467162,405.142559" id="Combined-Shape" fill="url(#linearGradient-4)" opacity="0.607959692"></path>
                            <g id="Group-6" transform="translate(36.064067, 0.000000)">
                                <mask id="mask-7" fill="white">
                                    <use xlink:href="#path-6"></use>
                                </mask>
                                <use id="Mask" fill="url(#linearGradient-5)" transform="translate(405.542869, 376.576231) rotate(180.000000) translate(-405.542869, -376.576231) " xlink:href="#path-6"></use>
                                <g id="Group-5" mask="url(#mask-7)">
                                    <g transform="translate(54.914905, 399.055658) scale(-1, 1) rotate(15.000000) translate(-54.914905, -399.055658) translate(-14.085095, 244.555658)" id="Group">
                                        <g transform="translate(67.690957, 77.221981) rotate(-28.000000) translate(-67.690957, -77.221981) translate(39.690957, 4.721981)">
                                            <path d="M53.5894175,69.2405369 C52.5443013,75.0737457 51.0512783,80.7573851 49.2596506,86.2914549 C45.3777906,98.4065809 39.8536052,110.072998 34.3294199,121.589847 C31.492676,127.572625 19.6977938,141.482584 13.4270969,144.174834 C14.1736084,128.470042 14.1736084,110.222568 12.3819807,94.3682056 C10.590353,79.1121211 16.1145384,67.5952729 10.1424461,53.3861746 C9.39593458,51.5913411 8.64942305,49.7965076 7.7536092,48.0016742 C4.76756306,41.2710486 1.78151692,34.5404231 0.885703077,27.2115198 C-0.30871538,18.087783 2.52802846,7.46835156 10.4410507,2.68212897 C16.1145384,-0.757968522 23.5796538,-0.608399066 29.7010483,2.08385114 C35.8224429,4.77610135 40.7494191,9.71189341 44.4819768,15.2459633 C55.0824406,30.9507562 56.8740682,50.9930633 53.5894175,69.2405369 Z" id="Shape" fill="#236DDB" fill-rule="nonzero"></path>
                                            <path d="M25.8191884,18.5364913 C37.4647683,35.1387009 38.5098845,54.2835913 39.5550006,74.6250374 C40.6001168,94.8169139 35.6731406,115.307929 25.6698861,132.957125" id="Shape" stroke="#0B43A4" stroke-linecap="round" stroke-linejoin="round"></path>
                                        </g>
                                        <g transform="translate(62.429905, 233.021914) rotate(-62.000000) translate(-62.429905, -233.021914) translate(29.429905, 180.521914)">
                                            <path d="M45.5372037,87.9468402 C37.3255768,80.7675063 29.1139499,73.2890335 22.9925553,64.1652967 C17.7669745,56.2381155 14.3330215,47.2639481 9.70464996,38.8880586 C6.71860382,33.5035582 3.28465076,28.2686272 1.49302307,22.285849 C-0.298604614,16.3030707 0.149302307,9.27330628 4.32976691,4.7862226 C8.65953381,0.149569456 16.2739515,-0.598277825 22.2460438,1.79483347 C28.218136,4.18794477 32.6972053,9.27330628 36.2804606,14.6578067 C40.9088321,21.8371406 44.0441806,30.0634607 45.2385991,38.4393502 C46.4330175,46.0673925 46.1344129,53.9945737 47.3288314,61.6226159 C48.3739475,68.8019498 50.7627844,75.6821448 53.8981329,82.1136314 C56.5855744,88.0964097 63.6027828,98.5662716 65.3944105,104.698619 C60.4674344,107.390869 49.120459,91.0877988 45.5372037,87.9468402 Z" id="Shape" fill="#00AD9F" fill-rule="nonzero"></path>
                                            <path d="M16.8711607,12.8629732 C24.6348807,16.3030707 27.7702291,25.576377 29.4125545,33.9522665 C31.2041822,43.5247117 30.9055776,53.8450042 35.2353445,62.3704632 C43.4469714,78.6735339 54.1967375,97.2201465 62.1097598,102.754216" id="Shape" stroke="#047D74" stroke-linecap="round" stroke-linejoin="round"></path>
                                        </g>
                                        <g transform="translate(62.602168, 259.075731) rotate(-50.000000) translate(-62.602168, -259.075731) translate(19.102168, 233.575731)">
                                            <path d="M22.3852353,2.84181967 C15.5173292,0.149569456 6.55919075,-0.897416737 2.08012153,4.93579205 C-1.50313384,9.8715841 0.288493849,16.9013485 2.82663307,22.4354184 C4.91686537,27.221641 7.6043069,32.0078636 12.0833761,34.5505444 C15.2187246,36.3453778 18.8019799,36.7940862 22.235933,37.2427946 C31.940583,38.4393502 41.7945352,39.037628 51.6484875,38.8880586 C62.9954628,38.8880586 76.8805774,43.5247117 86.2866227,50.7040456 C74.4917405,28.1190578 45.2284883,11.9655565 22.3852353,2.84181967 Z" id="Shape" fill="#0056EC" fill-rule="nonzero"></path>
                                            <path d="M10.4410507,17.4996264 C19.1005845,17.7987653 27.7601184,18.5466126 36.1210476,20.9397239 C44.6312791,23.4824046 77.3284843,38.4393502 82.4047628,44.8708368" id="Shape" stroke="#0B43A4" stroke-linecap="round" stroke-linejoin="round"></path>
                                        </g>
                                        <g transform="translate(0.707139, 123.873661)">
                                            <path d="M113.768358,109.185703 C104.959522,95.2757436 89.7306866,85.5537289 73.4567351,83.4597565 C61.3632482,81.8144925 48.9711567,84.0580343 37.1762745,81.5153536 C24.6348807,78.8231034 13.4372076,70.8959222 6.86790613,59.8277825 C0.298604614,48.9092122 -1.34372076,35.1488222 2.38883691,22.8841268 C5.22558075,13.6108205 11.4962776,4.7862226 20.7530207,1.79483347 C25.8292991,0.149569456 31.3534845,0.448708368 36.4297629,1.64526402 C41.2074368,2.84181967 45.5372037,4.7862226 49.568366,7.32890335 C58.825109,13.1621121 66.2902244,22.285849 71.963712,31.8582942 C77.0399905,40.6828921 89.7306866,54.2937126 98.3902204,63.1183105 C103.466499,68.3532415 107.049754,71.7933389 107.049754,71.7933389 C113.021846,79.2718117 110.334405,100.361105 113.768358,109.185703 Z" id="Shape" fill="#52D2BC" fill-rule="nonzero"></path>
                                            <path d="M18.0655792,28.7173356 C47.0302267,41.7298783 78.5330135,58.9303657 98.9874296,83.1606176" id="Shape" stroke="#00AD9F" stroke-linecap="round" stroke-linejoin="round"></path>
                                        </g>
                                        <g transform="translate(69.242687, 138.758419) rotate(-26.000000) translate(-69.242687, -138.758419) translate(36.242687, 49.758419)">
                                            <path d="M63.0055736,177.827962 C63.0055736,177.827962 19.8572068,142.828709 10.8990684,105.286776 C20.1558115,111.119985 27.6209268,120.243721 33.2944145,129.816167 C38.3706929,138.640765 51.061389,152.251585 59.7209228,161.076183 C60.6167367,165.862406 61.8111551,171.246906 63.0055736,177.827962 Z" id="Shape" fill="#5275A0" fill-rule="nonzero" opacity="0.2"></path>
                                            <path d="M64.9465036,38.5787984 C61.0646436,50.6939244 55.5404582,62.360342 50.0162729,73.8771901 C47.179529,79.8599683 35.3846468,93.7699278 29.1139499,96.462178 C29.8604614,80.7573851 29.8604614,62.5099114 28.0688337,46.6555491 C26.2772061,31.3994645 31.8013914,19.8826164 25.8292991,5.67351809 C25.0827876,3.87868462 24.3362761,2.08385114 23.4404622,0.289017671 C24.0376714,0.438587127 24.4855784,0.588156583 25.0827876,0.887295495 C34.9367399,5.07524027 39.4158091,15.5451022 40.3116229,25.5662558 C41.0581345,33.9421453 39.5651114,42.3180348 38.3706929,50.5443549 C37.922786,54.4331608 37.4748791,58.3219666 38.2213906,62.0612031 C38.2213906,62.0612031 38.2213906,62.2107725 38.2213906,62.2107725 C39.2665068,66.6978562 45.8358083,66.3987173 46.5823198,61.9116336 L49.2697613,48.0016742 C50.0162729,43.8137294 50.9120867,39.4762152 54.3460398,36.6343955 C55.6897606,35.4378399 57.4813882,34.839562 59.1237136,34.839562 C62.1097598,34.839562 63.7520851,36.4848261 64.9465036,38.5787984 Z" id="Shape" fill="#5275A0" fill-rule="nonzero" opacity="0.2"></path>
                                            <path d="M63.0055736,169.003364 C56.1376675,133.405834 52.5544121,127.871764 55.5404582,119.047166 C59.4223182,107.679887 57.1827836,96.163039 60.766039,84.7957604 C64.3492944,73.2789123 66.8874336,61.0142169 63.9013874,49.3477993 C63.0055736,45.6085629 61.0646436,41.719757 56.7348767,41.5701876 C54.943249,41.5701876 53.3009236,42.1684654 51.9572029,43.365021 C48.5232498,46.2068407 47.627436,50.6939244 46.8809244,54.7322997 L44.3427852,68.6422591 C43.4469714,73.1293428 37.0269722,73.4284817 35.981856,68.941398 C35.981856,68.941398 35.981856,68.7918286 35.981856,68.7918286 C35.0860422,65.0525922 35.5339491,61.1637863 36.1311583,57.2749805 C37.1762745,48.8990909 38.8185998,40.6727708 38.0720883,32.2968813 C37.1762745,22.1261583 32.6972053,11.8058658 22.843253,7.61792102 C19.4092999,6.12222646 15.3781376,5.82308755 11.7948823,6.72050428 C1.49302307,9.41275449 -1.19441846,19.4339081 0.447906921,27.9593671 C1.49302307,33.9421453 4.32976691,39.4762152 6.86790613,45.1598545 C13.138603,58.770675 8.51023151,71.1849399 9.40604535,86.1418855 C11.64558,127.423055 63.0055736,169.003364 63.0055736,169.003364 Z" id="Shape" fill="#7EE8D4" fill-rule="nonzero"></path>
                                            <path d="M17.1697653,17.4895051 C22.2460438,42.7667432 27.3223222,68.3431202 37.1762745,92.2742332 C40.0130183,99.3039976 41.5060414,108.427734 58.0785975,127.572625" id="Shape" stroke="#00AD9F" stroke-linecap="round" stroke-linejoin="round"></path>
                                        </g>
                                    </g>
                                </g>
                            </g>
                            <g id="Group-2" transform="translate(495.823813, 75.754299)">
                                <g id="Group" transform="translate(167.821666, 377.902440) rotate(-90.000000) translate(-167.821666, -377.902440) translate(95.817658, 270.150628)">
                                    <path d="M6.40887124,174.594116 C17.7794492,155.998293 11.9907913,132.030343 15.9188092,110.748457 C19.0198759,94.2188366 28.1163383,79.1355579 41.1408186,68.5979249 C49.4103299,61.9860767 60.9876456,57.4404311 70.2908458,62.3993172 C72.3582236,63.4324185 74.6323392,64.8787603 76.6997171,63.845659 C77.9401438,63.2257982 78.3536193,61.7794565 78.5603571,60.3331147 C80.8344727,48.7623803 75.4592904,36.1585447 79.8007838,25.2076712 C82.2816372,19.422304 87.2433439,14.8766584 92.6185263,11.5707343 C102.955415,4.95888614 114.946207,1.23972153 127.350474,0.619860767 C130.658278,0.413240511 133.966083,0.619860767 136.860412,2.06620256 C142.028856,4.75226588 144.50971,11.1574938 143.889496,17.1494812 C143.269283,22.9348484 139.961478,28.1003548 136.446936,32.8526207 C124.662882,48.3491398 107.090171,61.7794565 104.816055,81.2017605 C104.609318,83.6812036 104.609318,86.1606466 105.643007,88.4334694 C106.676695,90.499672 108.744073,92.152634 109.9845,94.2188366 C113.70578,100.830685 106.676695,108.475634 99.6476109,111.781558 C93.4454774,114.880862 86.4163928,116.740444 79.594046,117.360305 C74.839077,117.773546 69.4638947,117.980166 66.1560902,121.49271 C60.1606945,128.104559 66.9830413,138.435571 65.7426146,147.320242 C64.9156635,152.898989 60.9876456,157.238015 57.0596278,160.957179 C49.6170676,167.982268 41.5542942,174.387496 32.8713073,179.966243 C25.8422227,184.511888 18.3996626,188.437673 12.1975291,194.01642 C5.99539567,199.595167 1.03368891,207.033496 0.620213346,215.298306" id="Shape" fill="#5193F4" fill-rule="nonzero"></path>
                                    <path d="M21.2939915,156.618154 C23.1546316,147.526863 27.2893872,139.262052 31.4241428,130.997242 C37.8330141,118.186786 44.4486231,105.16971 54.3720366,94.6320771 C61.8145968,86.5738871 70.9110592,80.3752795 78.5603571,72.5237097 C83.9355394,66.9449628 88.4837706,60.5397349 92.2050507,53.7212665 C94.0656907,50.0021019 95.9263308,46.076317 98.4071842,42.7703929 C101.508251,38.8446081 105.849744,36.1585447 109.571024,32.6460004 C114.532731,28.1003548 118.667487,22.5216079 121.355078,16.3230002" id="Shape" stroke="#0B43A4" stroke-linecap="round" stroke-linejoin="round"></path>
                                </g>
                                <g id="Group" transform="translate(212.773714, 491.992198) rotate(-60.000000) translate(-212.773714, -491.992198) translate(138.000320, 415.322639)">
                                    <path d="M147.390038,152.885007 C140.154216,144.620197 133.331869,136.148767 126.302784,128.090577 C121.754553,122.92507 116.999584,117.759564 111.83114,112.800678 C109.350286,110.321235 106.662695,108.048412 103.975104,105.775589 C87.6428192,92.3452725 69.2431566,80.9811584 49.8098051,72.7163482 C38.0257516,67.757462 25.6214846,63.6250569 15.4913333,55.566867 C5.56791981,47.508677 -1.66790256,34.2849806 1.63990195,22.0943855 C4.12075534,13.2097145 11.5633155,6.18462585 20.4530401,3.08532201 C29.1360269,-0.0139818218 38.8527027,0.192638434 47.7424273,2.05222074 C72.9644367,7.42434738 94.0516904,25.6069299 108.316597,47.0954365 C108.523335,47.508677 108.730073,47.9219175 109.143549,48.335158 C119.687175,64.451538 126.922998,82.2208799 133.331869,100.196842 C135.399247,105.982209 137.259887,111.974197 139.327265,117.759564 C142.221594,126.230994 151.111318,144.206957 147.390038,152.885007 Z" id="Shape" fill="#5193F4" fill-rule="nonzero"></path>
                                    <path d="M32.0303559,22.9208666 C59.5264809,28.086373 78.9598324,46.4755757 99.4268728,65.4846392 C119.893913,84.4937028 134.572296,109.701374 141.60138,136.768627" id="Shape" stroke="#0B43A4" stroke-linecap="round" stroke-linejoin="round"></path>
                                </g>
                                <g id="Group" transform="translate(204.399628, 435.571828) rotate(-90.000000) translate(-204.399628, -435.571828) translate(169.089970, 365.118720)">
                                    <path d="M20.8665157,130.156779 C20.6597779,133.049463 20.6597779,135.942146 21.2799912,138.83483 C14.4576444,137.181868 9.70267545,126.644235 6.39487094,114.86688 C3.29380421,103.502766 1.84663974,91.3121712 1.22642639,85.7334243 C0.399475262,73.7494495 1.01968861,61.7654746 3.50054199,49.9881201 C14.0441689,66.1045 21.2799912,83.873842 27.6888625,101.849804 C25.4147469,108.461652 23.5541068,114.86688 22.1069424,121.685349 C21.6934668,124.578032 21.0732534,127.264096 20.8665157,130.156779 Z" id="Shape" fill="#5275A0" fill-rule="nonzero" opacity="0.2"></path>
                                    <path d="M68.6229433,30.9790565 C66.3488277,41.3100693 60.1466942,50.1947403 54.5647741,59.2860316 C51.6704452,64.0382974 48.982854,68.9971836 46.5020006,73.9560697 C38.4392271,89.8658294 32.2370937,106.60207 28.102338,123.958172 C26.8619113,129.743539 26.0349602,135.115665 27.0686491,140.901033 C13.4239555,137.801729 8.04877319,99.3703612 7.22182206,87.7996268 C5.56791981,67.1376013 9.0824621,46.0623352 17.5587112,27.0532717 C21.2799912,18.7884614 26.0349602,10.5236512 33.4775204,5.35814483 C40.9200805,-0.0139818218 51.2569696,-1.87356412 59.1130053,2.87870176 C63.8679743,5.56476508 66.7623032,10.317031 68.2094677,15.4825374 C69.6566322,20.4414235 69.86337,25.8135501 68.6229433,30.9790565 Z" id="Shape" fill="#52D2BC" fill-rule="nonzero"></path>
                                    <path d="M21.9002046,129.536919 C13.4239555,108.461652 18.5924001,63.6250569 32.0303559,35.3180819 C36.1651115,26.8466514 41.9537694,18.7884614 50.0165429,14.0361956" id="Shape" stroke="#00AD9F" stroke-linecap="round" stroke-linejoin="round"></path>
                                </g>
                                <g id="Group" transform="translate(224.621052, 377.097865) rotate(-90.000000) translate(-224.621052, -377.097865) translate(169.925699, 301.119023)">
                                    <path d="M29.3976704,16.5156386 C27.1235548,26.8466514 20.9214213,35.7313224 15.3395012,44.8226137 C12.4451722,49.5748795 9.75758108,54.5337657 7.2767277,59.4926518 C3.55544763,53.2940441 1.07459425,46.2689555 0.247643118,39.2438668 C-0.992783573,27.2598919 3.76218541,14.4494361 13.4788612,7.21772713 C18.0270924,3.91180304 23.4022747,2.05222074 28.9841948,1.22573971 C30.4313593,5.97800559 30.6380971,11.3501322 29.3976704,16.5156386 Z" id="Shape" fill="#5275A0" fill-rule="nonzero" opacity="0.2"></path>
                                    <path d="M107.75129,106.18883 C107.131076,110.114614 105.89065,113.833779 104.236747,117.552944 C98.2413517,130.57002 85.630347,141.727514 66.6104711,150.818805 C66.6104711,150.818805 65.5767822,130.156779 65.3700444,124.784653 C64.5430933,101.229943 38.9076083,88.2128674 22.5753236,70.8567659 C14.3058123,62.1787151 8.10367883,51.0212213 6.86325214,39.0372465 C5.62282545,27.0532717 10.3777944,14.2428158 20.0944702,7.01110687 C28.3639815,1.01911946 38.9076083,-0.220602078 49.0377596,0.605878945 C65.3700444,1.84560048 81.7023292,8.66406892 91.8324805,21.4745248 C92.245956,21.8877653 92.6594316,22.507626 93.0729072,22.9208666 C99.2750406,31.392297 102.376107,41.7233098 104.856961,51.8477024 C108.784979,69.6170443 110.645619,88.2128674 107.75129,106.18883 Z" id="Shape" fill="#00AD9F" fill-rule="nonzero"></path>
                                    <path d="M27.1235548,19.8215627 C44.903004,28.912854 62.6824532,40.0703478 73.0193423,57.219829 C87.4909871,80.9811584 84.1831825,111.974197 73.2260801,137.595108" id="Shape" stroke="#00AD9F" stroke-linecap="round" stroke-linejoin="round"></path>
                                </g>
                                <g id="Group" transform="translate(204.945027, 251.518676) rotate(-90.000000) translate(-204.945027, -251.518676) translate(108.708899, 142.385431)">
                                    <path d="M22.9338935,158.890977 C22.3136801,162.816761 21.0732534,166.535926 19.4193512,170.255091 C10.7363644,151.659268 2.88032864,127.278078 1.01968861,97.5247607 C0.606213044,89.4665707 2.67359086,81.2017605 7.01508428,74.1766718 C7.42855985,74.5899123 7.84203541,75.2097731 8.25551097,75.6230136 C14.4576444,84.0944441 17.5587112,94.4254569 20.0395645,104.549849 C23.9675824,122.319191 25.8282224,140.915014 22.9338935,158.890977 Z" id="Shape" fill="#5275A0" fill-rule="nonzero" opacity="0.2"></path>
                                    <path d="M109.557024,157.857875 C128.163424,151.246027 147.596776,145.873901 164.756012,135.749508 C169.924456,132.650204 174.886163,129.13766 178.400705,124.385394 C182.121986,119.633128 184.189363,113.641141 183.56915,107.649153 C182.742199,101.657166 178.814181,95.8717986 180.261345,89.8798112 C181.088297,85.9540264 183.982626,82.8547225 186.256741,79.5487984 C191.631923,71.6972287 193.285826,61.3662159 190.391497,52.0683044 C187.497168,42.1505322 180.054608,34.2989624 175.919852,25.0010509 C172.40531,17.3561015 171.164883,8.67805074 172.40531,0.413240511 C156.693238,0.619860767 142.428331,9.09129125 126.922998,11.9839748 C115.138944,14.2567976 102.941415,13.0170761 91.1573615,15.7031394 C69.86337,20.6620256 52.4973963,39.2578486 49.1895918,60.9529754 C39.2661783,59.3000134 28.7225514,62.8125577 21.6934668,70.0442667 C14.4576444,77.8958364 10.3228888,88.84671 10.9431021,99.5909632 C15.6980711,176.866939 60.1466942,217.364509 60.1466942,217.364509 C60.1466942,217.364509 102.321202,160.337318 109.557024,157.857875 Z" id="Shape" fill="#7EE8D4" fill-rule="nonzero"></path>
                                    <g transform="translate(43.414934, 18.595823)" id="Shape" stroke="#00AD9F" stroke-linecap="round" stroke-linejoin="round">
                                        <path d="M24.1743202,138.642192 C22.3136801,119.633128 28.9292892,100.624065 36.5785871,83.0613428 C44.0211472,65.9118616 52.7041341,49.1756209 64.0747121,34.5055827 C75.6520279,19.8355445 90.3304104,7.23170895 107.489646,-1.42108547e-14"></path>
                                        <path d="M40.9200805,11.7773546 C39.0594405,28.7202155 40.2998672,49.1756209 44.8480984,65.9118616"></path>
                                        <path d="M47.9491651,59.7132539 C67.3825166,47.3160386 97.359495,39.6710891 120.307389,40.9108106"></path>
                                        <path d="M0.399475262,62.8125577 C23.7608446,72.73033 24.7945335,107.029292 25.4147469,116.740444"></path>
                                        <path d="M31.8236181,95.0453176 C49.8098051,82.2348618 75.6520279,78.3090769 94.6719038,83.0613428"></path>
                                        <path d="M80.6137346,2.89268358 C75.2385523,9.50453176 73.7913878,17.3561015 74.4116012,22.9348484"></path>
                                        <path d="M79.5800457,18.1825825 C87.849557,14.0501774 98.8066594,13.0170761 110.590713,15.9097597"></path>
                                    </g>
                                </g>
                                <g id="Group" transform="translate(145.729403, 464.921157) rotate(-90.000000) translate(-145.729403, -464.921157) translate(33.569312, 320.561358)">
                                    <path d="M32.6505692,93.7916143 C34.9246848,93.584994 49.8098051,82.6341205 55.598463,78.9149559 C57.2523653,77.8818546 58.9062675,76.8487533 59.9399564,75.1957913 C60.9736453,73.5428292 61.5938587,71.4766266 60.7669076,69.8236646 C59.7332187,67.5508418 58.0793164,65.4846392 53.737823,65.4846392 C46.2952628,65.4846392 43.6076717,67.9640823 40.0931294,71.6832469 C28.102338,83.873842 32.6505692,93.7916143 32.6505692,93.7916143 Z" id="Shape" fill="#4A49CA" fill-rule="nonzero"></path>
                                    <path d="M99.8403483,138.421589 C106.455957,141.314273 113.278304,144.206957 120.514127,143.380476 C123.201718,142.967235 126.302784,141.727514 127.129736,139.248071 C127.956687,136.975248 126.922998,134.495805 125.062358,132.842843 C123.201718,131.189881 120.927602,130.57002 118.653486,129.950159 C109.9705,127.883956 97.7729705,128.917058 89.0899837,131.396501 C89.0899837,131.396501 95.9123305,136.768627 99.8403483,138.421589 Z" id="Shape" fill="#4A49CA" fill-rule="nonzero"></path>
                                    <path d="M142.841807,42.1365503 C139.947478,40.276968 136.639674,37.797525 136.639674,34.4916009 C136.639674,30.9790565 140.154216,28.4996135 143.668758,28.2929932 C147.1833,28.2929932 150.284367,30.1525755 152.971958,32.4253983 C163.929061,42.1365503 162.688634,53.0874239 162.688634,53.0874239 C162.688634,53.0874239 146.149611,44.2027529 142.841807,42.1365503 Z" id="Shape" fill="#4A49CA" fill-rule="nonzero"></path>
                                    <path d="M151.524794,12.5898538 C149.04394,11.5567525 146.356349,10.1104107 144.909185,7.83758789 C144.082234,6.59786636 143.668758,5.15152457 144.288971,3.91180304 C145.115923,1.84560048 146.356349,-0.220602078 151.731532,0.812499201 C168.68403,3.91180304 172.40531,15.4825374 172.40531,15.4825374 C172.40531,15.4825374 156.073025,14.6560563 151.524794,12.5898538 Z" id="Shape" fill="#4A49CA" fill-rule="nonzero"></path>
                                    <path d="M201.555337,38.4173857 C208.377684,37.797525 215.406768,34.4916009 219.748262,29.1194742 C221.402164,27.0532717 222.849329,24.7804489 223.469542,22.3010058 C224.089755,19.8215627 223.469542,16.9288791 221.402164,15.0692968 C218.921311,13.0030943 215.200031,13.4163348 212.512439,15.0692968 C209.824848,16.7222589 208.170946,19.6149425 206.723782,22.507626 C205.069879,26.4334109 201.555337,38.4173857 201.555337,38.4173857 Z" id="Shape" fill="#4A49CA" fill-rule="nonzero"></path>
                                    <path d="M79.3733079,287.808034 C62.8342854,273.137996 46.2952628,258.674578 29.7562403,244.00454 C20.8665157,236.15297 11.976791,228.301401 6.39487094,217.970388 C-5.59592041,195.6554 1.22642639,166.728565 17.5587112,147.512881 C33.8909959,128.090577 57.6658408,116.726463 81.4406857,108.255032 C105.422268,99.9902219 130.230802,93.9982345 152.971958,83.047361 C167.236865,76.2288925 181.70851,65.8978797 185.42979,50.4013606 C187.703906,41.1034491 185.843266,30.9790565 180.261345,23.1274868 C174.679425,15.4825374 165.376225,10.5236512 155.866287,9.90379045" id="Shape" stroke="#0B43A4" stroke-linecap="round" stroke-linejoin="round"></path>
                                    <path d="M213.132653,22.7142463 C208.584422,36.5578034 191.01171,45.0292339 182.948937,57.0132088" id="Shape" stroke="#0B43A4" stroke-linecap="round" stroke-linejoin="round"></path>
                                    <path d="M149.870892,38.624006 C153.385434,42.3431706 157.520189,45.2358542 160.621256,49.3682593 C167.030127,57.8396898 167.650341,71.6832469 158.140403,80.3612976" id="Shape" stroke="#0B43A4" stroke-linecap="round" stroke-linejoin="round"></path>
                                    <path d="M60.5601698,116.313222 C75.2385523,127.470716 94.465166,135.115665 112.864829,135.735526" id="Shape" stroke="#0B43A4" stroke-linecap="round" stroke-linejoin="round"></path>
                                    <path d="M27.0686491,136.768627 C20.2463023,116.933083 27.6888625,93.1717535 44.4346228,80.5679179" id="Shape" stroke="#0B43A4" stroke-linecap="round" stroke-linejoin="round"></path>
                                </g>
                                <g id="Group" transform="translate(188.742362, 99.630790) rotate(-90.000000) translate(-188.742362, -99.630790) translate(89.736850, -26.079658)">
                                    <path d="M2.06737782,12.8104559 C1.24042669,10.3310128 1.24042669,7.43832921 3.10106673,5.5787469 C4.5482312,4.13240511 7.02908458,3.51254435 8.88972462,4.33902537 C23.3613693,10.7442533 21.9142049,33.4724814 21.9142049,33.4724814 C21.9142049,33.4724814 8.06277349,31.1996586 2.06737782,12.8104559 Z" id="Shape" fill="#4A49CA" fill-rule="nonzero"></path>
                                    <path d="M1.86064004,55.1676083 C-7.44256015,72.1104692 25.8422227,70.8707477 37.8330141,60.9529754 C37.8330141,60.9529754 9.92341353,40.7041904 1.86064004,55.1676083 Z" id="Shape" fill="#4A49CA" fill-rule="nonzero"></path>
                                    <path d="M44.0351475,14.0501774 C41.7610319,10.9508736 40.9340808,6.40522793 43.4149342,3.30592409 C45.2755742,1.03310128 48.376641,0.413240511 51.2709699,1.03310128 C54.1652988,1.65296205 58.3000545,4.13240511 60.1606945,6.40522793 C71.117797,20.0421648 65.9493524,33.4724814 65.9493524,33.4724814 C65.9493524,33.4724814 47.7564276,19.2156838 44.0351475,14.0501774 Z" id="Shape" fill="#4A49CA" fill-rule="nonzero"></path>
                                    <path d="M176.760803,56.2007095 C175.933852,53.5146462 176.14059,50.4153424 178.207968,48.5557601 C179.448395,47.3160386 181.309035,46.902798 183.169675,47.1094183 C184.823577,47.3160386 186.477479,47.9358993 188.131381,48.5557601 C191.439186,50.2087221 194.126777,52.8947855 195.780679,56.2007095 C199.915435,64.67214 197.021106,75.2097731 197.021106,75.2097731 C197.021106,75.2097731 178.828181,62.8125577 176.760803,56.2007095 Z" id="Shape" fill="#4A49CA" fill-rule="nonzero"></path>
                                    <path d="M134.999772,87.1937479 C129.004376,82.0282415 120.114651,80.3752795 112.878829,83.6812036 C111.018189,84.5076846 109.364287,85.5407859 108.12386,87.1937479 C105.436269,90.9129125 106.469958,96.0784189 109.157549,99.7975835 C111.84514,103.310128 115.979896,105.582951 120.114651,107.442533 C127.557211,110.748457 139.134527,111.574938 146.990563,113.43452 C146.990563,113.43452 146.990563,97.7313809 134.999772,87.1937479 Z" id="Shape" fill="#4A49CA" fill-rule="nonzero"></path>
                                    <path d="M12.6110047,16.5296205 C17.5727115,32.6460004 31.4241428,44.8365955 46.9294765,51.2418234 C62.4348101,57.8536716 79.3873082,59.5066336 96.3398063,60.5397349 C113.085567,61.5728362 130.038065,62.192697 146.37035,66.5317223 C162.289159,70.8707477 178.00123,79.7554187 184.823577,94.6320771 C193.093088,112.81466 185.857266,134.509786 174.073212,150.626166 C162.495897,166.949167 146.783825,179.966243 135.619985,196.495863 C130.45154,204.140813 126.110047,213.025484 127.143736,222.116775 C128.5909,234.30737 138.721052,243.192041 148.23099,250.83699" id="Shape" stroke="#0B43A4" stroke-linecap="round" stroke-linejoin="round"></path>
                                    <path d="M51.2709699,10.537633 C62.4348101,22.9348484 71.3245347,42.1505322 73.3919126,58.4735324" id="Shape" stroke="#0B43A4" stroke-linecap="round" stroke-linejoin="round"></path>
                                    <path d="M13.8514314,58.0602919 C20.2603026,59.7132539 26.6691739,61.3662159 33.2847829,61.3662159 C39.9003919,61.3662159 47.5496898,57.6470513 52.3046588,53.1014057" id="Shape" stroke="#0B43A4" stroke-linecap="round" stroke-linejoin="round"></path>
                                    <path d="M187.717906,57.0271906 C193.713302,62.8125577 197.227844,70.8707477 197.641319,79.1355579 C197.848057,87.4003682 193.299826,97.5247607 187.924644,103.723368" id="Shape" stroke="#0B43A4" stroke-linecap="round" stroke-linejoin="round"></path>
                                    <path d="M125.283096,94.6320771 C137.273887,105.582951 147.610776,114.467622 160.841994,123.765533 C166.83739,128.104559 178.828181,133.476685 184.203364,132.030343" id="Shape" stroke="#0B43A4" stroke-linecap="round" stroke-linejoin="round"></path>
                                </g>
                            </g>
                            <g id="Group" transform="translate(725.173669, 671.210825) scale(-1, 1) translate(-725.173669, -671.210825) translate(640.015082, 579.345498)">
                                <g id="Group-4">
                                    <path d="M14.7349999,154.393619 C16.0197275,119.080339 34.3270964,86.3352974 56.8098302,58.726733 C75.4383811,35.6125861 97.5999329,14.7456478 125.221577,4.15166382 C133.893489,0.941365634 143.528946,-1.3058431 152.52204,0.941365634 C161.515133,3.18857437 169.544681,10.89329 169.865863,20.2031548 C169.865863,27.9078704 164.726952,34.9705264 159.26686,40.4280333 C140.959491,58.726733 117.513211,70.2838065 95.6728415,83.4460291 C57.773376,106.239146 21.8010019,136.736979 6.70545209,178.470855" id="Shape" fill="#52D2BC" fill-rule="nonzero"></path>
                                    <path d="M28.545822,123.574756 C51.6709196,71.8889556 111.410755,25.9816915 150.91613,20.2031548" id="Shape" stroke="#00AD9F" stroke-linecap="round" stroke-linejoin="round"></path>
                                    <path d="M0.620613354,183.162938 C0.299431443,177.384401 19.5703461,161.65394 24.0668929,157.801582 C48.1555362,135.971555 77.0619082,119.920064 107.253008,110.289169 C119.45792,106.436811 132.626379,103.547543 144.831291,106.757841 C157.036204,109.64711 168.277571,119.920064 169.562299,133.082286 C170.847026,145.923479 162.175115,158.443642 151.25493,164.864238 C140.334745,170.963805 127.487468,171.926894 114.961374,171.284835 C96.0116409,170.321745 77.3830901,165.506298 58.4333574,165.506298 C39.4836246,165.506298 12.5043441,167.432477 0.620613354,183.162938 Z" id="Shape" fill="#00AD9F" fill-rule="nonzero"></path>
                                    <path d="M20.2127099,165.185268 C59.0757212,143.9973 117.852011,130.514048 160.569205,135.650525" id="Shape" stroke="#00AD9F" stroke-linecap="round" stroke-linejoin="round"></path>
                                </g>
                            </g>
                            <g id="Group" transform="translate(690.665339, 194.812626) scale(-1, 1) translate(-690.665339, -194.812626) translate(601.352674, 123.668801)">
                                <g id="Group-3">
                                    <path d="M175.919852,57.4404311 C173.438999,67.1515831 169.510981,76.8627351 163.10211,84.7143048 C158.553878,90.0864315 152.971958,94.2188366 146.976563,97.7313809 C143.875496,99.5909632 140.567691,101.037305 137.259887,102.483647 C124.235407,107.855773 110.383975,110.955077 96.325806,111.574938 C75.8587656,112.401419 54.9782497,107.855773 35.3381604,113.641141 C26.241698,116.327204 17.9721867,121.07947 11.3565777,127.691318 C7.01508428,131.617103 3.50054199,136.369369 0.606213044,141.328255 L3.29380421,124.385394 C8.25551097,106.202811 13.2172177,87.6069884 23.347369,71.6972287 C29.7562403,61.3662159 38.2324893,52.2749247 47.3289517,44.0101145 C61.8005965,30.7864181 77.7194057,19.0090635 95.2921171,10.537633 C109.557024,3.7191646 125.269096,-1.23972153 140.981167,0.619860767 C156.693238,2.47944307 171.991834,12.3972153 176.953541,27.480494 C179.84787,36.9850258 178.400705,47.5226588 175.919852,57.4404311 Z" id="Shape" fill="#5193F4" fill-rule="nonzero"></path>
                                    <path d="M16.3182845,111.368318 C31.4101425,89.2599505 53.737823,72.1104692 79.1665701,63.6390388 C95.0853793,58.2669121 111.83114,56.4073298 127.749949,51.6550639 C143.875496,47.1094183 159.794305,39.2578486 169.304243,25.4142915" id="Shape" stroke="#0B43A4" stroke-linecap="round" stroke-linejoin="round"></path>
                                    <path d="M147.312839,98.3107813 C144.211772,100.170364 140.903967,101.616705 137.596163,103.063047 C124.571683,108.435174 110.720251,111.534478 96.6620821,112.154338 C76.1950417,112.980819 55.3145257,108.435174 35.6744364,114.220541 C26.577974,116.906604 18.3084627,121.65887 11.6928537,128.270718 C11.0726404,128.683959 10.2456892,128.890579 9.62547589,129.30382 C7.97157364,115.460263 42.4967832,97.4843003 53.0404101,92.7320344 C71.8535482,84.2606039 93.1475398,80.5414393 113.821318,82.1944014 C122.91778,83.0208824 132.220981,84.6738445 139.663541,89.8393508 C142.55787,91.9055534 145.452199,94.798237 147.312839,98.3107813 Z" id="Shape" fill="#5275A0" fill-rule="nonzero" opacity="0.2"></path>
                                    <path d="M113.61458,90.2525914 C122.711043,90.8724521 132.014243,92.7320344 139.456803,97.8975408 C146.899363,103.063047 152.274545,112.154338 150.413905,121.24563 C148.346528,131.576642 137.596163,138.395111 127.259274,139.634832 C116.922385,140.874554 106.17202,137.98187 95.8351309,135.915668 C72.8872371,131.163402 49.31913,130.130301 25.9577607,132.816364 C20.1691028,133.436225 14.5871827,134.675946 9.62547589,137.56863 C7.97157364,123.725073 42.4967832,105.749111 53.0404101,100.996845 C71.8535482,92.5254142 92.940802,88.5996293 113.61458,90.2525914 Z" id="Shape" fill="#52D2BC" fill-rule="nonzero"></path>
                                    <path d="M18.5152005,128.683959 C35.6744364,113.60068 79.5028462,103.476288 110.720251,106.782212 C120.023451,107.815313 129.533389,110.501376 136.769212,116.699984" id="Shape" stroke="#00AD9F" stroke-linecap="round" stroke-linejoin="round"></path>
                                </g>
                            </g>
                        </g>
                        <g id="Page-1" transform="translate(264.000000, 189.000000)">
                            <g id="Group-3" fill="#FFFFFF" opacity="0.55395154">
                                <path d="M16.6690045,405.777162 C7.89276672,405.777162 0.778138778,398.61707 0.778138778,389.78285 L0.778138778,16.2690914 C0.778138778,7.43641202 7.89276672,0.274780078 16.6690045,0.274780078 L194.465812,0.274780078 C203.240519,0.274780078 210.355147,7.43641202 210.355147,16.2690914 L210.355147,389.78285 C210.355147,398.61707 203.240519,405.777162 194.465812,405.777162 L16.6690045,405.777162 Z" id="Fill-1"></path>
                            </g>
                            <mask id="mask-9" fill="white">
                                <use xlink:href="#path-8"></use>
                            </mask>
                            <use id="Fill-4" fill="#F1F6F1" xlink:href="#path-8"></use>
                            <g id="Group-13" mask="url(#mask-9)">
                                <g transform="translate(20.669388, 196.399905)">
                                    <rect id="Rectangle-4" fill="#FFFFFF" x="0" y="0" width="168.8" height="62.2942431" rx="4"></rect>
                                    <ellipse id="Oval-2" fill="#F1F6F1" cx="29.1705069" cy="31.5364606" rx="18.2801843" ry="18.2989339"></ellipse>
                                    <rect id="Rectangle-5" fill="#F1F6F1" x="61.4525346" y="15.5735608" width="101.902304" height="7.78678038" rx="3.89339019"></rect>
                                    <rect id="Rectangle-5-Copy" fill="#F1F6F1" x="61.4525346" y="31.1471215" width="39.6718894" height="7.78678038" rx="3.89339019"></rect>
                                </g>
                            </g>
                            <g id="Group-13-Copy" mask="url(#mask-9)">
                                <g transform="translate(20.669388, 275.132907)">
                                    <rect id="Rectangle-4" fill="#FFFFFF" x="0" y="0" width="168.8" height="62.2942431" rx="4"></rect>
                                    <ellipse id="Oval-2" fill="#F1F6F1" cx="29.1705069" cy="31.5364606" rx="18.2801843" ry="18.2989339"></ellipse>
                                    <rect id="Rectangle-5" fill="#F1F6F1" x="61.4525346" y="15.5735608" width="101.902304" height="7.78678038" rx="3.89339019"></rect>
                                    <rect id="Rectangle-5-Copy" fill="#F1F6F1" x="61.4525346" y="31.1471215" width="39.6718894" height="7.78678038" rx="3.89339019"></rect>
                                </g>
                            </g>
                            <g id="Group-13-Copy-2" mask="url(#mask-9)">
                                <g transform="translate(20.669388, 353.000711)">
                                    <rect id="Rectangle-4" fill="#FFFFFF" x="0" y="0" width="168.8" height="62.2942431" rx="4"></rect>
                                    <ellipse id="Oval-2" fill="#F1F6F1" cx="29.1705069" cy="31.5364606" rx="18.2801843" ry="18.2989339"></ellipse>
                                    <rect id="Rectangle-5" fill="#F1F6F1" x="61.4525346" y="15.5735608" width="101.902304" height="7.78678038" rx="3.89339019"></rect>
                                    <rect id="Rectangle-5-Copy" fill="#F1F6F1" x="61.4525346" y="31.1471215" width="39.6718894" height="7.78678038" rx="3.89339019"></rect>
                                </g>
                            </g>
                            <rect id="Rectangle-2" fill="#FFFFFF" mask="url(#mask-9)" x="3.44489796" y="4.3259891" width="204.971429" height="179.961147"></rect>
                            <ellipse id="Oval" fill="#FFFFFF" mask="url(#mask-9)" cx="103.346939" cy="97.7673537" rx="43.922449" ry="44.1250888"></ellipse>
                            <g mask="url(#mask-9)">
                                <g transform="translate(58.563265, 45.855484)">
                                    <path d="M47.3673469,95.1717602 L47.3673469,95.1717602 C73.5276103,95.1717602 94.7346939,73.9646767 94.7346939,47.8044133 L94.7346939,47.3673469 C94.7346939,21.2070836 73.5276103,-4.80556242e-15 47.3673469,0 L47.3673469,0 C21.2070836,4.80556242e-15 -3.20370828e-15,21.2070836 0,47.3673469 L7.10542736e-15,47.8044133 C1.03091356e-14,73.9646767 21.2070836,95.1717602 47.3673469,95.1717602 Z" id="Fill-1" fill="#4882EE"></path>
                                    <g id="Group-6" stroke-width="1" fill="none" transform="translate(20.189361, 20.282506)">
                                        <path d="M26.7496738,31.3644357 C20.1245868,31.3644357 14.7537638,25.9676088 14.7537638,19.309366 L14.7537638,12.0643108 C14.7537638,5.40606802 20.1245868,0 26.7496738,0 C33.3701665,0 38.7409895,5.40606802 38.7409895,12.0643108 L38.7409895,19.309366 C38.7409895,25.9676088 33.3701665,31.3644357 26.7496738,31.3644357" id="Fill-2" fill="#F8FFFB"></path>
                                        <path d="M26.4185085,25.7431811 C15.1117545,25.7431811 5.35330454,32.4106649 0.823251957,42.0445554 C-1.82310736,47.6862725 2.22913034,54.196657 8.43153499,54.196657 L44.4008876,54.196657 C50.6032922,54.196657 54.6601243,47.6862725 52.0091706,42.0445554 C47.479118,32.4106649 37.7206681,25.7431811 26.4185085,25.7431811" id="Fill-4" fill="#F8FFFB"></path>
                                    </g>
                                </g>
                            </g>
                            <path d="M137.442755,20.7647477 L75.2796937,20.7647477 C69.8527475,20.7647477 65.4530612,16.3386901 65.4530612,10.8792153 L65.4530612,4.3259891 L147.269388,4.3259891 L147.269388,10.8792153 C147.269388,16.3386901 142.869701,20.7647477 137.442755,20.7647477" id="Fill-6" fill="#FFFFFF" mask="url(#mask-9)"></path>
                        </g>
                        <g id="Page-1" transform="translate(404.000000, 319.000000)">
                            <path d="M123.202029,22.6532501 C127.882358,31.6464633 129.957178,41.7457035 131.052793,51.7943631 C131.179474,52.9610867 131.278764,54.1952509 130.76177,55.2540694 C130.111249,56.5759065 128.649288,57.2874056 127.286617,57.8808835 C114.238531,63.6065963 100.567313,67.9598914 86.5845296,70.84298 C95.6370464,66.8437484 100.522803,55.4867397 97.1366691,46.3013207 C96.1471921,43.617182 94.3942085,41.0139722 91.7167999,39.9214334 C88.0499143,38.4242505 83.622946,40.288985 81.2639505,43.4317202 C78.8981074,46.5710833 78.2441624,50.6546158 78.2510099,54.5594305 C78.2544337,59.4016706 79.1857063,64.2439106 80.9592326,68.7624354 C74.9059612,65.1577316 69.2943594,60.8381568 64.2887695,55.9217321 C63.0733219,54.7314042 61.8647219,53.4534036 61.275829,51.8685479 C60.721174,50.3848531 60.7656834,48.756161 60.8512783,47.1780493 C61.2484386,39.8539927 62.4741576,32.5670285 64.4873497,25.5059904 C67.1784534,16.0642968 72.0436676,6.2415634 81.1406938,2.26593598 C98.7698199,-5.43241636 115.457402,7.76235048 123.202029,22.6532501" id="Fill-1" fill="#FF6748"></path>
                            <path d="M56.6263664,99.615568 C56.6263664,99.615568 45.1462727,129.317457 39.8101171,129.317457 C34.4773843,129.317457 23.8153414,89.8496332 23.8153414,89.8496332 L7.81714286,93.5135566 C7.81714286,93.5135566 16.9799964,152.516645 35.5761052,154.547253 C54.1653684,156.581257 72.96,126.210422 72.96,126.210422 L56.6263664,99.615568 Z" id="Fill-3" fill="#0B43A4"></path>
                            <path d="M52.6210088,183.155022 C52.6210088,183.155022 35.8082061,260.24361 35.8082061,276.428234 C35.8082061,292.606113 35.6114286,384.452757 35.6114286,384.452757 L52.4208961,384.452757 C52.4208961,384.452757 70.244268,313.61341 68.8501495,284.525604 C68.6600424,280.505585 82.9814419,256.564213 87.8408456,239.307134 C95.5818722,211.797658 94.6380072,188.07887 94.6380072,188.07887 L52.6210088,183.155022 Z" id="Fill-5" fill="#8081F2"></path>
                            <path d="M18.7427543,390.179776 C26.8780688,386.182724 35.7482961,383.588819 35.7482961,383.588819 L52.9828571,383.588819 L52.4188543,390.663739 L51.9573973,396.5479 L10.4228571,395.270097 C12.7609055,393.417805 15.6800477,391.694338 18.7427543,390.179776" id="Fill-7" fill="#0E0E15"></path>
                            <path d="M11.175496,394.820023 L52.1142857,396.139297 L51.8245132,400.003655 L11.9942718,400.003655 C9.74011129,400.003655 8.6888436,396.994848 10.4106314,395.449104 C10.6464927,395.229825 10.9261569,395.032113 11.175496,394.820023" id="Fill-9" fill="#FFFFFF"></path>
                            <path d="M81.6457143,185.522941 C81.6457143,185.522941 82.7734162,264.766987 86.4874045,280.577202 C90.1980164,296.387417 111.084136,386.180635 111.084136,386.180635 L127.648524,382.2704 C127.648524,382.2704 126.547833,308.453285 120.902571,280.797259 C120.095622,276.843012 128.414956,250.19586 129.238786,232.198622 C130.552187,203.516793 124.181009,180.563205 124.181009,180.563205 L81.6457143,185.522941 Z" id="Fill-11" fill="#A9AAFF"></path>
                            <path d="M95.6335947,394.840095 C102.521918,389.280109 110.423525,384.864236 110.423525,384.864236 L126.891079,380.997002 L127.911074,387.74459 L128.548571,391.869417 L88.5942857,401.731533 C90.4363165,399.386437 92.9426863,397.027959 95.6335947,394.840095" id="Fill-13" fill="#0E0E15"></path>
                            <g id="Group-17" transform="translate(86.857143, 392.228206)">
                                <mask id="mask-11" fill="white">
                                    <use xlink:href="#path-10"></use>
                                </mask>
                                <g id="Clip-16"></g>
                                <path d="M1.35687623,10.3421679 L41.5567401,0.412660359 L42.3366316,5.49365712 L3.48722931,14.6212567 C1.28935315,15.136769 -0.385219154,12.636703 0.961866231,10.827356 C1.08003162,10.6622573 1.23195854,10.5038973 1.35687623,10.3421679" id="Fill-15" fill="#FFFFFF" mask="url(#mask-11)"></path>
                            </g>
                            <path d="M105.965714,22.0354957 L105.965714,35.4898328 C105.965714,37.9271883 105.520001,40.2735222 104.706829,42.4276995 C101.86243,49.9352938 94.5574949,55.292082 85.9834678,55.292082 C74.952914,55.292082 66.0114286,46.4225352 66.0114286,35.4898328 L66.0114286,22.0354957 C66.0114286,21.8736795 66.0114286,21.7118634 66.0250381,21.5534184 C66.2768151,13.9008639 72.6154709,7.77544903 80.3967407,7.77544903 L91.5735974,7.77544903 C99.3650744,7.77544903 105.70373,13.9008639 105.955507,21.5534184 C105.965714,21.7118634 105.965714,21.8736795 105.965714,22.0354957" id="Fill-18" fill="#F4EED8"></path>
                            <path d="M105.965714,21.5900089 C105.965714,21.7456842 105.965714,21.8979752 105.955507,22.0401134 C105.819411,28.0471475 103.009036,33.4044067 98.6539745,36.9714004 C95.2073517,39.7803234 90.7910473,41.4690615 85.9834678,41.4690615 C75.2761412,41.4690615 66.5422017,33.0896719 66.0454525,22.5612871 C66.0250381,22.3920749 66.0250381,22.2228626 66.0250381,22.0401134 C66.0114286,21.8979752 66.0114286,21.7456842 66.0114286,21.5900089 C66.0114286,10.6216723 74.952914,1.72787756 85.9834678,1.72787756 C97.0174241,1.72787756 105.965714,10.6216723 105.965714,21.5900089" id="Fill-20" fill="#F4EED8"></path>
                            <path d="M107.566069,35.8929226 C107.566069,38.2971294 104.669695,40.2051773 103.874025,42.3330003 L90.4441721,28.9000771 C74.7970956,35.4034234 66.5407658,23.0061073 66.0413911,22.2269046 C66.0214161,22.2002652 66.0114286,22.1902754 66.0114286,22.1902754 C66.0114286,22.0304389 66.0114286,21.8706024 66.0214161,21.7140959 C66.0114286,21.574239 66.0114286,21.4243923 66.0114286,21.2712157 C66.0114286,10.4789242 74.7604748,1.72787756 85.5536284,1.72787756 C85.806645,1.72787756 86.0596615,1.73120749 86.3060198,1.73453741 C101.393797,1.97762204 112.313458,16.233037 108.767898,30.9013629 L107.566069,35.8929226 Z" id="Fill-22" fill="#FF6748"></path>
                            <path d="M110.308571,40.6033864 C110.308571,43.9475215 107.585402,46.6526942 104.226826,46.6526942 C100.871741,46.6526942 98.1485714,43.9475215 98.1485714,40.6033864 C98.1485714,37.2627239 100.871741,34.5575512 104.226826,34.5575512 C107.585402,34.5575512 110.308571,37.2627239 110.308571,40.6033864" id="Fill-24" fill="#F4EED8"></path>
                            <path d="M62.8132126,132.74086 L52.8684331,182.562364 C67.3722207,187.247329 82.7466406,188.607045 97.8510969,186.530448 L126.811429,182.562364 C126.673072,173.111659 126.349116,159.039937 125.620215,143.958524 C125.184899,135.019395 125.370499,124.195511 124.604477,115.300136 C122.691111,93.1946418 118.830633,75.0942535 113.809313,69.5308578 L104.633929,64.7954086 L67.6421842,66.8248868 C67.6421842,66.8248868 46.0552299,97.866144 51.1575396,108.04046 C56.2564747,118.211411 62.8132126,132.74086 62.8132126,132.74086" id="Fill-26" fill="#0056EC"></path>
                            <path d="M67.7485714,66.4406896 L71.7008012,79.6172781 C73.4486408,80.7609716 75.5031188,81.7186426 77.8914922,82.2939342 L82.1844314,76.2998782 L82.1844314,82.9036743 C82.5251409,82.9381229 82.8862929,82.9381229 83.2474449,82.9381229 C87.9798994,82.9381229 92.8452305,81.5532893 97.2744536,79.6723959 C100.606592,75.1768539 105.029001,68.4559325 105.097143,64.3599943 L100.098935,61.7556803 L97.3698522,45.7887554 L79.8335361,47.714432 L76.9579482,61.2079476 L67.7485714,66.4406896 Z" id="Fill-28" fill="#F4EED8"></path>
                            <path d="M78.8462782,54.7001424 C78.8462782,54.7001424 87.9080805,60.2220428 97.8102003,52.7002656 L99.0171429,59.816796 L98.4201605,60.1264968 C91.8403771,63.5595638 83.8752053,62.6831762 78.1714286,57.8959917 L78.8462782,54.7001424 Z" id="Fill-30" fill="#EBE0BE"></path>
                            <g id="Group-11" filter="url(#filter-12)" transform="translate(51.245714, 95.897205)">
                                <g id="Group-3">
                                    <mask id="mask-14" fill="white">
                                        <use xlink:href="#path-13"></use>
                                    </mask>
                                    <g id="Clip-2"></g>
                                    <path d="M41.9593392,3.48763264 L46.8617678,37.4693323 C47.1578112,39.5217746 45.7244043,41.4370519 43.6508352,41.7327747 L9.49703863,46.6090555 C9.10863977,46.6644249 8.7316272,46.6606497 8.36473577,46.5964715 L8.35461463,46.5977299 C6.76433006,46.3447925 5.45111177,45.0813639 5.21073463,43.4152489 L0.307040914,9.43354921 C0.0122626286,7.3811069 1.44693463,5.47463841 3.51923863,5.17891558 L37.6730352,0.303893194 C39.7466043,0.00817035999 41.6632958,1.43519034 41.9593392,3.48763264" id="Fill-1" fill="#FFFFFF" mask="url(#mask-14)"></path>
                                </g>
                                <path d="M32.9733432,13.8541536 C29.6760447,11.0509176 24.8140329,11.6784499 22.2821787,15.1647407 C18.8996917,12.5538963 14.0627353,13.3596168 11.6636751,17.0060186 C9.41620042,20.4212923 10.3294719,25.0890482 13.5340651,27.5630234 L22.937379,34.8222554 C24.2264824,35.8164939 26.0517726,35.5453379 27.015155,34.217965 L34.0582446,24.5260768 C36.4585576,21.2231392 36.0614285,16.4804926 32.9733432,13.8541536" id="Fill-4" fill="#FF2323"></path>
                            </g>
                            <path d="M81.6457143,76.30703 L81.6457143,87.2578168 L92.9253897,84.0550707 C92.9253897,84.0550707 94.5171033,82.2149111 96.5184986,79.5765696 C99.7993092,75.2182967 104.161411,68.7025953 104.228571,64.7317244 L99.3023184,62.2035922 L81.6457143,76.30703 Z" id="Fill-32" fill="#FFFFFF"></path>
                            <polygon id="Fill-34" fill="#FFFFFF" points="67.7485714 67.3425676 71.7911083 80.2830421 74.2445099 88.1217556 78.1232543 82.9117345 82.5142857 77.0250873 77.1683792 62.2035922"></polygon>
                            <path d="M110.278282,69.0116183 C110.278282,69.0116183 101.991204,74.9225123 109.747583,93.7424487 C117.500559,112.562385 133.026923,148.101804 130.036635,149.141932 C127.056553,150.171963 96.3372129,134.415189 96.3372129,134.415189 L85.9885714,148.775026 C85.9885714,148.775026 130.812273,188.649998 146.889748,179.080139 C162.963822,169.503548 138.463192,58.0279924 110.278282,69.0116183" id="Fill-38" fill="#0B43A4"></path>
                            <path d="M73.0908734,127.404635 C73.6093187,122.259203 77.8520383,118.359613 82.8789885,118.359613 L86.396541,120.429265 L86.5113865,120.523801 C87.7648427,121.560315 88.437509,123.113398 88.5786049,124.764394 C88.9264226,128.950966 92.0764697,133.86006 92.0764697,133.86006 L93.8057143,138.843432 L87.0462383,148.59747 L75.9029467,139.694251 C73.4255659,137.114782 72.6118038,132.128034 73.0908734,127.404635" id="Fill-40" fill="#F4EED8"></path>
                            <path d="M22.4790123,88.8094663 C22.4790123,88.8094663 30.7730848,77.4750878 26.6398375,77.4750878 C22.5134847,77.4750878 20.0349152,80.2564082 20.0349152,80.2564082 C20.0349152,80.2564082 7.43523305,69.9177291 1.44392044,70.9101095 C-4.54394493,71.9058089 10.0275616,91.5775108 10.0275616,91.5775108 L22.4790123,88.8094663 Z" id="Fill-42" fill="#EBE0BE"></path>
                        </g>
                        <g id="Page-1" transform="translate(382.000000, 438.000000)">
                            <g id="Group-3">
                                <mask id="mask-16" fill="white">
                                    <use xlink:href="#path-15"></use>
                                </mask>
                                <g id="Clip-2"></g>
                                <path d="M44.4640615,15.9757551 L37.8603692,20.4263765 L39.8708308,10.3969398 C40.2769846,8.36656746 38.9957538,6.3870486 37.0074462,5.97080343 L9.95021538,0.324183511 C7.96006154,-0.0901781915 6.01790769,1.21882809 5.60990769,3.24731697 L0.0751384615,30.8513402 C-0.331015385,32.8817125 0.952061538,34.8631148 2.94036923,35.2774765 L29.9976,40.9240965 C31.9877538,41.3384582 33.9299077,40.0294519 34.3360615,38.000963 L36.3483692,27.9734098 L40.7089846,34.7086709 C41.7852923,36.3717681 44.2942154,35.878301 44.6856,33.9232672 L47.8185231,18.2905302 C48.2117538,16.3373798 46.0942154,14.8776966 44.4640615,15.9757551" id="Fill-1" fill="#EC5F61" mask="url(#mask-16)"></path>
                            </g>
                            <polygon id="Fill-4" fill="#FFFFFF" points="18.6457828 11.5087719 15.5294118 27.3333333 24.7058824 21.0386419"></polygon>
                        </g>
                        <g id="Group-10" opacity="0.772984601" transform="translate(253.000000, 553.000000)">
                            <path d="M64.9473582,12.7723353 L58.1878154,60.4561397 C57.7800232,63.3365254 55.1061453,65.3574411 52.2128855,64.9470636 L4.54507483,58.1900298 C4.00307255,58.1126001 3.49720375,57.9603216 3.03263036,57.7306134 L3.01972554,57.7280324 C0.985926486,56.7679039 -0.276164553,54.5534138 0.051617782,52.2150362 L6.81374155,4.53123176 C7.22153375,1.65084607 9.89024977,-0.357164748 12.7835096,0.0532127839 L60.4564821,6.81024661 C63.349742,7.22320513 65.3551504,9.89194958 64.9473582,12.7723353" id="Fill-6" fill="#2C54DD"></path>
                            <path d="M33.1159507,15.1880973 C31.5292396,14.0957203 29.3756611,14.3941131 28.2082766,16.0002445 C28.1668616,16.0728966 25.4282966,20.8964803 20.7975851,25.8134739 L17.541333,25.3516138 C17.2695472,25.312693 17.0158805,25.5021075 16.9796424,25.7771478 L14.5439244,42.9827333 C14.5076863,43.2551788 14.6966421,43.5094614 14.9684278,43.5483822 L17.4093227,43.8934799 C18.5404691,46.8722179 21.1522008,48.9895091 24.3204461,49.4409903 L25.7518511,49.6433784 L35.1659918,50.9822537 L37.2729785,51.2806465 C39.188421,51.553092 40.9692647,50.211622 41.2436389,48.2915295 C41.3782376,47.3133203 41.0986865,46.3740318 40.536996,45.6475103 L42.0512309,45.862872 C43.9692617,46.1353176 45.7501055,44.7938476 46.0193028,42.8711604 C46.1771974,41.773594 45.7941089,40.7253273 45.0900544,39.9728586 C46.5007519,39.6796553 47.6448405,38.5431681 47.8596806,37.035636 C48.1314664,35.1155436 46.7932451,33.3303765 44.8752143,33.0579309 L44.8493299,33.0527415 C45.592211,32.5130398 46.133194,31.6931084 46.2729695,30.7123044 C46.5421669,28.792212 45.2039456,27.0070449 43.2910916,26.7345993 L30.0383007,24.8508329 C32.3782466,21.6774909 35.8752232,17.0926214 33.1159507,15.1880973" id="Fill-8" fill="#FFFFFF"></path>
                        </g>
                        <g id="Group-9" opacity="0.772984601" transform="translate(193.000000, 159.000000)">
                            <path d="M86.8148077,22.3089454 L27.0203755,0.575816364 C22.1220252,-1.20309149 16.6940221,1.27772364 14.8947048,6.11679867 L0.582807116,44.610285 C-1.2165102,49.44936 1.28901099,54.8120802 6.19111766,56.590988 L12.0285688,58.7152788 C12.0285688,58.7152788 16.0742155,71.4313133 17.7307895,75.5573397 C18.9253258,78.5320896 22.6479218,79.883911 25.5065449,78.3835378 C29.4695507,76.3038125 40.8852611,69.2030362 40.8852611,69.2030362 L65.9855499,78.324117 C70.8801437,80.1067387 76.3081469,77.6259235 78.1074642,72.7831347 L92.4156055,34.2933622 C94.2186792,29.4542872 91.7094016,24.0878532 86.8148077,22.3089454" id="Fill-29" fill="#236DDB"></path>
                            <path d="M74.1017184,38.4518394 L25.471134,20.5464747 C23.8847807,19.9614554 23.0746478,18.1988488 23.654929,16.6060866 C24.2389784,15.0208731 25.9986624,14.2018461 27.5850158,14.7868653 L76.2193682,32.6960044 C77.8019535,33.2772494 78.6196226,35.0436302 78.0355732,36.6326181 C77.4515239,38.221606 75.6918398,39.0368587 74.1017184,38.4518394" id="Fill-31" fill="#FFFFFF"></path>
                            <path d="M69.757221,52.1909698 L21.125391,34.2856051 C19.538997,33.7005858 18.7288433,31.9379793 19.3091394,30.3452171 C19.8932037,28.7600035 21.6491647,27.9409765 23.2355587,28.5259958 L71.8711569,46.4351348 C73.4613191,47.0163798 74.2752409,48.7827606 73.6874085,50.3717485 C73.1071123,51.9607364 71.343615,52.7759891 69.757221,52.1909698" id="Fill-33" fill="#FFFFFF"></path>
                            <path d="M37.6371452,55.6320339 L15.89681,47.8264256 C14.320178,47.2608018 13.5131815,45.5566321 14.0960123,44.0203249 C14.675107,42.4803685 16.4198632,41.6957936 17.9927591,42.2577682 L39.7293583,50.0670256 C41.3059902,50.6290002 42.1129867,52.3368192 41.5301559,53.8731264 C40.9547973,55.4094335 39.2100411,56.1976577 37.6371452,55.6320339" id="Fill-35" fill="#FFFFFF"></path>
                        </g>
                        <g id="Group-8" opacity="0.584748641" transform="translate(441.000000, 124.000000)">
                            <path d="M33.6002073,2.11031243 L51,26.7966102 L3.4,19.5971649 L26.6408384,1.05779586 C28.8363699,-0.69349893 31.9556144,-0.220881297 33.6002073,2.11031243" id="Fill-37" fill="#FFFFFF" opacity="0.706974638"></path>
                            <path d="M50.9772955,25.5707784 L47.7686165,48.9643511 C47.5926478,50.259378 46.4406029,51.1618857 45.1950745,50.975654 L1.95352028,44.5349006 C0.710741462,44.3486688 -0.155354398,43.1481903 0.0233637956,41.8531634 L3.23204274,18.4595907 C3.32552611,17.7719658 3.69945956,17.1960799 4.20811903,16.8322117 C4.6645378,16.5170503 5.21993895,16.3594696 5.80558473,16.4482878 L49.047139,22.8861761 C49.6355343,22.9749943 50.1221976,23.2872906 50.4768845,23.7227864 C50.8700645,24.2213145 51.0707788,24.8860186 50.9772955,25.5707784" id="Fill-39" fill="#FFFFFF" opacity="0.706974638"></path>
                            <path d="M51,23.6793752 L45.634817,26.9738832 L30.8294212,36.045882 C27.6763192,37.9736105 23.6558415,37.3756445 21.1437247,34.5993737 L9.36596149,21.560867 L5.1,16.8312406 C5.55278108,16.5180203 6.10375565,16.3614101 6.68473378,16.4468338 L49.5816496,22.8479177 C50.1626278,22.9361889 50.64814,23.2465617 51,23.6793752" id="Fill-41" fill="#FFFFFF" opacity="0.706974638"></path>
                            <path d="M46.7075448,12.5831011 L44.6134226,27.8808171 L29.8730838,36.9159952 C26.7332586,38.8352972 22.7269937,38.23711 20.2254547,35.4758099 L8.5,22.4942974 L10.5941222,7.19658141 C10.9200556,4.8180077 13.0277584,3.15952663 15.3147245,3.50256289 L43.1684512,7.6586881 C45.447269,7.99605433 47.0334783,10.2073624 46.7075448,12.5831011" id="Fill-43" fill="#FFFFFF"></path>
                            <path d="M40.8946393,16.4095848 L17.3562736,13.1139604 C16.5862874,13.0029966 16.0540911,12.3066988 16.1644935,11.5549192 C16.2748959,10.8031395 16.9854347,10.2788357 17.7525901,10.3870254 L41.2937866,13.6826498 C42.060942,13.7908395 42.5959692,14.4899113 42.4855667,15.241691 C42.3751643,15.9934706 41.6617947,16.5177745 40.8946393,16.4095848" id="Fill-45" fill="#5193F4"></path>
                            <path d="M40.0446393,22.4604323 L16.5062736,19.1648078 C15.7362874,19.0538441 15.2040911,18.3575463 15.3144935,17.6057667 C15.4220651,16.853987 16.1354347,16.3296831 16.9025901,16.4378728 L40.4437866,19.7334972 C41.210942,19.8416869 41.7459692,20.5407588 41.6355667,21.2925384 C41.5251643,22.0443181 40.8117947,22.568622 40.0446393,22.4604323" id="Fill-47" fill="#5193F4"></path>
                            <path d="M24.8255845,28.5081313 L14.747537,26.6902282 C14.0163477,26.5579555 13.5109668,25.7066613 13.6131182,24.7841434 C13.7179579,23.865017 14.3953833,23.2240027 15.1265727,23.3562755 L25.2046201,25.1741785 C25.9304331,25.3064513 26.4411904,26.1611371 26.3363507,27.0802634 C26.2288229,27.9993898 25.5540856,28.6404041 24.8255845,28.5081313" id="Fill-49" fill="#5193F4"></path>
                        </g>
                        <g id="Page-1" transform="translate(138.000000, 250.000000)">
                            <path d="M15.0531756,404.01025 L15.9901991,398.395062 L29.8560014,401.792339 C29.8560014,401.792339 36.4795418,405.555747 42.2411635,410.262648 C44.6409451,412.241166 46.8905169,414.381626 48.4391092,416.486882 C48.4498384,416.504484 48.4534149,416.522087 48.4677206,416.54321 L14.7134152,406.00637 L15.0531756,404.01025 Z" id="Fill-1" fill="#0E0E15"></path>
                            <path d="M47.2527819,416.838624 C48.2805747,418.36078 46.8854607,420.385568 45.0912382,419.936407 L12.9824252,411.872903 L13.9183877,406.17284 L47.2527819,416.838624 Z" id="Fill-3" fill="#FFFFFF"></path>
                            <path d="M70.4656508,403.616525 L70.1050958,398.395062 L84.2268311,398.625039 C84.2268311,398.625039 91.4556042,400.652729 98.0622433,403.703981 C100.140737,404.672479 102.152068,405.741389 103.859401,406.884798 L70.6954162,407.037037 L70.4656508,403.616525 Z" id="Fill-5" fill="#0E0E15"></path>
                            <path d="M104.248266,407.901235 C104.794112,408.269021 105.31232,408.643205 105.785616,409.03018 C107.164049,410.143135 106.269277,412.250714 104.438275,412.22193 L72.0779162,411.691038 L71.8360858,408.051547 L104.248266,407.901235 Z" id="Fill-7" fill="#FFFFFF"></path>
                            <path d="M31.82809,330.253262 C31.2400584,328.875292 10.3859401,202.3184 10.3859401,202.3184 C43.5677195,199.074067 74.0718553,190.987654 74.0718553,190.987654 L102.993906,322.438954 C102.993906,322.438954 93.5153979,358.681293 89.3606751,377.383302 C86.7600357,389.233839 84.6844244,398.736595 84.6844244,398.736595 L70.6941741,398.495886 C70.6941741,398.495886 72.1572526,387.775633 74.0158523,374.951797 C76.5709893,357.139362 79.8891672,335.304653 81.0757309,332.478944 L55.1743419,255.692909 C55.1743419,255.692909 55.6468672,331.038181 55.0938376,332.137068 C54.5968109,333.12781 45.1953068,358.541752 37.8799145,378.412419 C33.3261703,390.793212 29.5634685,401.014605 29.2694527,401.803012 L29.2519518,401.851852 L15.6782239,398.495886 C15.6782239,398.495886 18.4818743,387.573298 21.7440492,374.452937 C26.5183052,355.255556 32.3286168,331.366103 31.82809,330.253262" id="Fill-9" fill="#8081F2"></path>
                            <path d="M2.01654212,205.456416 C1.10559117,194.945757 -2.13683579,124.92581 2.21897567,109.229521 C11.953237,74.1568189 32.8283238,75.188369 32.8283238,75.188369 C39.2189414,90.0134164 52.6074773,79.9871678 52.6074773,79.9871678 C52.6074773,79.9871678 76.1142002,94.212801 68.3274891,133.080632 C63.3050431,158.175876 73.4930348,181.14529 81.356531,194.294068 C58.2581654,210.293549 28.2805495,214.172317 2.01654212,205.456416" id="Fill-11" fill="#00ECC8"></path>
                            <path d="M61.2775776,38.1722731 C61.2775776,38.1722731 73.0812706,72.057386 54.1453108,74.8022597 C35.2128268,77.5436142 26.0055292,64.9559053 26.0055292,56.4855068 C26.0055292,48.0151084 24.4657659,31.4367755 40.3326265,26.7740094 C56.1925356,22.1147624 61.2775776,38.1722731 61.2775776,38.1722731" id="Fill-13" fill="#F4EED8"></path>
                            <path d="M32.0233154,62.2238864 C32.0233154,65.5656087 29.3140018,68.2716049 25.9681828,68.2716049 C22.6223638,68.2716049 19.9063852,65.5656087 19.9063852,62.2238864 C19.9063852,58.8788357 22.6223638,56.1728395 25.9681828,56.1728395 C29.3140018,56.1728395 32.0233154,58.8788357 32.0233154,62.2238864" id="Fill-15" fill="#F4EED8"></path>
                            <path d="M26.1301613,25.1530726 C26.546677,24.9549348 26.9458379,24.791558 27.3588826,24.6073246 C29.3130354,22.2192427 31.4719751,20.0014898 33.8322308,18.0131595 C35.6753128,16.4628181 37.6433494,15.0271881 39.2018123,13.1883302 C40.7568043,11.3425202 41.8813967,8.98572315 41.6523131,6.58373681 C43.8529043,8.8883923 44.8941936,12.260211 44.3804909,15.4095593 C46.7997529,11.8326505 47.5460102,7.16424581 46.3589405,3.01030416 C50.2533623,4.70316574 53.1377335,8.54078212 53.6896168,12.7572936 C55.126596,8.67287399 55.1925443,4.12265673 53.8770489,0 C60.6836096,1.97790192 66.1121976,8.09584109 67.2714996,15.1001862 C68.4308016,22.1045313 65.2618113,29.6476723 59.4548883,33.7216636 C56.8065426,35.5779019 53.5507782,36.707635 50.3574912,36.5651148 C51.1211033,48.4429547 30.3508537,57.5294848 30.3508537,57.5294848 C26.352303,54.7833644 21.9094689,57.5294848 21.9094689,57.5294848 C19.4381424,59.9001862 19.8199484,62.2222222 19.8199484,62.2222222 C19.8199484,62.2222222 0.837245391,37.1803849 26.1301613,25.1530726" id="Fill-17" fill="#FF6748"></path>
                            <g id="Group-7" transform="translate(2.596485, 108.024691)">
                                <g id="Group-12">
                                    <mask id="mask-18" fill="white">
                                        <use xlink:href="#path-17"></use>
                                    </mask>
                                    <g id="Clip-11"></g>
                                    <path d="M154.158011,0.874734093 L5.31203856,31.2631046 C1.72124346,31.9970909 -0.596907055,35.5094998 0.134613063,39.1124003 L8.99636134,82.8063659 C9.72788146,86.4092664 13.2284891,88.7352319 16.8192842,88.0012456 L31.4931102,85.0049731 L38.6112352,83.5504068 C40.2145669,84.9345909 44.2963824,88.4335937 45.9631794,89.6803648 C47.4729834,90.8031292 49.7276687,90.3406173 50.679647,88.7151227 C51.7284932,86.9186997 54.12347,82.0924889 55.0587469,80.1955199 L91.2406004,72.8053846 L165.661916,57.6128751 C169.256052,56.8788889 171.570862,53.3664799 170.839342,49.7635795 L161.980934,6.0696138 C161.249414,2.46671336 157.745466,0.140747863 154.158011,0.874734093" id="Fill-10" fill="#EC5F61" mask="url(#mask-18)"></path>
                                </g>
                                <path d="M38.8259823,56.3355071 C40.0140858,54.7043128 40.5517193,52.5857908 40.1236037,50.4368108 L39.4067591,46.8596897 C38.6135839,42.8764622 34.9098868,40.0303327 30.9838352,40.7207137 C26.9217158,41.4347843 24.2667359,45.421396 25.0831422,49.5129186 L25.8597238,53.3946195 C26.2878394,55.5469837 27.5920983,57.2797046 29.3111978,58.3085076 C24.8375566,60.9380469 21.9170786,65.7334874 21.6416244,71.0264082 C21.5354252,73.0907827 23.4370546,74.6678295 25.4216521,74.2549546 L48.5166592,69.4628983 C50.5045754,69.0500234 51.6462168,66.8401275 50.7601172,64.9855746 C48.4768345,60.2205922 43.9500936,56.9717405 38.8259823,56.3355071" id="Fill-13" fill="#FFFFFF"></path>
                                <path d="M97.254285,26.8803117 L67.6354223,32.8632344 C65.2105447,33.353258 63.6462151,35.7007357 64.1365274,38.1078109 L67.0984137,52.553573 C67.5920614,54.9606482 69.9569007,56.516804 72.3817784,56.0234695 L75.2769555,55.4407388 C75.2769555,55.4407388 80.1133689,59.5926952 81.8244586,60.8574857 C83.0552424,61.7680024 84.8997504,61.3938628 85.6735765,60.0794078 C86.7509293,58.2550633 89.5693909,52.553573 89.5693909,52.553573 L102.003977,50.0438577 C104.425519,49.5505232 105.993184,47.2063564 105.499536,44.7992813 L102.53765,30.3502082 C102.047337,27.946444 99.6791626,26.3902881 97.254285,26.8803117" id="Fill-15" fill="#FFFFFF"></path>
                                <path d="M96.7309281,34.6831682 L72.5717889,39.7251032 C71.8502699,39.8765333 71.1455305,39.3981518 70.9978708,38.6582091 C70.8502111,37.9182664 71.3166815,37.1955317 72.0415563,37.0475432 L96.2006956,32.0021666 C96.9222146,31.8541781 97.626954,32.3325597 97.7746137,33.0725023 C97.9189175,33.812445 97.455803,34.5351797 96.7309281,34.6831682" id="Fill-17" fill="#FFFFFF"></path>
                                <path d="M96.7332251,40.7310383 L72.5685815,45.7744709 C71.8469984,45.925946 71.1421963,45.4474224 70.9978797,44.7107025 C70.8502069,43.9670974 71.3167188,43.2475907 72.0383019,43.0961156 L96.2029454,38.0526829 C96.9245285,37.9012078 97.6293306,38.3797314 97.7736473,39.1198939 C97.9213201,39.8600564 97.4548082,40.5830058 96.7332251,40.7310383" id="Fill-19" fill="#FFFFFF"></path>
                                <path d="M84.6598287,49.8656348 L74.2331522,51.8286703 C73.5425374,51.9563715 72.8679835,51.5435698 72.7266484,50.9080334 C72.5885254,50.2695271 73.0350159,49.6458699 73.7256306,49.5151988 L84.1523072,47.5551332 C84.842922,47.4244622 85.5174759,47.8342941 85.658811,48.4757701 C85.796934,49.1142763 85.3536557,49.7349638 84.6598287,49.8656348" id="Fill-21" fill="#FFFFFF"></path>
                                <path d="M156.356996,40.5943902 C155.76312,37.6486243 154.253821,35.1198993 152.190018,33.2465246 L151.563331,30.1418859 C150.506822,24.8990844 145.870648,21.3211373 140.742313,21.4535312 L140.561853,20.536703 C140.351863,19.5073398 139.354414,18.8420601 138.333996,19.0505806 C137.313579,19.262411 136.654081,20.2652953 136.86407,21.2946585 L137.04453,22.2114868 C132.277113,24.1113403 129.393039,29.2316773 130.449549,34.4744787 L131.079517,37.5791174 L131.076236,37.5791174 C129.90817,40.114462 129.501315,43.0403689 130.095192,45.982825 L130.367522,47.3332435 C130.505327,48.0183823 131.171388,48.4619022 131.850572,48.3228885 L137.074059,47.2504973 C137.077341,47.6476792 137.267644,48.0448611 137.697466,48.2500718 C139.715333,49.1933789 142.038341,49.521054 144.384317,49.037816 C146.723731,48.5578878 148.738317,47.3431731 150.231211,45.675009 C150.546195,45.324165 150.565881,44.8806451 150.414951,44.5132519 L155.648282,43.4375508 C156.327467,43.2985371 156.767132,42.6266377 156.629326,41.9414989 L156.356996,40.5943902 Z" id="Fill-23" fill="#FFFFFF"></path>
                                <path d="M133.172694,45.9778347 C133.790215,49.0178119 131.82715,51.9831686 128.781801,52.6028438 C125.739701,53.2192746 122.769104,51.2564291 122.148334,48.2196962 C121.530813,45.179719 123.493878,42.2143623 126.539227,41.5946871 C129.584577,40.9782563 132.555174,42.9411018 133.172694,45.9778347" id="Fill-25" fill="#FFFFFF"></path>
                                <path d="M133.172694,45.9778347 C133.790215,49.0178119 131.82715,51.9831686 128.781801,52.6028438 C125.739701,53.2192746 122.769104,51.2564291 122.148334,48.2196962 C121.530813,45.179719 123.493878,42.2143623 126.539227,41.5946871 C129.584577,40.9782563 132.555174,42.9411018 133.172694,45.9778347 Z" id="Stroke-27" stroke="#EF5454"></path>
                            </g>
                            <path d="M29.4268303,61.3580247 L29.4268303,66.2040688 C29.4268303,66.2040688 29.4648287,67.0784637 29.5822782,68.4725793 C29.720454,70.316183 29.9795337,73.0587631 30.4424228,75.8259245 C31.1471196,80.1206433 32.3147054,84.510176 34.1904425,85.7743614 C38.1975419,88.4923601 51.5418738,86.9367097 53.2621631,85.7743614 C53.8045032,85.4126639 53.7388697,82.9404791 53.3899757,79.7413877 C53.1999839,78.0312257 52.9443586,76.1244127 52.6472806,74.2070648 L52.6369174,74.2070648 C51.7491376,68.3953235 50.5919149,62.6011404 50.5919149,62.6011404 L29.4268303,61.3580247 Z" id="Fill-19" fill="#F4EED8"></path>
                            <path d="M29.4268303,68.2716049 C29.5674592,70.0941756 29.8311382,72.8141188 30.3022447,75.5549312 C36.0258374,77.1305504 47.5679473,80.0000558 53.6606906,79.4331111 C53.4638103,77.7392334 53.203647,75.8505772 52.901295,73.9514864 L52.8907479,73.9514864 C52.2614339,73.9236609 32.6542616,73.1236776 29.4268303,68.2716049" id="Fill-21" fill="#EBE0BE"></path>
                            <g id="Group-25" transform="translate(5.192970, 88.148148)">
                                <mask id="mask-20" fill="white">
                                    <use xlink:href="#path-19"></use>
                                </mask>
                                <g id="Clip-24"></g>
                                <path d="M37.3558709,44.0570336 C37.3558709,44.0570336 102.031775,62.0050774 124.472434,65.0408207 C124.472434,65.0408207 134.656121,54.1352808 134.540158,57.50755 C134.427709,60.8763137 131.686758,65.8856408 131.686758,65.8856408 C131.686758,65.8856408 155.251909,66.9688332 145.377457,75.5572527 C135.503005,84.1491775 123.910187,73.5591306 123.910187,73.5591306 C123.910187,73.5591306 42.563678,73.2997253 28.6902485,65.5280821 C14.8168191,57.7564389 -9.87282522,19.9393497 5.65220301,4.93941228 C21.1772313,-10.0605251 34.4321897,14.2780038 37.3558709,44.0570336" id="Fill-23" fill="#F4EED8" mask="url(#mask-20)"></path>
                            </g>
                            <path d="M10.4538957,91.2913583 C25.7464059,76.4296982 38.9561187,97.7109363 43.2747505,126.243226 L19.0015765,140 C7.76641523,124.318102 -0.751404711,102.179172 10.4538957,91.2913583" id="Fill-26" fill="#0B43A4"></path>
                        </g>
                    </g>
                </g>
            </g>
        </g>
    </g>
</svg>