<?xml version="1.0" encoding="UTF-8"?>
<svg width="1440px" height="506px" viewBox="0 0 1440 506" version="1.1" xmlns="http://www.w3.org/2000/svg" xmlns:xlink="http://www.w3.org/1999/xlink">
    <!-- Generator: Sketch 49.3 (51167) - http://www.bohemiancoding.com/sketch -->
    <title>Footer@2x</title>
    <desc>Created with Sketch.</desc>
    <defs>
        <linearGradient x1="105.735406%" y1="141.509094%" x2="37.828776%" y2="16.3713898%" id="linearGradient-1">
            <stop stop-color="#6EFFC3" offset="0%"></stop>
            <stop stop-color="#5A95FF" offset="100%"></stop>
        </linearGradient>
        <rect id="path-2" x="0" y="0" width="1440" height="526"></rect>
        <linearGradient x1="-5.21418101%" y1="13.6219909%" x2="55.3845434%" y2="69.7006147%" id="linearGradient-4">
            <stop stop-color="#6EFFC3" offset="0%"></stop>
            <stop stop-color="#5A95FF" offset="100%"></stop>
        </linearGradient>
    </defs>
    <g id="Page-1" stroke="none" stroke-width="1" fill="none" fill-rule="evenodd">
        <g id="Desktop-HD" transform="translate(0.000000, -3674.000000)">
            <g id="Footer" transform="translate(0.000000, 3654.000000)">
                <rect id="Rectangle-7" fill="url(#linearGradient-1)" opacity="0.89232337" x="0" y="138" width="1440" height="388"></rect>
                <mask id="mask-3" fill="white">
                    <use xlink:href="#path-2"></use>
                </mask>
                <g id="Rectangle-7-Copy" opacity="0.89232337"></g>
                <g id="Group-14" opacity="0.410665761" mask="url(#mask-3)">
                    <g transform="translate(-169.000000, 0.000000)">
                        <g id="Hero">
                            <path d="M1380.48185,722.287691 C1373.51797,410.544874 1143.03635,173.166583 901.66633,224.248431 C776.300872,245.206343 609.676987,280.021826 491.298907,360.163257 C371.604819,436.908569 300.148701,558.97983 334.725253,675.904393 C364.476441,791.288448 471.676284,867.193483 566.483715,970.862674 C666.876348,1067.01839 754.860903,1190.93826 875.228663,1229.07984 C1119.72421,1300.16028 1387.29689,1018.98254 1380.48185,722.287691" id="Combined-Shape" fill="url(#linearGradient-4)"></path>
                            <path d="M1380.0219,721.980077 C1373.05802,410.23726 1142.5764,172.858969 901.20638,223.940817 C775.840922,244.898729 609.217037,279.714212 490.838957,359.855643 C371.144869,436.600955 299.688751,558.672216 334.265303,675.596779 C364.01649,790.980834 471.216333,866.885869 566.023765,970.55506 C666.416398,1066.71077 754.400953,1190.63064 874.768713,1228.77222 C1119.26426,1299.85267 1386.83694,1018.67493 1380.0219,721.980077" id="Combined-Shape-Copy" fill="url(#linearGradient-4)" transform="translate(852.844738, 728.451516) rotate(-64.000000) translate(-852.844738, -728.451516) "></path>
                            <g id="Group-6" transform="translate(0.000000, 20.000000)">
                                <g id="Group-5" transform="translate(196.224144, 307.904665) scale(-1, 1) rotate(15.000000) translate(-196.224144, -307.904665) translate(69.724144, 23.904665)">
                                    <g id="Group" transform="translate(123.985342, 141.668642) rotate(-28.000000) translate(-123.985342, -141.668642) translate(73.485342, 9.168642)">
                                        <path d="M97.3478606,127.240464 C95.4298524,137.95991 92.6898409,148.404498 89.401827,158.574229 C82.2777968,180.837694 72.139754,202.276586 62.0017111,223.44062 C56.7956891,234.434923 35.1495976,259.996679 23.6415489,264.944116 C25.0115547,236.084069 25.0115547,202.551443 21.7235408,173.416539 C18.4355269,145.381065 28.5735697,124.21703 17.6135234,98.1055596 C16.2435176,94.8072686 14.8735118,91.5089775 13.2295049,88.2106864 C7.74948169,75.842095 2.26945852,63.4735035 0.625451568,50.0054817 C-1.5665577,33.2391688 3.63946431,13.72428 18.1615257,4.9288372 C28.5735697,-1.39288733 42.2736277,-1.11802974 53.5076752,3.82940685 C64.7417227,8.77684344 73.7837609,17.8471439 80.6337899,28.0168746 C100.087872,56.8769214 103.375886,93.7078382 97.3478606,127.240464 Z" id="Shape" fill="#236DDB" fill-rule="nonzero"></path>
                                        <path d="M46.3836451,34.0637416 C67.7557354,64.5729339 69.6737435,99.7547051 71.5917516,137.135337 C73.5097598,174.241112 64.4677215,211.896601 46.1096439,244.329797" id="Shape" stroke="#0B43A4" stroke-linecap="round" stroke-linejoin="round"></path>
                                    </g>
                                    <g id="Group" transform="translate(114.562763, 428.739198) rotate(-62.000000) translate(-114.562763, -428.739198) translate(54.062763, 332.239198)">
                                        <path d="M83.5703534,161.616262 C68.5002897,148.423098 53.4302259,134.680218 42.1961784,117.913905 C32.6061379,103.346453 26.3041112,86.8549979 17.8100753,71.4629729 C12.3300521,61.5680998 6.02802549,51.9480842 2.74001159,40.9537806 C-0.548002317,29.9594771 0.274001159,17.0411705 7.9460336,8.79544282 C15.8920672,0.274857588 29.8661263,-1.09943035 40.8261726,3.29829106 C51.786219,7.69601247 60.0062537,17.0411705 66.5822815,26.9360436 C75.0763175,40.1292079 80.8303418,55.2463752 83.0223511,70.6384002 C85.2143603,84.6561372 84.666358,99.2235894 86.8583673,113.241326 C88.7763754,126.434491 93.1603939,139.07794 98.9144183,150.896816 C103.846439,161.891119 116.724494,181.131151 120.012507,192.400312 C110.970469,197.347748 90.1463812,167.388271 83.5703534,161.616262 Z" id="Shape" fill="#00AD9F" fill-rule="nonzero"></path>
                                        <path d="M30.9621309,23.6377526 C45.2101912,29.9594771 50.9642155,47.0006476 53.9782282,62.3926725 C57.2662422,79.9835582 56.7182398,98.9487318 64.6642734,114.615614 C79.7343372,144.575091 99.4624206,178.657432 113.984482,188.827163" id="Shape" stroke="#047D74" stroke-linecap="round" stroke-linejoin="round"></path>
                                    </g>
                                    <g id="Group" transform="translate(114.961269, 477.046908) rotate(-50.000000) translate(-114.961269, -477.046908) translate(35.461269, 431.046908)">
                                        <path d="M41.0816184,3.98751157 C28.4775651,-0.95992502 12.0374956,-2.88392814 3.81746084,7.8355178 C-2.75856697,16.9058182 0.529446934,29.8241249 5.18746663,39.9938556 C9.02348285,48.7892985 13.9555037,57.5847413 22.1755385,62.2573203 C27.9295628,65.5556113 34.5055906,66.3801841 40.8076173,67.2047569 C58.6176926,69.4036176 76.701769,70.5030479 94.7858455,70.2281903 C115.609934,70.2281903 141.092041,78.7487756 158.354114,91.9419398 C136.708023,50.438444 83.0037957,20.7538245 41.0816184,3.98751157 Z" id="Shape" fill="#0056EC" fill-rule="nonzero"></path>
                                        <path d="M19.1615257,30.9235552 C35.0535929,31.4732704 50.9456601,32.8475583 66.289725,37.2452797 C81.907791,41.9178587 141.914045,69.4036176 151.230084,81.2224939" id="Shape" stroke="#0B43A4" stroke-linecap="round" stroke-linejoin="round"></path>
                                    </g>
                                    <g id="Group" transform="translate(1.297748, 229.096366)">
                                        <path d="M208.788883,199.646039 C192.622815,174.084284 164.674696,156.21854 134.80857,152.370534 C112.614476,149.347101 89.87238,153.469965 68.2262885,148.797386 C45.2101912,143.849949 24.6601043,129.282497 12.6040533,108.943035 C0.548002317,88.8784314 -2.46601043,63.5915332 4.38401854,41.053211 C9.59004055,24.0120405 21.0980892,7.79544282 38.086161,2.29829106 C47.4022004,-0.725142412 57.5402433,-0.175427235 66.8562827,2.02343347 C75.6243198,4.22229418 83.5703534,7.79544282 90.9683847,12.4680218 C107.956456,23.1874678 121.656514,39.9537806 132.068558,57.5446663 C141.384598,73.761264 164.674696,98.7733045 180.566764,114.989902 C189.882803,124.609918 196.458831,130.931642 196.458831,130.931642 C207.418877,144.674522 202.486856,183.429442 208.788883,199.646039 Z" id="Shape" fill="#52D2BC" fill-rule="nonzero"></path>
                                        <path d="M33.1541402,51.7726569 C86.310365,75.6852671 144.124609,107.29389 181.662768,151.820819" id="Shape" stroke="#00AD9F" stroke-linecap="round" stroke-linejoin="round"></path>
                                    </g>
                                    <g id="Group" transform="translate(126.547193, 255.649500) rotate(-26.000000) translate(-126.547193, -255.649500) translate(66.547193, 92.149500)">
                                        <path d="M115.628489,326.787073 C115.628489,326.787073 36.4421541,262.470397 20.0020846,193.481143 C36.9901564,204.200589 50.6902143,220.966902 61.1022584,238.557787 C70.4182978,254.774385 93.7083962,279.786425 109.600463,296.003023 C111.24447,304.798466 113.43648,314.693339 115.628489,326.787073 Z" id="Shape" fill="#5275A0" fill-rule="nonzero" opacity="0.2"></path>
                                        <path d="M119.190504,70.8946584 C112.066474,93.158123 101.928431,114.597015 91.7903881,135.761049 C86.5843661,146.755353 64.9382746,172.317108 53.4302259,177.264545 C54.8002317,148.404498 54.8002317,114.871872 51.5122178,85.7369681 C48.2242039,57.7014941 58.3622468,36.5374599 47.4022004,10.425989 C46.0321946,7.12769791 44.6621889,3.82940685 43.0181819,0.531115791 C44.1141865,0.805973379 44.93619,1.08083097 46.0321946,1.63054614 C64.1162711,9.32655861 72.3363059,28.5665898 73.9803128,46.9820482 C75.3503186,62.3740731 72.610307,77.7660981 70.4182978,92.8832654 C69.5962943,100.029563 68.7742908,107.17586 70.1442966,114.0473 C70.1442966,114.0473 70.1442966,114.322157 70.1442966,114.322157 C72.0623047,122.567885 84.1183557,122.01817 85.4883615,113.772442 L90.4203823,88.2106864 C91.7903881,80.514674 93.4343951,72.5438039 99.7364217,67.3215097 C102.202432,65.122649 105.490446,64.0232187 108.504459,64.0232187 C113.984482,64.0232187 116.998495,67.0466521 119.190504,70.8946584 Z" id="Shape" fill="#5275A0" fill-rule="nonzero" opacity="0.2"></path>
                                        <path d="M115.628489,310.570475 C103.024436,245.154369 96.4484078,234.984639 101.928431,218.768041 C109.052461,197.878864 104.942444,176.71483 111.518472,155.825653 C118.094499,134.661619 122.752519,112.123297 117.272496,90.6844047 C115.628489,83.812965 112.066474,76.6666677 104.12044,76.3918101 C100.832426,76.3918101 97.8184136,77.4912405 95.3524032,79.6901012 C89.0503765,84.9123954 87.4063696,93.158123 86.0363638,100.579278 L81.3783441,126.141034 C79.7343372,134.386761 67.9522873,134.936476 66.0342792,126.690749 C66.0342792,126.690749 66.0342792,126.415891 66.0342792,126.415891 C64.3902723,119.544451 65.2122757,112.398154 66.3082804,105.251857 C68.2262885,89.859832 71.2403012,74.7426646 69.8702954,59.3506397 C68.2262885,40.6603237 60.0062537,21.6951501 41.9221773,13.9991376 C35.6201506,11.2505617 28.2221193,10.7008466 21.6460915,12.3499921 C2.74001159,17.2974287 -2.19200927,35.7128871 0.822003476,51.3797696 C2.74001159,62.3740731 7.9460336,72.5438039 12.6040533,82.9883923 C24.112102,108.000433 15.618066,130.813613 17.262073,158.299371 C21.3720904,234.160066 115.628489,310.570475 115.628489,310.570475 Z" id="Shape" fill="#7EE8D4" fill-rule="nonzero"></path>
                                        <path d="M31.5101332,32.1397384 C40.8261726,78.5906709 50.142212,125.591318 68.2262885,169.568533 C73.4323105,182.486839 76.1723221,199.253152 106.586451,234.434923" id="Shape" stroke="#00AD9F" stroke-linecap="round" stroke-linejoin="round"></path>
                                    </g>
                                </g>
                            </g>
                            <g id="Group" transform="translate(1534.000000, 283.500000) scale(-1, 1) rotate(-30.000000) translate(-1534.000000, -283.500000) translate(1337.000000, 71.000000)">
                                <g id="Group-4">
                                    <path d="M33.2679673,357.709063 C36.2531749,275.892985 78.7923823,200.027168 131.033514,136.061871 C174.319024,82.5095289 225.813854,34.1636649 289.995816,9.61884166 C310.145967,2.18101642 332.535023,-3.02546124 353.431476,2.18101642 C374.327929,7.38749409 392.985476,25.2382746 393.731778,46.8079678 C393.731778,64.6587484 381.790948,81.0219639 369.103815,93.6662668 C326.564608,136.061871 272.08457,162.838041 221.336042,193.333125 C133.27242,246.141684 49.6866088,316.801024 14.6104202,413.492752" id="Shape" fill="#52D2BC" fill-rule="nonzero"></path>
                                    <path d="M65.3589484,286.30594 C119.092684,166.556954 257.904835,60.1960532 349.699966,46.8079678" id="Shape" stroke="#00AD9F" stroke-linecap="round" stroke-linejoin="round"></path>
                                    <path d="M0.471620789,424.363671 C-0.274681096,410.975585 44.503432,374.530242 54.9516584,365.604851 C110.9243,315.02764 178.091469,277.838514 248.243847,255.525038 C276.603318,246.599648 307.201695,239.905605 335.561167,247.34343 C363.920639,254.037473 390.041205,277.838514 393.026412,308.333597 C396.01162,338.084898 375.861469,367.092416 350.487205,381.968067 C325.112941,396.099935 295.260865,398.331282 266.155092,396.843717 C222.123281,394.61237 178.837771,383.455632 134.80596,383.455632 C90.7741488,383.455632 28.0847905,387.918327 0.471620789,424.363671 Z" id="Shape" fill="#00AD9F" fill-rule="nonzero"></path>
                                    <path d="M45.9960358,382.711849 C136.298564,333.622203 272.871809,302.383337 372.129959,314.283857" id="Shape" stroke="#00AD9F" stroke-linecap="round" stroke-linejoin="round"></path>
                                </g>
                            </g>
                            <g id="Group-2" transform="translate(1045.356077, 358.000000) rotate(-270.000000) translate(-1045.356077, -358.000000) translate(760.356077, -129.000000)">
                                <g id="Group" transform="translate(301.286291, 581.370741) rotate(-90.000000) translate(-301.286291, -581.370741) translate(171.286291, 386.370741)">
                                    <path d="M10.5931897,315.795494 C31.1617521,282.160471 20.690484,238.808664 27.7959874,200.315249 C33.4055953,170.41745 49.8604453,143.135709 73.4207986,124.075863 C88.3797531,112.116744 109.322289,103.894849 126.151113,112.864189 C129.890852,114.732801 134.004564,117.348858 137.744303,115.480246 C139.988146,114.359078 140.736094,111.743021 141.110068,109.126964 C145.22378,88.198505 135.50046,65.4014338 143.353911,45.5941424 C147.841597,35.129913 156.81697,26.9080185 166.54029,20.9284588 C185.238983,8.96933949 206.929467,2.24233487 229.367899,1.12116744 C235.351481,0.747444957 241.335063,1.12116744 246.570697,3.73722479 C255.920043,8.59561701 260.40773,20.1810138 259.285808,31.0189657 C258.163886,41.4831951 252.180305,50.8262571 245.822749,59.4218741 C224.506239,87.45106 192.718461,111.743021 188.604748,146.872934 C188.230774,151.357604 188.230774,155.842274 190.100644,159.953221 C191.970513,163.690446 195.710251,166.680225 197.954095,170.41745 C204.685624,182.37657 191.970513,196.204301 179.255402,202.183861 C168.036186,207.789698 155.321074,211.1532 142.979937,212.274368 C134.378538,213.021813 124.655218,213.395535 118.671636,219.748817 C107.826394,231.707937 120.167531,250.394061 117.923688,266.464127 C116.427793,276.554634 109.322289,284.402806 102.216786,291.129811 C88.7537269,303.836375 74.1687463,315.421772 58.4618441,325.512279 C45.7467328,333.734173 32.2836737,340.834901 21.0644579,350.925407 C9.845242,361.015914 0.869869311,374.469924 0.121921586,389.418823" id="Shape" fill="#1C59B3" fill-rule="nonzero"></path>
                                    <path d="M37.5193078,283.281639 C40.8850726,266.83785 48.3645498,251.888951 55.844027,236.940051 C67.4372168,213.769258 79.4043804,190.224742 97.3551257,171.164895 C110.818185,156.589719 127.273035,145.378044 141.110068,131.17659 C150.833388,121.086083 159.060813,109.500686 165.792343,97.1678444 C169.158107,90.4408398 172.523872,83.3401127 177.011558,77.3605531 C182.621166,70.259826 190.474617,65.4014338 197.206147,59.0481516 C206.18152,50.8262571 213.660997,40.7357502 218.522657,29.5240758" id="Shape" stroke="#0B43A4" stroke-linecap="round" stroke-linejoin="round"></path>
                                </g>
                                <g id="Group" transform="translate(382.942141, 788.787504) rotate(-60.000000) translate(-382.942141, -788.787504) translate(248.942141, 650.787504)">
                                    <path d="M265.402686,275.313993 C252.313601,260.365094 239.972464,245.042472 227.257352,230.467295 C219.029927,221.124233 210.428529,211.781172 201.079182,202.811832 C196.591496,198.327162 191.729836,194.216215 186.868175,190.105268 C157.32424,165.813307 124.040566,145.25857 88.8870234,130.309671 C67.5705133,121.340332 45.1320816,113.865882 26.8073623,99.2907055 C8.85661692,84.7155288 -4.23246825,60.7972902 1.75111354,38.7476639 C6.23879989,22.6775973 19.7018589,9.97103306 35.782735,4.36519588 C51.4896372,-1.2406413 69.0664087,-0.866918825 85.1472848,2.49658348 C130.772096,12.2133679 168.91743,45.100946 194.721626,83.9680838 C195.0956,84.7155288 195.469574,85.4629737 196.217522,86.2104187 C215.290189,115.360772 228.379274,147.500905 239.972464,180.014761 C243.712202,190.47899 247.077967,201.316942 250.817706,211.781172 C256.05334,227.103793 272.134216,259.617649 265.402686,275.313993 Z" id="Shape" fill="#0D429D" fill-rule="nonzero"></path>
                                    <path d="M56.7252713,40.2425538 C106.463795,49.5856158 141.617338,82.8469164 178.64075,117.229384 C215.664163,151.611852 242.216307,197.205995 254.931418,246.16364" id="Shape" stroke="#407ADF" stroke-linecap="round" stroke-linejoin="round"></path>
                                </g>
                                <g id="Group" transform="translate(367.417152, 686.587167) rotate(-90.000000) translate(-367.417152, -686.587167) translate(304.917152, 559.087167)">
                                    <path d="M36.5306827,235.419872 C36.1567089,240.651987 36.1567089,245.884101 37.2786304,251.116216 C24.937493,248.126436 16.3360942,229.06659 10.3525124,207.764409 C4.74290444,187.209672 2.1250874,165.160046 1.00316582,155.069539 C-0.492729632,133.393635 0.629191955,111.717732 5.1168783,90.4155503 C24.1895453,119.565904 37.2786304,151.706037 48.8718202,184.219892 C44.7581077,196.179012 41.3923429,207.764409 38.7745259,220.09725 C38.0265782,225.329365 36.9046566,230.187757 36.5306827,235.419872 Z" id="Shape" fill="#5275A0" fill-rule="nonzero" opacity="0.2"></path>
                                    <path d="M122.918645,56.0330823 C118.804932,74.7192062 107.585717,90.7892728 97.4884223,107.233062 C92.2527882,115.828679 87.391128,124.798018 82.9034416,133.767358 C68.318461,162.543989 57.0992451,192.815509 49.6197679,224.208198 C47.3759247,234.672427 45.8800293,244.389212 47.7498986,254.853441 C23.0676237,249.247604 13.3443033,179.735223 11.8484078,158.806764 C8.85661692,121.434516 15.2141726,83.3148232 30.5471009,48.9323552 C37.2786304,33.9834561 45.8800293,19.0345569 59.3430883,9.69149495 C72.8061473,-0.025289491 91.5048405,-3.3887918 105.715847,5.20682521 C114.317246,10.0652174 119.55288,18.6608344 122.170697,28.0038964 C124.788514,36.9732359 125.162488,46.6900203 122.918645,56.0330823 Z" id="Shape" fill="#52D2BC" fill-rule="nonzero"></path>
                                    <path d="M38.400552,234.298705 C23.0676237,196.179012 32.4169702,115.081234 56.7252713,63.8812544 C64.2047485,48.5586327 74.6760167,33.9834561 89.2609973,25.3878391" id="Shape" stroke="#00AD9F" stroke-linecap="round" stroke-linejoin="round"></path>
                                </g>
                                <g id="Group" transform="translate(358.186875, 550.172447) rotate(-90.000000) translate(-358.186875, -550.172447) translate(259.186875, 413.672447)">
                                    <path d="M53.1782833,29.8725088 C49.0645708,48.5586327 37.8453549,64.6286993 27.7480606,81.0724884 C22.5124266,89.6681054 17.6507663,98.6374449 13.16308,107.606784 C6.43155048,96.39511 1.94386414,83.6885457 0.44796869,70.9819815 C-1.79587448,49.3060777 6.80552435,26.135284 24.3822959,13.0549973 C32.6097208,7.0754376 42.3330413,3.7119353 52.4303355,2.21704538 C55.0481526,10.8126624 55.4221264,20.5294468 53.1782833,29.8725088 Z" id="Shape" fill="#5275A0" fill-rule="nonzero" opacity="0.2"></path>
                                    <path d="M194.914377,192.068065 C193.792455,199.168792 191.548612,205.895796 188.556821,212.622801 C177.711579,236.167317 154.899174,256.348331 120.493578,272.79212 C120.493578,272.79212 118.623709,235.419872 118.249735,225.703088 C116.75384,183.098725 70.3810809,159.554209 40.8371458,128.161521 C25.8781913,112.465177 14.6589755,92.2841627 12.4151323,70.608259 C10.1712891,48.9323552 18.7726879,25.7615615 36.3494595,12.6812748 C51.3084139,1.8433229 70.3810809,-0.39901197 88.7058002,1.09587794 C118.249735,3.33821282 147.79367,15.6710546 166.11839,38.8418483 C166.866337,39.5892932 167.614285,40.7104607 168.362233,41.4579056 C179.581449,56.7805273 185.191057,75.4666512 189.678743,93.7790526 C196.784246,125.919186 200.150011,159.554209 194.914377,192.068065 Z" id="Shape" fill="#00AD9F" fill-rule="nonzero"></path>
                                    <path d="M49.0645708,35.8520685 C81.2263229,52.2958575 113.388075,72.4768714 132.086768,103.495837 C158.264939,146.473922 152.281357,202.532294 132.460742,248.873881" id="Shape" stroke="#00AD9F" stroke-linecap="round" stroke-linejoin="round"></path>
                                </g>
                                <g id="Group" transform="translate(367.642099, 308.502891) rotate(-90.000000) translate(-367.642099, -308.502891) translate(194.642099, 111.502891)">
                                    <path d="M40.2704213,287.392586 C39.1484998,294.493313 36.9046566,301.220318 33.9128657,307.947322 C18.2059635,274.312299 3.99495671,230.213047 0.629191955,176.39701 C-0.11875577,161.821833 3.62098285,146.872934 11.474434,134.16637 C12.2223817,134.913815 12.9703294,136.034982 13.7182771,136.782427 C24.937493,152.105049 30.5471009,170.791173 35.0347873,189.103574 C42.1402907,221.243707 45.5060554,254.87873 40.2704213,287.392586 Z" id="Shape" fill="#5275A0" fill-rule="nonzero" opacity="0.2"></path>
                                    <path d="M196.96547,285.523974 C230.623117,273.564854 265.77666,263.84807 296.816491,245.535668 C306.165837,239.929831 315.14121,233.576549 321.498766,224.980932 C328.230295,216.385315 331.970034,205.547363 330.848112,194.709411 C329.352217,183.871459 322.246713,173.40723 324.86453,162.569278 C326.360426,155.468551 331.59606,149.862714 335.709772,143.883154 C345.433093,129.6817 348.424884,110.995576 343.18925,94.1780646 C337.953616,76.2393856 324.490557,62.0379315 317.011079,45.2204199 C310.653524,31.3926882 308.409681,15.6963441 310.653524,0.747444957 C282.23151,1.12116744 256.427314,16.4437891 228.379274,21.6759038 C207.062764,25.786851 184.998306,23.5445162 163.681796,28.4029084 C125.162488,37.3722479 93.7486836,71.0072709 87.7651018,110.248131 C69.8143565,107.258351 50.7416895,113.611634 38.0265782,126.69192 C24.937493,140.893374 17.4580158,160.700666 18.5799373,180.134235 C27.1813362,319.906442 107.585717,393.156048 107.585717,393.156048 C107.585717,393.156048 183.876384,290.008643 196.96547,285.523974 Z" id="Shape" fill="#7EE8D4" fill-rule="nonzero"></path>
                                    <g transform="translate(77.319159, 33.635023)" id="Shape" stroke="#00AD9F" stroke-linecap="round" stroke-linejoin="round">
                                        <path d="M43.7296163,250.767783 C40.3638516,216.385315 52.3310152,182.002847 66.1680481,150.236436 C79.6311071,119.217471 95.3380093,88.9459499 115.906572,62.4116539 C136.849108,35.8773579 163.401252,13.0802868 194.441083,-1.42108547e-14"></path>
                                        <path d="M74.0214992,21.3021813 C70.6557344,51.9474245 72.8995776,88.9459499 81.1270025,119.217471"></path>
                                        <path d="M86.7366105,108.005796 C121.890154,85.5824476 176.116364,71.7547159 217.627462,73.9970508"></path>
                                        <path d="M0.722622181,113.611634 C42.9816686,131.550312 44.8515379,193.588244 45.9734595,211.1532"></path>
                                        <path d="M57.5666492,171.91234 C90.1023752,148.741547 136.849108,141.640819 171.254703,150.236436"></path>
                                        <path d="M145.824481,5.2321147 C136.10116,17.191234 133.483343,31.3926882 134.605265,41.4831951"></path>
                                        <path d="M143.954611,32.8875781 C158.913566,25.4131285 178.734181,23.5445162 200.050691,28.7766309"></path>
                                    </g>
                                </g>
                                <g id="Group" transform="translate(260.608477, 739.904348) rotate(-90.000000) translate(-260.608477, -739.904348) translate(58.108477, 479.404348)">
                                    <path d="M59.0625447,169.644716 C63.1762572,169.270993 90.1023752,149.463702 100.573643,142.736697 C103.565434,140.868085 106.557225,138.999473 108.427094,136.009693 C110.296964,133.019913 111.418885,129.282688 109.92299,126.292908 C108.053121,122.181961 105.06133,118.444736 97.2078786,118.444736 C83.7448196,118.444736 78.8831594,122.929406 72.5256037,129.656411 C50.8351197,151.706037 59.0625447,169.644716 59.0625447,169.644716 Z" id="Shape" fill="#4A49CA" fill-rule="nonzero"></path>
                                    <path d="M180.60405,250.368771 C192.571213,255.600886 204.912351,260.833001 218.001436,259.338111 C222.863096,258.590666 228.472704,256.348331 229.9686,251.863661 C231.464495,247.752714 229.594626,243.268044 226.228861,240.278264 C222.863096,237.288484 218.749384,236.167317 214.635671,235.04615 C198.928769,231.308925 176.864311,233.177537 161.157409,237.662207 C161.157409,237.662207 173.498546,247.378991 180.60405,250.368771 Z" id="Shape" fill="#4A49CA" fill-rule="nonzero"></path>
                                    <path d="M258.390613,76.2140962 C253.154979,72.8505938 247.171397,68.3659241 247.171397,62.3863644 C247.171397,56.0330823 253.528953,51.5484126 259.886509,51.1746901 C266.244064,51.1746901 271.853672,54.5381924 276.715332,58.6491397 C296.535947,76.2140962 294.292104,96.0213875 294.292104,96.0213875 C294.292104,96.0213875 264.374195,79.9513209 258.390613,76.2140962 Z" id="Shape" fill="#4A49CA" fill-rule="nonzero"></path>
                                    <path d="M274.097515,22.7717817 C269.609829,20.9031693 264.748169,18.287112 262.130352,14.1761647 C260.634456,11.9338298 259.886509,9.31777248 261.00843,7.0754376 C262.504326,3.33821282 264.748169,-0.39901197 274.471489,1.46960042 C305.137346,7.0754376 311.868875,28.0038964 311.868875,28.0038964 C311.868875,28.0038964 282.32494,26.5090065 274.097515,22.7717817 Z" id="Shape" fill="#4A49CA" fill-rule="nonzero"></path>
                                    <path d="M364.59919,69.4870915 C376.940328,68.3659241 389.655439,62.3863644 397.50889,52.66958 C400.500681,48.9323552 403.118498,44.8214079 404.240419,40.3367382 C405.362341,35.8520685 404.240419,30.6199538 400.500681,27.2564514 C396.012994,23.5192267 389.281465,24.2666716 384.419805,27.2564514 C379.558145,30.2462313 376.566354,35.478346 373.948537,40.7104607 C370.956746,47.8111878 364.59919,69.4870915 364.59919,69.4870915 Z" id="Shape" fill="#4A49CA" fill-rule="nonzero"></path>
                                    <path d="M143.580638,520.570123 C113.662729,494.035827 83.7448196,467.875254 53.8269106,441.340958 C37.7460345,427.139504 21.6651585,412.938049 11.5678642,394.251925 C-10.1226198,353.889898 2.21851763,301.568751 31.7624527,266.81256 C61.3063878,231.682647 104.313382,211.127911 147.320376,195.805289 C190.701344,180.85639 235.578208,170.018438 276.715332,150.211147 C302.519529,137.878305 328.697699,119.192181 335.429229,91.1629953 C339.542941,74.3454838 336.177177,56.0330823 326.079882,41.8316281 C315.982588,28.0038964 299.153764,19.0345569 281.950967,17.9133895" id="Shape" stroke="#0B43A4" stroke-linecap="round" stroke-linejoin="round"></path>
                                    <path d="M385.541726,41.0841832 C377.314301,66.1235892 345.526523,81.4462109 330.941542,103.122115" id="Shape" stroke="#0B43A4" stroke-linecap="round" stroke-linejoin="round"></path>
                                    <path d="M271.105725,69.860814 C277.46328,76.5878186 284.942757,81.8199333 290.552365,89.2943829 C302.145555,104.617005 303.267477,129.656411 286.064679,145.352755" id="Shape" stroke="#0B43A4" stroke-linecap="round" stroke-linejoin="round"></path>
                                    <path d="M109.549016,210.380466 C136.10116,230.56148 170.880729,244.389212 204.164403,245.510379" id="Shape" stroke="#0B43A4" stroke-linecap="round" stroke-linejoin="round"></path>
                                    <path d="M48.9652504,247.378991 C36.6241129,211.501633 50.087172,168.523548 80.3790548,145.726477" id="Shape" stroke="#0B43A4" stroke-linecap="round" stroke-linejoin="round"></path>
                                </g>
                                <g id="Group" transform="translate(313.129221, 179.783228) rotate(-90.000000) translate(-313.129221, -179.783228) translate(133.629221, -46.716772)">
                                    <path d="M3.73973862,21.9554419 C2.24384317,17.4707721 2.24384317,12.2386574 5.60960793,8.87515511 C8.22742497,6.25909776 12.7151113,5.13793032 16.0808761,6.63282024 C42.2590464,18.2182171 39.6412294,59.3276897 39.6412294,59.3276897 C39.6412294,59.3276897 14.5849806,55.2167425 3.73973862,21.9554419 Z" id="Shape" fill="#4A49CA" fill-rule="nonzero"></path>
                                    <path d="M3.36576476,98.56855 C-13.463059,129.213793 46.7467328,126.971458 68.4372168,109.032779 C68.4372168,109.032779 17.9507454,72.4079765 3.36576476,98.56855 Z" id="Shape" fill="#4A49CA" fill-rule="nonzero"></path>
                                    <path d="M79.6564326,24.1977767 C75.5427202,18.5919396 74.0468247,10.370045 78.5345111,4.76420785 C81.9002758,0.653260581 87.5098837,-0.467906855 92.7455178,0.653260581 C97.9811519,1.77442802 105.460629,6.25909776 108.826394,10.370045 C128.647009,35.0357286 119.297662,59.3276897 119.297662,59.3276897 C119.297662,59.3276897 86.3879622,33.5408387 79.6564326,24.1977767 Z" id="Shape" fill="#4A49CA" fill-rule="nonzero"></path>
                                    <path d="M319.747652,100.437162 C318.251757,95.5787702 318.625731,89.972933 322.365469,86.6094307 C324.609312,84.3670958 327.975077,83.6196508 331.340842,83.9933733 C334.332633,84.3670958 337.324424,85.4882632 340.316215,86.6094307 C346.299796,89.5992105 351.161457,94.4576027 354.153247,100.437162 C361.632725,115.759784 356.397091,134.81963 356.397091,134.81963 C356.397091,134.81963 323.487391,112.396282 319.747652,100.437162 Z" id="Shape" fill="#4A49CA" fill-rule="nonzero"></path>
                                    <path d="M244.204932,156.495534 C233.35969,147.152472 217.278814,144.162692 204.189729,150.142252 C200.823964,151.637142 197.832173,153.505754 195.58833,156.495534 C190.72667,163.222539 192.596539,172.565601 197.458199,179.292605 C202.319859,185.645888 209.799337,189.756835 217.278814,193.120337 C230.741873,199.099897 251.684409,200.594787 265.895416,203.958289 C265.895416,203.958289 265.895416,175.555381 244.204932,156.495534 Z" id="Shape" fill="#4A49CA" fill-rule="nonzero"></path>
                                    <path d="M22.8124056,28.6824465 C31.7877783,57.8327998 56.844027,79.8824261 84.8920667,91.4678229 C112.940106,103.426942 143.605963,106.416722 174.27182,108.285334 C204.563703,110.153947 235.229559,111.275114 264.773494,119.123286 C293.569482,126.971458 321.991495,143.041525 334.332633,169.949543 C349.291587,202.837122 336.202502,242.077982 314.885992,271.228335 C293.943456,300.752411 265.521442,324.296927 245.326854,354.194725 C235.977507,368.022457 228.124056,384.092524 229.993925,400.536313 C232.611742,422.585939 250.936462,438.656006 268.139259,452.483737" id="Shape" stroke="#0B43A4" stroke-linecap="round" stroke-linejoin="round"></path>
                                    <path d="M92.7455178,17.8444946 C112.940106,40.2678433 129.020982,75.0240338 132.760721,104.54811" id="Shape" stroke="#0B43A4" stroke-linecap="round" stroke-linejoin="round"></path>
                                    <path d="M25.0562488,103.800665 C36.6494385,106.790445 48.2426282,109.780224 60.2097918,109.780224 C72.1769554,109.780224 86.0139883,103.05322 94.6153871,94.8313252" id="Shape" stroke="#0B43A4" stroke-linecap="round" stroke-linejoin="round"></path>
                                    <path d="M339.568267,101.932052 C350.413509,112.396282 356.771064,126.971458 357.519012,141.920358 C357.892986,156.869257 349.665561,175.181658 339.942241,186.393332" id="Shape" stroke="#0B43A4" stroke-linecap="round" stroke-linejoin="round"></path>
                                    <path d="M226.62816,169.949543 C248.318644,189.756835 267.017338,205.826901 290.951665,222.644413 C301.796907,230.492585 323.487391,240.209369 333.210711,237.593312" id="Shape" stroke="#0B43A4" stroke-linecap="round" stroke-linejoin="round"></path>
                                </g>
                            </g>
                            <g id="Group" transform="translate(664.000000, 432.500000) scale(-1, 1) translate(-664.000000, -432.500000) translate(531.000000, 327.000000)">
                                <g id="Group-3">
                                    <path d="M261.838941,85.4854109 C258.146441,99.9379804 252.299983,114.39055 242.761025,126.075606 C235.991442,134.070644 227.683317,140.220674 218.759776,145.448199 C214.144151,148.215712 209.220818,150.368223 204.297485,152.520733 C184.911861,160.515772 164.295404,165.128294 143.371238,166.050798 C112.908115,167.280804 81.8295746,160.515772 52.5972844,169.125813 C39.0581184,173.123332 26.7497856,180.195866 16.9031195,190.035913 C10.4412448,195.878442 5.21020337,202.950976 0.902286919,210.331011 L4.90249506,185.11589 C12.2874947,158.05576 19.6724943,130.380627 34.7502019,106.703013 C44.2891598,91.327939 56.9052008,77.7978739 70.4443668,65.4978148 C91.9839491,45.8177202 115.67749,28.290136 141.832697,15.6825754 C163.064571,5.5350266 186.450403,-1.84500887 209.836235,0.922504434 C233.222067,3.69001774 255.992483,18.4500887 263.377482,40.8976966 C267.685399,55.0427646 265.531441,70.7253399 261.838941,85.4854109 Z" id="Shape" fill="#BDD8FF" fill-rule="nonzero"></path>
                                    <path d="M24.2881191,165.743297 C46.7508263,132.840639 79.9833247,107.318016 117.831448,94.7104552 C141.524988,86.7154168 166.449362,83.9479035 190.142903,76.8753695 C214.144151,70.110337 237.837692,58.4252808 251.992275,37.8226818" id="Shape" stroke="#0B43A4" stroke-linecap="round" stroke-linejoin="round"></path>
                                    <path d="M219.260289,146.310489 C214.644664,149.078002 209.721331,151.230512 204.797998,153.383023 C185.412374,161.378061 164.795917,165.990583 143.871751,166.913088 C113.408628,168.143094 82.3300875,161.378061 53.0977973,169.988102 C39.5586313,173.985622 27.2502985,181.058156 17.4036324,190.898203 C16.4805074,191.513206 15.2496741,191.820707 14.3265492,192.43571 C11.8648826,171.833111 63.2521718,145.080483 78.945296,138.007949 C106.946753,125.400388 138.64071,119.865361 169.411542,122.325373 C182.950708,123.555379 196.797582,126.015391 207.875081,133.702928 C212.182998,136.777943 216.490914,141.082963 219.260289,146.310489 Z" id="Shape" fill="#5275A0" fill-rule="nonzero" opacity="0.2"></path>
                                    <path d="M169.103833,134.317931 C182.642999,135.240435 196.489874,138.007949 207.567373,145.695486 C218.644872,153.383023 226.645289,166.913088 223.875914,180.443153 C220.798831,195.818227 204.797998,205.965775 189.412582,207.810784 C174.027166,209.655793 158.026334,205.350772 142.640918,202.275758 C108.485295,195.203224 73.4065463,193.665716 38.6355063,197.663235 C30.0196734,198.58574 21.7115488,200.430749 14.3265492,204.735769 C11.8648826,184.13317 63.2521718,157.380542 78.945296,150.308008 C106.946753,137.700447 138.333001,131.857919 169.103833,134.317931 Z" id="Shape" fill="#52D2BC" fill-rule="nonzero"></path>
                                    <path d="M27.5580069,191.513206 C53.0977973,169.065598 118.331961,153.998026 164.795917,158.918049 C178.642791,160.455557 192.797374,164.453076 203.567165,173.67812" id="Shape" stroke="#00AD9F" stroke-linecap="round" stroke-linejoin="round"></path>
                                </g>
                            </g>
                        </g>
                        <g id="Group" transform="translate(1381.000000, 187.500000) scale(-1, 1) translate(-1381.000000, -187.500000) translate(1323.000000, 161.000000)"></g>
                    </g>
                </g>
            </g>
        </g>
    </g>
</svg>