<?xml version="1.0" encoding="UTF-8"?>
<svg width="1440px" height="433px" viewBox="0 0 1440 433" version="1.1" xmlns="http://www.w3.org/2000/svg" xmlns:xlink="http://www.w3.org/1999/xlink">
    <!-- Generator: Sketch 49.3 (51167) - http://www.bohemiancoding.com/sketch -->
    <title>Heroinnerpage@2x</title>
    <desc>Created with Sketch.</desc>
    <defs>
        <linearGradient x1="105.735406%" y1="141.509094%" x2="37.828776%" y2="16.3713898%" id="linearGradient-1">
            <stop stop-color="#6EFFC3" offset="0%"></stop>
            <stop stop-color="#5A95FF" offset="100%"></stop>
        </linearGradient>
        <rect id="path-2" x="0" y="0" width="1440" height="433"></rect>
        <linearGradient x1="-5.21418101%" y1="13.6219909%" x2="55.3845434%" y2="69.7006147%" id="linearGradient-4">
            <stop stop-color="#6EFFC3" offset="0%"></stop>
            <stop stop-color="#5A95FF" offset="100%"></stop>
        </linearGradient>
        <linearGradient x1="33.3967247%" y1="8.25424787%" x2="87.1069562%" y2="81.9462991%" id="linearGradient-5">
            <stop stop-color="#6EFFC3" offset="0%"></stop>
            <stop stop-color="#5A95FF" offset="100%"></stop>
        </linearGradient>
        <path d="M520.900415,127.478781 C643.219813,261.187912 644.563903,503.554287 514.673604,558.115233 C449.459371,583.531737 366.931034,556.123132 287.234854,539.939066 C206.214955,526.174395 127.895455,521.402788 69.1014133,479.06653 C7.68841108,437.743919 -11.8822642,356.253147 6.78110794,278.360745 C23.5316116,199.379257 53.1535737,121.140536 96.6347743,66.8241419 C176.028497,-42.6768124 392.458656,-13.0820723 520.900415,127.478781 Z" id="path-6"></path>
        <path d="M16.7617172,299.163633 C12.1750276,299.163633 8.45630926,295.430617 8.45630926,290.82513 L8.45630926,14.869297 C8.45630926,10.2649728 12.1750276,6.53195705 16.7617172,6.53195705 L143.907,6.53195705 C148.494848,6.53195705 152.213567,10.2649728 152.213567,14.869297 L152.213567,290.82513 C152.213567,295.430617 148.494848,299.163633 143.907,299.163633 L16.7617172,299.163633 Z" id="path-8"></path>
        <filter x="-269.4%" y="-180.6%" width="638.9%" height="638.9%" filterUnits="objectBoundingBox" id="filter-10">
            <feOffset dx="0" dy="32" in="SourceAlpha" result="shadowOffsetOuter1"></feOffset>
            <feGaussianBlur stdDeviation="27" in="shadowOffsetOuter1" result="shadowBlurOuter1"></feGaussianBlur>
            <feColorMatrix values="0 0 0 0 0   0 0 0 0 0   0 0 0 0 0  0 0 0 0.252774004 0" type="matrix" in="shadowBlurOuter1" result="shadowMatrixOuter1"></feColorMatrix>
            <feMerge>
                <feMergeNode in="shadowMatrixOuter1"></feMergeNode>
                <feMergeNode in="SourceGraphic"></feMergeNode>
            </feMerge>
        </filter>
        <polygon id="path-11" points="0.202914673 0.200139348 35.424068 0.200139348 35.424068 35.2175472 0.202914673 35.2175472"></polygon>
        <polygon id="path-13" points="6.895619e-05 0.186944702 36.153527 0.186944702 36.153527 30.9536424 6.895619e-05 30.9536424"></polygon>
        <polygon id="path-15" points="0 0.558252285 129.137393 0.558252285 129.137393 68.17123 0 68.17123"></polygon>
        <polygon id="path-17" points="0.528058646 0.286875627 111.628748 0.286875627 111.628748 59.5810722 0.528058646 59.5810722"></polygon>
    </defs>
    <g id="Page-1" stroke="none" stroke-width="1" fill="none" fill-rule="evenodd">
        <g id="Heroinnerpage">
            <mask id="mask-3" fill="white">
                <use xlink:href="#path-2"></use>
            </mask>
            <use id="Rectangle-7" fill="url(#linearGradient-1)" opacity="0.89232337" xlink:href="#path-2"></use>
            <g id="Group-14" opacity="0.410665761" mask="url(#mask-3)">
                <g transform="translate(916.000000, 59.000000)">
                    <g id="Hero">
                        <path d="M534.896879,305.978084 C531.36438,147.77877 414.450182,27.3170279 292.012729,53.2393998 C228.419798,63.8748569 143.898101,81.542579 83.8495889,122.211742 C23.1335184,161.157486 -13.1133399,223.10467 4.42597521,282.440073 C19.5175744,340.993719 73.895809,379.513049 121.987864,432.121783 C172.913071,480.917672 217.544151,543.802966 278.601948,563.158574 C402.624853,599.229581 538.353881,456.541048 534.896879,305.978084" id="Combined-Shape" fill="url(#linearGradient-4)" opacity="0.607959692"></path>
                        <g id="Group-6" transform="translate(27.228583, 0.000000)">
                            <mask id="mask-7" fill="white">
                                <use xlink:href="#path-6"></use>
                            </mask>
                            <use id="Mask" fill="url(#linearGradient-5)" transform="translate(306.187255, 284.403776) rotate(180.000000) translate(-306.187255, -284.403776) " xlink:href="#path-6"></use>
                            <g id="Group-5" mask="url(#mask-7)">
                                <g transform="translate(41.078338, 301.515779) scale(-1, 1) rotate(15.000000) translate(-41.078338, -301.515779) translate(-11.421662, 184.515779)" id="Group">
                                    <g transform="translate(50.863820, 58.446878) rotate(-28.000000) translate(-50.863820, -58.446878) translate(29.863820, 3.946878)">
                                        <path d="M40.4603258,52.2929186 C39.671257,56.6983656 38.5440157,60.9908523 37.1913263,65.1703789 C34.2604991,74.3201534 30.0897067,83.1310473 25.9189142,91.828981 C23.7771559,96.3473881 14.8719503,106.852685 10.1375372,108.885968 C10.7011578,97.0251492 10.7011578,83.2440075 9.34846837,71.2702286 C7.99577891,59.7482904 12.1665714,51.0503566 7.65760655,40.3191397 C7.09398594,38.9636176 6.53036534,37.6080954 5.85402061,36.2525733 C3.59953819,31.1693653 1.34505577,26.0861573 0.668711039,20.5511085 C-0.23308193,13.6605376 1.90867637,5.64036499 7.88305479,2.02563929 C12.1665714,-0.572444813 17.8027775,-0.459484635 22.4244664,1.57379857 C27.0461554,3.60708178 30.7660514,7.33476766 33.5841544,11.5142943 C41.587567,23.375113 42.9402565,38.5117769 40.4603258,52.2929186 Z" id="Shape" fill="#236DDB" fill-rule="nonzero"></path>
                                        <path d="M19.4936393,13.9994182 C28.2861207,26.537998 29.0751896,40.9969008 29.8642584,56.359485 C30.6533273,71.6091091 26.9334313,87.0846535 19.3809152,100.413955" id="Shape" stroke="#0B43A4" stroke-linecap="round" stroke-linejoin="round"></path>
                                    </g>
                                    <g transform="translate(47.483842, 176.360974) rotate(-62.000000) translate(-47.483842, -176.360974) translate(22.483842, 136.360974)">
                                        <path d="M34.380857,66.4205848 C28.1810303,60.9984963 21.9812036,55.3504873 17.3595147,48.4599165 C13.4141704,42.473027 10.8215156,35.6954163 7.32706787,29.3696463 C5.07258545,25.3030799 2.47993067,21.3494737 1.12724121,16.8310666 C-0.225448242,12.3126594 0.112724121,7.00353105 3.26899951,3.6147257 C6.53799903,0.112960178 12.2869292,-0.451840713 16.7958941,1.35552214 C21.3048589,3.16288499 24.6865825,7.00353105 27.3919614,11.0700975 C30.8864092,16.492186 33.2536157,22.7049958 34.1554087,29.0307658 C35.0572017,34.7917349 34.8317534,40.7786243 35.7335464,46.5395934 C36.5226153,51.961682 38.3262012,57.1578502 40.6934077,62.0151379 C42.7224419,66.533545 48.0204756,74.4407575 49.3731651,79.0721248 C45.6532691,81.105408 37.0862359,68.7927486 34.380857,66.4205848 Z" id="Shape" fill="#00AD9F" fill-rule="nonzero"></path>
                                        <path d="M12.7378257,9.71457533 C18.59948,12.3126594 20.9666865,19.3161905 22.2066519,25.6419605 C23.5593413,32.8714119 23.3338931,40.6656642 26.6028926,47.1043943 C32.8027193,59.4170538 40.918856,73.4241159 46.8932344,77.6036425" id="Shape" stroke="#047D74" stroke-linecap="round" stroke-linejoin="round"></path>
                                    </g>
                                    <g transform="translate(47.551068, 195.983092) rotate(-50.000000) translate(-47.551068, -195.983092) translate(14.551068, 176.483092)">
                                        <path d="M16.9009845,2.14624339 C11.7156749,0.112960178 4.95222764,-0.67776107 1.57050401,3.72768588 C-1.1348749,7.45537176 0.217814555,12.7645001 2.13412461,16.9440267 C3.71226231,20.5587524 5.74129649,24.1734781 9.12302013,26.0938012 C11.4902267,27.4493233 14.1956056,27.7882039 16.7882604,28.1270844 C24.1153282,29.0307658 31.5551202,29.4826065 38.9949122,29.3696463 C47.5619454,29.3696463 58.0452887,32.8714119 65.1469083,38.2935004 C56.2417028,21.2365135 34.147775,9.03681426 16.9009845,2.14624339 Z" id="Shape" fill="#0056EC" fill-rule="nonzero"></path>
                                        <path d="M7.88305479,13.2163409 C14.4210538,13.4422612 20.9590528,14.0070621 27.2716036,15.814425 C33.6968785,17.734748 58.3834611,29.0307658 62.2160812,33.8880535" id="Shape" stroke="#0B43A4" stroke-linecap="round" stroke-linejoin="round"></path>
                                    </g>
                                    <g transform="translate(0.533894, 93.838877)">
                                        <path d="M85.8957803,82.4609301 C79.2450572,71.9556335 67.7471968,64.613222 55.4602676,63.0317795 C46.3296138,61.7892175 36.9735117,63.4836202 28.0683062,61.5632971 C18.59948,59.5300139 10.1451709,53.5431245 5.18530957,45.1840713 C0.225448242,36.9379783 -1.01451709,26.5456419 1.80358594,17.2829073 C3.94534424,10.2793762 8.67975733,3.6147257 15.6686528,1.35552214 C19.501273,0.112960178 23.6720654,0.338880535 27.5046856,1.24256196 C31.1118574,2.14624339 34.380857,3.6147257 37.4244082,5.53504873 C44.4133037,9.94049569 50.0495098,16.8310666 54.3330264,24.060518 C58.1656465,30.7251685 67.7471968,41.0045447 74.2851958,47.6691952 C78.117816,51.6228015 80.8231949,54.2208856 80.8231949,54.2208856 C85.3321597,59.8688945 83.3031255,75.7962796 85.8957803,82.4609301 Z" id="Shape" fill="#52D2BC" fill-rule="nonzero"></path>
                                        <path d="M13.6396187,21.6883542 C35.5080982,31.5158897 59.2928877,44.5063102 74.7360923,62.8058591" id="Shape" stroke="#00AD9F" stroke-linecap="round" stroke-linejoin="round"></path>
                                    </g>
                                    <g transform="translate(52.479327, 105.298462) rotate(-26.000000) translate(-52.479327, -105.298462) translate(27.479327, 37.798462)">
                                        <path d="M47.5695791,134.302008 C47.5695791,134.302008 14.9923081,107.869326 8.22886084,79.5163216 C15.2177564,83.9217685 20.8539624,90.8123394 25.137479,98.0417908 C28.9700991,104.706441 38.5516494,114.985818 45.0896485,121.650468 C45.7659932,125.265194 46.6677862,129.33176 47.5695791,134.302008 Z" id="Shape" fill="#5275A0" fill-rule="nonzero" opacity="0.2"></path>
                                        <path d="M49.0349927,29.1360821 C46.1041656,38.2858565 41.9333731,47.0967504 37.7625806,55.7946841 C35.6208223,60.3130913 26.7156167,70.8183878 21.9812036,72.8516711 C22.5448242,60.9908523 22.5448242,47.2097106 21.1921348,35.2359317 C19.8394453,23.7139935 24.0102378,15.0160598 19.501273,4.28484285 C18.9376524,2.92932071 18.3740317,1.57379857 17.697687,0.218276435 C18.1485835,0.331236613 18.4867559,0.444196791 18.9376524,0.670117148 C26.3774443,3.83300214 29.759168,11.7402146 30.4355127,19.3085466 C30.9991333,25.6343165 29.8718921,31.9600865 28.9700991,38.1728963 C28.6319268,41.109861 28.2937544,44.0468256 28.857375,46.8708301 C28.857375,46.8708301 28.857375,46.9837902 28.857375,46.9837902 C29.6464439,50.3725956 34.6063052,50.1466752 35.1699258,46.7578699 L37.19896,36.2525733 C37.7625806,33.0896883 38.4389253,29.8138431 41.0315801,27.6675998 C42.0460972,26.7639183 43.3987866,26.3120776 44.638752,26.3120776 C46.8932344,26.3120776 48.1331997,27.5546396 49.0349927,29.1360821 Z" id="Shape" fill="#5275A0" fill-rule="nonzero" opacity="0.2"></path>
                                        <path d="M47.5695791,127.637358 C42.3842696,100.752835 39.6788906,96.5733085 41.9333731,89.908658 C44.8642002,81.3236844 43.1733384,72.6257507 45.8787173,64.0407771 C48.5840962,55.3428434 50.5004063,46.0801088 48.2459239,37.2692149 C47.5695791,34.4452104 46.1041656,31.5082458 42.835166,31.3952856 C41.4824766,31.3952856 40.2425113,31.8471263 39.2279942,32.7508078 C36.6353394,34.8970512 35.9589946,38.2858565 35.395374,41.3357813 L33.479064,51.8410779 C32.8027193,55.2298832 27.955582,55.4558036 27.1665132,52.0669983 C27.1665132,52.0669983 27.1665132,51.9540381 27.1665132,51.9540381 C26.4901685,49.1300336 26.8283408,46.193069 27.2792373,43.2561043 C28.0683062,36.9303344 29.3082715,30.7175246 28.7446509,24.3917546 C28.0683062,16.7104625 24.6865825,8.91621016 17.2467905,5.75332517 C14.6541357,4.62372339 11.6105845,4.39780303 8.90520557,5.0755641 C1.12724121,7.10884731 -0.901792969,14.6771793 0.338172363,21.1159094 C1.12724121,25.6343165 3.26899951,29.8138431 5.18530957,34.1063299 C9.91972266,44.3857061 6.42527491,53.7614009 7.10161963,65.0574188 C8.79248145,96.234428 47.5695791,127.637358 47.5695791,127.637358 Z" id="Shape" fill="#7EE8D4" fill-rule="nonzero"></path>
                                        <path d="M12.9632739,13.2086969 C16.7958941,32.2989671 20.6285142,51.6151575 28.0683062,69.6887861 C30.2100645,74.9979144 31.3373057,81.8884853 43.8496831,96.3473881" id="Shape" stroke="#00AD9F" stroke-linecap="round" stroke-linejoin="round"></path>
                                    </g>
                                </g>
                            </g>
                        </g>
                        <g id="Group-2" transform="translate(375.349899, 56.927265)">
                            <g id="Group" transform="translate(125.828253, 285.553814) rotate(-90.000000) translate(-125.828253, -285.553814) translate(71.328253, 204.053814)">
                                <path d="M4.83873553,131.859692 C13.4235889,117.815465 9.05311808,99.7140159 12.0187947,83.6411776 C14.3601183,71.1574198 21.228001,59.7659907 31.0615603,51.8075951 C37.30509,46.814092 46.0460316,43.3810586 53.0700026,47.1261859 C54.630885,47.9064208 56.3478557,48.9987496 57.9087381,48.2185147 C58.8452675,47.7503738 59.157444,46.658045 59.3135323,45.5657162 C61.0305029,36.8270857 56.9722086,27.3082203 60.2500617,19.0377307 C62.1231206,14.6684155 65.8692385,11.2353821 69.9275328,8.7386305 C77.7319449,3.74512736 86.785063,0.936281839 96.1503576,0.46814092 C98.6477695,0.312093946 101.145181,0.46814092 103.330417,1.56046973 C107.232623,3.58908038 109.105682,8.42653655 108.637417,12.9518988 C108.169152,17.321214 105.67174,21.2223884 103.01824,24.8114687 C94.1212104,36.5149917 80.8537098,46.658045 79.1367391,61.3264605 C78.9806509,63.1990242 78.9806509,65.0715878 79.7610921,66.7881045 C80.5415333,68.3485743 82.1024157,69.5969501 83.0389452,71.1574198 C85.8485336,76.1509229 80.5415333,81.9246609 75.234533,84.4214125 C70.5518858,86.7621171 65.2448855,88.1665399 60.0939735,88.6346808 C56.5039439,88.9467747 52.4456496,89.1028217 49.9482377,91.7556203 C45.4216787,96.7491234 50.5725907,104.551472 49.6360612,111.261492 C49.0117082,115.47476 46.0460316,118.751747 43.080355,121.560592 C37.4611783,126.866189 31.3737368,131.703645 24.8180306,135.916914 C19.5110304,139.349947 13.8918536,142.31484 9.20920633,146.528108 C4.52655904,150.741376 0.780441214,156.359067 0.468264729,162.600946" id="Shape" fill="#5193F4" fill-rule="nonzero"></path>
                                <path d="M16.077089,118.283606 C17.4818832,111.417539 20.6036481,105.17566 23.7254129,98.933781 C28.5641484,89.2588687 33.5589722,79.4279094 41.0512079,71.4695137 C46.6703846,65.3836818 53.5382673,60.7022726 59.3135323,54.7724876 C63.3718266,50.5592193 66.8057679,45.7217632 69.6153563,40.572213 C71.0201505,37.7633675 72.4249447,34.798475 74.2980036,32.3017235 C76.6393272,29.336831 79.9171803,27.3082203 82.7267687,24.6554218 C86.4728865,21.2223884 89.5946514,17.0091201 91.6237985,12.3277109" id="Shape" stroke="#0B43A4" stroke-linecap="round" stroke-linejoin="round"></path>
                            </g>
                            <g id="Group" transform="translate(159.501758, 372.296770) rotate(-60.000000) translate(-159.501758, -372.296770) translate(103.501758, 314.296770)">
                                <path d="M111.280347,115.464201 C105.817258,109.222322 100.666346,102.824396 95.3593461,96.7385638 C91.9254047,92.8373895 88.3353751,88.9362152 84.4331691,85.1910878 C82.5601101,83.3185241 80.530963,81.6020074 78.5018158,79.8854907 C66.1708447,69.7424375 52.278991,61.1598539 37.6066962,54.917975 C28.7096664,51.1728476 19.3443718,48.0519082 11.6960479,41.9660762 C4.20381225,35.8802443 -1.25927625,25.893238 1.23813563,16.6864666 C3.11119455,9.97644672 8.73037129,4.67084963 15.4421657,2.33014503 C21.9978719,-0.0105595696 29.3340193,0.145487404 36.0458138,1.54991016 C55.0885794,5.60713147 71.0095802,19.3392651 81.7796689,35.5681503 C81.9357572,35.8802443 82.0918454,36.1923382 82.4040219,36.5044322 C90.3645223,48.6760961 95.8276108,62.0961358 100.666346,75.6722224 C102.227229,80.0415377 103.632023,84.5668999 105.192905,88.9362152 C107.378141,95.3341411 114.089935,108.910228 111.280347,115.464201 Z" id="Shape" fill="#5193F4" fill-rule="nonzero"></path>
                                <path d="M24.1831073,17.3106545 C44.9428436,21.2118288 59.6151385,35.1000094 75.0678745,49.4563309 C90.5206105,63.8126525 101.602876,82.8503832 106.909876,103.292537" id="Shape" stroke="#0B43A4" stroke-linecap="round" stroke-linejoin="round"></path>
                            </g>
                            <g id="Group" transform="translate(153.614179, 329.403559) rotate(-90.000000) translate(-153.614179, -329.403559) translate(127.114179, 275.903559)" fill="#52D2BC" fill-rule="nonzero">
                                <path d="M51.8107263,23.3964864 C50.0937556,31.1988351 45.4111084,37.9088549 41.1967258,44.7749217 C39.0114904,48.3640021 36.9823432,52.1091295 35.1092843,55.8542568 C29.0218429,67.8698738 24.3391956,80.5096786 21.2174307,93.6176244 C20.2809013,97.9869396 19.6565483,102.044161 20.4369895,106.413476 C10.1351655,104.072772 6.07687116,75.0480345 5.45251819,66.309404 C4.20381225,50.7047067 6.85731237,34.7879155 13.2569303,20.4315939 C16.0665187,14.189715 19.6565483,7.94783606 25.275725,4.04666173 C30.8949018,-0.0105595696 38.6993139,-1.41498233 44.6306671,2.17409806 C48.2206967,4.20270871 50.4059321,7.79178909 51.4985498,11.6929634 C52.5911675,15.4380908 52.7472558,19.4953121 51.8107263,23.3964864 Z" id="Shape"></path>
                            </g>
                            <g id="Group" transform="translate(168.208368, 284.877945) rotate(-90.000000) translate(-168.208368, -284.877945) translate(126.708368, 227.877945)">
                                <path d="M22.1954143,12.4731983 C20.4784436,20.2755469 15.7957963,26.9855668 11.5814137,33.8516336 C9.39617834,37.440714 7.36703118,41.1858414 5.49397227,44.9309687 C2.6843839,40.2495595 0.811324984,34.9439624 0.186972013,29.6383653 C-0.749557444,20.5876409 2.84047214,10.9127286 10.1766196,5.45108449 C13.6105609,2.95433292 17.6688552,1.54991016 21.8832378,0.92572227 C22.9758555,4.51480265 23.1319437,8.57202396 22.1954143,12.4731983 Z" id="Shape" fill="#5275A0" fill-rule="nonzero" opacity="0.2"></path>
                                <path d="M81.3528583,80.1975847 C80.8845936,83.1624772 79.9480641,85.9713227 78.6993582,88.7801682 C74.1727991,98.6111275 64.6514163,107.037664 50.291298,113.903731 C50.291298,113.903731 49.5108567,98.2990336 49.3547685,94.2418123 C48.7304155,76.4524573 29.3754734,66.621498 17.0445022,53.5135522 C10.8009725,46.9595794 6.11832524,38.5330428 5.18179578,29.4823184 C4.24526633,20.4315939 7.83529591,10.7566816 15.1714433,5.29503752 C21.414973,0.769675296 29.3754734,-0.166606543 37.0237973,0.45758135 C49.3547685,1.39386319 61.6857397,6.54341331 69.3340636,16.2183256 C69.6462401,16.5304196 69.9584166,16.9985605 70.270593,17.3106545 C74.9532403,23.7085804 77.294564,31.510929 79.1676229,39.1572307 C82.1332995,52.5772704 83.5380937,66.621498 81.3528583,80.1975847 Z" id="Shape" fill="#00AD9F" fill-rule="nonzero"></path>
                                <path d="M20.4784436,14.9699499 C33.9020325,21.8360167 47.3256213,30.2625532 55.1300335,43.214452 C66.0562105,61.1598539 63.5587986,84.5668999 55.2861217,103.916725" id="Shape" stroke="#00AD9F" stroke-linecap="round" stroke-linejoin="round"></path>
                            </g>
                            <g id="Group" transform="translate(153.813459, 190.399812) rotate(-90.000000) translate(-153.813459, -190.399812) translate(81.313459, 107.899812)">
                                <path d="M17.3152246,120.000122 C16.8469599,122.965015 15.9104305,125.77386 14.6617245,128.582706 C8.10601832,114.538478 2.17466509,96.1249355 0.769870904,73.6541714 C0.457694419,67.5683394 2.01857685,61.3264605 5.29642995,56.0208634 C5.60860643,56.3329573 5.92078292,56.8010983 6.2329594,57.1131922 C10.9156067,63.5111181 13.2569303,71.3134668 15.1299892,78.9597684 C18.0956659,92.3798081 19.50046,106.424036 17.3152246,120.000122 Z" id="Shape" fill="#5275A0" fill-rule="nonzero" opacity="0.2"></path>
                                <path d="M82.7161984,119.219888 C96.7641402,114.226384 111.436435,110.169163 124.391759,102.522861 C128.293965,100.182157 132.040083,97.5293583 134.693583,93.9402779 C137.503172,90.3511975 139.064054,85.8258353 138.595789,81.300473 C137.971436,76.7751108 135.00576,72.4057956 136.098377,67.8804333 C136.72273,64.9155409 138.907966,62.5748363 140.624936,60.0780847 C144.683231,54.1482997 145.931937,46.345951 143.746701,39.3238373 C141.561466,31.8335825 135.942289,25.9037976 132.820524,18.8816838 C130.167024,13.1079458 129.230495,6.55397288 130.167024,0.312093946 C118.304318,0.46814092 107.534229,6.86606682 95.8276108,9.05072445 C86.9305809,10.7672412 77.7213746,9.83095931 68.8243448,11.85957 C52.7472558,15.6046973 39.6358434,29.6489249 37.1384315,46.0338571 C29.6461958,44.7854813 21.6856954,47.4382799 16.3786952,52.8999239 C10.9156067,58.8297089 7.79384183,67.1001985 8.26210656,75.2146411 C11.8521361,133.576209 45.4111084,164.161416 45.4111084,164.161416 C45.4111084,164.161416 77.2531099,121.092451 82.7161984,119.219888 Z" id="Shape" fill="#7EE8D4" fill-rule="nonzero"></path>
                                <g transform="translate(32.778531, 14.044228)" id="Shape" stroke="#00AD9F" stroke-linecap="round" stroke-linejoin="round">
                                    <path d="M18.2517541,104.707519 C16.8469599,90.3511975 21.8417837,75.994876 27.6170487,62.7308832 C33.2362254,49.7789845 39.7919316,37.1391796 48.376785,26.0598445 C57.1177266,14.9805094 68.1999918,5.46164406 81.155316,-1.42108547e-14"></path>
                                    <path d="M30.8949018,8.89467747 C29.4901076,21.6905293 30.426637,37.1391796 33.8605784,49.7789845"></path>
                                    <path d="M36.201902,45.0975753 C50.8741969,35.7347569 73.5069921,29.9610189 90.832787,30.8973007"></path>
                                    <path d="M0.301606176,47.4382799 C17.9395776,54.9285346 18.7200188,80.8323321 19.1882836,88.1665399"></path>
                                    <path d="M24.0270191,71.7816077 C37.6066962,62.1066953 57.1177266,59.1418028 71.4778449,62.7308832"></path>
                                    <path d="M60.8638444,2.18465763 C56.8055501,7.17816077 55.7129324,13.1079458 56.1811971,17.321214"></path>
                                    <path d="M60.0834032,13.7321336 C66.3269329,10.6111942 74.5996098,9.83095931 83.4966396,12.0156169"></path>
                                </g>
                            </g>
                            <g id="Group" transform="translate(109.000816, 351.591578) rotate(-90.000000) translate(-109.000816, -351.591578) translate(24.500816, 242.591578)">
                                <path d="M107.846405,31.823023 C105.66117,30.4186002 103.163758,28.5460365 103.163758,26.049285 C103.163758,23.3964864 105.817258,21.5239227 108.470758,21.3678758 C111.124259,21.3678758 113.465582,22.7722985 115.494729,24.4888152 C123.767406,31.823023 122.830877,40.0935125 122.830877,40.0935125 C122.830877,40.0935125 110.343817,33.3834927 107.846405,31.823023 Z" id="Shape" fill="#4A49CA" fill-rule="nonzero"></path>
                                <path d="M114.402112,9.5083058 C112.529053,8.72807093 110.499906,7.63574212 109.407288,5.91922541 C108.782935,4.98294357 108.470758,3.89061476 108.939023,2.95433292 C109.563376,1.39386319 110.499906,-0.166606543 114.5582,0.613628323 C127.357436,2.95433292 130.167024,11.6929634 130.167024,11.6929634 C130.167024,11.6929634 117.836053,11.0687755 114.402112,9.5083058 Z" id="Shape" fill="#4A49CA" fill-rule="nonzero"></path>
                                <path d="M152.175466,29.0141774 C157.326378,28.5460365 162.633379,26.049285 165.911232,21.9920637 C167.159938,20.4315939 168.252555,18.7150772 168.72082,16.8425135 C169.189085,14.9699499 168.72082,12.7852922 167.159938,11.3808695 C165.286879,9.82039974 162.47729,10.1324937 160.448143,11.3808695 C158.418996,12.6292453 157.17029,14.8139029 156.077673,16.9985605 C154.828967,19.963453 152.175466,29.0141774 152.175466,29.0141774 Z" id="Shape" fill="#4A49CA" fill-rule="nonzero"></path>
                                <path d="M59.9273149,217.362874 C47.4402555,206.283539 34.9531961,195.360251 22.4661367,184.280916 C15.7543422,178.351131 9.04254777,172.421346 4.82816522,164.618997 C-4.22495287,147.765924 0.925959147,125.919348 13.2569303,111.406979 C25.5879015,96.7385638 43.5380494,88.1559803 61.4881974,81.7580544 C79.5944335,75.5161755 98.3250227,70.9908132 115.494729,62.7203237 C126.264818,57.5707735 137.190995,49.7684249 140.000584,38.0649019 C141.717554,31.0427881 140.31276,23.3964864 136.098377,17.4667014 C131.883995,11.6929634 124.860024,7.94783606 117.679965,7.47969514" id="Shape" stroke="#0B43A4" stroke-linecap="round" stroke-linejoin="round"></path>
                                <path d="M160.916408,17.1546075 C157.482467,27.6097547 144.214966,34.0076806 138.127525,43.058405" id="Shape" stroke="#0B43A4" stroke-linecap="round" stroke-linejoin="round"></path>
                                <path d="M113.153406,29.1702244 C115.806906,31.9790699 118.928671,34.1637276 121.269994,37.284667 C126.10873,43.6825929 126.576995,54.1377401 119.396935,60.691713" id="Shape" stroke="#0B43A4" stroke-linecap="round" stroke-linejoin="round"></path>
                            </g>
                            <g id="Group" transform="translate(141.560528, 75.279385) rotate(-90.000000) translate(-141.560528, -75.279385) translate(66.560528, -19.720615)">
                                <path d="M1.56088243,9.67491234 C0.936529457,7.80234866 0.936529457,5.61769104 2.34132364,4.21326828 C3.43394134,3.12093946 5.30700026,2.65279854 6.71179444,3.27698644 C17.6379714,8.11444261 16.5453537,25.2796097 16.5453537,25.2796097 C16.5453537,25.2796097 6.08744147,23.563093 1.56088243,9.67491234 Z" id="Shape" fill="#4A49CA" fill-rule="nonzero"></path>
                                <path d="M1.40479419,41.6645418 C-5.61917674,54.4603937 19.5110304,53.5241118 28.5641484,46.0338571 C28.5641484,46.0338571 7.49223566,30.7412537 1.40479419,41.6645418 Z" id="Shape" fill="#4A49CA" fill-rule="nonzero"></path>
                                <path d="M33.2467957,10.6111942 C31.5298251,8.27048958 30.9054721,4.83745617 32.778531,2.49675157 C34.1833252,0.780234866 36.5246488,0.312093946 38.7098842,0.780234866 C40.8951196,1.24837579 44.0168845,3.12093946 45.4216787,4.83745617 C53.6943555,15.1365564 49.7921495,25.2796097 49.7921495,25.2796097 C49.7921495,25.2796097 36.0563841,14.5123685 33.2467957,10.6111942 Z" id="Shape" fill="#4A49CA" fill-rule="nonzero"></path>
                                <path d="M133.455448,42.4447767 C132.831095,40.4161661 132.987183,38.0754615 134.548065,36.6710387 C135.484595,35.7347569 136.889389,35.4226629 138.294183,35.5787099 C139.542889,35.7347569 140.791595,36.2028978 142.040301,36.6710387 C144.537713,37.9194145 146.56686,39.9480251 147.815566,42.4447767 C150.937331,48.8427026 148.752095,56.8010983 148.752095,56.8010983 C148.752095,56.8010983 135.01633,47.4382799 133.455448,42.4447767 Z" id="Shape" fill="#4A49CA" fill-rule="nonzero"></path>
                                <path d="M101.925623,65.8518227 C97.3990635,61.9506484 90.6872691,60.7022726 85.2241806,63.1990242 C83.8193864,63.823212 82.5706805,64.6034469 81.634151,65.8518227 C79.6050038,68.6606682 80.3854451,72.5618425 82.4145922,75.3706881 C84.4437394,78.0234866 87.5655042,79.7400033 90.6872691,81.1444261 C96.3064458,83.6411776 105.047387,84.2653655 110.978741,85.6697883 C110.978741,85.6697883 110.978741,73.8102183 101.925623,65.8518227 Z" id="Shape" fill="#4A49CA" fill-rule="nonzero"></path>
                                <path d="M9.52138281,12.4837579 C13.2675006,24.6554218 23.7254129,33.8621932 35.4320311,38.6996494 C47.1386493,43.6931525 59.9378852,44.9415283 72.7371212,45.7217632 C85.3802688,46.501998 98.1795047,46.9701389 110.510476,50.2471254 C122.529271,53.5241118 134.391977,60.2341317 139.542889,71.4695137 C145.786419,85.2016474 140.32333,101.58658 131.4263,113.758243 C122.685359,126.085954 110.822652,135.916914 102.393887,148.400672 C98.4916812,154.17441 95.2138281,160.884429 95.9942693,167.750496 C97.086887,176.957268 104.735211,183.667287 111.91527,189.441025" id="Shape" stroke="#0B43A4" stroke-linecap="round" stroke-linejoin="round"></path>
                                <path d="M38.7098842,7.95839563 C47.1386493,17.321214 53.8504438,31.8335825 55.4113262,44.1612934" id="Shape" stroke="#0B43A4" stroke-linecap="round" stroke-linejoin="round"></path>
                                <path d="M10.4579123,43.8491995 C15.2966478,45.0975753 20.1353833,46.345951 25.1302071,46.345951 C30.1250309,46.345951 35.9002959,43.5371055 39.4903254,40.1040721" id="Shape" stroke="#0B43A4" stroke-linecap="round" stroke-linejoin="round"></path>
                                <path d="M141.728124,43.0689646 C146.254684,47.4382799 148.908184,53.5241118 149.22036,59.7659907 C149.376448,66.0078697 145.942507,73.6541714 141.884213,78.3355806" id="Shape" stroke="#0B43A4" stroke-linecap="round" stroke-linejoin="round"></path>
                                <path d="M94.5894752,71.4695137 C103.642593,79.7400033 111.447005,86.4500232 121.436653,93.472137 C125.963212,96.7491234 135.01633,100.806345 139.074624,99.7140159" id="Shape" stroke="#0B43A4" stroke-linecap="round" stroke-linejoin="round"></path>
                            </g>
                        </g>
                        <g id="Group" transform="translate(521.387986, 146.899081) scale(-1, 1) translate(-521.387986, -146.899081) translate(453.887986, 93.399081)">
                            <g id="Group-3">
                                <path d="M132.820524,43.3810586 C130.947465,50.7152663 127.981789,58.049474 123.143053,63.979259 C119.709112,68.0364803 115.494729,71.1574198 110.96817,73.8102183 C108.626847,75.2146411 106.129435,76.3069699 103.632023,77.3992987 C93.7984636,81.45652 83.3405514,83.7972246 72.7265509,84.2653655 C57.2738148,84.8895534 41.5089023,81.45652 26.6805192,85.8258353 C19.8126365,87.8544459 13.5691068,91.4435263 8.57428305,96.4370294 C5.29642995,99.4019219 2.64292982,102.991002 0.457694419,106.73613 L2.48684158,93.9402779 C6.2329594,80.2081442 9.97907723,66.1639166 17.6274011,54.1482997 C22.4661367,46.345951 28.8657546,39.4798842 35.7336373,33.2380053 C46.6598143,23.250999 58.678609,14.3563215 71.9461096,7.95839563 C82.7161984,2.80884552 94.5789048,-0.936281839 106.441611,0.46814092 C118.304318,1.87256368 129.854848,9.36281839 133.600966,20.7542474 C135.786201,27.9324082 134.693583,35.8908038 132.820524,43.3810586 Z" id="Shape" fill="#5193F4" fill-rule="nonzero"></path>
                                <path d="M12.3204009,84.1093186 C23.7148426,67.4122924 40.5723728,54.4603937 59.7712267,48.0624678 C71.7900214,44.0052464 84.4331691,42.6008237 96.4519638,39.0117433 C108.626847,35.5787099 120.645641,29.6489249 127.825701,19.1937777" id="Shape" stroke="#0B43A4" stroke-linecap="round" stroke-linejoin="round"></path>
                                <path d="M111.222061,74.2478021 C108.880737,75.6522249 106.383325,76.7445537 103.885913,77.8368825 C94.052354,81.8941038 83.5944417,84.2348084 72.9804412,84.7029493 C57.5277052,85.3271372 41.7627927,81.8941038 26.9344096,86.2634191 C20.0665269,88.2920297 13.8229972,91.8811101 8.82817342,96.8746132 C8.35990869,97.1867072 7.73555572,97.3427542 7.26729099,97.6548481 C6.01858504,87.1997009 32.0853216,73.6236142 40.045822,70.0345339 C54.2498521,63.636608 70.3269411,60.8277624 85.9357654,62.0761382 C92.8036481,62.7003261 99.827619,63.9487019 105.446796,67.8498762 C107.632031,69.410346 109.817267,71.5950036 111.222061,74.2478021 Z" id="Shape" fill="#5275A0" fill-rule="nonzero" opacity="0.2"></path>
                                <path d="M85.7796771,68.1619702 C92.6475598,68.6301111 99.6715307,70.0345339 105.290707,73.9357082 C110.909884,77.8368825 114.968179,84.7029493 113.563384,91.5690162 C112.002502,99.3713648 103.885913,104.520915 96.0815012,105.457197 C88.277089,106.393479 80.1605004,104.208821 72.3560882,102.648351 C55.0302933,99.0592709 37.2362336,98.279036 19.5982622,100.307647 C15.2277914,100.775788 11.0134088,101.712069 7.26729099,103.896727 C6.01858504,93.4415798 32.0853216,79.8654932 40.045822,76.2764128 C54.2498521,69.8784869 70.1708528,66.9135944 85.7796771,68.1619702 Z" id="Shape" fill="#52D2BC" fill-rule="nonzero"></path>
                                <path d="M13.9790854,97.1867072 C26.9344096,85.7952781 60.0251171,78.1489765 83.5944417,80.645728 C90.6184127,81.4259629 97.7984718,83.4545736 103.26156,88.1359827" id="Shape" stroke="#00AD9F" stroke-linecap="round" stroke-linejoin="round"></path>
                            </g>
                        </g>
                    </g>
                    <g id="Group-15" transform="translate(104.000000, 94.000000)">
                        <g id="Page-1" transform="translate(95.168161, 49.072848)">
                            <g id="Group-3" fill="#FFFFFF" opacity="0.55395154">
                                <path d="M12.5901469,306.348321 C5.96142935,306.348321 0.587730451,300.942689 0.587730451,294.273145 L0.587730451,12.2826253 C0.587730451,5.61424484 5.96142935,0.20744986 12.5901469,0.20744986 L146.880585,0.20744986 C153.508147,0.20744986 158.881846,5.61424484 158.881846,12.2826253 L158.881846,294.273145 C158.881846,300.942689 153.508147,306.348321 146.880585,306.348321 L12.5901469,306.348321 Z" id="Fill-1"></path>
                            </g>
                            <mask id="mask-9" fill="white">
                                <use xlink:href="#path-8"></use>
                            </mask>
                            <use id="Fill-4" fill="#F1F6F1" xlink:href="#path-8"></use>
                            <g id="Group-13" mask="url(#mask-9)">
                                <g transform="translate(15.611648, 148.275425)">
                                    <rect id="Rectangle-4" fill="#FFFFFF" x="0" y="0" width="127.495124" height="47.0300908" rx="4"></rect>
                                    <ellipse id="Oval-2" fill="#F1F6F1" cx="22.0325676" cy="23.8089835" rx="13.8070757" ry="13.8150892"></ellipse>
                                    <rect id="Rectangle-5" fill="#F1F6F1" x="46.4152757" y="11.7575227" width="76.9671027" height="5.87876135" rx="2.93938067"></rect>
                                    <rect id="Rectangle-5-Copy" fill="#F1F6F1" x="46.4152757" y="23.5150454" width="29.9642919" height="5.87876135" rx="2.93938067"></rect>
                                </g>
                            </g>
                            <g id="Group-13-Copy" mask="url(#mask-9)">
                                <g transform="translate(15.611648, 207.716234)">
                                    <rect id="Rectangle-4" fill="#FFFFFF" x="0" y="0" width="127.495124" height="47.0300908" rx="4"></rect>
                                    <ellipse id="Oval-2" fill="#F1F6F1" cx="22.0325676" cy="23.8089835" rx="13.8070757" ry="13.8150892"></ellipse>
                                    <rect id="Rectangle-5" fill="#F1F6F1" x="46.4152757" y="11.7575227" width="76.9671027" height="5.87876135" rx="2.93938067"></rect>
                                </g>
                            </g>
                            <rect id="Rectangle-2" fill="#FFFFFF" mask="url(#mask-9)" x="2.60194131" y="3.26597853" width="154.815508" height="135.864707"></rect>
                            <ellipse id="Oval" fill="#FFFFFF" mask="url(#mask-9)" cx="78.0582393" cy="73.8111147" rx="33.1747517" ry="33.312981"></ellipse>
                            <g mask="url(#mask-9)">
                                <g transform="translate(44.233002, 34.619372)">
                                    <path d="M35.776693,71.8515276 L35.776693,71.8515276 C55.535615,71.8515276 71.5533861,55.8337565 71.5533861,36.0748346 L71.5533861,35.776693 C71.5533861,16.0177711 55.535615,-3.62965508e-15 35.776693,0 L35.776693,0 C16.0177711,3.62965508e-15 4.6856573e-15,16.0177711 7.10542736e-15,35.776693 L7.10542736e-15,36.0748346 C9.52519741e-15,55.8337565 16.0177711,71.8515276 35.776693,71.8515276 Z" id="Fill-1" fill="#4882EE"></path>
                                    <g id="Group-6" stroke-width="1" fill="none" transform="translate(15.249082, 15.312621)">
                                        <path d="M20.2041054,23.6791104 C15.2001581,23.6791104 11.1435601,19.6046848 11.1435601,14.577932 L11.1435601,9.10815515 C11.1435601,4.08140235 15.2001581,0 20.2041054,0 C25.2045825,0 29.2611805,4.08140235 29.2611805,9.10815515 L29.2611805,14.577932 C29.2611805,19.6046848 25.2045825,23.6791104 20.2041054,23.6791104" id="Fill-2" fill="#F8FFFB"></path>
                                        <path d="M19.9539752,19.4352493 C11.4139515,19.4352493 4.04336628,24.4689788 0.621804565,31.7422471 C-1.37699822,36.0015567 1.68366854,40.9166814 6.36836257,40.9166814 L33.5361178,40.9166814 C38.2208118,40.9166814 41.2849487,36.0015567 39.2826758,31.7422471 C35.8611141,24.4689788 28.4905288,19.4352493 19.9539752,19.4352493" id="Fill-4" fill="#F8FFFB"></path>
                                    </g>
                                </g>
                            </g>
                            <path d="M103.810907,15.6766969 L56.8589686,15.6766969 C52.7599806,15.6766969 49.4368849,12.33517 49.4368849,8.2134473 L49.4368849,3.26597853 L111.232991,3.26597853 L111.232991,8.2134473 C111.232991,12.33517 107.909895,15.6766969 103.810907,15.6766969" id="Fill-6" fill="#FFFFFF" mask="url(#mask-9)"></path>
                        </g>
                        <g id="Page-1" transform="translate(200.910563, 147.218543)">
                            <path d="M93.0548457,17.1024538 C96.5899118,23.8920319 98.1570296,31.5166238 98.9845506,39.1030291 C99.0802327,39.9838668 99.1552268,40.9156199 98.7647404,41.7149928 C98.2733998,42.7129361 97.1691765,43.2500943 96.1399473,43.6981504 C86.2846899,48.020874 75.9587799,51.3074677 65.3975436,53.4841041 C72.2349355,50.4648166 75.9251618,41.8906512 73.3676049,34.9559639 C72.62025,32.9295282 71.2962165,30.9641909 69.2739621,30.1393603 C66.5043529,29.0090368 63.160651,30.4168496 61.3788949,32.7895106 C59.5919669,35.1596258 59.0980403,38.2425576 59.1032123,41.1905635 C59.1057983,44.8462943 59.8091911,48.5020252 61.1487407,51.9133618 C56.5766874,49.1919298 52.3382284,45.9307939 48.5574921,42.219056 C47.639461,41.3203979 46.7266019,40.3555497 46.2818094,39.1590361 C45.8628769,38.0388958 45.896495,36.8092871 45.961145,35.6178651 C46.2611214,30.0884448 47.1869105,24.5870281 48.7074802,19.2561782 C50.7400786,12.1280122 54.4147889,4.71217369 61.2857988,1.71070663 C74.6011283,-4.10129447 87.2053069,5.86031758 93.0548457,17.1024538" id="Fill-1" fill="#FF6748"></path>
                            <path d="M42.770057,75.2064553 C42.770057,75.2064553 34.0991093,97.6303977 30.0686957,97.6303977 C26.0408672,97.6303977 17.9877957,67.8334979 17.9877957,67.8334979 L5.90431043,70.5996387 C5.90431043,70.5996387 12.82504,115.145017 26.8707343,116.678059 C40.9112581,118.213664 55.1068973,95.2846897 55.1068973,95.2846897 L42.770057,75.2064553 Z" id="Fill-3" fill="#0B43A4"></path>
                            <path d="M80.036208,16.6360696 L80.036208,26.7936486 C80.036208,28.6337713 79.6995595,30.4051757 79.0853686,32.0315082 C76.9369855,37.6994933 71.4195472,41.743691 64.9435599,41.743691 C56.6121509,41.743691 49.8586214,35.0474769 49.8586214,26.7936486 L49.8586214,16.6360696 C49.8586214,16.5139038 49.8586214,16.3917379 49.8689007,16.2721172 C50.0590686,10.4946919 54.8466735,5.87020655 60.7238889,5.87020655 L69.1658008,5.87020655 C75.0507258,5.87020655 79.8383306,10.4946919 80.0284985,16.2721172 C80.036208,16.3917379 80.036208,16.5139038 80.036208,16.6360696" id="Fill-18" fill="#F4EED8"></path>
                            <path d="M80.036208,16.2997418 C80.036208,16.4172715 80.036208,16.5322461 80.0284985,16.6395558 C79.925705,21.1746677 77.8030203,25.2192209 74.51363,27.9121831 C71.9103859,30.032827 68.5747385,31.3077683 64.9435599,31.3077683 C56.8562854,31.3077683 50.2595158,24.9816066 49.8843197,17.0330247 C49.8689007,16.9052751 49.8689007,16.7775254 49.8689007,16.6395558 C49.8586214,16.5322461 49.8586214,16.4172715 49.8586214,16.2997418 C49.8586214,8.01901086 56.6121509,1.30449034 64.9435599,1.30449034 C73.2775388,1.30449034 80.036208,8.01901086 80.036208,16.2997418" id="Fill-20" fill="#F4EED8"></path>
                            <path d="M81.2449604,27.097968 C81.2449604,28.9130646 79.057321,30.3535775 78.4563488,31.9600134 L68.3127427,21.8186013 C56.4944609,26.7284124 50.2584313,17.3688493 49.8812521,16.780577 C49.866165,16.7604651 49.8586214,16.7529231 49.8586214,16.7529231 C49.8586214,16.6322519 49.8586214,16.5115806 49.866165,16.3934234 C49.8586214,16.2878361 49.8586214,16.1747068 49.8586214,16.0590635 C49.8586214,7.91124077 56.4668011,1.30449034 64.618901,1.30449034 C64.8100051,1.30449034 65.0011093,1.30700433 65.1871843,1.30951831 C76.5830254,1.49303916 84.8306774,12.2554054 82.152705,23.3295057 L81.2449604,27.097968 Z" id="Fill-22" fill="#FF6748"></path>
                            <path d="M83.3163805,30.6542122 C83.3163805,33.1789235 81.2595626,35.2212393 78.7228205,35.2212393 C76.1887154,35.2212393 74.1318976,33.1789235 74.1318976,30.6542122 C74.1318976,28.1321227 76.1887154,26.0898069 78.7228205,26.0898069 C81.2595626,26.0898069 83.3163805,28.1321227 83.3163805,30.6542122" id="Fill-24" fill="#F4EED8"></path>
                            <path d="M47.4429997,100.214954 L39.9316792,137.82854 C50.8864316,141.365533 62.498775,142.392074 73.9072142,140.824312 L95.7810358,137.82854 C95.6765349,130.693571 95.4318499,120.069886 94.8813086,108.683918 C94.5525131,101.935173 94.6926972,93.7634986 94.1141191,87.0477851 C92.6689482,70.3588686 89.7531183,56.6936748 85.9605004,52.4934953 L79.0303069,48.9183879 L51.0903358,50.4505768 C51.0903358,50.4505768 34.7856473,73.8856981 38.6394364,81.5669701 C42.4906767,89.2457012 47.4429997,100.214954 47.4429997,100.214954" id="Fill-26" fill="#0056EC"></path>
                            <path d="M51.1706904,50.1605206 L54.1558209,60.1084087 C55.4759691,60.9718593 57.0277223,61.6948692 58.8316675,62.1291953 L62.0741368,57.6038816 L62.0741368,62.589529 C62.3314757,62.6155365 62.6042548,62.6155365 62.877034,62.6155365 C66.4514704,62.6155365 70.126269,61.570033 73.4716738,60.1500207 C75.9884477,56.7560354 79.3287057,51.6819623 79.3801735,48.5896646 L75.6050128,46.6234938 L73.5437287,34.5689941 L60.2984989,36.0228162 L58.1265591,46.2099737 L51.1706904,50.1605206 Z" id="Fill-28" fill="#F4EED8"></path>
                            <path d="M59.5528201,41.2967963 C59.5528201,41.2967963 66.3972254,45.4656482 73.8763249,39.7869555 L74.7879321,45.1597003 L74.3370296,45.3935142 C69.3673003,47.985366 63.3511832,47.3237225 59.0431043,43.7095567 L59.5528201,41.2967963 Z" id="Fill-30" fill="#EBE0BE"></path>
                            <g id="Group-11" filter="url(#filter-10)" transform="translate(38.706035, 72.399214)">
                                <g id="Group-3">
                                    <mask id="mask-12" fill="white">
                                        <use xlink:href="#path-11"></use>
                                    </mask>
                                    <g id="Clip-2"></g>
                                    <path d="M31.6920093,2.63304716 L35.3948276,28.2881052 C35.6184301,29.8376312 34.5357738,31.2836021 32.9696011,31.506863 L7.17314052,35.1882935 C6.87978175,35.2300956 6.59502307,35.2272454 6.31790893,35.1787931 L6.3102644,35.1797431 C5.1091179,34.9887838 4.11724036,34.034937 3.93568281,32.7770753 L0.231908883,7.12201728 C0.00926199854,5.5724913 1.09287388,4.13317072 2.65809103,3.90990977 L28.4545516,0.229429299 C30.0207243,0.00616835125 31.4684068,1.08352118 31.6920093,2.63304716" id="Fill-1" fill="#FFFFFF" mask="url(#mask-12)"></path>
                                </g>
                                <path d="M24.9048607,10.4594272 C22.4144017,8.34307688 18.7421102,8.81684301 16.8297935,11.4488771 C14.2749914,9.477776 10.6216243,10.0860683 8.80960727,12.838981 C7.11208319,15.4173995 7.80187976,18.9414006 10.2223182,20.80917 L17.3246682,26.2896498 C18.2983316,27.0402669 19.6769786,26.8355531 20.4046241,25.8334305 L25.7242898,18.5163759 C27.5372531,16.0227673 27.2373004,12.4422262 24.9048607,10.4594272" id="Fill-4" fill="#FF2323"></path>
                            </g>
                            <path d="M61.6672422,57.609281 L61.6672422,65.8767624 L70.1868134,63.4587951 C70.1868134,63.4587951 71.3890393,62.0695355 72.9006989,60.0776751 C75.3787045,56.7873234 78.6734122,51.8681845 78.724139,48.8703085 L75.003326,46.9616524 L61.6672422,57.609281 Z" id="Fill-32" fill="#FFFFFF"></path>
                            <polygon id="Fill-34" fill="#FFFFFF" points="51.1706904 50.8414086 54.22403 60.6110384 56.0770913 66.5290076 59.0067181 62.5956141 62.3232767 58.1513904 58.2854982 46.9616524"></polygon>
                            <path d="M83.2935029,52.1014867 C83.2935029,52.1014867 77.0342493,56.5640159 82.892664,70.7724447 C88.7485093,84.9808735 100.475617,111.811958 98.2170436,112.59722 C95.966179,113.374859 72.7637733,101.479017 72.7637733,101.479017 L64.9474147,112.320218 C64.9474147,112.320218 98.8028851,142.424502 110.946248,135.199575 C123.087042,127.969566 104.581646,43.8092128 83.2935029,52.1014867" id="Fill-38" fill="#0B43A4"></path>
                            <path d="M55.2057464,96.1862809 C55.5973296,92.3016497 58.8018679,89.3575886 62.5987378,89.3575886 L65.2555553,90.9201076 L65.3422984,90.9914788 C66.2890375,91.7740128 66.7971043,92.9465392 66.9036744,94.1929859 C67.1663821,97.3537095 69.5456217,101.059913 69.5456217,101.059913 L70.8517251,104.822193 L65.7462735,112.18617 L57.3297134,105.464534 C55.4585406,103.51712 54.8439037,99.7522908 55.2057464,96.1862809" id="Fill-40" fill="#F4EED8"></path>
                            <path d="M16.9784624,67.0482064 C16.9784624,67.0482064 23.2429993,58.4911259 20.1211457,58.4911259 C17.0044996,58.4911259 15.1324289,60.5909307 15.1324289,60.5909307 C15.1324289,60.5909307 5.61585286,52.7855703 1.09059725,53.5347846 C-3.43205464,54.2865048 7.57384608,69.1379882 7.57384608,69.1379882 L16.9784624,67.0482064 Z" id="Fill-42" fill="#EBE0BE"></path>
                        </g>
                        <g id="Page-1" transform="translate(184.293900, 237.059603)">
                            <g id="Group-3">
                                <mask id="mask-14" fill="white">
                                    <use xlink:href="#path-13"></use>
                                </mask>
                                <g id="Clip-2"></g>
                                <path d="M33.5838332,12.0611661 L28.5960455,15.4212379 L30.1145529,7.84934528 C30.421322,6.31648139 29.4536048,4.8220102 27.9518302,4.50775888 L7.51542623,0.244747816 C6.01225732,-0.0680815485 4.54534294,0.920174853 4.23717937,2.45161679 L0.0567522956,23.2917403 C-0.25001687,24.8246042 0.719094811,26.3204973 2.22086932,26.6333267 L22.6572733,30.8963377 C24.1604422,31.2091671 25.6273566,30.2209107 25.9341258,28.6894688 L27.4540276,21.1189981 L30.7476129,26.2038973 C31.5605512,27.4594806 33.455548,27.0869292 33.7511619,25.6109434 L36.1174677,13.8087447 C36.414476,12.3341808 34.8150931,11.2321683 33.5838332,12.0611661" id="Fill-1" fill="#EC5F61" mask="url(#mask-14)"></path>
                            </g>
                            <polygon id="Fill-4" fill="#FFFFFF" points="14.0832132 8.68874172 11.7294093 20.6357616 18.6604238 15.883478"></polygon>
                        </g>
                        <g id="Group-9" opacity="0.772984601" transform="translate(41.541658, 26.423841)">
                            <path d="M65.5714733,16.842515 L20.4085671,0.434722288 C16.7088291,-0.908294241 12.6090428,0.96463904 11.2500132,4.61798045 L0.440195887,33.679288 C-0.918833643,37.3326294 0.973593698,41.3813056 4.67616893,42.7243221 L9.08521254,44.3280913 C9.08521254,44.3280913 12.1409011,53.9282763 13.3921161,57.0432896 C14.2943529,59.2891272 17.1060403,60.3097076 19.2651665,59.1769755 C22.2584362,57.6068518 30.880755,52.2460009 30.880755,52.2460009 L49.8390751,59.1321148 C53.5359759,60.4779352 57.6357623,58.6050019 58.9947918,54.9488567 L69.8017719,25.8903529 C71.1636387,22.2370115 69.2683741,18.1855316 65.5714733,16.842515" id="Fill-29" fill="#236DDB"></path>
                            <path d="M55.9692405,29.0298655 L19.2384206,15.511908 C18.0402434,15.0702378 17.4283477,13.7395283 17.8666358,12.5370455 C18.3077699,11.3402618 19.6368643,10.7219235 20.8350416,11.1635937 L57.5687075,24.6844007 C58.7640387,25.1232214 59.3816265,26.4567804 58.9404923,27.6564137 C58.4993582,28.8560469 57.1702638,29.4715357 55.9692405,29.0298655" id="Fill-31" fill="#FFFFFF"></path>
                            <path d="M52.6878292,39.402454 L15.9560684,25.8844966 C14.7578605,25.4428264 14.1459491,24.1121168 14.5842484,22.9096341 C15.0253938,21.7128503 16.3516762,21.094512 17.5498841,21.5361822 L54.284491,35.0569892 C55.485545,35.4958099 56.1003025,36.829369 55.656311,38.0290022 C55.2180117,39.2286354 53.8860371,39.8441242 52.6878292,39.402454" id="Fill-33" fill="#FFFFFF"></path>
                            <path d="M28.4274438,42.0003435 L12.0069062,36.1073677 C10.8160715,35.6803404 10.2065448,34.3937487 10.6467585,33.2338877 C11.0841504,32.0712716 12.4019698,31.4789435 13.5899826,31.9032157 L30.0076983,37.7989465 C31.1985329,38.2232187 31.8080597,39.5125655 31.3678459,40.6724265 C30.9332759,41.8322876 29.6154565,42.4273707 28.4274438,42.0003435" id="Fill-35" fill="#FFFFFF"></path>
                        </g>
                        <g id="Group-8" opacity="0.584748641" transform="translate(228.856769, 0.000000)">
                            <path d="M25.378333,1.59321601 L38.5204463,20.2305534 L2.56802975,14.7952106 L20.1219017,0.798600847 C21.7801929,-0.523568729 24.1361672,-0.166758065 25.378333,1.59321601" id="Fill-37" fill="#FFFFFF" opacity="0.706974638"></path>
                            <path d="M38.5032975,19.305091 L36.0797731,36.9664637 C35.9468634,37.9441662 35.0767206,38.6255296 34.1359695,38.4849308 L1.47549947,33.6223753 C0.536825065,33.4817765 -0.117339622,32.5754549 0.0176467418,31.5977525 L2.44117116,13.9363797 C2.51177941,13.4172457 2.79421242,12.9824709 3.17840438,12.7077625 C3.52313878,12.4698261 3.94263487,12.3508579 4.3849748,12.4179127 L37.0454448,17.2783051 C37.4898614,17.34536 37.8574397,17.5811333 38.1253357,17.9099182 C38.4223057,18.2862904 38.5739058,18.78812 38.5032975,19.305091" id="Fill-39" fill="#FFFFFF" opacity="0.706974638"></path>
                            <path d="M38.5204463,17.8771442 L34.4681082,20.3643887 L23.2855503,27.2134473 C20.9040033,28.6688185 17.8673249,28.217374 15.969916,26.1213815 L7.07413759,16.2777407 L3.85204463,12.7070293 C4.19403148,12.4705583 4.61018415,12.3523229 5.0489986,12.4168149 L37.4491622,17.2494213 C37.8879767,17.3160631 38.2546854,17.5503843 38.5204463,17.8771442" id="Fill-41" fill="#FFFFFF" opacity="0.706974638"></path>
                            <path d="M35.2783426,9.49982469 L33.6966461,21.0490937 L22.5632259,27.870354 C20.1917069,29.3193635 17.1657635,28.8677519 15.2763439,26.7830618 L6.42007439,16.9824497 L8.0017709,5.43318067 C8.24794934,3.63743628 9.83990329,2.38533799 11.5672554,2.644319 L32.605255,5.78205592 C34.3264526,6.03675625 35.5245211,7.70622064 35.2783426,9.49982469" id="Fill-43" fill="#FFFFFF"></path>
                            <path d="M30.8878384,12.3886932 L13.1092433,9.90060585 C12.5276705,9.81683187 12.125701,9.29115012 12.2090883,8.72358138 C12.2924756,8.15601264 12.8291475,7.76018057 13.4085822,7.8418602 L31.1893155,10.3299475 C31.7687501,10.4116272 32.1728577,10.9394033 32.0894704,11.506972 C32.0060832,12.0745407 31.4672731,12.4703728 30.8878384,12.3886932" id="Fill-45" fill="#5193F4"></path>
                            <path d="M30.2458309,16.9568826 L12.4672358,14.4687953 C11.885663,14.3850213 11.4836936,13.8593396 11.5670809,13.2917709 C11.64833,12.7242021 12.1871401,12.32837 12.7665748,12.4100497 L30.547308,14.898137 C31.1267427,14.9798166 31.5308503,15.5075927 31.447463,16.0751615 C31.3640757,16.6427302 30.8252656,17.0385623 30.2458309,16.9568826" id="Fill-47" fill="#5193F4"></path>
                            <path d="M18.7508352,21.5226951 L11.138857,20.1502385 C10.5865876,20.050377 10.204872,19.4076781 10.2820273,18.7112076 C10.361213,18.0172976 10.8728743,17.533353 11.4251437,17.6332146 L19.0371219,19.0056712 C19.5853305,19.1055328 19.9711069,19.7507922 19.8919212,20.4447022 C19.8107052,21.1386121 19.3010742,21.6225567 18.7508352,21.5226951" id="Fill-49" fill="#5193F4"></path>
                        </g>
                        <g id="Page-1" transform="translate(0.000000, 95.125828)">
                            <path d="M24.0398477,249.330277 C23.5957057,248.289956 7.84453037,152.743693 7.84453037,152.743693 C32.9068235,150.294329 55.9466848,144.189355 55.9466848,144.189355 L77.7915928,243.430734 C77.7915928,243.430734 70.6324483,270.792499 67.4943743,284.911897 C65.5301038,293.85866 63.9623887,301.032926 63.9623887,301.032926 L53.3955125,300.851199 C53.3955125,300.851199 54.5005799,292.757763 55.9043856,283.076191 C57.8342879,269.628393 60.3405172,253.14391 61.2367321,251.010593 L41.6733387,193.03968 C41.6733387,193.03968 42.0302385,249.922865 41.6125336,250.752488 C41.2371279,251.500466 34.1361449,270.68715 28.6108081,285.688846 C25.171352,295.035935 22.3293726,302.752748 22.1073016,303.34797 L22.0940831,303.384842 L11.8418075,300.851199 C11.8418075,300.851199 13.9594127,292.605007 16.4233427,282.699568 C20.029352,268.206182 24.417897,250.170435 24.0398477,249.330277" id="Fill-9" fill="#8081F2"></path>
                            <path d="M1.52310005,155.112791 C0.835056182,147.177591 -1.6139582,94.3148503 1.67599869,82.4646719 C9.02831421,55.9859428 24.7953272,56.7647289 24.7953272,56.7647289 C29.622179,67.9571488 39.7345785,60.3876631 39.7345785,60.3876631 C39.7345785,60.3876631 57.4892738,71.1275451 51.6079486,100.471471 C47.8144807,119.417548 55.5095,136.758695 61.4488212,146.685588 C44.0025595,158.764666 21.3603802,161.693007 1.52310005,155.112791" id="Fill-11" fill="#00ECC8"></path>
                            <path d="M46.2831302,28.8188022 C46.2831302,28.8188022 55.1984934,54.4009404 40.8961086,56.4732291 C26.5963491,58.5428611 19.6420508,49.0395576 19.6420508,42.6446873 C19.6420508,36.2498169 18.4790632,23.7337246 30.4633485,20.2134906 C42.4423833,16.6959134 46.2831302,28.8188022 46.2831302,28.8188022" id="Fill-13" fill="#F4EED8"></path>
                            <path d="M24.187302,46.9769739 C24.187302,49.4998635 22.1409496,51.5428011 19.613843,51.5428011 C17.0867363,51.5428011 15.0353499,49.4998635 15.0353499,46.9769739 C15.0353499,44.4515714 17.0867363,42.4086338 19.613843,42.4086338 C22.1409496,42.4086338 24.187302,44.4515714 24.187302,46.9769739" id="Fill-15" fill="#F4EED8"></path>
                            <path d="M19.7361858,18.9897369 C20.0507813,18.8401495 20.3522686,18.7168054 20.6642425,18.5777153 C22.1402198,16.7747925 23.7708731,15.1004625 25.553581,13.599339 C26.9456661,12.4288826 28.4321298,11.3450294 29.6092413,9.95675262 C30.7837312,8.56322715 31.6331391,6.78392344 31.4601115,4.97050329 C33.1222245,6.71044187 33.9087132,9.25605337 33.5207121,11.633707 C35.3479876,8.93325934 35.9116379,5.40876836 35.0150407,2.27267996 C37.9565087,3.5507344 40.1350825,6.4480077 40.5519216,9.63133425 C41.6372761,6.54773268 41.687087,3.11246932 40.6934896,0 C45.8345044,1.49325046 49.9347325,6.11209195 50.8103566,11.4001406 C51.6859808,16.6881892 49.2924333,22.3830108 44.9064477,25.4587394 C42.9061446,26.8601379 40.4470564,27.7130489 38.0351576,27.6054509 C38.611916,36.5728267 22.9240869,43.4328561 22.9240869,43.4328561 C19.9039701,41.3596261 16.5482847,43.4328561 16.5482847,43.4328561 C14.6816847,45.2226571 14.9700639,46.9757174 14.9700639,46.9757174 C14.9700639,46.9757174 0.632373846,28.0699594 19.7361858,18.9897369" id="Fill-17" fill="#FF6748"></path>
                            <g id="Group-7" transform="translate(1.961133, 81.555065)">
                                <g id="Group-12">
                                    <mask id="mask-16" fill="white">
                                        <use xlink:href="#path-15"></use>
                                    </mask>
                                    <g id="Clip-11"></g>
                                    <path d="M116.435988,0.660395276 L4.01219796,23.6026088 C1.30006012,24.1567441 -0.450845611,26.8084966 0.101673633,29.5285671 L6.79497753,62.5160644 C7.34749678,65.2361349 9.99151581,66.9921618 12.7036536,66.4380265 L23.7868365,64.17594 L29.1631767,63.0777905 C30.3741778,64.1228037 33.4571847,66.764435 34.7161212,67.7057059 C35.8564806,68.5533558 37.5594509,68.2041746 38.2784828,66.97698 C39.0706793,65.6207402 40.8796122,61.9771108 41.5860295,60.5449621 L68.9142872,54.9656546 L125.124921,43.495813 C127.839582,42.9416777 129.587964,40.2899252 129.035445,37.5698547 L122.344664,4.58235744 C121.792145,1.86228691 119.145603,0.106259976 116.435988,0.660395276" id="Fill-10" fill="#EC5F61" mask="url(#mask-16)"></path>
                                </g>
                                <path d="M29.3253758,42.5314424 C30.2227538,41.2999448 30.6288299,39.7005308 30.305473,38.078122 L29.7640382,35.3775141 C29.1649507,32.3703092 26.3675377,30.2215757 23.4021796,30.7427905 C20.3340492,31.2818901 18.3287352,34.29165 18.9453693,37.380614 L19.5319236,40.3111697 C19.8552805,41.9361334 20.840391,43.2442803 22.1388318,44.0209925 C18.7598777,46.0062076 16.5540323,49.6266064 16.345981,53.6225863 C16.2657684,55.1811207 17.7020746,56.3717388 19.2010468,56.0600319 L36.6447719,52.4421882 C38.1462507,52.1304813 39.0085357,50.462083 38.3392622,49.061957 C36.6146921,45.464553 33.1956318,43.0117776 29.3253758,42.5314424" id="Fill-13" fill="#FFFFFF"></path>
                                <path d="M73.4564405,20.2937452 L51.0852285,24.8106538 C49.2537115,25.1806054 48.0721689,26.9528733 48.4425031,28.7701354 L50.6796243,39.6762074 C51.0524779,41.4934695 52.8386478,42.6683156 54.6701648,42.2958644 L56.8569004,41.855922 C56.8569004,41.855922 60.5098573,44.9905116 61.8022483,45.9453866 C62.7318629,46.6327965 64.125025,46.3503335 64.7094982,45.3579635 C65.5232258,43.9806438 67.6520179,39.6762074 67.6520179,39.6762074 L77.0438961,37.7814555 C78.8728938,37.4090043 80.0569557,35.639236 79.6841022,33.8219739 L77.446981,22.9134022 C77.0766468,21.0986398 75.2879575,19.9237937 73.4564405,20.2937452" id="Fill-15" fill="#FFFFFF"></path>
                                <path d="M73.0611475,26.1846436 L54.8136803,29.9911375 C54.268715,30.1054623 53.7364233,29.7443 53.6248955,29.1856678 C53.5133677,28.6270356 53.8656941,28.0813948 54.4131942,27.9696684 L72.6606614,24.1605761 C73.2056267,24.0488497 73.7379184,24.4100119 73.8494462,24.9686441 C73.9584393,25.5272764 73.6086476,26.0729171 73.0611475,26.1846436" id="Fill-17" fill="#FFFFFF"></path>
                                <path d="M73.0628824,30.7505852 L54.8112578,34.5582098 C54.266244,34.6725685 53.733905,34.311299 53.6249022,33.7550999 C53.5133645,33.1937027 53.8657223,32.6504989 54.4107361,32.5361402 L72.6623607,28.7285156 C73.2073745,28.6141569 73.7397135,28.9754264 73.8487163,29.5342245 C73.960254,30.0930227 73.6078962,30.6388255 73.0628824,30.7505852" id="Fill-19" fill="#FFFFFF"></path>
                                <path d="M63.9438115,37.6469031 L56.0685128,39.1289299 C55.5468895,39.2253401 55.037397,38.9136885 54.9306462,38.4338795 C54.8263215,37.9518284 55.163557,37.4809879 55.6851803,37.3823356 L63.5604791,35.9025509 C64.0821024,35.8038986 64.5915949,36.1133081 64.6983457,36.5976013 C64.8026704,37.0796523 64.467861,37.5482508 63.9438115,37.6469031" id="Fill-21" fill="#FFFFFF"></path>
                                <path d="M118.096888,30.6474204 C117.648331,28.4234647 116.508353,26.5143611 114.949557,25.1000252 L114.476219,22.7561258 C113.678234,18.7979843 110.176519,16.0967526 106.303072,16.1967057 L106.166771,15.5045307 C106.008165,14.7273956 105.254788,14.2251315 104.484064,14.3825575 C103.71334,14.5424824 103.215219,15.2996269 103.373825,16.076762 L103.510126,16.768937 C99.9092831,18.2032635 97.7309339,22.0689484 98.5289184,26.0270899 L99.0047353,28.3709893 L99.0022571,28.3709893 C98.1200133,30.2850905 97.8127149,32.4940533 98.2612714,34.7155103 L98.4669631,35.7350315 C98.5710481,36.2522887 99.0741253,36.5871314 99.5871154,36.4821807 L103.53243,35.6725609 C103.534909,35.9724201 103.678645,36.2722793 104.003291,36.4272065 C105.527392,37.1393721 107.281967,37.386756 109.053889,37.0219273 C110.820855,36.6595974 112.342477,35.742528 113.470064,34.4831194 C113.707973,34.2182437 113.722842,33.883401 113.608844,33.6060312 L117.561594,32.7939125 C118.074584,32.6889618 118.406664,32.1817 118.30258,31.6644429 L118.096888,30.6474204 Z" id="Fill-23" fill="#FFFFFF"></path>
                                <path d="M100.585718,34.7117427 C101.052133,37.0068249 99.5694249,39.245571 97.2692635,39.7134052 C94.971557,40.1787901 92.7278564,38.6969067 92.2589868,36.404274 C91.792572,34.1091918 93.27528,31.8704457 95.5754414,31.4026115 C97.8756028,30.9372266 100.119303,32.41911 100.585718,34.7117427" id="Fill-25" fill="#FFFFFF"></path>
                                <path d="M100.585718,34.7117427 C101.052133,37.0068249 99.5694249,39.245571 97.2692635,39.7134052 C94.971557,40.1787901 92.7278564,38.6969067 92.2589868,36.404274 C91.792572,34.1091918 93.27528,31.8704457 95.5754414,31.4026115 C97.8756028,30.9372266 100.119303,32.41911 100.585718,34.7117427 Z" id="Stroke-27" stroke="#EF5454"></path>
                            </g>
                            <path d="M22.2261694,46.3232769 L22.2261694,49.9818798 C22.2261694,49.9818798 22.2548696,50.642019 22.3435796,51.6945301 C22.4479442,53.0863898 22.6436278,55.156947 22.9932493,57.2460622 C23.5255088,60.4884327 24.4073897,63.8023845 25.8241393,64.7568027 C28.850713,66.8088016 38.9297252,65.6343371 40.2290646,64.7568027 C40.6386956,64.483733 40.5891225,62.6173154 40.3256018,60.2021072 C40.1821005,58.9109916 39.989026,57.4714109 39.764642,56.0238768 L39.7568147,56.0238768 C39.0862721,51.6362045 38.2122185,47.2617881 38.2122185,47.2617881 L22.2261694,46.3232769 Z" id="Fill-19" fill="#F4EED8"></path>
                            <path d="M22.2261694,51.5428011 C22.3323867,52.9187816 22.5315443,54.9722486 22.8873724,57.0414712 C27.2104184,58.2310116 35.9282071,60.3973931 40.5300736,59.9693686 C40.3813693,58.6905471 40.1848672,57.2646742 39.9564999,55.8309235 L39.9485336,55.8309235 C39.473211,55.8099162 24.6638575,55.2059552 22.2261694,51.5428011" id="Fill-21" fill="#EBE0BE"></path>
                            <g id="Group-25" transform="translate(3.922265, 66.548933)">
                                <mask id="mask-18" fill="white">
                                    <use xlink:href="#path-17"></use>
                                </mask>
                                <g id="Clip-24"></g>
                                <path d="M28.2149965,33.2616015 C28.2149965,33.2616015 77.0648925,46.8117803 94.0143864,49.103666 C94.0143864,49.103666 101.706155,40.8703445 101.618567,43.416296 C101.533634,45.9596011 99.4633859,49.7414771 99.4633859,49.7414771 C99.4633859,49.7414771 117.262212,50.5592516 109.80401,57.0432239 C102.345808,63.5298426 93.5897201,55.5347079 93.5897201,55.5347079 C93.5897201,55.5347079 32.1484681,55.3388654 21.669827,49.4715322 C11.1911859,43.6041989 -7.45697321,15.0535488 4.26912515,3.72909271 C15.9952235,-7.59536334 26.0067317,10.7794201 28.2149965,33.2616015" id="Fill-23" fill="#F4EED8" mask="url(#mask-18)"></path>
                            </g>
                            <path d="M7.89585739,68.9219526 C19.4463342,57.7018913 29.4236683,73.7685215 32.6855432,95.3094557 L14.3519452,105.695364 C5.8659957,93.8560506 -0.567538134,77.1418917 7.89585739,68.9219526" id="Fill-26" fill="#0B43A4"></path>
                        </g>
                    </g>
                </g>
            </g>
        </g>
    </g>
</svg>