<svg xmlns="http://www.w3.org/2000/svg" xmlns:xlink="http://www.w3.org/1999/xlink" viewBox="0 0 690.38 367"><defs><style>.cls-1{fill:none;}.cls-2{opacity:0.24;}.cls-3{fill:#236ddb;}.cls-21,.cls-26,.cls-4{fill:#242993;}.cls-4{opacity:0.15;}.cls-5{fill:#ffd85a;}.cls-6{fill:#f2b42a;}.cls-7{fill:#dd821f;}.cls-8{fill:#f9bf30;}.cls-9{fill:#dbe2e5;}.cls-10{fill:#7ee8d4;}.cls-11{fill:#0b43a4;}.cls-12{fill:#fff;}.cls-13{fill:#91afff;}.cls-14{opacity:0.32;}.cls-15{fill:url(#_ÂÁ_Ï_ÌÌ_È_ËÂÌÚ_28);}.cls-16{opacity:0.11;}.cls-17{clip-path:url(#clip-path);}.cls-18{fill:url(#_ÂÁ_Ï_ÌÌ_È_ËÂÌÚ_28-2);}.cls-19{fill:url(#_ÂÁ_Ï_ÌÌ_È_ËÂÌÚ_28-3);}.cls-20{fill:#adc8ff;}.cls-22,.cls-23{opacity:0.42;}.cls-22{fill:url(#_ÂÁ_Ï_ÌÌ_È_ËÂÌÚ_36);}.cls-23{fill:url(#_ÂÁ_Ï_ÌÌ_È_ËÂÌÚ_36-2);}.cls-24{fill:url(#_ÂÁ_Ï_ÌÌ_È_ËÂÌÚ_35);}.cls-25{fill:url(#_ÂÁ_Ï_ÌÌ_È_ËÂÌÚ_28-4);}.cls-26{opacity:0.6;}.cls-27,.cls-29{fill:#4553c7;}.cls-28{opacity:0.96;fill:url(#_ÂÁ_Ï_ÌÌ_È_ËÂÌÚ_40);}.cls-29{opacity:0.8;}</style><linearGradient id="_ÂÁ_Ï_ÌÌ_È_ËÂÌÚ_28" x1="-2088.21" y1="241.45" x2="-2013.6" y2="241.45" gradientTransform="matrix(-1, 0, 0, 1, -1656.51, 0)" gradientUnits="userSpaceOnUse"><stop offset="0" stop-color="#c0d6ff"/><stop offset="0.3" stop-color="#c5dbff"/><stop offset="0.65" stop-color="#d3e9ff"/><stop offset="1" stop-color="#e9ffff"/></linearGradient><clipPath id="clip-path"><polygon id="SVGID" class="cls-1" points="425.21 10.52 597.33 109.89 575.98 235.72 403.98 136.42 425.21 10.52"/></clipPath><linearGradient id="_ÂÁ_Ï_ÌÌ_È_ËÂÌÚ_28-2" x1="-2248.94" y1="160.3" x2="-1957.45" y2="160.3" xlink:href="#_ÂÁ_Ï_ÌÌ_È_ËÂÌÚ_28"/><linearGradient id="_ÂÁ_Ï_ÌÌ_È_ËÂÌÚ_28-3" x1="-2268.12" y1="138.9" x2="-2193.51" y2="138.9" xlink:href="#_ÂÁ_Ï_ÌÌ_È_ËÂÌÚ_28"/><radialGradient id="_ÂÁ_Ï_ÌÌ_È_ËÂÌÚ_36" cx="-2150.56" cy="197.82" r="83.56" gradientTransform="matrix(-1, 0, 0, 1, -1656.51, 0)" gradientUnits="userSpaceOnUse"><stop offset="0" stop-color="#2b3aa5"/><stop offset="1" stop-color="#182484"/></radialGradient><radialGradient id="_ÂÁ_Ï_ÌÌ_È_ËÂÌÚ_36-2" cx="-2168.83" cy="160.23" r="63.96" xlink:href="#_ÂÁ_Ï_ÌÌ_È_ËÂÌÚ_36"/><linearGradient id="_ÂÁ_Ï_ÌÌ_È_ËÂÌÚ_35" x1="-2191.86" y1="178.69" x2="-2135.52" y2="77.24" gradientTransform="matrix(-1, 0, 0, 1, -1656.51, 0)" gradientUnits="userSpaceOnUse"><stop offset="0" stop-color="#5778ff"/><stop offset="0.04" stop-color="#5c7dff"/><stop offset="0.09" stop-color="#6a8aff"/><stop offset="0.14" stop-color="#82a0ff"/><stop offset="0.19" stop-color="#a3beff"/><stop offset="0.22" stop-color="#bcd5ff"/></linearGradient><linearGradient id="_ÂÁ_Ï_ÌÌ_È_ËÂÌÚ_28-4" x1="-2122.64" y1="179.05" x2="-2160.15" y2="105.74" xlink:href="#_ÂÁ_Ï_ÌÌ_È_ËÂÌÚ_28"/><linearGradient id="_ÂÁ_Ï_ÌÌ_È_ËÂÌÚ_40" x1="-2021.28" y1="310.84" x2="-2140.47" y2="99.64" gradientTransform="matrix(-1, 0, 0, 1, -1656.51, 0)" gradientUnits="userSpaceOnUse"><stop offset="0" stop-color="#c0d6ff"/><stop offset="0.08" stop-color="#c3d9ff"/><stop offset="0.13" stop-color="#cce2ff"/><stop offset="0.18" stop-color="#dcf2ff"/><stop offset="0.21" stop-color="#e9ffff"/><stop offset="0.26" stop-color="#d8eeff"/><stop offset="0.31" stop-color="#cbe1ff"/><stop offset="0.39" stop-color="#c2d8ff"/><stop offset="0.51" stop-color="#c0d6ff"/><stop offset="0.62" stop-color="#d0e6ff"/><stop offset="0.75" stop-color="#e9ffff"/><stop offset="1" stop-color="#c0d6ff"/></linearGradient></defs><title>Asset 2</title><g id="Layer_2" data-name="Layer 2"><g id="_ÎÓÈ_1" data-name="—ÎÓÈ_1"><g class="cls-2"><path class="cls-3" d="M557,230.36a.6.6,0,0,1-.31-.08L434.42,159.7c-2.26-1.3-3.5-3.07-3.5-5s1.24-3.68,3.5-5l79.61-46c1.85-1.07,2.87-2.45,2.87-3.89s-1-2.83-2.87-3.9L379.23,18.18a16.27,16.27,0,0,0-14.73,0l-45.21,26.1c-1.85,1.07-2.87,2.45-2.87,3.89s1,2.83,2.87,3.89l67.2,38.81c2.26,1.3,3.5,3.06,3.5,5s-1.24,3.67-3.5,5L286,158.83c-4.41,2.54-11.58,2.54-16,0L203.3,120.31a.63.63,0,1,1,.63-1.09l66.72,38.53a16.33,16.33,0,0,0,14.73,0l100.49-58c1.85-1.07,2.86-2.45,2.86-3.89s-1-2.82-2.86-3.89l-67.21-38.8c-2.25-1.3-3.49-3.07-3.49-5s1.24-3.67,3.49-5l45.21-26.11c4.41-2.54,11.58-2.54,16,0L514.66,94.92c2.25,1.3,3.49,3.07,3.49,5s-1.24,3.67-3.5,5l-79.61,46c-1.85,1.07-2.86,2.45-2.86,3.9s1,2.82,2.86,3.89l122.25,70.57a.63.63,0,0,1-.32,1.17Z"/><path class="cls-3" d="M527.85,177.44a.61.61,0,0,1-.54-.31.63.63,0,0,1,.22-.86l118.66-68.51c2.55-1.47,3.95-3.39,3.95-5.4s-1.4-3.93-3.95-5.4l-113.8-65.7c-5.51-3.18-14.46-3.18-20,0L487,46a.64.64,0,0,1-.86-.23.63.63,0,0,1,.23-.86L511.8,30.17c5.85-3.37,15.36-3.37,21.21,0L646.82,95.88c2.95,1.7,4.57,4,4.57,6.48s-1.62,4.78-4.57,6.49l-118.66,68.5A.61.61,0,0,1,527.85,177.44Z"/><path class="cls-3" d="M245.29,367a18.43,18.43,0,0,1-9-2.15L73.71,271c-2.52-1.46-3.91-3.43-3.91-5.56s1.39-4.1,3.91-5.56l55.45-32c5-2.87,13-2.87,18,0l102.57,59.22c4.62,2.66,12.13,2.66,16.75,0l138.36-79.89c2.12-1.22,3.29-2.81,3.29-4.47s-1.17-3.25-3.29-4.48L364,174.64c-4.62-2.67-12.13-2.67-16.75,0L267.1,220.89c-5,2.86-13,2.86-18,0L137.17,156.26c-4.62-2.66-12.13-2.66-16.75,0L.94,225.25a.63.63,0,1,1-.63-1.09l119.49-69c5-2.87,13-2.87,18,0L249.73,219.8c4.61,2.67,12.13,2.67,16.75,0l80.1-46.25c5-2.86,13-2.86,18,0l40.89,23.61c2.52,1.45,3.91,3.43,3.91,5.56s-1.39,4.1-3.91,5.55L267.1,288.16c-5,2.86-13,2.86-18,0L146.54,228.94c-4.62-2.66-12.13-2.66-16.75,0L74.34,261c-2.12,1.22-3.29,2.81-3.29,4.47s1.17,3.25,3.29,4.47l162.57,93.87c4.62,2.66,12.13,2.66,16.75,0L464,242.31a.64.64,0,0,1,.86.23.62.62,0,0,1-.23.85L254.29,364.85A18.43,18.43,0,0,1,245.29,367Z"/><path class="cls-3" d="M400.84,320.51a.61.61,0,0,1-.31-.09l-35-20.18a.63.63,0,1,1,.63-1.08l35,20.18a.61.61,0,0,1,.22.85A.62.62,0,0,1,400.84,320.51Z"/><path class="cls-3" d="M305.26,98.48a.62.62,0,0,1-.31-1.16l46-26.59a.64.64,0,0,1,.86.23.62.62,0,0,1-.23.85L305.57,98.4A.58.58,0,0,1,305.26,98.48Z"/><path class="cls-3" d="M649.61,176.88a.61.61,0,0,1-.31-.09l-60.4-34.87a.63.63,0,1,1,.63-1.08l60.4,34.87a.63.63,0,0,1-.32,1.17Z"/><path class="cls-3" d="M305.72,110.19H285a.63.63,0,0,1-.63-.63v-12a.63.63,0,0,1,.18-.44A.64.64,0,0,1,285,97h20.73a.63.63,0,0,1,.63.63v12a.62.62,0,0,1-.63.63Zm-20.11-1.25H305.1V98.22H285.61Z"/><path class="cls-3" d="M553.6,84H532.87a.63.63,0,0,1-.63-.63v-12a.61.61,0,0,1,.62-.62H553.6a.63.63,0,0,1,.63.62v12a.64.64,0,0,1-.19.45A.63.63,0,0,1,553.6,84Zm-20.11-1.25H553V72H533.49Z"/><path class="cls-3" d="M250.24,339.22a22.73,22.73,0,0,1-11.09-2.65c-3.08-1.78-4.78-4.18-4.78-6.77s1.7-5,4.78-6.76c6.11-3.53,16.06-3.53,22.18,0h0c3.08,1.78,4.78,4.18,4.78,6.76s-1.7,5-4.78,6.77A22.73,22.73,0,0,1,250.24,339.22Zm0-17.6a21.39,21.39,0,0,0-10.47,2.5c-2.67,1.55-4.15,3.56-4.15,5.68s1.48,4.14,4.15,5.68c5.77,3.33,15.16,3.33,20.93,0,2.68-1.54,4.15-3.56,4.16-5.68s-1.48-4.13-4.16-5.68A21.32,21.32,0,0,0,250.24,321.62Z"/><path class="cls-3" d="M211.49,316.85a22.76,22.76,0,0,1-11.09-2.65c-3.08-1.78-4.77-4.18-4.77-6.77s1.69-5,4.77-6.76c6.12-3.53,16.07-3.53,22.19,0h0c3.08,1.78,4.77,4.18,4.77,6.76s-1.69,5-4.77,6.77A22.77,22.77,0,0,1,211.49,316.85Zm0-17.6a21.43,21.43,0,0,0-10.46,2.5c-2.68,1.55-4.15,3.56-4.15,5.68s1.47,4.14,4.15,5.68c5.77,3.33,15.16,3.34,20.93,0,2.68-1.54,4.15-3.56,4.15-5.68s-1.47-4.13-4.15-5.68h0A21.5,21.5,0,0,0,211.49,299.25Z"/><path class="cls-3" d="M172.75,294.48a22.73,22.73,0,0,1-11.09-2.65c-3.08-1.78-4.78-4.18-4.78-6.77s1.7-5,4.78-6.76c6.11-3.53,16.07-3.53,22.18,0h0c3.08,1.78,4.78,4.18,4.78,6.76s-1.7,5-4.78,6.77A22.73,22.73,0,0,1,172.75,294.48Zm0-17.59a21.43,21.43,0,0,0-10.46,2.49c-2.68,1.55-4.16,3.57-4.16,5.68s1.48,4.14,4.16,5.68c5.77,3.33,15.16,3.34,20.93,0,2.67-1.54,4.15-3.56,4.15-5.68s-1.48-4.13-4.15-5.68h0A21.49,21.49,0,0,0,172.75,276.89Z"/><path class="cls-3" d="M134,272.11a22.71,22.71,0,0,1-11.09-2.65c-3.09-1.78-4.78-4.18-4.78-6.77s1.69-5,4.77-6.76c6.12-3.53,16.07-3.53,22.19,0,3.08,1.78,4.77,4.18,4.77,6.76s-1.69,5-4.77,6.77A22.65,22.65,0,0,1,134,272.11Zm0-17.59A21.49,21.49,0,0,0,123.54,257c-2.68,1.55-4.15,3.57-4.15,5.68s1.47,4.14,4.15,5.69c5.77,3.33,15.16,3.33,20.93,0,2.68-1.55,4.15-3.57,4.15-5.69s-1.47-4.13-4.15-5.68A21.43,21.43,0,0,0,134,254.52Z"/><path class="cls-3" d="M144.79,257.1a.63.63,0,0,1-.32-1.17l25.34-14.63a.63.63,0,0,1,.86.23.62.62,0,0,1-.23.85L145.1,257A.61.61,0,0,1,144.79,257.1Z"/><path class="cls-3" d="M283.7,347.77a.61.61,0,0,1-.32-.08l-21-12.28a.63.63,0,0,1,.63-1.08l21,12.28a.62.62,0,0,1-.32,1.16Z"/><path class="cls-3" d="M421.58,332.48H400.84a.63.63,0,0,1-.62-.63v-12a.63.63,0,0,1,.62-.63h20.74a.63.63,0,0,1,.63.63v12A.63.63,0,0,1,421.58,332.48Zm-20.11-1.25H421V320.51H401.47Z"/></g><path class="cls-4" d="M562.34,274,395.15,177.48,261,255.34a2.19,2.19,0,0,0,0,3.77l43,24.82c-13.94,3.11-25,10.89-25,17.77,0,7.14,11.91,10.61,26.6,7.76,10-1.95,18.72-6.33,23.26-11.18L421.4,351.7a13.65,13.65,0,0,0,13.63,0l127.31-73.93A2.17,2.17,0,0,0,562.34,274Z"/><polygon class="cls-5" points="352.26 82.57 364.43 105.9 371.04 107.05 373.37 111.51 371.61 119.65 374.26 124.73 376.74 123.43 378.69 127.16 376.39 128.35 380.31 135.87 385.64 133.09 387.63 136.89 386.45 142.33 388.87 146.97 387.89 147.48 391.09 153.6 393.02 152.6 396.29 158.88 398.25 162.62 416.76 170.34 410.18 157.73 369.17 79.13 352.26 82.57"/><path class="cls-5" d="M370,45.78c-.1-.16-.2-.31-.29-.47l-.54-.9-.38-.58c-.16-.25-.32-.5-.49-.74s-.29-.41-.44-.61l-.47-.66-.49-.63-.45-.58c-.18-.22-.36-.44-.55-.65l-.42-.49-.61-.68-.38-.4-.69-.71a3.83,3.83,0,0,0-.29-.28l-.81-.78-.09-.08c-9.17-8.37-21.53-11.1-31.54-5.88-13.49,7-17.58,25.86-9.13,42a36,36,0,0,0,19.91,17.71h0a27.57,27.57,0,0,0,8.73,1.5h.11c.33,0,.66,0,1,0h.36l.86-.07.47,0,.78-.1.55-.09.71-.13.61-.13.66-.15.66-.19q.3-.07.6-.18c.24-.07.48-.15.71-.24l.55-.19L360,90l.43-.18c.41-.19.82-.38,1.23-.6,13.48-7,17.57-25.86,9.13-42C370.55,46.73,370.29,46.25,370,45.78ZM345.9,59c-3.95,2.06-9.15-.11-11.62-4.84-.2-.4-.37-.8-.53-1.2l-.1-.27a10.93,10.93,0,0,1-.36-1.2A9.22,9.22,0,0,1,334.57,44h0a6.92,6.92,0,0,1,1.06-1.17l.09-.06c.17-.15.35-.29.54-.43a6,6,0,0,1,.69-.41c3.95-2.06,9.15.11,11.62,4.84S349.84,57,345.9,59Z"/><polygon class="cls-6" points="356.07 80.58 368.25 103.91 374.86 105.06 377.19 109.52 375.42 117.66 378.07 122.74 380.56 121.44 382.5 125.17 380.21 126.36 384.13 133.88 389.46 131.1 391.44 134.9 390.26 140.34 392.68 144.98 391.71 145.49 394.9 151.61 396.83 150.6 400.11 156.89 402.06 160.63 420.58 168.35 414 155.74 372.99 77.14 356.07 80.58"/><path class="cls-5" d="M337.6,27.26c-13.49,7-17.57,25.86-9.13,42s26.22,23.59,39.71,16.56,17.58-25.86,9.13-42S351.09,20.22,337.6,27.26Zm14.81,28.38c-3.94,2.06-9.14-.11-11.61-4.84s-1.28-10.24,2.67-12.3,9.14.11,11.61,4.84S356.36,53.58,352.41,55.64Z"/><polygon class="cls-7" points="410.77 158.86 406.23 157.03 370.44 88.44 373.26 86.97 410.77 158.86"/><polygon class="cls-5" points="373.26 86.97 410.77 158.86 412.38 159.51 374.26 86.45 373.26 86.97"/><path class="cls-7" d="M373,77.14l-16.92,3.44L361.53,91a20.08,20.08,0,0,0,12-2,19.33,19.33,0,0,0,4.17-2.94Z"/><path class="cls-7" d="M361.27,27.71,348.38,87a25,25,0,0,0,19.8-1.15c13.49-7,17.58-25.86,9.13-42A37,37,0,0,0,361.27,27.71Z"/><path class="cls-8" d="M338.52,29c-12.67,6.62-16.52,24.31-8.58,39.51s24.64,22.18,37.32,15.56,16.52-24.3,8.58-39.51S351.2,22.41,338.52,29Zm13.89,26.62c-3.94,2.06-9.14-.11-11.61-4.84s-1.28-10.24,2.67-12.3,9.14.11,11.61,4.84S356.36,53.58,352.41,55.64Z"/><path class="cls-6" d="M340.15,32.13C328.9,38,325.5,53.69,332.53,67.18s21.86,19.67,33.1,13.8,14.66-21.56,7.62-35.05S351.39,26.27,340.15,32.13Zm12.26,23.51c-3.94,2.06-9.14-.11-11.61-4.84s-1.28-10.24,2.67-12.3,9.14.11,11.61,4.84S356.36,53.58,352.41,55.64Z"/><path class="cls-5" d="M340.15,32.13c-.44.23-.86.48-1.27.74,11.06-4.75,25,1.45,31.77,14.42s3.88,28-6.34,34.31c.44-.19.89-.39,1.32-.62,11.25-5.87,14.66-21.56,7.62-35.05S351.39,26.27,340.15,32.13Z"/><path class="cls-7" d="M335.75,68.09c-7-13.49-3.62-29.18,7.62-35.05A20.31,20.31,0,0,1,357,31.3a20.92,20.92,0,0,0-16.88.83C328.9,38,325.5,53.69,332.53,67.18c4.38,8.39,11.77,13.95,19.44,15.54A30.17,30.17,0,0,1,335.75,68.09Z"/><path class="cls-7" d="M344.55,37.22a8.67,8.67,0,0,0-3.47,3.35,6.74,6.74,0,0,1,2.39-2.07c3.94-2.06,9.14.11,11.61,4.84s1.28,10.24-2.67,12.3-9.14-.11-11.61-4.84a11.12,11.12,0,0,1-1-2.67,14.15,14.15,0,0,0,1.43,4.35c3.07,5.87,9.52,8.56,14.42,6S362,49.1,359,43.23,349.45,34.66,344.55,37.22Z"/><path class="cls-8" d="M342.39,36.43c-4.9,2.56-6.38,9.39-3.31,15.26s9.51,8.57,14.41,6,6.38-9.38,3.31-15.26S347.29,33.88,342.39,36.43Zm10,19.21c-3.94,2.06-9.14-.11-11.61-4.84s-1.28-10.24,2.67-12.3,9.14.11,11.61,4.84S356.36,53.58,352.41,55.64Z"/><path class="cls-5" d="M341.09,37.11c-4.89,2.56-6.38,9.39-3.31,15.26s9.52,8.57,14.41,6,6.38-9.39,3.32-15.26S346,34.56,341.09,37.11Zm10,19.21c-3.94,2.06-9.14-.11-11.61-4.85s-1.28-10.24,2.67-12.3,9.15.11,11.62,4.85S355.06,54.26,351.11,56.32Z"/><path class="cls-8" d="M342.39,36.43c-4.9,2.56-6.38,9.39-3.31,15.26s9.51,8.57,14.41,6,6.38-9.38,3.31-15.26S347.29,33.88,342.39,36.43Zm10,19.21c-3.94,2.06-9.14-.11-11.61-4.84s-1.28-10.24,2.67-12.3,9.14.11,11.61,4.84S356.36,53.58,352.41,55.64Z"/><polygon class="cls-7" points="418.93 167.66 375.45 84.34 377.65 86.08 420.58 168.35 418.93 167.66"/><rect class="cls-5" x="372.69" y="118.33" width="4.3" height="5.73" transform="translate(-13.54 187.15) rotate(-27.56)"/><polygon class="cls-7" points="385.64 133.09 391.44 134.9 389.46 131.1 385.64 133.09"/><polygon class="cls-7" points="376.74 123.43 380.56 121.44 382.5 125.17 376.74 123.43"/><polygon class="cls-7" points="364.43 105.9 368.25 103.91 374.86 105.06 371.04 107.05 364.43 105.9"/><path class="cls-7" d="M357.71,93l3.82-2-1-4L355,88l-6.18-2.74-8.68,4.53c.59.24,1.17.47,1.77.67h0a27.57,27.57,0,0,0,8.73,1.5h.11c.33,0,.66,0,1,0h.36l.86-.07.47,0,.78-.1.55-.09.71-.13.61-.13.66-.15,0,0Z"/><polygon class="cls-7" points="420.58 168.35 416.76 170.34 398.25 162.62 402.06 160.63 420.58 168.35"/><polygon class="cls-7" points="393.02 152.6 396.83 150.6 398.66 154.1 393.02 152.6"/><path class="cls-5" d="M337.6,27.26l-6.72,3.51s3.59-.6,3.63-.62S337.6,27.26,337.6,27.26Z"/><path class="cls-4" d="M285.83,162.41c-.55,0-1.09.06-1.64.1l-.56.05-1.05.09-.68.08-.89.11-.75.11-.8.12-.79.14-.72.13-.83.17-.63.14-.88.21-.53.13-.95.25-.38.11-1.05.31-.12,0c-11.59,3.64-19.46,11.08-19.09,19.3.51,11.08,15.82,19.38,34.18,18.54,10-.46,18.85-3.54,24.76-8h0a22.5,22.5,0,0,0,5.16-5.38l.05-.08c.14-.22.28-.44.41-.66s.09-.16.14-.24l.31-.59c.06-.11.12-.22.17-.33a.8.8,0,0,1,.08-.16l17.67-.81,3.92-4.08,5.07-.23,6.62,3.59,5.76-.27h0l-.09-2,4.23-.19.09,1.88h0l8.53-.39h0l-.2-4.38,4.31-.2,4.42,2.4,5.27-.24,0,.8h0l6.94-.32h0l-.07-1.58,7.13-.33,4.25-.19,15.08-10.07-14.31.65-79.08,3.64h0l-6.14.28C313.57,167,300.71,161.72,285.83,162.41Zm-.12,20.11c.15,3.24-4.09,6.07-9.46,6.32h-1.17l-.6,0-.3,0c-3.17-.27-5.8-1.48-7.09-3.18h0a4.39,4.39,0,0,1-.59-1.05l0-.09a3.68,3.68,0,0,1-.22-1.07c-.15-3.24,4.09-6.07,9.46-6.31S285.56,179.28,285.71,182.52Z"/><path class="cls-9" d="M400.35,135.08,422.7,2.53l-1.8-.76L423.6.22v0a2,2,0,0,1,2.09.14l178.56,103.1a5.05,5.05,0,0,1,2.32,4.53L584,241.62a1.69,1.69,0,0,1-.94,1.36h0l-2.64,1.53L580,242l.15.05L402.67,139.62A5.08,5.08,0,0,1,400.35,135.08Z"/><path class="cls-9" d="M603.24,107.1l2.94-1.3a4.06,4.06,0,0,1,.38,2.21L584,241.62a1.69,1.69,0,0,1-.94,1.36h0l-2.64,1.53L580,242l.15.05-9-5.19Z"/><path class="cls-10" d="M399.87,141.22l178.56,103.1c1.38.79,2.56.33,2.8-1.09l22.52-133.61a5.05,5.05,0,0,0-2.31-4.54L422.87,2c-1.37-.8-2.56-.34-2.8,1.09L397.55,136.69A5,5,0,0,0,399.87,141.22Z"/><polygon class="cls-3" points="425.21 10.52 597.33 109.89 575.98 235.72 403.98 136.42 425.21 10.52"/><path class="cls-9" d="M287.63,204.48l9.74,5.09,97.71-56.42a7.11,7.11,0,0,1,6.38.27L570,250.72c1.61-.9,9-4.44,9-4.44l-3.57,9.3v0a2.14,2.14,0,0,1-1,1.11L471.47,316.09a7.11,7.11,0,0,1-6.38-.27L292.63,216.25a3.12,3.12,0,0,1-1.45-1.53h0Z"/><path class="cls-11" d="M289.13,206.08l176.75,102a7.28,7.28,0,0,0,6.54.27l105.47-60.9c1.67-1,1.46-2.65-.47-3.77l-176.75-102a7.27,7.27,0,0,0-6.53-.28l-105.48,60.9C287,203.28,287.2,205,289.13,206.08Z"/><path class="cls-12" d="M519.19,286.05v-1.94c0-.18-.11-.26-.25-.18l-6.83,3.94a.6.6,0,0,0-.25.48v1.94c0,.18.11.27.25.19l6.83-4A.59.59,0,0,0,519.19,286.05Z"/><path class="cls-12" d="M509,292V290c0-.19-.11-.27-.25-.19l-6.84,3.95a.59.59,0,0,0-.25.47v1.94c0,.18.11.27.25.19l6.84-3.95A.59.59,0,0,0,509,292Z"/><path class="cls-3" d="M550.39,241.8,403.51,157a3.18,3.18,0,0,0-3.16,0l-52.3,30.26a1.13,1.13,0,0,0,0,2L494.86,274a3.18,3.18,0,0,0,3.16,0l52.37-30.23A1.13,1.13,0,0,0,550.39,241.8Z"/><path class="cls-13" d="M550.39,243.75l-.53.31-146.35-84.5a3.18,3.18,0,0,0-3.16,0l-51.78,30-.52-.3a1.13,1.13,0,0,1,0-2L400.35,157a3.18,3.18,0,0,1,3.16,0l146.88,84.8A1.13,1.13,0,0,1,550.39,243.75Z"/><g class="cls-14"><polygon class="cls-12" points="396.4 164.67 523.99 238.33 529.66 235.05 402.07 161.39 396.4 164.67"/><polygon class="cls-12" points="382.5 172.7 502.16 241.79 507.83 238.51 388.17 169.42 382.5 172.7"/><polygon class="cls-12" points="373.44 177.93 514.33 259.27 520 256 379.11 174.65 373.44 177.93"/><polygon class="cls-12" points="364.38 183.16 505.27 264.5 510.95 261.23 370.05 179.88 364.38 183.16"/><polygon class="cls-12" points="355.32 188.39 496.22 269.73 501.89 266.46 360.99 185.11 355.32 188.39"/><polygon class="cls-12" points="531.69 242.78 537.37 246.05 543.04 242.78 537.37 239.5 531.69 242.78"/><polygon class="cls-12" points="511.69 247.28 523.46 254.08 529.13 250.81 517.36 244.01 511.69 247.28"/></g><path class="cls-15" d="M397.86,262.32l-39.6-22.86c-1.55-.9-1.55-2.35,0-3.24l27.08-15.63a6.14,6.14,0,0,1,5.6,0l39.61,22.86c1.54.89,1.54,2.34,0,3.24l-27.09,15.63A6.14,6.14,0,0,1,397.86,262.32Z"/><path class="cls-13" d="M430.55,244.77l-39.61-22.86a6.21,6.21,0,0,0-5.6,0l-27.08,15.64a2.43,2.43,0,0,0-1,.95c-.41-.78-.1-1.66,1-2.28l27.08-15.63a6.14,6.14,0,0,1,5.6,0l39.61,22.86c1.07.62,1.38,1.5,1,2.28A2.48,2.48,0,0,0,430.55,244.77Z"/><g class="cls-16"><g class="cls-17"><path class="cls-18" d="M400.5,141.48l176.74,102a7.25,7.25,0,0,0,6.54.27L689.25,182.9c1.68-1,1.47-2.66-.47-3.78L512,77.08a7.25,7.25,0,0,0-6.54-.27L400,137.7C398.35,138.67,398.56,140.36,400.5,141.48Z"/><path class="cls-19" d="M577.77,159.77l-39.6-22.86c-1.55-.9-1.55-2.35,0-3.24L565.25,118a6.21,6.21,0,0,1,5.6,0l39.61,22.87c1.54.89,1.54,2.34,0,3.24l-27.08,15.63A6.23,6.23,0,0,1,577.77,159.77Z"/><path class="cls-13" d="M610.46,142.22l-39.61-22.86a6.14,6.14,0,0,0-5.6,0L538.17,135a2.51,2.51,0,0,0-1,1c-.41-.78-.09-1.66,1-2.28L565.25,118a6.21,6.21,0,0,1,5.6,0l39.61,22.87c1.07.62,1.38,1.5,1,2.28A2.48,2.48,0,0,0,610.46,142.22Z"/><path class="cls-20" d="M627.87,195.5,481,110.7a3.16,3.16,0,0,0-3.16,0L425.52,141a1.13,1.13,0,0,0,0,1.95l146.81,84.76a3.18,3.18,0,0,0,3.16,0l52.38-30.22A1.13,1.13,0,0,0,627.87,195.5Z"/><path class="cls-13" d="M627.87,197.46l-.53.3L481,113.26a3.16,3.16,0,0,0-3.16,0l-51.78,30-.53-.3a1.13,1.13,0,0,1,0-1.95l52.31-30.26a3.16,3.16,0,0,1,3.16,0l146.88,84.8A1.13,1.13,0,0,1,627.87,197.46Z"/><polygon class="cls-21" points="439.21 138.9 567.17 212.78 562.1 215.7 434.14 141.83 439.21 138.9"/><polygon class="cls-21" points="452.69 131.12 574.31 201.34 569.24 204.26 447.62 134.04 452.69 131.12"/><polygon class="cls-21" points="583.39 206.58 594.75 213.14 589.68 216.06 578.33 209.5 583.39 206.58"/><polygon class="cls-21" points="573.36 216.35 581.27 220.92 576.2 223.85 568.29 219.28 573.36 216.35"/><polygon class="cls-21" points="461.14 126.24 603.2 208.26 598.13 211.19 456.07 129.17 461.14 126.24"/><polygon class="cls-21" points="469.59 121.36 611.65 203.38 606.58 206.31 464.52 124.29 469.59 121.36"/><polygon class="cls-21" points="478.04 116.49 620.1 198.5 615.03 201.43 472.97 119.41 478.04 116.49"/></g></g><polygon class="cls-22" points="482.33 234.25 520.41 210.82 434.8 161.39 394.4 188.55 482.33 234.25"/><polygon class="cls-23" points="520.41 210.82 529.13 155.72 448.8 109.64 448.8 169.36 520.41 210.82"/><path class="cls-24" d="M440.39,82.88l8.5-4.9h0a.38.38,0,0,1,.42,0l106.5,61.49a1.5,1.5,0,0,1,.63,1.2V160.8a.59.59,0,0,1-.18.47h0l-8.58,5-.07-9.72L449.31,99.79a1.5,1.5,0,0,1-.63-1.21V91.69Z"/><path class="cls-25" d="M440.77,104.7l106.49,61.49c.35.2.63,0,.63-.48v-20.1a1.5,1.5,0,0,0-.63-1.2L440.77,82.92c-.35-.2-.63,0-.63.48v20.1A1.49,1.49,0,0,0,440.77,104.7Z"/><path class="cls-26" d="M455.46,100.63l82.92,48.76a57.27,57.27,0,0,0-7.22,7.51l-83.53-48.23A56.34,56.34,0,0,1,455.46,100.63Z"/><path class="cls-21" d="M443.81,98.67l100.42,58c.23.14.43,0,.43-.32v-5a1,1,0,0,0-.43-.82l-100.42-58c-.24-.14-.43,0-.43.32v5A1,1,0,0,0,443.81,98.67Z"/><path class="cls-27" d="M443.81,92.47l2,1.18v2.72a1,1,0,0,0,.43.83L544.66,154v2.33c0,.32-.2.46-.43.32l-100.42-58a1,1,0,0,1-.43-.83v-5C443.38,92.48,443.57,92.33,443.81,92.47Z"/><path class="cls-28" d="M387.39,316.2,303.85,268h0c10.78-6.23,19.86-19.84,22.64-32.87a19,19,0,0,1,9-12.56l63.13-36.44a60.39,60.39,0,0,0,30.18-48.7c1-17.11,13.95-33.94,24-39.74h0l83.54,48.24h0c-9.89,5.71-20.78,21.67-22,38.49a61.18,61.18,0,0,1-30.12,48.77l-65.15,37.62a18.94,18.94,0,0,0-9,12.56c-2.78,13-11.86,26.64-22.64,32.86Z"/><path class="cls-29" d="M452.81,97.66l83.54,48.24c-.67.38-1.33.8-2,1.24h0L450.82,98.9C451.48,98.47,452.14,98.05,452.81,97.66Z"/><g class="cls-14"><polygon class="cls-27" points="484.22 154.72 498.87 163.21 498.99 161.52 484.37 153.06 484.22 154.72"/><polygon class="cls-27" points="476.84 150.43 482.01 153.43 482.16 151.78 476.99 148.8 476.84 150.43"/><polygon class="cls-27" points="471.17 147.15 474.65 149.17 474.81 147.54 471.34 145.53 471.17 147.15"/><polygon class="cls-27" points="490.55 162.4 498.6 167.09 498.72 165.38 490.68 160.71 490.55 162.4"/><polygon class="cls-27" points="478.6 155.44 488.31 161.09 488.44 159.41 478.75 153.78 478.6 155.44"/><polygon class="cls-27" points="472.89 152.11 476.4 154.15 476.56 152.5 473.06 150.47 472.89 152.11"/><polygon class="cls-27" points="467.51 148.97 470.99 151 471.15 149.36 467.68 147.34 467.51 148.97"/><polygon class="cls-27" points="492.46 167.57 498.33 171 498.45 169.29 492.6 165.87 492.46 167.57"/><polygon class="cls-27" points="488.22 165.09 490.21 166.25 490.34 164.55 488.36 163.39 488.22 165.09"/><polygon class="cls-27" points="482.4 161.68 485.98 163.77 486.12 162.08 482.55 160 482.4 161.68"/><polygon class="cls-27" points="476.59 162.31 498.05 174.95 498.17 173.22 476.75 160.63 476.59 162.31"/><polygon class="cls-27" points="469.19 157.96 474.37 161.01 474.54 159.33 469.36 156.29 469.19 157.96"/><polygon class="cls-27" points="491.86 175.44 497.77 178.94 497.89 177.19 491.99 173.7 491.86 175.44"/><polygon class="cls-27" points="478.2 167.35 489.58 174.09 489.72 172.36 478.36 165.65 478.2 167.35"/><polygon class="cls-27" points="472.42 163.93 475.97 166.03 476.13 164.34 472.59 162.24 472.42 163.93"/><polygon class="cls-27" points="485.4 175.76 497.49 182.95 497.61 181.19 485.55 174.03 485.4 175.76"/><polygon class="cls-27" points="474.57 169.31 483.14 174.41 483.29 172.69 474.74 167.6 474.57 169.31"/><polygon class="cls-27" points="466.64 164.59 472.35 167.99 472.51 166.28 466.82 162.9 466.64 164.59"/><polygon class="cls-27" points="493.08 184.54 497.2 187.01 497.33 185.23 493.21 182.77 493.08 184.54"/><polygon class="cls-27" points="485.39 179.94 490.78 183.16 490.92 181.4 485.54 178.19 485.39 179.94"/><polygon class="cls-27" points="474.56 173.45 483.12 178.57 483.27 176.83 474.72 171.73 474.56 173.45"/><polygon class="cls-27" points="484.32 183.51 496.92 191.09 497.04 189.3 484.47 181.75 484.32 183.51"/><polygon class="cls-27" points="470.49 175.19 482.04 182.14 482.19 180.38 470.67 173.46 470.49 175.19"/><polygon class="cls-27" points="464.7 171.71 468.26 173.85 468.44 172.13 464.89 169.99 464.7 171.71"/><polygon class="cls-27" points="459.2 168.39 462.73 170.51 462.91 168.81 459.39 166.69 459.2 168.39"/><polygon class="cls-27" points="489.02 190.61 496.63 195.22 496.75 193.41 489.16 188.82 489.02 190.61"/><polygon class="cls-27" points="455.5 138.06 445.97 132.54 446.17 130.97 455.69 136.48 455.5 138.06"/><polygon class="cls-27" points="452.99 140.51 445.49 136.14 445.7 134.56 453.19 138.92 452.99 140.51"/><polygon class="cls-27" points="450.45 142.96 445.01 139.77 445.22 138.18 450.65 141.35 450.45 142.96"/><polygon class="cls-27" points="452.49 148.12 444.53 143.43 444.74 141.83 452.69 146.49 452.49 148.12"/><polygon class="cls-27" points="449.52 150.37 444.04 147.12 444.25 145.5 449.73 148.73 449.52 150.37"/><polygon class="cls-27" points="450.53 155 443.55 150.84 443.76 149.21 450.74 153.35 450.53 155"/><polygon class="cls-27" points="446.86 156.87 443.05 154.59 443.27 152.94 447.07 155.22 446.86 156.87"/><polygon class="cls-27" points="449.99 162.85 442.55 158.37 442.77 156.71 450.19 161.17 449.99 162.85"/><polygon class="cls-27" points="449.11 166.46 442.05 162.19 442.27 160.51 449.32 164.77 449.11 166.46"/><polygon class="cls-27" points="483.51 187.28 486.71 189.22 486.86 187.43 483.66 185.5 483.51 187.28"/><polygon class="cls-27" points="474.11 181.59 481.23 185.9 481.38 184.13 474.28 179.84 474.11 181.59"/></g><g class="cls-14"><polygon class="cls-27" points="430.28 210.03 408.5 197.45 410.05 196.56 431.83 209.13 430.28 210.03"/><polygon class="cls-27" points="442.94 217.34 435.08 212.81 436.64 211.91 444.5 216.44 442.94 217.34"/><polygon class="cls-27" points="449.25 220.99 446.95 219.65 448.5 218.76 450.81 220.09 449.25 220.99"/><polygon class="cls-27" points="461.11 227.83 453.25 223.3 454.81 222.4 462.67 226.94 461.11 227.83"/><polygon class="cls-27" points="411.64 202.99 405.28 199.31 406.83 198.41 413.2 202.09 411.64 202.99"/><polygon class="cls-27" points="439.72 219.2 416.44 205.76 418 204.86 441.28 218.3 439.72 219.2"/><polygon class="cls-27" points="446.03 222.84 443.73 221.51 445.28 220.62 447.59 221.94 446.03 222.84"/><polygon class="cls-27" points="457.9 229.69 450.04 225.15 451.59 224.26 459.45 228.79 457.9 229.69"/><polygon class="cls-27" points="405.24 203.01 402.06 201.17 403.61 200.27 406.8 202.11 405.24 203.01"/><polygon class="cls-27" points="413.82 207.96 410.04 205.78 411.6 204.88 415.37 207.06 413.82 207.96"/><polygon class="cls-27" points="420.13 211.6 417.82 210.27 419.38 209.37 421.68 210.7 420.13 211.6"/><polygon class="cls-27" points="431.99 218.45 424.13 213.91 425.68 213.02 433.55 217.55 431.99 218.45"/><polygon class="cls-27" points="405.2 206.7 398.84 203.03 400.39 202.13 406.76 205.81 405.2 206.7"/><polygon class="cls-27" points="417.87 214.02 410.01 209.48 411.56 208.58 419.42 213.12 417.87 214.02"/><polygon class="cls-27" points="424.18 217.66 421.87 216.33 423.43 215.43 425.73 216.76 424.18 217.66"/><polygon class="cls-27" points="436.04 224.51 428.18 219.97 429.74 219.07 437.6 223.61 436.04 224.51"/><polygon class="cls-27" points="417.16 217.6 395.38 205.03 396.93 204.13 418.72 216.71 417.16 217.6"/><polygon class="cls-27" points="429.83 224.92 421.97 220.38 423.52 219.48 431.38 224.02 429.83 224.92"/><polygon class="cls-27" points="436.13 228.56 433.83 227.23 435.38 226.33 437.69 227.66 436.13 228.56"/><polygon class="cls-27" points="448 235.41 440.14 230.87 441.69 229.97 449.55 234.51 448 235.41"/><polygon class="cls-27" points="398.52 210.56 392.16 206.89 393.71 205.99 400.08 209.66 398.52 210.56"/><polygon class="cls-27" points="426.61 226.77 403.33 213.33 404.88 212.44 428.16 225.88 426.61 226.77"/><polygon class="cls-27" points="432.92 230.42 430.61 229.09 432.17 228.19 434.47 229.52 432.92 230.42"/><polygon class="cls-27" points="444.78 237.27 436.92 232.73 438.47 231.83 446.33 236.37 444.78 237.27"/><polygon class="cls-27" points="392.12 210.58 388.94 208.74 390.5 207.85 393.68 209.68 392.12 210.58"/><polygon class="cls-27" points="400.7 215.53 396.93 213.35 398.48 212.46 402.26 214.64 400.7 215.53"/><polygon class="cls-27" points="407.01 219.18 404.7 217.84 406.26 216.95 408.56 218.28 407.01 219.18"/><polygon class="cls-27" points="418.87 226.03 411.01 221.49 412.57 220.59 420.43 225.13 418.87 226.03"/><polygon class="cls-27" points="392.09 214.28 385.72 210.6 387.28 209.7 393.64 213.38 392.09 214.28"/><polygon class="cls-27" points="404.75 221.59 396.89 217.05 398.45 216.15 406.31 220.69 404.75 221.59"/><polygon class="cls-27" points="411.06 225.23 408.75 223.9 410.31 223 412.62 224.33 411.06 225.23"/><polygon class="cls-27" points="422.92 232.08 415.06 227.54 416.62 226.64 424.48 231.18 422.92 232.08"/><polygon class="cls-27" points="404.05 225.18 382.26 212.6 383.82 211.7 405.6 224.28 404.05 225.18"/><polygon class="cls-27" points="416.71 232.49 408.85 227.95 410.4 227.05 418.26 231.59 416.71 232.49"/><polygon class="cls-27" points="423.02 236.13 420.71 234.8 422.27 233.9 424.57 235.23 423.02 236.13"/><polygon class="cls-27" points="434.88 242.98 427.02 238.44 428.58 237.54 436.44 242.08 434.88 242.98"/><polygon class="cls-27" points="385.41 218.13 379.04 214.46 380.6 213.56 386.96 217.24 385.41 218.13"/><polygon class="cls-27" points="413.49 234.35 390.21 220.91 391.77 220.01 415.05 233.45 413.49 234.35"/><polygon class="cls-27" points="419.8 237.99 417.49 236.66 419.05 235.76 421.35 237.09 419.8 237.99"/><polygon class="cls-27" points="431.66 244.84 423.8 240.3 425.36 239.4 433.22 243.94 431.66 244.84"/><polygon class="cls-27" points="379.01 218.15 375.82 216.32 377.38 215.42 380.56 217.26 379.01 218.15"/><polygon class="cls-27" points="387.58 223.11 383.81 220.93 385.37 220.03 389.14 222.21 387.58 223.11"/><polygon class="cls-27" points="393.89 226.75 391.59 225.42 393.14 224.52 395.45 225.85 393.89 226.75"/><polygon class="cls-27" points="405.76 233.6 397.89 229.06 399.45 228.16 407.31 232.7 405.76 233.6"/><polygon class="cls-27" points="378.97 221.85 372.61 218.18 374.16 217.28 380.53 220.95 378.97 221.85"/><polygon class="cls-27" points="391.63 229.16 383.77 224.62 385.33 223.72 393.19 228.26 391.63 229.16"/><polygon class="cls-27" points="397.94 232.8 395.64 231.47 397.19 230.57 399.5 231.91 397.94 232.8"/><polygon class="cls-27" points="409.81 239.65 401.95 235.12 403.5 234.22 411.36 238.75 409.81 239.65"/></g><polygon class="cls-7" points="321.84 181.57 318.89 174.57 320.06 174.41 321.63 176.14 321.84 181.57"/><path class="cls-5" d="M369,161.43,366,154.51s-.89,7.86-.86,7.94S369,161.43,369,161.43Z"/><ellipse class="cls-5" cx="342.51" cy="164.63" rx="25.62" ry="21.22" transform="translate(-37.05 145.82) rotate(-22.84)"/><ellipse class="cls-5" cx="345.45" cy="171.63" rx="25.62" ry="21.22" transform="translate(-39.53 147.51) rotate(-22.83)"/><path class="cls-7" d="M322.85,165a19.47,19.47,0,0,0-1,16.57c4.55,10.8,18.81,15.11,31.85,9.62a28.47,28.47,0,0,0,14.19-12.59Z"/><ellipse class="cls-8" cx="345.45" cy="171.63" rx="24.48" ry="20.28" transform="translate(-39.53 147.51) rotate(-22.83)"/><path class="cls-6" d="M351.77,186.63c-10,4.21-20.94.91-24.43-7.38s1.79-18.41,11.79-22.62,20.94-.91,24.43,7.37S361.77,182.42,351.77,186.63Z"/><path class="cls-5" d="M363.56,164c-.14-.34-.31-.67-.47-1,2.65,8.08-2.59,17.55-12.18,21.59s-20,1.16-24-6.38c.11.35.24.7.38,1,3.49,8.29,14.43,11.59,24.43,7.38S367.05,172.29,363.56,164Z"/><path class="cls-5" d="M349.46,171.34l-5.12-1.55c-3.2,2.34-9.17,6.7-13.92,10.23a16,16,0,0,0,12.46,4.47Z"/><path class="cls-5" d="M348,183.55a18.48,18.48,0,0,0,1.84-.67,19.64,19.64,0,0,0,9.67-8.5l-8.35-2.53Z"/><path class="cls-5" d="M338.85,168.13l-9.64-2.91c-1.47,2.95-2.61,6-1.9,9.05Z"/><path class="cls-7" d="M339,158.82c10-4.21,20.94-.91,24.42,7.38a13.63,13.63,0,0,1,1.07,5.2,13.94,13.94,0,0,0-.93-7.4c-3.49-8.28-14.42-11.59-24.43-7.37-8,3.35-12.94,10.47-12.86,17.42C327.13,167.84,331.86,161.82,339,158.82Z"/><path class="cls-7" d="M318.89,174.57a18,18,0,0,0,2.65,4.38c-.2-1.8-.49-4.48-.49-4.48l.1-4.52,1-1.81,1.74-2.84-3.46-8.21C317.27,162.61,316.51,168.92,318.89,174.57Z"/><rect class="cls-7" x="364.28" y="152" width="0.72" height="4.84" rx="0.31" ry="0.31" transform="translate(-31.35 153.61) rotate(-22.83)"/><rect class="cls-7" x="360.13" y="147.69" width="0.94" height="5.9" rx="0.36" ry="0.36" transform="translate(-30.2 151.75) rotate(-22.84)"/><rect class="cls-7" x="355.62" y="145.26" width="1.2" height="5.92" rx="0.4" ry="0.4" transform="translate(-29.6 149.85) rotate(-22.83)"/><rect class="cls-7" x="349.93" y="143.77" width="1.2" height="6.37" rx="0.4" ry="0.4" transform="translate(-29.56 147.55) rotate(-22.83)"/><rect class="cls-7" x="344.69" y="143.36" width="1.2" height="6.76" rx="0.4" ry="0.4" transform="translate(-29.89 145.5) rotate(-22.83)"/><rect class="cls-7" x="339.86" y="144.21" width="1.2" height="6.64" rx="0.4" ry="0.4" transform="translate(-30.57 143.69) rotate(-22.83)"/><rect class="cls-7" x="335.34" y="145.7" width="1.2" height="6.68" rx="0.4" ry="0.4" transform="translate(-31.51 142.05) rotate(-22.83)"/><rect class="cls-7" x="331.08" y="147.91" width="1.2" height="6.5" rx="0.4" ry="0.4" transform="translate(-32.67 140.56) rotate(-22.83)"/><rect class="cls-7" x="327.13" y="150.83" width="1.2" height="6.42" rx="0.4" ry="0.4" transform="translate(-34.09 139.26) rotate(-22.84)"/><rect class="cls-7" x="323.6" y="154.59" width="1.2" height="6.63" rx="0.4" ry="0.4" transform="translate(-35.87 138.19) rotate(-22.83)"/><polygon class="cls-7" points="322.27 262.19 314.79 263.44 314.89 262.26 316.94 261.13 322.27 262.19"/><path class="cls-5" d="M313.59,211.69l-7.4,1.23s7.43,2.7,7.52,2.68S313.59,211.69,313.59,211.69Z"/><ellipse class="cls-5" cx="310.58" cy="238.17" rx="21.22" ry="25.62" transform="translate(-34.87 54.19) rotate(-9.44)"/><ellipse class="cls-5" cx="318.07" cy="236.92" rx="21.22" ry="25.62" transform="translate(-34.56 55.4) rotate(-9.44)"/><path class="cls-7" d="M306.39,257.38a19.43,19.43,0,0,0,15.88,4.81c11.56-1.92,19.06-14.79,16.73-28.75a28.37,28.37,0,0,0-9-16.72Z"/><ellipse class="cls-8" cx="318.07" cy="236.92" rx="20.28" ry="24.48" transform="translate(-34.56 55.4) rotate(-9.44)"/><path class="cls-6" d="M334.13,234.25c1.78,10.71-4,20.58-12.84,22.05s-17.5-6-19.28-16.71,4-20.58,12.83-22.05S332.35,223.54,334.13,234.25Z"/><path class="cls-5" d="M314.84,217.54c-.36.06-.72.14-1.08.23,8.47-.71,16.47,6.58,18.18,16.84s-3.5,19.76-11.75,21.83a10,10,0,0,0,1.1-.14c8.87-1.47,14.62-11.34,12.84-22.05S323.71,216.06,314.84,217.54Z"/><path class="cls-5" d="M318.71,233,316,237.58c1.53,3.66,4.39,10.47,6.72,15.9A16,16,0,0,0,330,242.4Z"/><path class="cls-5" d="M330.26,237.19a18.63,18.63,0,0,0-.23-1.94,19.57,19.57,0,0,0-6-11.38l-4.39,7.54Z"/><path class="cls-5" d="M313.14,242.54l-5.06,8.7c2.53,2.11,5.22,3.92,8.36,3.94Z"/><path class="cls-7" d="M304.11,240.23c-1.78-10.7,4-20.58,12.84-22a13.68,13.68,0,0,1,5.3.16,13.92,13.92,0,0,0-7.41-.8C306,219,300.23,228.89,302,239.59c1.42,8.54,7.2,15,14,16.55C310.14,253.87,305.38,247.87,304.11,240.23Z"/><path class="cls-7" d="M314.78,263.44a17.79,17.79,0,0,0,4.87-1.56l-4.47-.56-4.38-1.14-1.53-1.36-2.36-2.35-8.78,1.46C302.77,262.25,308.74,264.45,314.78,263.44Z"/><rect class="cls-7" x="303.36" y="213.91" width="4.84" height="0.72" rx="0.31" ry="0.31" transform="translate(-31.01 53.08) rotate(-9.44)"/><rect class="cls-7" x="298.21" y="216.86" width="5.9" height="0.94" rx="0.36" ry="0.36" transform="translate(-31.58 52.36) rotate(-9.44)"/><rect class="cls-7" x="294.83" y="220.42" width="5.92" height="1.2" rx="0.4" ry="0.4" transform="translate(-32.23 51.86) rotate(-9.44)"/><rect class="cls-7" x="292.06" y="225.67" width="6.37" height="1.2" rx="0.4" ry="0.4" transform="translate(-33.12 51.51) rotate(-9.44)"/><rect class="cls-7" x="290.44" y="230.72" width="6.76" height="1.2" rx="0.4" ry="0.4" transform="translate(-33.97 51.35) rotate(-9.44)"/><rect class="cls-7" x="290.15" y="235.59" width="6.64" height="1.2" rx="0.4" ry="0.4" transform="translate(-34.78 51.35) rotate(-9.44)"/><rect class="cls-7" x="290.56" y="240.34" width="6.68" height="1.2" rx="0.4" ry="0.4" transform="translate(-35.55 51.49) rotate(-9.44)"/><rect class="cls-7" x="291.72" y="244.98" width="6.5" height="1.2" rx="0.4" ry="0.4" transform="translate(-36.3 51.73) rotate(-9.44)"/><rect class="cls-7" x="293.65" y="249.48" width="6.42" height="1.2" rx="0.4" ry="0.4" transform="translate(-37.01 52.1) rotate(-9.44)"/><rect class="cls-7" x="296.48" y="253.81" width="6.63" height="1.2" rx="0.4" ry="0.4" transform="translate(-37.68 52.64) rotate(-9.44)"/><ellipse class="cls-4" cx="300.34" cy="351.48" rx="31.45" ry="9.65" transform="translate(-99.24 118.94) rotate(-19.29)"/><polygon class="cls-7" points="288.52 322.8 288.73 317.63 289.93 314.6 290.69 317.1 288.52 322.8"/><path class="cls-5" d="M342.81,323.79l.21-5.08s-4.3,4.28-4.3,4.39S342.81,323.79,342.81,323.79Z"/><path class="cls-5" d="M315.29,338.84c-15-.36-26.88-8-26.56-21.21s12.72-23.68,27.71-23.32,26.89,11.38,26.57,24.62S330.29,339.2,315.29,338.84Z"/><ellipse class="cls-5" cx="315.66" cy="323.45" rx="23.97" ry="27.15" transform="translate(-15.24 631.28) rotate(-88.63)"/><path class="cls-7" d="M296.72,306.18a22.58,22.58,0,0,0-8.2,16.62c-.32,13.23,11.58,24.25,26.57,24.61a29,29,0,0,0,19.2-6.43Z"/><ellipse class="cls-8" cx="315.66" cy="323.45" rx="22.9" ry="25.94" transform="translate(-15.25 631.28) rotate(-88.63)"/><path class="cls-6" d="M315.22,341.83c-11.49-.28-20.62-8.73-20.37-18.88s9.76-18.16,21.25-17.88,20.62,8.73,20.38,18.88S326.72,342.1,315.22,341.83Z"/><path class="cls-5" d="M336.48,324c0-.42,0-.84,0-1.26-1,9.55-10.16,16.9-21.18,16.64s-19.85-8.05-20.35-17.63c0,.41-.07.83-.08,1.25-.25,10.15,8.88,18.6,20.37,18.88S336.24,334.1,336.48,324Z"/><path class="cls-5" d="M319.66,325l-4.27-4c-4.11.93-11.78,2.68-17.9,4.12a17.41,17.41,0,0,0,10.08,10.36Z"/><path class="cls-5" d="M312.94,336.92a20.35,20.35,0,0,0,15.12-4.14l-7-6.46Z"/><path class="cls-5" d="M310.81,316.8l-8.05-7.45c-2.7,2.36-5.12,5-5.77,8.45Z"/><path class="cls-7" d="M315,307.27c11.5.27,20.62,8.72,20.38,18.87a16.45,16.45,0,0,1-1.23,5.86,16.59,16.59,0,0,0,2.32-8.05c.24-10.15-8.88-18.6-20.38-18.88-9.16-.22-17.07,4.83-20,12C299.62,311.09,306.81,307.07,315,307.27Z"/><path class="cls-7" d="M288.73,317.63a17.5,17.5,0,0,0,.23,5.23c.6-1.94,1.89-7.75,1.89-7.75l2.07-4.61,1.72-1.42,2.91-2.12.25-6.66A22.68,22.68,0,0,0,288.73,317.63Z"/><path class="cls-7" d="M341.26,317l.11-1.37a.34.34,0,0,1,.34-.34h.11a.35.35,0,0,1,.32.36L342,317a.35.35,0,0,1-.35.35h-.1A.34.34,0,0,1,341.26,317Z"/><path class="cls-7" d="M338.87,311.72l.14-2.45a.41.41,0,0,1,.39-.4h.24a.4.4,0,0,1,.37.41l-.14,2.45a.4.4,0,0,1-.39.4h-.24A.39.39,0,0,1,338.87,311.72Z"/><path class="cls-7" d="M335.57,307.16l.14-2.37a.43.43,0,0,1,.43-.45h.42a.45.45,0,0,1,.42.47l-.14,2.37a.45.45,0,0,1-.44.45H336A.45.45,0,0,1,335.57,307.16Z"/><path class="cls-7" d="M330.62,303.48l.15-2.88a.43.43,0,0,1,.44-.44h.41a.43.43,0,0,1,.42.46l-.15,2.88a.45.45,0,0,1-.44.45H331A.45.45,0,0,1,330.62,303.48Z"/><path class="cls-7" d="M325.64,301.07l.16-3.32a.45.45,0,0,1,.44-.45h.41a.45.45,0,0,1,.42.47l-.16,3.32a.44.44,0,0,1-.44.44h-.41A.43.43,0,0,1,325.64,301.07Z"/><path class="cls-7" d="M320.64,299.59l.15-3.19a.44.44,0,0,1,.44-.44h.42a.43.43,0,0,1,.41.46l-.15,3.19a.46.46,0,0,1-.44.45h-.42A.45.45,0,0,1,320.64,299.59Z"/><path class="cls-7" d="M315.61,299.09l.16-3.24a.45.45,0,0,1,.44-.45h.41a.45.45,0,0,1,.42.47l-.16,3.24a.43.43,0,0,1-.44.44H316A.43.43,0,0,1,315.61,299.09Z"/><path class="cls-7" d="M310.57,299.2l.15-3a.44.44,0,0,1,.44-.44h.42a.44.44,0,0,1,.42.46l-.16,3a.43.43,0,0,1-.44.44H311A.43.43,0,0,1,310.57,299.2Z"/><path class="cls-7" d="M305.51,300.3l.15-2.94a.45.45,0,0,1,.44-.45h.41a.45.45,0,0,1,.42.47l-.15,2.94a.44.44,0,0,1-.44.44h-.42A.43.43,0,0,1,305.51,300.3Z"/><path class="cls-7" d="M300.41,302.77l.16-3.18a.43.43,0,0,1,.44-.44h.41a.44.44,0,0,1,.42.46l-.16,3.18a.45.45,0,0,1-.44.45h-.41A.45.45,0,0,1,300.41,302.77Z"/></g></g></svg>