<?xml version="1.0" encoding="UTF-8"?>
<svg width="1440px" height="800px" viewBox="0 0 1440 800" version="1.1" xmlns="http://www.w3.org/2000/svg" xmlns:xlink="http://www.w3.org/1999/xlink">
    <!-- Generator: Sketch 49.3 (51167) - http://www.bohemiancoding.com/sketch -->
    <title>Herologinpage@2x</title>
    <desc>Created with Sketch.</desc>
    <defs>
        <linearGradient x1="105.735406%" y1="141.509094%" x2="37.828776%" y2="16.3713898%" id="linearGradient-1">
            <stop stop-color="#6EFFC3" offset="0%"></stop>
            <stop stop-color="#5A95FF" offset="100%"></stop>
        </linearGradient>
        <rect id="path-2" x="0" y="0" width="1440" height="800"></rect>
        <linearGradient x1="-5.21418101%" y1="13.6219909%" x2="55.3845434%" y2="69.7006147%" id="linearGradient-4">
            <stop stop-color="#6EFFC3" offset="0%"></stop>
            <stop stop-color="#5A95FF" offset="100%"></stop>
        </linearGradient>
    </defs>
    <g id="Page-1" stroke="none" stroke-width="1" fill="none" fill-rule="evenodd">
        <g id="Herologinpage">
            <mask id="mask-3" fill="white">
                <use xlink:href="#path-2"></use>
            </mask>
            <use id="Rectangle-7" fill="url(#linearGradient-1)" opacity="0.89232337" xlink:href="#path-2"></use>
            <g id="Group-14" opacity="0.410665761" mask="url(#mask-3)">
                <g transform="translate(-52.000000, -321.000000)">
                    <g id="Hero">
                        <path d="M1263.11677,692.440337 C1256.15289,380.69752 1025.67127,143.319229 784.30125,194.401077 C658.935793,215.358989 492.311908,250.174471 373.933828,330.315903 C254.239739,407.061215 182.783622,529.132476 217.360173,646.057039 C247.111361,761.441094 354.311204,837.346128 449.118636,941.01532 C549.511269,1037.17103 637.495824,1161.0909 757.863583,1199.23248 C1002.35913,1270.31293 1269.93181,989.13519 1263.11677,692.440337" id="Combined-Shape" fill="url(#linearGradient-4)" opacity="0.607959692"></path>
                        <path d="M1263.11677,692.440337 C1256.15289,380.69752 1025.67127,143.319229 784.30125,194.401077 C658.935793,215.358989 492.311908,250.174471 373.933828,330.315903 C254.239739,407.061215 182.783622,529.132476 217.360173,646.057039 C247.111361,761.441094 354.311204,837.346128 449.118636,941.01532 C549.511269,1037.17103 637.495824,1161.0909 757.863583,1199.23248 C1002.35913,1270.31293 1269.93181,989.13519 1263.11677,692.440337" id="Combined-Shape-Copy" fill="url(#linearGradient-4)" opacity="0.279438406" transform="translate(735.939609, 698.911775) rotate(-64.000000) translate(-735.939609, -698.911775) "></path>
                        <g id="Group-6" transform="translate(0.000000, 672.000000)">
                            <g id="Group-5" transform="translate(159.988406, 249.637447) scale(-1, 1) rotate(15.000000) translate(-159.988406, -249.637447) translate(56.988406, 19.637447)">
                                <g id="Group" transform="translate(99.968237, 114.452684) rotate(-28.000000) translate(-99.968237, -114.452684) translate(58.968237, 6.952684)">
                                    <path d="M79.7624381,103.046855 C78.2068882,111.728096 75.9846741,120.186742 73.3180171,128.422791 C67.5402604,146.453062 59.3180682,163.815545 51.0958759,180.955432 C46.8736691,189.859269 29.3181775,210.560691 19.9848782,214.567418 C21.0959853,191.194845 21.0959853,164.038141 18.4293284,140.442972 C15.7626714,117.738186 23.9848637,100.598299 15.0960072,79.4516856 C13.9849001,76.7805344 12.873793,74.1093832 11.5404646,71.438232 C7.09603633,61.4214149 2.65160809,51.4045979 1.31827962,40.4973971 C-0.459491678,26.9190451 3.76271515,11.1147338 15.54045,3.99166393 C23.9848637,-1.12804255 35.0959343,-0.905446619 44.2070122,3.1012802 C53.3180901,7.10800701 60.6513967,14.4536728 66.206932,22.6897224 C81.9846522,46.0622955 84.6513092,75.8901507 79.7624381,103.046855 Z" id="Shape" fill="#236DDB" fill-rule="nonzero"></path>
                                    <path d="M38.4292554,27.586833 C55.7625256,52.2949816 57.3180755,80.7872612 58.8736254,111.060308 C60.4291752,141.110759 53.0958686,171.606402 38.207034,197.872723" id="Shape" stroke="#0B43A4" stroke-linecap="round" stroke-linejoin="round"></path>
                                </g>
                                <g id="Group" transform="translate(93.189917, 346.631170) rotate(-62.000000) translate(-93.189917, -346.631170) translate(44.189917, 268.131170)">
                                    <path d="M67.7775307,130.886409 C55.555353,120.201804 43.3331754,109.072008 34.2220975,95.4936557 C26.444348,83.6960712 21.3332556,70.3403152 14.4443918,57.8749429 C9.99996354,49.8614892 4.88887107,42.0706316 2.22221412,33.1667942 C-0.444442824,24.2629568 0.222221412,13.8009479 6.44442095,7.12306989 C12.8888419,0.222595934 24.2221339,-0.890383737 33.1109904,2.67115121 C41.9998469,6.23268616 48.6664893,13.8009479 53.9998031,21.8144015 C60.8886669,32.4990064 65.5553166,44.7417828 67.3330879,57.2071551 C69.1108592,68.5595477 68.6664163,80.3571322 70.4441876,91.7095249 C71.9997375,102.39413 75.5552801,112.633543 80.2219298,122.205168 C84.2219152,131.109005 94.6663216,146.690721 97.3329785,155.817154 C89.9996719,159.823881 73.1108446,135.560924 67.7775307,130.886409 Z" id="Shape" fill="#00AD9F" fill-rule="nonzero"></path>
                                    <path d="M25.1110196,19.1432503 C36.666533,24.2629568 41.3331827,38.0639047 43.7776182,50.529277 C46.4442751,64.7754168 45.9998323,80.1345363 52.4442533,92.8225045 C64.6664309,117.085461 80.6663726,144.687357 92.4441074,152.923407" id="Shape" stroke="#047D74" stroke-linecap="round" stroke-linejoin="round"></path>
                                </g>
                                <g id="Group" transform="translate(93.440574, 385.671311) rotate(-50.000000) translate(-93.440574, -385.671311) translate(28.940574, 348.171311)">
                                    <path d="M33.318163,3.22932275 C23.095978,-0.777404066 9.76269328,-2.3355756 3.09605092,6.34566583 C-2.23726298,13.6913317 0.42939397,24.1533406 4.20715798,32.3893901 C7.31825775,39.51246 11.3182432,46.6355299 17.9848855,50.4196608 C22.6515352,53.090812 27.9848491,53.7585998 33.0959415,54.4263876 C47.5403333,56.2071551 62.2069465,57.0975388 76.8735597,56.8749429 C93.7623871,56.8749429 114.428978,63.7754168 128.428927,74.4600217 C110.873436,40.8480356 67.318039,16.8076747 33.318163,3.22932275 Z" id="Shape" fill="#0056EC" fill-rule="nonzero"></path>
                                    <path d="M15.54045,25.0437243 C28.4292919,25.4889162 41.3181338,26.6018958 53.7625329,30.1634308 C66.4291534,33.9475617 115.095643,56.2071551 122.651171,65.7787802" id="Shape" stroke="#0B43A4" stroke-linecap="round" stroke-linejoin="round"></path>
                                </g>
                                <g id="Group" transform="translate(1.052504, 183.916071)">
                                    <path d="M169.332716,162.495032 C156.221653,141.79361 133.555069,127.324874 109.332935,124.208531 C91.3330004,121.759976 72.8886232,125.098915 55.3331316,121.314784 C36.666533,117.308057 19.9999271,105.510473 10.222185,89.0383737 C0.444442824,72.7888705 -1.99999271,52.3100445 3.55554259,34.0571779 C7.77774942,20.25623 17.1110487,7.12306989 30.8887763,2.67115121 C38.4443043,0.222595934 46.6664965,0.667787802 54.2220246,2.44855528 C61.3331097,4.22932275 67.7775307,7.12306989 73.7775088,10.9072008 C87.5552364,19.5884422 98.666307,33.1667942 107.110721,47.412934 C114.666249,60.5460941 133.555069,80.8023241 146.443911,93.9354842 C153.999439,101.726342 159.332752,106.846048 159.332752,106.846048 C168.221609,117.975845 164.221624,149.361872 169.332716,162.495032 Z" id="Shape" fill="#52D2BC" fill-rule="nonzero"></path>
                                    <path d="M26.8887909,42.7384194 C69.9997448,62.1042656 116.888463,87.7027981 147.332796,123.763339" id="Shape" stroke="#00AD9F" stroke-linecap="round" stroke-linejoin="round"></path>
                                </g>
                                <g id="Group" transform="translate(102.975723, 206.161137) rotate(-26.000000) translate(-102.975723, -206.161137) translate(53.975723, 73.661137)">
                                    <path d="M93.7774359,264.651503 C93.7774359,264.651503 29.5554478,212.564054 16.2221631,156.692475 C29.9998906,165.373716 41.1109612,178.952068 49.5553749,193.198208 C57.1109029,206.331368 75.9997229,226.587598 88.8885648,239.720758 C90.2218933,246.843828 91.9996646,254.857282 93.7774359,264.651503 Z" id="Shape" fill="#5275A0" fill-rule="nonzero" opacity="0.2"></path>
                                    <path d="M96.6663143,57.4146881 C90.8885576,75.4449588 82.6663653,92.8074417 74.4441731,109.947329 C70.2219662,118.851166 52.6664747,139.552588 43.3331754,143.559315 C44.4442824,120.186742 44.4442824,93.0300376 41.7776255,69.4348686 C39.1109685,46.7300833 47.3331608,29.5901964 38.4443043,8.44358261 C37.3331972,5.7724314 36.2220902,3.1012802 34.8887617,0.430128986 C35.7776473,0.65272492 36.4443116,0.875320854 37.3331972,1.32051272 C51.9998104,7.55319888 58.6664528,23.1349143 59.9997813,38.0488419 C61.1108883,50.5142142 58.8886742,62.9795865 57.1109029,75.2223629 C56.4442387,81.0098571 55.7775744,86.7973514 56.8886815,92.3622498 C56.8886815,92.3622498 56.8886815,92.5848457 56.8886815,92.5848457 C58.4442314,99.2627237 68.2219735,98.8175319 69.3330806,92.1396539 L73.333066,71.438232 C74.4441731,65.2055458 75.7775015,58.7502637 80.888594,54.520941 C82.8885867,52.7401735 85.5552437,51.8497898 87.9996792,51.8497898 C92.4441074,51.8497898 94.888543,54.298345 96.6663143,57.4146881 Z" id="Shape" fill="#5275A0" fill-rule="nonzero" opacity="0.2"></path>
                                    <path d="M93.7774359,251.518343 C83.555251,198.54051 78.2219371,190.304461 82.6663653,177.171301 C88.444122,160.25401 85.1108008,143.114123 90.4441147,126.196832 C95.7774286,109.056945 99.5551926,90.8040782 95.1107644,73.4415954 C93.7774359,67.876697 90.8885576,62.0892027 84.4441366,61.8666068 C81.7774797,61.8666068 79.3330441,62.7569905 77.3330514,64.537758 C72.2219589,68.7670808 70.8886305,75.4449588 69.7775234,81.455049 L65.9997594,102.156471 C64.6664309,108.834349 55.1109102,109.279541 53.5553603,102.601663 C53.5553603,102.601663 53.5553603,102.379067 53.5553603,102.379067 C52.2220318,96.8141685 52.8886961,91.0266742 53.7775817,85.2391799 C55.3331316,72.7738076 57.7775671,60.5310312 56.6664601,48.0656589 C55.3331316,32.9291354 48.6664893,17.5700159 33.9998761,11.3373298 C28.8887836,9.11137042 22.8888054,8.66617855 17.5554916,10.0017542 C2.22221412,14.008481 -1.7777713,28.9224086 0.666664236,41.6103768 C2.22221412,50.5142142 6.44442095,58.7502637 10.222185,67.2089092 C19.5554843,87.4651392 12.6666205,105.940602 13.999949,128.200195 C17.3332701,189.636673 93.7774359,251.518343 93.7774359,251.518343 Z" id="Shape" fill="#7EE8D4" fill-rule="nonzero"></path>
                                    <path d="M25.5554624,26.0286614 C33.1109904,63.6473743 40.6665184,101.711279 55.3331316,137.326628 C59.5553384,147.788637 61.7775526,161.366989 86.4441293,189.859269" id="Shape" stroke="#00AD9F" stroke-linecap="round" stroke-linejoin="round"></path>
                                </g>
                            </g>
                        </g>
                        <g id="Group-2" transform="translate(1085.000000, 219.000000)">
                            <g id="Group" transform="translate(247.953106, 561.643645) rotate(-90.000000) translate(-247.953106, -561.643645) translate(140.453106, 401.143645)">
                                <path d="M9.53895786,259.838749 C26.4629154,232.163616 17.8470825,196.493444 23.6935405,164.820792 C28.3091653,140.220674 41.8483313,117.773066 61.2339553,102.090491 C73.542288,92.2504434 90.7739539,85.4854109 104.620828,92.8654464 C107.697911,94.4029538 111.082703,96.5554641 114.159786,95.0179567 C116.006036,94.0954523 116.621453,91.9429419 116.929161,89.7904316 C120.313952,72.5703488 112.313536,53.8127587 118.775411,37.5151803 C122.467911,28.9051389 129.85291,22.1401064 137.853327,17.2200828 C153.238742,7.38003547 171.085825,1.84500887 189.548324,0.922504434 C194.471657,0.615002956 199.39499,0.922504434 203.702907,3.07501478 C211.395615,7.07253399 215.088114,16.6050798 214.164989,25.5226227 C213.241864,34.1326641 208.318531,41.820201 203.08749,48.892735 C185.548116,71.9553459 159.392909,91.9429419 156.008117,120.848081 C155.700409,124.538099 155.700409,128.228116 157.238951,131.610633 C158.777492,134.685647 161.854575,137.145659 163.700825,140.220674 C169.239575,150.060721 158.777492,161.438276 148.315409,166.3583 C139.08416,170.970822 128.622077,173.738335 118.467702,174.66084 C111.390411,175.275842 103.389995,175.583344 98.4666618,180.810869 C89.5431206,190.650916 99.6974951,206.02599 97.8512452,219.248554 C96.6204119,227.551094 90.7739539,234.008625 84.9274958,239.543651 C73.8499964,249.998702 61.8493719,259.531247 48.9256226,267.833787 C38.4635398,274.59882 27.3860403,280.441348 18.1547908,288.743888 C8.92354123,297.046428 1.53854159,308.116481 0.923124954,320.41654" id="Shape" fill="#5193F4" fill-rule="nonzero"></path>
                                <path d="M31.6939568,233.08612 C34.4633316,219.556055 40.617498,207.255996 46.7716644,194.955937 C56.3106222,175.890845 66.1572884,156.518252 80.9272877,140.835677 C92.0047871,128.843119 105.543953,119.618075 116.929161,107.933019 C124.929577,99.6304789 131.69916,90.0979331 137.23791,79.9503843 C140.007285,74.4153577 142.77666,68.5728296 146.469159,63.652806 C151.084784,57.8102779 157.546659,53.8127587 163.085409,48.5852335 C170.470408,41.820201 176.624575,33.5176611 180.624783,24.2926168" id="Shape" stroke="#0B43A4" stroke-linecap="round" stroke-linejoin="round"></path>
                            </g>
                            <g id="Group" transform="translate(314.918388, 732.218033) rotate(-60.000000) translate(-314.918388, -732.218033) translate(204.918388, 618.718033)">
                                <path d="M218.375193,226.530285 C207.605402,214.230226 197.451027,201.622666 186.988944,189.630108 C180.219361,181.942571 173.14207,174.255034 165.449362,166.874999 C161.756862,163.184981 157.756654,159.802465 153.756446,156.419948 C129.447489,136.432352 102.061449,119.519771 73.1368666,107.219712 C55.5974925,99.8396764 37.1349934,93.6896469 22.0572858,81.6970892 C7.28728656,69.7045316 -3.48250458,50.024437 1.44082851,31.8818498 C5.13332833,18.6592862 16.2108278,8.20423597 29.4422855,3.5917138 C42.3660348,-1.02080837 56.8283258,-0.713306893 70.0597835,2.05420641 C107.600198,10.0492448 138.986447,37.1093749 160.218321,69.0895286 C160.526029,69.7045316 160.833737,70.3195345 161.449154,70.9345375 C177.142278,94.9196528 187.912069,121.36478 197.451027,148.117408 C200.52811,156.72745 203.297485,165.644993 206.374568,174.255034 C210.682485,186.862595 223.913943,213.615223 218.375193,226.530285 Z" id="Shape" fill="#5193F4" fill-rule="nonzero"></path>
                                <path d="M46.6739513,33.1118557 C87.5991576,40.7993926 116.523739,68.1670242 146.986863,96.4571602 C177.449986,124.747296 199.297277,162.262476 209.75936,202.54517" id="Shape" stroke="#0B43A4" stroke-linecap="round" stroke-linejoin="round"></path>
                            </g>
                            <g id="Group" transform="translate(302.405516, 647.854178) rotate(-90.000000) translate(-302.405516, -647.854178) translate(250.905516, 542.854178)">
                                <path d="M30.0577021,193.705123 C29.7499938,198.010143 29.7499938,202.315164 30.6731187,206.620185 C20.5187442,204.160173 13.4414529,188.477598 8.51811983,170.950013 C3.90249506,154.037432 1.74853683,135.894845 0.825411874,127.592305 C-0.405421399,109.757219 0.517703556,91.9221336 4.21020337,74.3945493 C19.9033276,98.3796646 30.6731187,124.824792 40.2120766,151.57742 C36.8272851,161.417468 34.0579102,170.950013 31.903952,181.097562 C31.2885354,185.402583 30.3654104,189.400102 30.0577021,193.705123 Z" id="Shape" fill="#5275A0" fill-rule="nonzero" opacity="0.2"></path>
                                <path d="M101.138324,46.1044133 C97.7535321,61.4794872 88.5222825,74.7020508 80.214158,88.2321158 C75.9062415,95.3046498 71.9060334,102.684685 68.2135335,110.064721 C56.2129091,133.742335 46.9816596,158.649954 40.8274932,184.480078 C38.9812433,193.09012 37.7504101,201.085158 39.2889516,209.6952 C18.9802026,205.082677 10.9797864,147.887403 9.7489531,130.66732 C7.28728656,99.917172 12.518328,68.5520212 25.134369,40.2618853 C30.6731187,27.9618261 37.7504101,15.661767 48.8279095,7.97423006 C59.905409,-0.0208083707 75.2908249,-2.78832167 86.983741,4.28421232 C94.0610323,8.28173154 98.3689487,15.3542655 100.522907,23.0418025 C102.676865,30.421838 102.984574,38.4168764 101.138324,46.1044133 Z" id="Shape" fill="#52D2BC" fill-rule="nonzero"></path>
                                <path d="M31.5962437,192.782618 C18.9802026,161.417468 26.6729106,94.6896469 46.6739513,52.5619444 C52.8281176,39.9543838 61.4439506,27.9618261 73.444575,20.8892921" id="Shape" stroke="#00AD9F" stroke-linecap="round" stroke-linejoin="round"></path>
                            </g>
                            <g id="Group" transform="translate(331.779131, 560.683958) rotate(-90.000000) translate(-331.779131, -560.683958) translate(250.279131, 448.183958)">
                                <path d="M43.7554646,24.5793099 C40.3706731,39.9543838 31.1394236,53.1769473 22.831299,66.7070124 C18.5233826,73.7795464 14.5231744,81.1595818 10.8306746,88.5396173 C5.29192487,79.314573 1.59942505,68.8595227 0.368591782,58.4044725 C-1.47765813,40.5693867 5.59963319,21.5042951 20.0619241,10.7417434 C26.8315071,5.82171971 34.8319234,3.05420641 43.140048,1.8242005 C45.2940062,8.89673449 45.6017146,16.8917729 43.7554646,24.5793099 Z" id="Shape" fill="#5275A0" fill-rule="nonzero" opacity="0.2"></path>
                                <path d="M160.376917,158.034951 C159.453792,163.877479 157.607542,169.412506 155.145876,174.947533 C146.222335,194.320126 127.452127,210.925206 99.1429619,224.455271 C99.1429619,224.455271 97.6044203,193.705123 97.296712,185.710084 C96.0658787,150.654916 57.9100473,131.282323 33.6010901,105.452199 C21.2927574,92.5371365 12.0615079,75.9320567 10.215258,58.096971 C8.36900805,40.2618853 15.4462994,21.1967936 29.9085903,10.4342419 C42.2169231,1.51669902 57.9100473,-0.328309849 72.9877549,0.901696063 C97.296712,2.74670493 121.605669,12.8942537 136.683377,31.9593453 C137.298793,32.5743483 137.91421,33.4968527 138.529627,34.1118557 C147.760876,46.7194163 152.376501,62.0944902 156.069001,77.1620626 C161.915459,103.60719 164.684834,131.282323 160.376917,158.034951 Z" id="Shape" fill="#00AD9F" fill-rule="nonzero"></path>
                                <path d="M40.3706731,29.4993335 C66.8335885,43.0293986 93.2965039,59.6344784 108.68192,85.157101 C130.221502,120.519771 125.298169,166.644993 108.989628,204.775176" id="Shape" stroke="#00AD9F" stroke-linecap="round" stroke-linejoin="round"></path>
                            </g>
                            <g id="Group" transform="translate(302.651861, 373.620762) rotate(-90.000000) translate(-302.651861, -373.620762) translate(160.151861, 211.620762)">
                                <path d="M33.1347853,236.468637 C32.2116603,242.311165 30.3654104,247.846191 27.9037439,253.381218 C14.9799945,225.706085 3.28707842,189.42091 0.517703556,145.140698 C-0.0977130806,133.14814 2.9793701,120.848081 9.44124478,110.393031 C10.0566614,111.008034 10.6720781,111.930538 11.2874947,112.545541 C20.5187442,125.153102 25.134369,140.528175 28.8268688,155.595748 C34.6733269,182.040875 37.4427017,209.716008 33.1347853,236.468637 Z" id="Shape" fill="#5275A0" fill-rule="nonzero" opacity="0.2"></path>
                                <path d="M162.064571,234.931129 C189.758319,225.091082 218.682901,217.096043 244.222692,202.028471 C251.915399,197.415949 259.300399,192.188424 264.531441,185.11589 C270.07019,178.043356 273.147273,169.125813 272.224148,160.20827 C270.993315,151.290727 265.146857,142.680686 267.300815,133.763143 C268.531649,127.920615 272.839565,123.308093 276.224357,118.388069 C284.224773,106.703013 286.686439,91.327939 282.378523,77.4903725 C278.070607,62.7303015 266.993107,51.0452454 260.838941,37.2076788 C255.607899,25.8301242 253.761649,12.9150621 255.607899,0.615002956 C232.222067,0.922504434 210.990193,13.530065 187.912069,17.8350857 C170.372695,21.217602 152.217904,19.3725931 134.67853,23.3701123 C102.984574,30.7501478 77.1370748,58.4252808 72.2137417,90.712936 C57.4437424,88.2529242 41.7506182,93.4804493 31.2885354,104.243001 C20.5187442,115.928057 14.3645779,132.225636 15.2877028,148.215712 C22.3649941,263.221265 88.5222825,323.491555 88.5222825,323.491555 C88.5222825,323.491555 151.294779,238.621147 162.064571,234.931129 Z" id="Shape" fill="#7EE8D4" fill-rule="nonzero"></path>
                                <g transform="translate(63.618747, 27.675133)" id="Shape" stroke="#00AD9F" stroke-linecap="round" stroke-linejoin="round">
                                    <path d="M35.9810352,206.333492 C33.2116603,178.043356 43.0583265,149.75322 54.4435343,123.615594 C65.5210337,98.0929715 78.4447831,73.1853518 95.3687406,51.3527468 C112.600406,29.5201419 134.447697,10.7625517 159.987487,-1.42108547e-14"></path>
                                    <path d="M60.905409,17.5275842 C58.1360341,42.7427054 59.982284,73.1853518 66.751867,98.0929715"></path>
                                    <path d="M71.3674918,88.8679272 C100.292074,70.4178385 144.90978,59.0402838 179.065403,60.8852927"></path>
                                    <path d="M0.594578601,93.4804493 C35.3656186,108.24052 36.9041601,159.285766 37.8272851,173.738335"></path>
                                    <path d="M47.366243,141.45068 C74.1368666,122.385588 112.600406,116.54306 140.909572,123.615594"></path>
                                    <path d="M119.985406,4.30502069 C111.98499,14.145068 109.831032,25.8301242 110.754157,34.1326641"></path>
                                    <path d="M118.446864,27.0601301 C130.755197,20.9101005 147.063738,19.3725931 164.603112,23.6776138"></path>
                                </g>
                            </g>
                            <g id="Group" transform="translate(214.589255, 691.916911) rotate(-90.000000) translate(-214.589255, -691.916911) translate(48.089255, 477.416911)">
                                <path d="M48.5970762,139.584863 C51.9818677,139.277361 74.1368666,122.979783 82.7526995,117.444756 C85.2143661,115.907249 87.6760326,114.369741 89.2145742,111.90973 C90.7531158,109.449718 91.6762408,106.374703 90.4454075,103.914691 C88.9068659,100.532175 86.4451994,97.4571602 79.9833247,97.4571602 C68.9058252,97.4571602 64.9056171,101.147178 59.6745757,106.682205 C41.8274932,124.824792 48.5970762,139.584863 48.5970762,139.584863 Z" id="Shape" fill="#4A49CA" fill-rule="nonzero"></path>
                                <path d="M148.60228,206.005182 C158.448946,210.310203 168.60332,214.615223 179.373111,213.385217 C183.37332,212.770214 187.988944,210.925206 189.219778,207.235188 C190.450611,203.852672 188.912069,200.162654 186.142694,197.702642 C183.37332,195.24263 179.988528,194.320126 176.603737,193.397621 C163.679987,190.322607 145.525196,191.860114 132.601447,195.550132 C132.601447,195.550132 142.755822,203.54517 148.60228,206.005182 Z" id="Shape" fill="#4A49CA" fill-rule="nonzero"></path>
                                <path d="M212.60561,62.7094931 C208.297693,59.9419798 203.37436,56.2519621 203.37436,51.3319385 C203.37436,46.1044133 208.605402,42.4143956 213.836443,42.1068941 C219.067484,42.1068941 223.683109,44.8744074 227.683317,48.2569237 C243.991858,62.7094931 242.145608,79.0070715 242.145608,79.0070715 C242.145608,79.0070715 217.528943,65.7845079 212.60561,62.7094931 Z" id="Shape" fill="#4A49CA" fill-rule="nonzero"></path>
                                <path d="M225.529359,18.7367818 C221.836859,17.1992744 217.836651,15.0467641 215.682693,11.6642478 C214.45186,9.81923893 213.836443,7.66672858 214.759568,5.82171971 C215.990401,2.74670493 217.836651,-0.328309849 225.837067,1.20919754 C251.06915,5.82171971 256.607899,23.0418025 256.607899,23.0418025 C256.607899,23.0418025 232.298942,21.8117966 225.529359,18.7367818 Z" id="Shape" fill="#4A49CA" fill-rule="nonzero"></path>
                                <path d="M299.994772,57.1744665 C310.149147,56.2519621 320.611229,51.3319385 327.073104,43.3369 C329.534771,40.2618853 331.688729,36.879369 332.611854,33.1893513 C333.534979,29.4993335 332.611854,25.1943128 329.534771,22.4267995 C325.842271,19.3517847 320.303521,19.9667877 316.303313,22.4267995 C312.303105,24.8868114 309.841438,29.191832 307.68748,33.4968527 C305.225814,39.3393808 299.994772,57.1744665 299.994772,57.1744665 Z" id="Shape" fill="#4A49CA" fill-rule="nonzero"></path>
                                <path d="M118.139156,428.328751 C93.5224907,406.496146 68.9058252,384.971042 44.2891598,363.138437 C31.0577021,351.453381 17.8262444,339.768325 9.51811983,324.393251 C-8.32896263,291.183091 1.82541187,248.132884 26.134369,219.535247 C50.4433261,190.630108 85.8297827,173.717527 121.216239,161.109966 C156.910404,148.809907 193.835402,139.892364 227.683317,123.594786 C248.915191,113.447237 270.454774,98.0721631 275.993523,75.0095523 C279.378315,61.1719858 276.60894,46.1044133 268.300815,34.4193572 C259.992691,23.0418025 246.145816,15.661767 231.991234,14.7392626" id="Shape" stroke="#0B43A4" stroke-linecap="round" stroke-linejoin="round"></path>
                                <path d="M317.226438,33.8043542 C310.456855,54.4069532 284.301648,67.0145138 272.301024,84.8495996" id="Shape" stroke="#0B43A4" stroke-linecap="round" stroke-linejoin="round"></path>
                                <path d="M223.067693,57.481968 C228.298734,63.0169946 234.4529,67.3220153 239.068525,73.4720449 C248.607483,86.0796055 249.530608,106.682205 235.376025,119.597267" id="Shape" stroke="#0B43A4" stroke-linecap="round" stroke-linejoin="round"></path>
                                <path d="M90.1376992,173.102524 C111.98499,189.707604 140.601863,201.085158 167.987904,202.007663" id="Shape" stroke="#0B43A4" stroke-linecap="round" stroke-linejoin="round"></path>
                                <path d="M40.2889516,203.54517 C30.1345771,174.025028 41.2120766,138.662358 66.1364504,119.904768" id="Shape" stroke="#0B43A4" stroke-linecap="round" stroke-linejoin="round"></path>
                            </g>
                            <g id="Group" transform="translate(279.364618, 147.696353) rotate(-90.000000) translate(-279.364618, -147.696353) translate(131.864618, -38.803647)">
                                <path d="M3.07708318,18.0650916 C1.84624991,14.3750739 1.84624991,10.0700532 4.61562477,7.30253991 C6.769583,5.15002956 10.4620828,4.22752513 13.2314577,5.45753104 C34.77104,14.9900769 32.6170817,48.8152394 32.6170817,48.8152394 C32.6170817,48.8152394 12.0006244,45.4327232 3.07708318,18.0650916 Z" id="Shape" fill="#4A49CA" fill-rule="nonzero"></path>
                                <path d="M2.76937486,81.1028946 C-11.0774995,106.318016 38.4635398,104.473007 56.3106222,89.712936 C56.3106222,89.712936 14.7699993,59.5777912 2.76937486,81.1028946 Z" id="Shape" fill="#4A49CA" fill-rule="nonzero"></path>
                                <path d="M65.5418718,19.9101005 C62.1570803,15.2975783 60.926247,8.53254582 64.6187468,3.92002365 C67.3881217,0.53750739 72.0037464,-0.384997044 76.3116629,0.53750739 C80.6195794,1.46001182 86.7737457,5.15002956 89.5431206,8.53254582 C105.851661,28.8276434 98.1589535,48.8152394 98.1589535,48.8152394 C98.1589535,48.8152394 71.0806215,27.5976375 65.5418718,19.9101005 Z" id="Shape" fill="#4A49CA" fill-rule="nonzero"></path>
                                <path d="M200.933532,128.765624 C192.009991,121.078087 178.778533,118.618075 168.008742,123.538099 C165.239367,124.768105 162.7777,126.305612 160.93145,128.765624 C156.931242,134.30065 158.469784,141.988187 162.469992,147.523214 C166.4702,152.750739 172.624366,156.133255 178.778533,158.900769 C189.856032,163.820792 207.087698,165.050798 218.780614,167.818311 C218.780614,167.818311 218.780614,144.448199 200.933532,128.765624 Z" id="Shape" fill="#4A49CA" fill-rule="nonzero"></path>
                                <path d="M18.7702074,23.6001182 C26.155207,47.5852335 46.7716644,65.7278207 69.8497882,75.2603666 C92.9279121,85.1004139 118.159994,87.5604257 143.392076,89.0979331 C168.31645,90.6354405 193.548532,91.5579449 217.857489,98.0154759 C241.55103,104.473007 264.936862,117.695571 275.091236,139.835677 C287.399569,166.895807 276.629778,199.183462 259.090404,223.168577 C241.858738,247.461194 218.472906,266.833787 201.856657,291.433906 C194.163949,302.81146 187.702074,316.034024 189.240616,329.564089 C191.394574,347.706676 206.472281,360.92924 220.626864,372.306794" id="Shape" stroke="#0B43A4" stroke-linecap="round" stroke-linejoin="round"></path>
                                <path d="M76.3116629,14.6825754 C92.9279121,33.1326641 106.15937,61.7303015 109.236453,86.0229183" id="Shape" stroke="#0B43A4" stroke-linecap="round" stroke-linejoin="round"></path>
                                <path d="M20.6164573,85.4079153 C30.1554152,87.8679272 39.694373,90.327939 49.5410392,90.327939 C59.3877054,90.327939 70.7729132,84.7929124 77.8502045,78.0278799" id="Shape" stroke="#0B43A4" stroke-linecap="round" stroke-linejoin="round"></path>
                                <path d="M186.471241,139.835677 C204.318323,156.133255 219.703739,169.355819 239.397072,183.193385 C248.320613,189.650916 266.167695,197.645955 274.168111,195.493444" id="Shape" stroke="#0B43A4" stroke-linecap="round" stroke-linejoin="round"></path>
                            </g>
                        </g>
                        <g id="Group" transform="translate(1288.232682, 1088.196919) scale(-1, 1) translate(-1288.232682, -1088.196919) translate(1161.732682, 951.696919)">
                            <g id="Group-4">
                                <path d="M21.9315598,229.775468 C23.8437472,177.22067 51.0924177,128.488039 84.5556973,87.3997428 C112.282415,53.0002386 145.267647,21.9451306 186.379677,6.17869123 C199.286942,1.40098231 213.628347,-1.94341393 227.013659,1.40098231 C240.398971,4.74537855 252.350142,16.21188 252.828189,30.0672358 C252.828189,41.5337372 245.179439,52.0446968 237.052643,60.166802 C209.803972,87.3997428 174.906552,104.599495 142.399366,124.188101 C85.9898379,158.109835 32.4485905,203.498069 9.98038852,265.608285" id="Shape" fill="#52D2BC" fill-rule="nonzero"></path>
                                <path d="M42.4875744,183.909463 C76.9069477,106.988349 165.823662,38.6671119 224.623425,30.0672358" id="Shape" stroke="#00AD9F" stroke-linecap="round" stroke-linejoin="round"></path>
                                <path d="M0.923720327,272.591252 C0.445673475,263.991376 29.1284846,240.580602 35.8211405,234.847352 C71.6746543,202.358931 114.698871,178.470386 159.635275,164.13726 C177.801055,158.404009 197.400976,154.104071 215.566757,158.88178 C233.732537,163.181718 250.464177,178.470386 252.376364,198.058993 C254.288552,217.169829 241.381287,235.802893 225.127694,245.358311 C208.874101,254.435958 189.752227,255.869271 171.108399,254.913729 C142.903635,253.480416 115.176918,246.313853 86.9721536,246.313853 C58.7673893,246.313853 18.6114538,249.180478 0.923720327,272.591252 Z" id="Shape" fill="#00AD9F" fill-rule="nonzero"></path>
                            </g>
                        </g>
                        <g id="Group" transform="translate(1236.553441, 379.038539) scale(-1, 1) translate(-1236.553441, -379.038539) translate(1103.553441, 273.538539)">
                            <g id="Group-3">
                                <path d="M261.838941,85.4854109 C258.146441,99.9379804 252.299983,114.39055 242.761025,126.075606 C235.991442,134.070644 227.683317,140.220674 218.759776,145.448199 C214.144151,148.215712 209.220818,150.368223 204.297485,152.520733 C184.911861,160.515772 164.295404,165.128294 143.371238,166.050798 C112.908115,167.280804 81.8295746,160.515772 52.5972844,169.125813 C39.0581184,173.123332 26.7497856,180.195866 16.9031195,190.035913 C10.4412448,195.878442 5.21020337,202.950976 0.902286919,210.331011 L4.90249506,185.11589 C12.2874947,158.05576 19.6724943,130.380627 34.7502019,106.703013 C44.2891598,91.327939 56.9052008,77.7978739 70.4443668,65.4978148 C91.9839491,45.8177202 115.67749,28.290136 141.832697,15.6825754 C163.064571,5.5350266 186.450403,-1.84500887 209.836235,0.922504434 C233.222067,3.69001774 255.992483,18.4500887 263.377482,40.8976966 C267.685399,55.0427646 265.531441,70.7253399 261.838941,85.4854109 Z" id="Shape" fill="#5193F4" fill-rule="nonzero"></path>
                                <path d="M24.2881191,165.743297 C46.7508263,132.840639 79.9833247,107.318016 117.831448,94.7104552 C141.524988,86.7154168 166.449362,83.9479035 190.142903,76.8753695 C214.144151,70.110337 237.837692,58.4252808 251.992275,37.8226818" id="Shape" stroke="#0B43A4" stroke-linecap="round" stroke-linejoin="round"></path>
                                <path d="M219.260289,146.310489 C214.644664,149.078002 209.721331,151.230512 204.797998,153.383023 C185.412374,161.378061 164.795917,165.990583 143.871751,166.913088 C113.408628,168.143094 82.3300875,161.378061 53.0977973,169.988102 C39.5586313,173.985622 27.2502985,181.058156 17.4036324,190.898203 C16.4805074,191.513206 15.2496741,191.820707 14.3265492,192.43571 C11.8648826,171.833111 63.2521718,145.080483 78.945296,138.007949 C106.946753,125.400388 138.64071,119.865361 169.411542,122.325373 C182.950708,123.555379 196.797582,126.015391 207.875081,133.702928 C212.182998,136.777943 216.490914,141.082963 219.260289,146.310489 Z" id="Shape" fill="#5275A0" fill-rule="nonzero" opacity="0.2"></path>
                                <path d="M169.103833,134.317931 C182.642999,135.240435 196.489874,138.007949 207.567373,145.695486 C218.644872,153.383023 226.645289,166.913088 223.875914,180.443153 C220.798831,195.818227 204.797998,205.965775 189.412582,207.810784 C174.027166,209.655793 158.026334,205.350772 142.640918,202.275758 C108.485295,195.203224 73.4065463,193.665716 38.6355063,197.663235 C30.0196734,198.58574 21.7115488,200.430749 14.3265492,204.735769 C11.8648826,184.13317 63.2521718,157.380542 78.945296,150.308008 C106.946753,137.700447 138.333001,131.857919 169.103833,134.317931 Z" id="Shape" fill="#52D2BC" fill-rule="nonzero"></path>
                                <path d="M27.5580069,191.513206 C53.0977973,169.065598 118.331961,153.998026 164.795917,158.918049 C178.642791,160.455557 192.797374,164.453076 203.567165,173.67812" id="Shape" stroke="#00AD9F" stroke-linecap="round" stroke-linejoin="round"></path>
                            </g>
                        </g>
                    </g>
                    <g id="Group" transform="translate(1434.000000, 737.500000) scale(-1, 1) translate(-1434.000000, -737.500000) translate(1376.000000, 711.000000)"></g>
                </g>
            </g>
        </g>
    </g>
</svg>