<?xml version="1.0" encoding="UTF-8"?>
<svg width="1440px" height="687px" viewBox="0 0 1440 687" version="1.1" xmlns="http://www.w3.org/2000/svg" xmlns:xlink="http://www.w3.org/1999/xlink">
    <!-- Generator: Sketch 49.3 (51167) - http://www.bohemiancoding.com/sketch -->
    <title>Group 16@2x</title>
    <desc>Created with Sketch.</desc>
    <defs>
        <polygon id="path-1" points="0.284576081 0.126026846 39.7480804 0.126026846 39.7480804 39.6128503 0.284576081 39.6128503"></polygon>
        <linearGradient x1="10.0950169%" y1="50%" x2="98.552576%" y2="80.8380682%" id="linearGradient-3">
            <stop stop-color="#FF5787" offset="0%"></stop>
            <stop stop-color="#FF7C5F" offset="100%"></stop>
        </linearGradient>
    </defs>
    <g id="Page-1" stroke="none" stroke-width="1" fill="none" fill-rule="evenodd" opacity="0.450973732">
        <g id="Desktop-HD" transform="translate(0.000000, -1121.000000)">
            <g id="Group-16" transform="translate(-119.000000, 1121.000000)">
                <path d="M1333.19942,594.550548 C1333.19942,593.175011 1332.6741,591.799474 1331.62654,590.749763 L1305.73687,564.852783 C1303.63866,562.75336 1300.23944,562.75336 1298.14123,564.852783 C1296.04303,566.950669 1296.04303,570.353394 1298.14123,572.452817 L1324.02937,598.351334 C1326.12757,600.450756 1329.52679,600.450756 1331.62654,598.351334 C1332.6741,597.301622 1333.19942,595.926085 1333.19942,594.550548" id="Fill-1" fill="#6EFFC4" opacity="0.315557065"></path>
                <g id="Group-5" transform="translate(1195.221902, 0.000000)">
                    <mask id="mask-2" fill="white">
                        <use xlink:href="#path-1"></use>
                    </mask>
                    <g id="Clip-4"></g>
                    <path d="M31.8360256,19.872743 C31.8360256,26.3907899 26.5352101,31.6931389 20.0163282,31.6931389 C13.4989824,31.6931389 8.19663084,26.3907899 8.19663084,19.872743 C8.19663084,13.3470114 13.4989824,8.0431255 20.0163282,8.0431255 C26.5352101,8.0431255 31.8360256,13.3470114 31.8360256,19.872743 M0.284576081,19.872743 C0.284576081,30.758696 9.13667695,39.6128503 20.0163282,39.6128503 C30.8975156,39.6128503 39.7480804,30.758696 39.7480804,19.872743 C39.7480804,8.98678993 30.8975156,0.124951007 20.0163282,0.124951007 C9.13667695,0.124951007 0.284576081,8.98678993 0.284576081,19.872743" id="Fill-3" fill="#6EFFC4" opacity="0.315557065" mask="url(#mask-2)"></path>
                </g>
                <path d="M982.032144,597.050952 C982.032144,606.063408 974.702242,613.399093 965.687323,613.399093 C956.67394,613.399093 949.344038,606.063408 949.344038,597.050952 C949.344038,588.040032 956.67394,580.704348 965.687323,580.704348 C974.702242,580.704348 982.032144,588.040032 982.032144,597.050952 M936.335459,597.050952 C936.335459,613.245401 949.502248,626.41367 965.687323,626.41367 C981.872398,626.41367 995.040724,613.245401 995.040724,597.050952 C995.040724,580.858039 981.872398,567.688234 965.687323,567.688234 C949.502248,567.688234 936.335459,580.858039 936.335459,597.050952" id="Fill-6" fill="#6EFFC4" opacity="0.315557065"></path>
                <path d="M851.570794,686.999385 C879.414284,686.999385 901.984607,664.415989 901.984607,636.557909 C901.984607,608.698291 879.414284,586.113358 851.570794,586.113358 C823.72884,586.113358 801.158518,608.698291 801.158518,636.557909 C801.158518,664.415989 823.72884,686.999385 851.570794,686.999385" id="Fill-8" fill="#236DDB" opacity="0.274739583"></path>
                <path d="M867.194914,47.1709262 L867.194914,66.2624564 L886.290752,66.2624564 C894.930882,66.2624564 901.921323,73.2584832 901.921323,81.9036174 C901.921323,90.5487517 894.930882,97.5432416 886.290752,97.5432416 L867.194914,97.5432416 L867.194914,116.650141 C867.194914,125.295275 860.202937,132.291302 851.562807,132.291302 C842.922677,132.291302 835.9307,125.295275 835.9307,116.650141 L835.9307,97.5432416 L816.851758,97.5432416 C808.211628,97.5432416 801.219651,90.5487517 801.219651,81.9036174 C801.219651,73.2584832 808.211628,66.2624564 816.851758,66.2624564 L835.9307,66.2624564 L835.9307,47.1709262 C835.9307,38.5257919 842.922677,31.5297651 851.562807,31.5297651 C860.202937,31.5297651 867.194914,38.5257919 867.194914,47.1709262" id="Fill-10" fill="#236DDB" opacity="0.274739583"></path>
                <g id="Group-15" transform="translate(1118.000000, 67.000000)" fill="url(#linearGradient-3)" opacity="0.251981431">
                    <path d="M446.232348,589.598069 C443.089705,589.598069 439.980686,589.473953 436.910466,589.220549 C404.858088,586.603768 389.926004,571.469365 367.324836,548.567364 C348.393965,529.381088 324.833191,505.506845 281.625074,477.707431 C232.542931,446.125063 197.360842,434.7762 166.322387,424.761584 C130.814394,413.304119 102.76339,404.253989 68.8435318,369.354102 C15.7238024,314.70683 -6.55404878,259.896656 2.63592048,206.446588 C10.0489382,163.339525 39.051788,120.077317 78.3335395,93.53975 C104.623111,75.780809 131.096327,68.5846626 152.882736,73.2648728 C177.074625,78.4725762 192.141208,98.1165301 206.70859,117.11146 C223.246913,138.679213 240.346516,160.978734 271.009923,162.636201 C276.278701,162.928391 303.569262,163.471398 324.703864,146.330452 C337.165803,136.222749 343.456264,126.828714 347.912868,111.663282 C361.637039,64.9646106 383.022534,32.3143268 411.474452,14.6122723 C440.526446,-3.45695899 469.63017,-1.48661637 488.92833,3.35132462 C514.330719,9.72003049 534.779888,25.5862015 546.509837,48.0253527 C561.91267,77.4874049 561.203959,116.413307 544.469059,160.596043 C538.271714,176.961264 528.724802,193.727276 519.490862,209.939938 C505.112298,235.189801 491.532973,259.038187 494.68855,275.17069 C498.245039,293.314908 509.349047,301.416068 524.718255,312.627886 C538.884723,322.963135 556.517152,335.824662 575.230754,361.309829 C590.45253,382.037213 611.297439,410.423592 611.982872,443.479839 C612.624333,474.36664 595.222106,508.795921 564.232795,537.942512 C529.782696,570.35232 485.410638,589.598069 446.232348,589.598069" id="Fill-13"></path>
                </g>
                <g id="Group-18" transform="translate(0.000000, 49.000000)" fill="url(#linearGradient-3)" opacity="0.251981431">
                    <path d="M362.97361,480 C360.413763,480 357.881305,479.898952 355.380451,479.692647 C329.272119,477.562224 317.109159,465.240718 298.699329,446.59531 C283.279148,430.975018 264.08767,411.53807 228.892408,388.905487 C188.912445,363.193055 160.2548,353.953504 134.972361,345.800217 C106.049251,336.47225 83.2002463,329.104188 55.5707542,300.690834 C12.3019666,256.200368 -5.844504,211.577278 1.64120483,168.061501 C7.67949402,132.966368 31.3038264,97.7449243 63.3008599,76.1396603 C84.7150858,61.6814168 106.278899,55.8227546 124.025065,59.6330954 C143.730619,63.872889 156.003136,79.8657947 167.869028,95.330305 C181.340354,112.88945 195.268871,131.044356 220.245814,132.393764 C224.537508,132.631647 246.767093,133.073731 263.982327,119.118621 C274.133226,110.889548 279.257134,103.241499 282.88727,90.8947315 C294.066322,52.8755297 311.485923,26.2936658 334.661492,11.8817358 C358.325855,-2.829127 382.032355,-1.22499456 397.751712,2.71376106 C418.443281,7.89877181 435.100195,20.8160377 444.65485,39.0846221 C457.20126,63.0708228 456.623978,94.7619117 442.992529,130.732792 C437.944469,144.056354 430.168012,157.706216 422.646487,170.905573 C410.934397,191.462467 399.87333,210.878364 402.443711,224.012462 C405.340657,238.784374 414.38545,245.379843 426.904471,254.507819 C438.443797,262.922147 452.80633,273.393216 468.049533,294.141679 C480.448463,311.016647 497.427728,334.127101 497.986048,361.039475 C498.508552,386.18562 484.333531,414.215834 459.091123,437.945205 C431.029722,464.331289 394.886369,480 362.97361,480" id="Fill-16"></path>
                </g>
                <path d="M585.055097,349.899892 C609.436589,325.52735 648.966372,325.52735 673.346327,349.899892 C697.727819,374.272433 697.727819,413.790197 673.346327,438.164276 C648.966372,462.536817 609.436589,462.536817 585.055097,438.164276 C560.67668,413.790197 560.67668,374.272433 585.055097,349.899892" id="Fill-19" fill="#6EFFC4" opacity="0.315557065"></path>
                <path d="M805.931241,363.021038 C807.179761,361.775972 809.19861,361.775972 810.445592,363.021038 C811.691036,364.26764 811.691036,366.287413 810.445592,367.534016 C809.19861,368.779081 807.179761,368.779081 805.931241,367.534016 C804.685797,366.287413 804.685797,364.26764 805.931241,363.021038" id="Fill-21" fill="#6EFFC4" opacity="0.315557065"></path>
                <path d="M815.317432,351.48051 C816.822728,352.985348 819.272101,352.985348 820.77586,351.482047 C822.279618,349.977209 822.279618,347.530117 820.774322,346.025279 C819.272101,344.521977 816.822728,344.521977 815.317432,346.025279 C813.813673,347.530117 813.813673,349.977209 815.317432,351.48051 M823.752625,343.047881 C826.900063,346.194362 826.903138,351.314501 823.7557,354.459445 C820.606726,357.604388 815.486566,357.604388 812.339129,354.457907 C809.191691,351.312964 809.193229,346.194362 812.339129,343.049418 C815.486566,339.901401 820.606726,339.901401 823.752625,343.047881" id="Fill-23" fill="#6EFFC4" opacity="0.315557065"></path>
                <path d="M545.885569,372.506438 L547.801401,374.423224 L549.720308,372.504901 C550.589043,371.637967 551.992859,371.637967 552.861595,372.504901 C553.728793,373.371836 553.728793,374.778299 552.861595,375.645233 L550.94115,377.562019 L552.861595,379.480342 C553.728793,380.348814 553.728793,381.752203 552.861595,382.620674 C551.992859,383.489146 550.589043,383.489146 549.720308,382.620674 L547.801401,380.702351 L545.885569,382.619137 C545.018371,383.487609 543.611481,383.487609 542.744282,382.619137 C541.875547,381.750666 541.875547,380.347277 542.744282,379.478805 L544.661651,377.562019 L542.744282,375.64677 C541.875547,374.779836 541.875547,373.373373 542.744282,372.506438 C543.611481,371.639504 545.018371,371.639504 545.885569,372.506438" id="Fill-25" fill="#236DDB" opacity="0.274739583"></path>
                <path d="M737.313571,262.899633 C745.893297,271.476751 759.854573,271.476751 768.438912,262.895022 C777.024789,254.313293 777.024789,240.353188 768.445063,231.77607 C759.854573,223.189729 745.893297,223.189729 737.308958,231.771459 C728.723081,240.353188 728.723081,254.313293 737.313571,262.899633 M778.866817,221.359022 C793.19865,235.683424 793.1925,258.987668 778.860666,273.31207 C764.531908,287.638009 741.222113,287.644157 726.891817,273.318218 C712.563058,258.992279 712.556908,235.678812 726.885666,221.35441 C741.215962,207.026934 764.536521,207.033083 778.866817,221.359022" id="Fill-27" fill="#6EFFC4" opacity="0.315557065"></path>
            </g>
        </g>
    </g>
</svg>