<?xml version="1.0" encoding="UTF-8"?>
<svg width="1440px" height="807px" viewBox="0 0 1440 807" version="1.1" xmlns="http://www.w3.org/2000/svg" xmlns:xlink="http://www.w3.org/1999/xlink">
    <!-- Generator: Sketch 49.3 (51167) - http://www.bohemiancoding.com/sketch -->
    <title>Middile part bg@2x</title>
    <desc>Created with Sketch.</desc>
    <defs>
        <linearGradient x1="85.7476128%" y1="109.37882%" x2="37.828776%" y2="16.3713898%" id="linearGradient-1">
            <stop stop-color="#6EFFC3" offset="0%"></stop>
            <stop stop-color="#5A95FF" offset="100%"></stop>
        </linearGradient>
        <rect id="path-2" x="0" y="0" width="1440" height="807"></rect>
        <linearGradient x1="-5.21418101%" y1="13.6219909%" x2="55.3845434%" y2="69.7006147%" id="linearGradient-4">
            <stop stop-color="#6EFFC3" offset="0%"></stop>
            <stop stop-color="#5A95FF" offset="100%"></stop>
        </linearGradient>
        <linearGradient x1="33.3967247%" y1="8.25424787%" x2="87.1069562%" y2="81.9462991%" id="linearGradient-5">
            <stop stop-color="#6EFFC3" offset="0%"></stop>
            <stop stop-color="#5A95FF" offset="100%"></stop>
        </linearGradient>
        <path d="M427.447142,104.50167 C527.821562,214.110715 528.924513,412.792336 422.337466,457.519073 C368.823134,478.35444 301.100973,455.886034 235.70286,442.619027 C169.218512,431.335336 104.950093,427.423776 56.7041239,392.718316 C6.30905496,358.843802 -9.75050073,292.041141 5.56452851,228.188271 C19.3098716,163.442614 43.6174412,99.3058463 79.2978023,54.7795825 C144.447721,-34.9846313 322.048757,-10.7241251 427.447142,104.50167 Z" id="path-6"></path>
    </defs>
    <g id="Page-1" stroke="none" stroke-width="1" fill="none" fill-rule="evenodd">
        <g id="Desktop-HD" transform="translate(0.000000, -1187.000000)">
            <g id="Middile-part-bg" transform="translate(0.000000, 1187.000000)">
                <mask id="mask-3" fill="white">
                    <use xlink:href="#path-2"></use>
                </mask>
                <use id="Rectangle-7" fill="url(#linearGradient-1)" opacity="0.89232337" xlink:href="#path-2"></use>
                <g id="Group-14" opacity="0.499037591" mask="url(#mask-3)">
                    <g transform="translate(1013.000000, 64.000000)" id="Hero">
                        <g>
                            <path d="M438.932541,250.827788 C436.033797,121.142735 340.094845,22.3933348 239.62355,43.6433901 C187.439647,52.3618844 118.081749,66.8451298 68.8063709,100.183976 C18.9831992,132.110036 -10.7607126,182.891696 3.63192349,231.53233 C16.0159815,279.532113 60.6383706,311.108617 100.102366,354.235014 C141.891225,394.235804 178.515169,445.786487 228.618759,461.653389 C330.391065,491.222863 441.769331,374.252887 438.932541,250.827788" id="Combined-Shape" fill="url(#linearGradient-4)" opacity="0.607959692"></path>
                            <g id="Group-6" transform="translate(22.343580, 0.000000)">
                                <mask id="mask-7" fill="white">
                                    <use xlink:href="#path-6"></use>
                                </mask>
                                <use id="Mask" fill="url(#linearGradient-5)" transform="translate(251.255064, 233.142091) rotate(180.000000) translate(-251.255064, -233.142091) " xlink:href="#path-6"></use>
                                <g id="Group-5" mask="url(#mask-7)">
                                    <g transform="translate(33.740861, 246.976970) scale(-1, 1) rotate(15.000000) translate(-33.740861, -246.976970) translate(-9.259139, 150.476970)" id="Group">
                                        <g transform="translate(42.126542, 48.838410) rotate(-28.000000) translate(-42.126542, -48.838410) translate(24.626542, 3.838410)">
                                            <path d="M33.201453,42.8675052 C32.5539488,46.4789028 31.6289427,49.9977004 30.5189355,53.4238982 C28.1139197,60.9244931 24.6913974,68.1472883 21.268875,75.2774836 C19.5113635,78.9814811 12.2038157,87.5932753 8.31879029,89.2600742 C8.78129331,79.5370807 8.78129331,68.2398883 7.67128606,58.4242948 C6.5612788,48.9791011 9.98380118,41.8489059 6.28377698,33.0519118 C5.82127396,31.9407125 5.35877093,30.8295132 4.8037673,29.718314 C2.95375521,25.5513168 1.10374311,21.3843196 0.54873948,16.8469226 C-0.191265359,11.1983264 1.56624613,4.62373075 6.46877819,1.66053273 C9.98380118,-0.469265852 14.6088314,-0.376665914 18.4013562,1.29013297 C22.193881,2.95693186 25.246401,6.01272982 27.5589161,9.43892753 C34.1264591,19.161921 35.2364663,31.5703127 33.201453,42.8675052 Z" id="Shape" fill="#236DDB" fill-rule="nonzero"></path>
                                            <path d="M15.9963405,11.4761262 C23.2113877,21.7547193 23.8588919,33.6075114 24.5063961,46.201103 C25.1539004,58.7020946 22.1013804,71.3882862 15.9038399,82.3150789" id="Shape" stroke="#0B43A4" stroke-linecap="round" stroke-linejoin="round"></path>
                                        </g>
                                        <g transform="translate(39.142896, 145.451025) rotate(-62.000000) translate(-39.142896, -145.451025) translate(18.642896, 112.451025)">
                                            <path d="M28.2126845,54.4487636 C23.1251512,50.0039666 18.037618,45.3739697 14.2450932,39.7253735 C11.007572,34.8175767 8.88005807,29.2615805 6.01253932,24.0759839 C4.16252722,20.7423861 2.03501331,17.5013883 0.925006049,13.7973908 C-0.18500121,10.0933933 0.0925006049,5.74119617 2.68251754,2.96319802 C5.36503508,0.0925999382 10.0825659,-0.370399753 13.7825901,1.11119926 C17.4826143,2.59279827 20.2576325,5.74119617 22.477647,9.07479394 C25.3451657,13.519591 27.2876784,18.6125876 28.0276833,23.7981841 C28.7676881,28.520781 28.5826869,33.4285777 29.3226917,38.1511745 C29.970196,42.5959716 31.4502057,46.8555687 33.3927184,50.837366 C35.0577292,54.5413636 39.4052577,61.0233592 40.5152649,64.8199567 C37.462745,66.4867556 30.432699,56.3933623 28.2126845,54.4487636 Z" id="Shape" fill="#00AD9F" fill-rule="nonzero"></path>
                                            <path d="M10.4525684,7.96359468 C15.2625998,10.0933933 17.2051125,15.8345894 18.2226192,21.020186 C19.3326264,26.946582 19.1476252,33.3359777 21.8301428,38.6141742 C26.917676,48.7075675 33.5777196,60.1899598 38.4802516,63.6161575" id="Shape" stroke="#047D74" stroke-linecap="round" stroke-linejoin="round"></path>
                                        </g>
                                        <g transform="translate(38.980058, 161.495184) rotate(-50.000000) translate(-38.980058, -161.495184) translate(11.980058, 145.495184)">
                                            <path d="M13.8688266,1.75939882 C9.61379876,0.0925999382 4.06376247,-0.555599629 1.28874432,3.05579796 C-0.931270198,6.11159592 0.17873706,10.463793 1.75124734,13.8899907 C3.04625581,16.8531887 4.7112667,19.8163868 7.48628485,21.3905857 C9.42879755,22.501785 11.6488121,22.7795848 13.776326,23.0573846 C19.7888653,23.7981841 25.8939052,24.1685839 31.9989451,24.0759839 C39.0289911,24.0759839 47.6315474,26.946582 53.4590855,31.391379 C46.1515377,17.4087884 28.0214191,7.40799505 13.8688266,1.75939882 Z" id="Shape" fill="#0056EC" fill-rule="nonzero"></path>
                                            <path d="M6.46877819,10.8341928 C11.8338133,11.0193926 17.1988484,11.4823923 22.3788822,12.9639913 C27.6514167,14.5381903 47.9090492,23.7981841 51.0540697,27.7799814" id="Shape" stroke="#0B43A4" stroke-linecap="round" stroke-linejoin="round"></path>
                                        </g>
                                        <g transform="translate(0.438109, 77.691415)">
                                            <path d="M70.4854609,67.5979549 C65.0279252,58.9861606 55.5928635,52.9671646 45.5102976,51.6707655 C38.0177486,50.6521662 30.3401984,52.0411652 23.0326506,50.4669663 C15.2625998,48.8001674 8.32505444,43.8923707 4.25502782,37.0399753 C0.18500121,30.2801798 -0.832505444,21.7609855 1.48000968,14.1677905 C3.23752117,8.42659437 7.12254658,2.96319802 12.8575841,1.11119926 C16.0026046,0.0925999382 19.425127,0.277799814 22.5701476,1.01859932 C25.5301669,1.75939882 28.2126845,2.96319802 30.7102008,4.53739697 C36.4452383,8.14879456 41.0702686,13.7973908 44.5852916,19.7237868 C47.7303121,25.1871832 55.5928635,33.6137775 60.9578986,39.0771739 C64.1029192,42.3181717 66.3229337,44.4479703 66.3229337,44.4479703 C70.0229579,49.0779672 68.357947,62.1345585 70.4854609,67.5979549 Z" id="Shape" fill="#52D2BC" fill-rule="nonzero"></path>
                                            <path d="M11.1925732,17.7791881 C29.1376905,25.8353827 48.6553182,36.4843756 61.327901,51.4855656" id="Shape" stroke="#00AD9F" stroke-linecap="round" stroke-linejoin="round"></path>
                                        </g>
                                        <g transform="translate(43.123705, 87.241520) rotate(-26.000000) translate(-43.123705, -87.241520) translate(22.623705, 31.741520)">
                                            <path d="M39.0352553,110.09506 C39.0352553,110.09506 12.3025804,88.4266748 6.75254416,65.1840903 C12.4875817,68.7954879 17.1126119,74.4440841 20.6276349,80.3704802 C23.7726555,85.8338765 31.6352069,94.2604709 37.000242,99.7238672 C37.5552456,102.687065 38.2952504,106.020663 39.0352553,110.09506 Z" id="Shape" fill="#5275A0" fill-rule="nonzero" opacity="0.2"></path>
                                            <path d="M40.2377631,23.8845179 C37.8327474,31.3851129 34.410225,38.607908 30.9877026,45.7381033 C29.2301911,49.4421008 21.9226434,58.0538951 18.037618,59.7206939 C18.500121,49.9977004 18.500121,38.700508 17.3901137,28.8849145 C16.2801065,19.4397209 19.7026288,12.3095256 16.0026046,3.51253149 C15.5401016,2.40133223 15.0775986,1.29013297 14.522595,0.178933715 C14.8925974,0.271533653 15.1700992,0.364133591 15.5401016,0.549333468 C21.6451415,3.14213174 24.4201597,9.62412741 24.9751633,15.8283233 C25.4376663,21.0139198 24.5126603,26.1995163 23.7726555,31.2925129 C23.4951536,33.7001113 23.2176518,36.1077097 23.6801548,38.4227082 C23.6801548,38.4227082 23.6801548,38.5153081 23.6801548,38.5153081 C24.3276591,41.2933063 28.3976857,41.1081064 28.8601887,38.3301082 L30.5251996,29.718314 C30.9877026,27.1255157 31.5427063,24.4401175 33.6702202,22.6807187 C34.5027256,21.9399192 35.6127329,21.5695194 36.6302395,21.5695194 C38.4802516,21.5695194 39.4977583,22.5881187 40.2377631,23.8845179 Z" id="Shape" fill="#5275A0" fill-rule="nonzero" opacity="0.2"></path>
                                            <path d="M39.0352553,104.631664 C34.7802274,82.5928787 32.5602129,79.166681 34.410225,73.7032846 C36.8152407,66.6656893 35.4277317,59.5354941 37.6477462,52.4978988 C39.8677607,45.3677035 41.440271,37.7745086 39.5902589,30.5517134 C39.0352553,28.236715 37.8327474,25.8291166 35.1502299,25.7365166 C34.0402226,25.7365166 33.0227159,26.1069164 32.1902105,26.8477159 C30.0626966,28.6071147 29.507693,31.3851129 29.0451899,33.8853112 L27.4726796,42.4971055 C26.917676,45.2751036 22.94015,45.4603035 22.2926458,42.6823053 C22.2926458,42.6823053 22.2926458,42.5897054 22.2926458,42.5897054 C21.7376421,40.2747069 22.015144,37.8671085 22.3851464,35.4595102 C23.0326506,30.2739136 24.0501573,25.180917 23.5876542,19.9953205 C23.0326506,13.6985247 20.2576325,7.30912895 14.1525925,4.71633068 C12.0250786,3.7903313 9.5275623,3.60513143 7.30754779,4.16073106 C0.925006049,5.82752994 -0.740004839,12.0317258 0.277501815,17.3099223 C0.925006049,21.0139198 2.68251754,24.4401175 4.25502782,27.9589152 C8.14005323,36.3855095 5.27253448,44.0713044 5.82753811,53.3312982 C7.21504718,78.8888811 39.0352553,104.631664 39.0352553,104.631664 Z" id="Shape" fill="#7EE8D4" fill-rule="nonzero"></path>
                                            <path d="M10.6375696,10.8279266 C13.7825901,26.4773162 16.9276107,42.3119056 23.0326506,57.1278957 C24.7901621,61.4800928 25.7151682,67.128689 35.9827353,78.9814811" id="Shape" stroke="#00AD9F" stroke-linecap="round" stroke-linejoin="round"></path>
                                        </g>
                                    </g>
                                </g>
                            </g>
                            <g id="Group-2" transform="translate(307.188841, 46.900240)">
                                <g id="Group" transform="translate(104.264100, 233.573417) rotate(-90.000000) translate(-104.264100, -233.573417) translate(59.264100, 166.573417)">
                                    <path d="M3.97063165,108.092954 C11.0153007,96.580095 7.42892373,81.741299 9.86253668,68.5654714 C11.7838101,58.331819 17.4195453,48.9936111 25.4888935,42.4696577 C30.6122892,38.3761967 37.7850431,35.5619423 43.5488633,38.632038 C44.8297122,39.2716413 46.238646,40.1670859 47.5194949,39.5274826 C48.2880043,39.1437206 48.544174,38.2482761 48.6722589,37.3528315 C50.0811927,30.1892747 46.7509856,22.3861147 49.4407683,15.60632 C50.977787,12.0245416 54.0518244,9.21028721 57.3820316,7.16355672 C63.7862762,3.07009574 71.2151999,0.767523934 78.9002934,0.383761967 C80.9496517,0.255841311 82.99901,0.383761967 84.7921985,1.27920656 C87.9943208,2.94217508 89.5313395,6.90771541 89.1470848,10.6174144 C88.7628301,14.1991928 86.7134718,17.3972092 84.5360287,20.3393843 C77.2351898,29.9334334 66.347974,38.2482761 64.9390402,50.2728177 C64.8109553,51.8078656 64.8109553,53.3429134 65.4513798,54.7500406 C66.0918042,56.0292472 67.3726532,57.0526124 68.1411625,58.331819 C70.4466906,62.42528 66.0918042,67.1583442 61.7369179,69.2050747 C57.8943712,71.1238846 53.5394848,72.2751705 49.3126834,72.6589324 C46.3667309,72.9147737 43.0365237,73.0426944 40.9871654,75.2173455 C37.2727036,79.3108065 41.499505,85.7068393 40.7309956,91.2074275 C40.2186561,94.6612852 37.7850431,97.347619 35.3514302,99.6501908 C30.7403741,103.999493 25.7450633,107.965033 20.3654978,111.418891 C16.0106115,114.233146 11.3995554,116.663638 7.55700862,120.117496 C3.71446187,123.571353 0.64042446,128.176497 0.384254676,133.293323" id="Shape" fill="#5193F4" fill-rule="nonzero"></path>
                                    <path d="M13.1927439,96.963857 C14.3455079,91.3353482 16.9072057,86.2185219 19.4689036,81.1016957 C23.4395352,73.1706151 27.5382518,65.1116137 33.6863266,58.5876603 C38.2973827,53.5987547 43.9331179,49.7611351 48.6722589,44.9001501 C52.0024661,41.4462924 54.8203337,37.4807521 57.1258618,33.2593705 C58.2786258,30.9567987 59.4313899,28.5263062 60.9684086,26.4795757 C62.8896819,24.0490833 65.5794647,22.3861147 67.8849927,20.2114636 C70.9590301,17.3972092 73.520728,13.9433515 75.1858316,10.1057318" id="Shape" stroke="#0B43A4" stroke-linecap="round" stroke-linejoin="round"></path>
                                </g>
                                <g id="Group" transform="translate(131.690127, 304.896177) rotate(-60.000000) translate(-131.690127, -304.896177) translate(85.690127, 257.396177)">
                                    <path d="M91.315854,94.6526289 C86.8328828,89.5358027 82.6060814,84.2910558 78.2511951,79.3021502 C75.4333274,76.1041338 72.4873749,72.9061175 69.2852526,69.8360217 C67.7482339,68.3009739 66.0831303,66.8938466 64.4180267,65.4867194 C54.2993203,57.1718768 42.8997649,50.1362407 30.859785,45.0194145 C23.5589462,41.9493188 15.8738527,39.3909057 9.59769297,34.4020001 C3.44961816,29.4130945 -1.03335306,21.2261726 1.01600522,13.6788539 C2.55302392,8.17826568 7.16408003,3.82896339 12.6717304,1.91015355 C18.0512958,-0.00865628497 24.0712858,0.119264371 29.5789361,1.27055027 C45.2052929,4.59648732 58.2699519,15.853505 67.1078095,29.1572532 C67.2358943,29.4130945 67.3639792,29.6689358 67.620149,29.9247771 C74.1524785,39.9025883 78.6354497,50.9037647 82.6060814,62.0328617 C83.8869303,65.6146401 85.0396943,69.3243391 86.3205432,72.9061175 C88.1137317,78.1508643 93.6213821,89.2799614 91.315854,94.6526289 Z" id="Shape" fill="#5193F4" fill-rule="nonzero"></path>
                                    <path d="M19.8444843,14.1905365 C36.879775,17.3885529 48.9197548,28.7734912 61.6001591,40.5421916 C74.2805634,52.3108919 83.3745907,67.9172119 87.7294771,84.6748178" id="Shape" stroke="#0B43A4" stroke-linecap="round" stroke-linejoin="round"></path>
                                </g>
                                <g id="Group" transform="translate(127.018063, 269.543036) rotate(-90.000000) translate(-127.018063, -269.543036) translate(105.018063, 225.543036)">
                                    <path d="M12.9279002,80.5813568 C12.7998153,82.372246 12.7998153,84.1631352 13.1840699,85.9540243 C8.95726852,84.9306591 6.011316,78.4067057 3.96195773,71.1152283 C2.04068435,64.0795922 1.14409011,56.5322735 0.759835431,53.0784158 C0.247495863,45.6590178 0.631750539,38.2396198 2.16876924,30.9481424 C8.70109873,40.9259535 13.1840699,51.9271299 17.1547016,63.056227 C15.7457678,67.149688 14.5930038,71.1152283 13.6964095,75.3366099 C13.4402397,77.1274991 13.0559851,78.7904676 12.9279002,80.5813568 Z" id="Shape" fill="#5275A0" fill-rule="nonzero" opacity="0.2"></path>
                                    <path d="M42.5155102,19.1794421 C41.1065764,25.5754749 37.2640296,31.076063 33.8057376,36.7045719 C32.0125491,39.646747 30.3474455,42.7168427 28.8104268,45.7869385 C23.815116,55.6368289 19.9725692,65.998402 17.4108714,76.7437371 C16.642362,80.3255155 16.1300225,83.6514525 16.7704469,87.2332309 C8.31684406,85.3144211 4.98663687,61.5211791 4.4742973,54.3576224 C3.44961816,41.5655568 5.62706132,28.5176499 10.8785419,16.7489496 C13.1840699,11.6321234 16.1300225,6.51529716 20.7410786,3.31728076 C25.3521347,-0.00865628497 31.7563793,-1.15994219 36.6236052,1.78223289 C39.5695577,3.44520142 41.3627462,6.3873765 42.2593404,9.58539289 C43.1559347,12.6554886 43.2840196,15.9814257 42.5155102,19.1794421 Z" id="Shape" fill="#52D2BC" fill-rule="nonzero"></path>
                                    <path d="M13.5683246,80.1975948 C8.31684406,67.149688 11.5189664,39.3909057 19.8444843,21.8657758 C22.4061822,16.621029 25.9925591,11.6321234 30.9878699,8.6899483" id="Shape" stroke="#00AD9F" stroke-linecap="round" stroke-linejoin="round"></path>
                                </g>
                                <g id="Group" transform="translate(139.125258, 233.351677) rotate(-90.000000) translate(-139.125258, -233.351677) translate(105.125258, 186.351677)">
                                    <path d="M18.2133977,10.2249962 C16.8044638,16.621029 12.9619171,22.1216171 9.503625,27.750126 C7.71043652,30.6923011 6.04533292,33.7623968 4.50831422,36.8324926 C2.20278616,32.9948729 0.66576746,28.6455706 0.153427892,24.2962683 C-0.61508146,16.8768703 2.33087105,8.94578961 8.35086098,4.46856666 C11.1687286,2.42183617 14.4989358,1.27055027 17.9572279,0.758867649 C18.8538221,3.70104273 18.981907,7.02697978 18.2133977,10.2249962 Z" id="Shape" fill="#5275A0" fill-rule="nonzero" opacity="0.2"></path>
                                    <path d="M66.7575717,65.7425607 C66.373317,68.1730532 65.6048077,70.475625 64.5801285,72.7781968 C60.8656667,80.8371981 53.0524883,87.7449135 41.2686782,93.3734224 C41.2686782,93.3734224 40.6282537,80.5813568 40.5001689,77.2554198 C39.9878293,62.672465 24.1053027,54.6134637 13.9865962,43.8681286 C8.86320054,38.4954611 5.02065379,31.5877457 4.25214443,24.1683476 C3.48363508,16.7489496 6.4295876,8.81786896 12.4495775,4.34064601 C17.5729732,0.630946993 24.1053027,-0.136576941 30.3814624,0.375105682 C40.5001689,1.14262962 50.6188753,5.36401125 56.895035,13.2950919 C57.1512048,13.5509332 57.4073746,13.9346952 57.6635444,14.1905365 C61.5060911,19.4352834 63.4273645,25.8313162 64.9643832,32.0994283 C67.3979962,43.1006047 68.5507602,54.6134637 66.7575717,65.7425607 Z" id="Shape" fill="#00AD9F" fill-rule="nonzero"></path>
                                    <path d="M16.8044638,12.2717267 C27.8197646,17.9002355 38.8350653,24.8079509 45.2393099,35.4253653 C54.2052523,50.1362407 52.155894,69.3243391 45.3673947,85.1865004" id="Shape" stroke="#00AD9F" stroke-linecap="round" stroke-linejoin="round"></path>
                                </g>
                                <g id="Group" transform="translate(126.908708, 155.841040) rotate(-90.000000) translate(-126.908708, -155.841040) translate(67.408708, 88.341040)">
                                    <path d="M14.2087491,98.3709842 C13.8244944,100.801477 13.0559851,103.104048 12.0313059,105.40662 C6.65174046,93.8937613 1.78451457,78.7991239 0.631750539,60.3785495 C0.375580755,55.3896439 1.65642967,50.2728177 4.34621241,45.9235154 C4.60238219,46.1793567 4.85855197,46.5631187 5.11472176,46.81896 C8.95726852,52.0637069 10.8785419,58.4597396 12.4155606,64.7278518 C14.8491735,75.7290282 16.0019376,87.2418872 14.2087491,98.3709842 Z" id="Shape" fill="#5275A0" fill-rule="nonzero" opacity="0.2"></path>
                                    <path d="M67.8763188,97.7313809 C79.4039591,93.63792 91.4439389,90.3119829 102.074985,84.0438708 C105.277107,82.125061 108.351145,79.9504098 110.528588,77.0082347 C112.834116,74.0660596 114.114965,70.3563606 113.73071,66.6466616 C113.218371,62.9369626 110.784758,59.3551842 111.681352,55.6454852 C112.193691,53.2149928 113.98688,51.2961829 115.395814,49.2494524 C118.726021,44.3884675 119.7507,37.9924347 117.957512,32.2360052 C116.164323,26.0958138 111.553267,21.2348288 108.991569,15.4783993 C106.814126,10.7453351 106.045617,5.37266754 106.814126,0.255841311 C97.0796742,0.383761967 88.2418166,5.62850885 78.6354497,7.41939803 C71.3346109,8.82652524 63.7776023,8.05900131 56.4767634,9.72196983 C43.2840196,12.7920656 32.5248886,24.3049246 30.4755304,37.7365934 C24.3274555,36.7132282 17.7951261,38.8878793 13.4402397,43.3651023 C8.95726852,48.2260872 6.39557068,55.0058819 6.77982535,61.657756 C9.72577787,109.500081 37.2640296,134.57253 37.2640296,134.57253 C37.2640296,134.57253 63.3933476,99.2664288 67.8763188,97.7313809 Z" id="Shape" fill="#7EE8D4" fill-rule="nonzero"></path>
                                    <g transform="translate(26.897827, 11.512859)" id="Shape" stroke="#00AD9F" stroke-linecap="round" stroke-linejoin="round">
                                        <path d="M14.9772584,85.83476 C13.8244944,74.0660596 17.923211,62.2973593 22.662352,51.4241036 C27.2734081,40.8066892 32.6529735,30.4451161 39.6976426,21.3627495 C46.8703965,12.2803829 55.9644239,4.47722295 66.5954699,-1.42108547e-14"></path>
                                        <path d="M25.3521347,7.29147737 C24.1993707,17.7809711 24.96788,30.4451161 27.7857476,40.8066892"></path>
                                        <path d="M29.707021,36.9690695 C41.7470009,29.2938302 60.3193102,24.5607659 74.5367332,25.3282898"></path>
                                        <path d="M0.247495863,38.8878793 C14.7210887,45.0280708 15.3615131,66.2628996 15.7457678,72.2751705"></path>
                                        <path d="M49.9444339,1.79088918 C46.6142267,5.88435016 45.7176325,10.7453351 46.1018872,14.1991928"></path>
                                        <path d="M49.3040095,11.2570177 C54.4274052,8.69860459 61.2159044,8.05900131 68.5167433,9.84989049"></path>
                                    </g>
                                </g>
                                <g id="Group" transform="translate(90.412415, 287.826368) rotate(-90.000000) translate(-90.412415, -287.826368) translate(20.912415, 198.326368)">
                                    <path d="M20.228739,58.0673214 C21.6376728,57.9394007 30.859785,51.159606 34.446162,48.8570342 C35.4708411,48.2174309 36.4955203,47.5778276 37.1359447,46.5544624 C37.7763692,45.5310971 38.1606239,44.2518906 37.6482843,43.2285253 C37.0078598,41.8213981 35.9831807,40.5421916 33.293398,40.5421916 C28.6823419,40.5421916 27.0172383,42.0772394 24.8397951,44.3798112 C17.4108714,51.9271299 20.228739,58.0673214 20.228739,58.0673214 Z" id="Shape" fill="#4A49CA" fill-rule="nonzero"></path>
                                    <path d="M61.8563289,85.698183 C65.9550454,87.4890722 70.1818469,89.2799614 74.6648181,88.7682788 C76.3299217,88.5124375 78.2511951,87.7449135 78.7635346,86.2098656 C79.2758742,84.8027384 78.6354497,83.2676906 77.4826857,82.2443253 C76.3299217,81.2209601 74.9209879,80.8371981 73.5120541,80.4534361 C68.1324886,79.1742296 60.57548,79.8138329 55.1959145,81.3488807 C55.1959145,81.3488807 59.4227159,84.6748178 61.8563289,85.698183 Z" id="Shape" fill="#4A49CA" fill-rule="nonzero"></path>
                                    <path d="M88.4979864,26.0871575 C86.7047979,24.9358716 84.6554396,23.4008237 84.6554396,21.3540932 C84.6554396,19.1794421 86.8328828,17.6443942 89.010326,17.5164735 C91.1877691,17.5164735 93.1090425,18.6677594 94.7741461,20.0748867 C101.562645,26.0871575 100.794136,32.8669522 100.794136,32.8669522 C100.794136,32.8669522 90.5473447,27.366364 88.4979864,26.0871575 Z" id="Shape" fill="#4A49CA" fill-rule="nonzero"></path>
                                    <path d="M93.8775519,7.79450371 C92.3405332,7.15490043 90.6754296,6.25945584 89.7788353,4.85232863 C89.2664958,4.0848047 89.010326,3.18936011 89.3945807,2.42183617 C89.9069202,1.14262962 90.6754296,-0.136576941 94.0056368,0.503026338 C104.508598,2.42183617 106.814126,9.58539289 106.814126,9.58539289 C106.814126,9.58539289 96.6954195,9.07371027 93.8775519,7.79450371 Z" id="Shape" fill="#4A49CA" fill-rule="nonzero"></path>
                                    <path d="M124.874096,23.7845857 C129.100897,23.4008237 133.455783,21.3540932 136.145566,18.0281562 C137.170245,16.7489496 138.06684,15.3418224 138.451094,13.8067745 C138.835349,12.2717267 138.451094,10.4808375 137.170245,9.32955158 C135.633227,8.05034502 133.327699,8.30618633 131.662595,9.32955158 C129.997491,10.3529168 128.972812,12.143806 128.076218,13.9346952 C127.051539,16.3651876 124.874096,23.7845857 124.874096,23.7845857 Z" id="Shape" fill="#4A49CA" fill-rule="nonzero"></path>
                                    <path d="M49.1759246,178.184817 C38.9291332,169.102451 28.6823419,160.148005 18.4355505,151.065638 C12.9279002,146.204653 7.42024981,141.343668 3.96195773,134.947635 C-3.466966,121.132205 0.759835431,103.223313 10.8785419,91.3266919 C20.9972484,79.3021502 35.7270109,72.2665142 50.4567735,67.0217673 C65.314621,61.9049411 80.684808,58.1952421 94.7741461,51.4154473 C103.612004,47.1940657 112.577946,40.7980329 114.883474,31.2039837 C116.292408,25.4475542 115.139644,19.1794421 111.681352,14.3184572 C108.22306,9.58539289 102.45924,6.51529716 96.5673346,6.13153519" id="Shape" stroke="#0B43A4" stroke-linecap="round" stroke-linejoin="round"></path>
                                    <path d="M132.04685,14.0626158 C129.228982,22.6332998 118.341766,27.8780467 113.346455,35.2974447" id="Shape" stroke="#0B43A4" stroke-linecap="round" stroke-linejoin="round"></path>
                                    <path d="M92.8528727,23.9125063 C95.0303159,26.2150781 97.5920137,28.0059673 99.5132871,30.5643804 C103.483919,35.8091273 103.868173,44.3798112 97.9762684,49.7524788" id="Shape" stroke="#0B43A4" stroke-linecap="round" stroke-linejoin="round"></path>
                                    <path d="M37.5201994,72.0106729 C46.6142267,78.9183883 58.5261217,83.6514525 69.9256771,84.0352145" id="Shape" stroke="#0B43A4" stroke-linecap="round" stroke-linejoin="round"></path>
                                    <path d="M16.7704469,84.6748178 C12.5436455,72.3944348 17.1547016,57.6835594 27.5295778,49.8803994" id="Shape" stroke="#0B43A4" stroke-linecap="round" stroke-linejoin="round"></path>
                                </g>
                                <g id="Group" transform="translate(117.107198, 61.521517) rotate(-90.000000) translate(-117.107198, -61.521517) translate(55.607198, -16.478483)">
                                    <path d="M1.28084892,7.93108065 C0.768509352,6.39603278 0.768509352,4.6051436 1.92127338,3.4538577 C2.81786762,2.55841311 4.35488633,2.17465115 5.50765035,2.68633377 C14.4735928,6.6518741 13.5769985,20.7231462 13.5769985,20.7231462 C13.5769985,20.7231462 4.99531079,19.316019 1.28084892,7.93108065 Z" id="Shape" fill="#4A49CA" fill-rule="nonzero"></path>
                                    <path d="M1.15276403,34.1548151 C-4.61105611,44.6443088 16.0106115,43.8767849 23.4395352,37.7365934 C23.4395352,37.7365934 6.14807481,25.2003692 1.15276403,34.1548151 Z" id="Shape" fill="#4A49CA" fill-rule="nonzero"></path>
                                    <path d="M27.282082,8.69860459 C25.8731482,6.77979475 25.3608086,3.96554033 26.8978273,2.04673049 C28.0505913,0.639603278 29.9718647,0.255841311 31.7650532,0.639603278 C33.5582417,1.02336525 36.1199395,2.55841311 37.2727036,3.96554033 C44.0612028,12.4083036 40.8590805,20.7231462 40.8590805,20.7231462 C40.8590805,20.7231462 29.58761,11.896621 27.282082,8.69860459 Z" id="Shape" fill="#4A49CA" fill-rule="nonzero"></path>
                                    <path d="M109.512583,34.7944183 C109.000243,33.1314498 109.128328,31.21264 110.409177,30.0613541 C111.177686,29.2938302 112.33045,29.0379888 113.483214,29.1659095 C114.507893,29.2938302 115.532573,29.6775921 116.557252,30.0613541 C118.60661,31.0847193 120.271714,32.7476879 121.296393,34.7944183 C123.858091,40.0391652 122.064902,46.5631187 122.064902,46.5631187 C122.064902,46.5631187 110.793432,38.8878793 109.512583,34.7944183 Z" id="Shape" fill="#4A49CA" fill-rule="nonzero"></path>
                                    <path d="M83.6394344,53.9825167 C79.9249726,50.7845003 74.4173222,49.7611351 69.934351,51.8078656 C68.781587,52.3195482 67.7569078,52.9591515 66.9883985,53.9825167 C65.3232949,56.2850885 65.9637193,59.4831049 67.6288229,61.7856767 C69.2939265,63.9603278 71.8556244,65.3674551 74.4173222,66.518741 C79.0283783,68.5654714 86.2011323,69.0771541 91.0683582,70.22844 C91.0683582,70.22844 91.0683582,60.5064701 83.6394344,53.9825167 Z" id="Shape" fill="#4A49CA" fill-rule="nonzero"></path>
                                    <path d="M7.81317841,10.2336525 C10.8872158,20.2114636 19.4689036,27.7587823 29.0752705,31.7243226 C38.6816374,35.8177836 49.1845985,36.8411488 59.6875596,37.4807521 C70.0624359,38.1203554 80.565397,38.5041174 90.6841035,41.1904511 C100.54664,43.8767849 110.281092,49.3773731 114.507893,58.5876603 C119.631289,69.844678 115.148318,83.2763469 107.847479,93.254158 C100.674725,103.35989 90.9402733,111.418891 84.0236891,121.652544 C80.8215668,126.385608 78.1317841,131.886196 78.7722085,137.514705 C79.6688028,145.062024 85.9449625,150.562612 91.8368675,155.295676" id="Shape" stroke="#0B43A4" stroke-linecap="round" stroke-linejoin="round"></path>
                                    <path d="M31.7650532,6.52395344 C38.6816374,14.1991928 44.1892877,26.0958138 45.4701366,36.2015456" id="Shape" stroke="#0B43A4" stroke-linecap="round" stroke-linejoin="round"></path>
                                    <path d="M8.58168776,35.9457042 C12.5523194,36.9690695 16.5229511,37.9924347 20.6216676,37.9924347 C24.7203841,37.9924347 29.4595251,35.6898629 32.4054777,32.8756085" id="Shape" stroke="#0B43A4" stroke-linecap="round" stroke-linejoin="round"></path>
                                    <path d="M116.301082,35.306101 C120.015544,38.8878793 122.192987,43.8767849 122.449157,48.9936111 C122.577242,54.1104374 119.759374,60.3785495 116.429167,64.2161692" id="Shape" stroke="#0B43A4" stroke-linecap="round" stroke-linejoin="round"></path>
                                    <path d="M77.6194445,58.5876603 C85.0483682,65.3674551 91.4526128,70.8680433 99.6500459,76.6244728 C103.364508,79.3108065 110.793432,82.6367436 114.123639,81.741299" id="Shape" stroke="#0B43A4" stroke-linecap="round" stroke-linejoin="round"></path>
                                </g>
                            </g>
                            <g id="Group" transform="translate(449.043306, 415.678561) scale(-1, 1) translate(-449.043306, -415.678561) translate(396.043306, 358.678561)">
                                <g id="Group-4">
                                    <path d="M9.12910475,95.5866254 C9.92506086,73.7238224 21.2674355,53.4510415 35.1966675,36.3583046 C46.7380311,22.0481063 60.4682741,9.12917726 77.5813306,2.57033637 C82.9540343,0.582808828 88.9237052,-0.808460452 94.495398,0.582808828 C100.067091,1.97407811 105.041817,6.74414421 105.240806,12.5079741 C105.240806,17.2780402 102.056981,21.6506008 98.6741676,25.0293976 C87.331793,36.3583046 72.8055939,43.5134038 59.2743399,51.6622667 C35.7936346,65.7737122 13.5068634,84.6552239 4.15437903,110.493082" id="Shape" fill="#52D2BC" fill-rule="nonzero"></path>
                                    <path d="M17.685633,76.506361 C32.012843,44.5071675 69.0248023,16.0855237 93.5004529,12.5079741" id="Shape" stroke="#00AD9F" stroke-linecap="round" stroke-linejoin="round"></path>
                                    <path d="M0.384502502,113.397997 C0.185513474,109.820447 12.1248552,100.081562 14.9107016,97.6965294 C29.8348787,84.1813422 47.7438913,74.2437044 66.44886,68.2811218 C74.0104431,65.8960888 82.1689932,64.107314 89.7305763,66.0948415 C97.2921594,67.8836163 104.256775,74.2437044 105.052732,82.3925674 C105.848688,90.3426775 100.475984,98.094035 93.7103569,102.06909 C86.9447299,105.845392 78.9851688,106.441651 71.2245967,106.044145 C59.484244,105.447887 47.9428803,102.466596 36.2025276,102.466596 C24.462175,102.466596 7.74709656,103.659112 0.384502502,113.397997 Z" id="Shape" fill="#00AD9F" fill-rule="nonzero"></path>
                                    <path d="M12.5228332,102.267843 C36.6005057,89.150161 73.0154979,80.8025453 99.4810387,83.9825894" id="Shape" stroke="#00AD9F" stroke-linecap="round" stroke-linejoin="round"></path>
                                </g>
                            </g>
                            <g id="Group" transform="translate(427.737256, 120.564585) scale(-1, 1) translate(-427.737256, -120.564585) translate(372.237256, 76.564585)">
                                <g id="Group-3">
                                    <path d="M108.991569,35.5619423 C107.45455,41.5742131 105.020937,47.5864839 101.050306,52.4474688 C98.2324382,55.7734059 94.7741461,58.331819 91.0596842,60.5064701 C89.1384109,61.657756 87.0890526,62.5532006 85.0396943,63.4486452 C76.9703461,66.7745823 68.3886584,68.6933921 59.6788857,69.0771541 C46.9984814,69.5888367 34.0619073,66.7745823 21.8938426,70.3563606 C16.2581074,72.0193292 11.1347117,74.9615042 7.03599514,79.0549652 C4.34621241,81.4854577 2.16876924,84.4276328 0.375580755,87.4977285 L2.04068435,77.0082347 C5.11472176,65.751217 8.18875916,54.238358 14.4649189,44.3884675 C18.4355505,37.9924347 23.6870311,32.3639259 29.3227663,27.2470997 C38.2887088,19.0601777 48.1512454,11.7687003 59.0384613,6.52395344 C67.8763188,2.3025718 77.6107706,-0.767523934 87.3452224,0.383761967 C97.0796742,1.53504787 106.557956,7.67523934 109.631994,17.0134472 C111.425182,22.8977974 110.528588,29.4217508 108.991569,35.5619423 Z" id="Shape" fill="#5193F4" fill-rule="nonzero"></path>
                                    <path d="M10.1100325,68.9492334 C19.4602297,55.2617233 33.293398,44.6443088 49.0478397,39.399562 C58.9103764,36.0736249 69.2852526,34.922339 79.1477893,31.9801639 C89.1384109,29.1659095 99.0009475,24.3049246 104.892853,15.7342406" id="Shape" stroke="#0B43A4" stroke-linecap="round" stroke-linejoin="round"></path>
                                    <path d="M91.2680249,60.8651827 C89.3467515,62.0164686 87.2973932,62.9119132 85.2480349,63.8073578 C77.1786867,67.1332948 68.596999,69.0521046 59.8872263,69.4358666 C47.206822,69.9475492 34.2702479,67.1332948 22.1021832,70.7150732 C16.466448,72.3780417 11.3430523,75.3202168 7.24433575,79.4136778 C6.86008108,79.6695191 6.34774151,79.7974397 5.96348683,80.053281 C4.9388077,71.4825971 26.3289846,60.3535001 32.8613141,57.411325 C44.5170393,52.1665781 57.7097832,49.8640063 70.5182724,50.8873715 C76.1540076,51.3990542 81.9178277,52.4224194 86.5288839,55.6204358 C88.3220723,56.8996424 90.1152608,58.6905315 91.2680249,60.8651827 Z" id="Shape" fill="#5275A0" fill-rule="nonzero" opacity="0.2"></path>
                                    <path d="M70.3901875,55.8762771 C76.0259227,56.2600391 81.7897429,57.411325 86.400799,60.6093414 C91.0118551,63.8073578 94.3420623,69.4358666 93.1892982,75.0643755 C91.9084493,81.4604082 85.2480349,85.6817899 78.8437903,86.4493138 C72.4395457,87.2168378 65.7791314,85.4259486 59.3748868,84.146742 C45.1574638,81.2045669 30.5557861,80.5649637 16.0821933,82.2279322 C12.4958163,82.6116941 9.03752424,83.3792181 5.96348683,85.1701073 C4.9388077,76.5994233 26.3289846,65.4703263 32.8613141,62.5281512 C44.5170393,57.2834043 57.5816983,54.8529119 70.3901875,55.8762771 Z" id="Shape" fill="#52D2BC" fill-rule="nonzero"></path>
                                    <path d="M11.4711372,79.6695191 C22.1021832,70.3313112 49.2561803,64.0631991 68.596999,66.1099296 C74.3608191,66.7495328 80.2527242,68.4125014 84.7356954,72.250121" id="Shape" stroke="#00AD9F" stroke-linecap="round" stroke-linejoin="round"></path>
                                </g>
                            </g>
                        </g>
                    </g>
                </g>
                <g id="Group-14-Copy" opacity="0.499037591" mask="url(#mask-3)">
                    <g transform="translate(772.000000, 438.000000) scale(-1, 1) translate(-772.000000, -438.000000) translate(-40.000000, -350.000000)">
                        <g id="Hero">
                            <path d="M1468.78472,888.408556 C1459.53359,474.540641 1153.35148,159.39863 832.70472,227.214587 C666.163628,255.038187 444.812992,301.259016 287.554245,407.654305 C128.547254,509.540926 33.621745,671.602008 79.5547855,826.830365 C119.077597,980.013553 261.486672,1080.78463 387.433113,1218.41523 C520.799187,1346.07099 637.681813,1510.58627 797.583739,1561.22281 C1122.38257,1655.58878 1477.83813,1282.29889 1468.78472,888.408556" id="Combined-Shape" fill="url(#linearGradient-4)" opacity="0.607959692"></path>
                            <g id="Group-6" transform="translate(0.973713, 0.000000)">
                                <path d="M1386.51716,257.023649 C1634.06719,527.340618 1636.78736,1017.32768 1373.91534,1127.63241 C1241.93476,1179.01642 1074.91389,1123.60502 913.624741,1090.88603 C749.656651,1063.05828 591.153627,1053.41162 472.166231,967.821287 C347.878583,884.280224 308.271445,719.532025 346.042382,562.058577 C379.942056,402.383345 439.89099,244.209749 527.888254,134.399426 C688.565289,-86.9763759 1126.5767,-27.1453053 1386.51716,257.023649 Z" id="Mask" fill="url(#linearGradient-5)" opacity="0.692651721" transform="translate(951.980614, 574.275647) rotate(180.000000) translate(-951.980614, -574.275647) "></path>
                                <g id="Group-5" transform="translate(189.501378, 1009.674171) scale(-1, 1) rotate(15.000000) translate(-189.501378, -1009.674171) translate(67.501378, 735.174171)">
                                    <g id="Group-16" transform="translate(0.969385, 0.205576)">
                                        <g id="Group" transform="translate(118.709835, 136.068116) rotate(-28.000000) translate(-118.709835, -136.068116) translate(70.209835, 8.068116)">
                                            <path d="M94.1976634,122.909201 C92.3410913,133.263757 89.6888455,143.352812 86.5061506,153.176365 C79.6103115,174.681982 69.797002,195.391094 59.9836925,215.834705 C54.9444255,226.454762 33.9916836,251.146396 22.8522512,255.925422 C24.1783741,228.047771 24.1783741,195.656595 20.9956792,167.513443 C17.8129842,140.432296 27.6262937,119.988685 17.0173104,94.766048 C15.6911875,91.5800307 14.3650646,88.3940134 12.7737172,85.2079961 C7.46922555,73.2604313 2.16473393,61.3128665 0.573386451,48.3032959 C-1.54841019,32.107708 3.49085684,13.2571058 17.5477596,4.76105966 C27.6262937,-1.34547347 40.8875227,-1.07997202 51.7617305,3.6990539 C62.6359383,8.47807983 71.3883495,17.2396274 78.018964,27.0631807 C96.8499092,54.9408319 100.032604,90.5180249 94.1976634,122.909201 Z" id="Shape" fill="#236DDB" fill-rule="nonzero"></path>
                                            <path d="M44.8658914,32.9042123 C65.5534087,62.3748722 67.4099808,96.3590566 69.2665528,132.467253 C71.1231249,168.309947 62.3707137,204.683644 44.6006668,236.012814" id="Shape" stroke="#0B43A4" stroke-linecap="round" stroke-linejoin="round"></path>
                                        </g>
                                        <g id="Group" transform="translate(110.115936, 413.382301) rotate(-62.000000) translate(-110.115936, -413.382301) translate(51.615936, 319.882301)">
                                            <path d="M80.8934971,156.114847 C66.3061451,143.370778 51.7187932,130.095706 40.8445854,113.900118 C31.5617251,99.8285416 25.4615597,83.8984552 17.2395977,69.0303745 C11.9351061,59.4723227 5.83494077,50.1797722 2.65224581,39.5597146 C-0.530449161,28.939657 0.265224581,16.4610893 7.69151284,8.49604609 C15.3830257,0.26550144 28.9094793,-1.06200576 39.5184625,3.18601729 C50.1274457,7.43404033 58.0841831,16.4610893 64.4495731,26.0191412 C72.6715351,38.7632103 78.2412513,53.3657895 80.3630479,68.2338702 C82.4848446,81.7744437 81.9543954,95.84602 84.076192,109.386593 C85.9327641,122.130663 90.1763574,134.343729 95.7460736,145.760291 C100.520116,156.380348 112.985671,174.965449 116.168366,185.851008 C107.415955,190.630034 87.258887,161.690377 80.8934971,156.114847 Z" id="Shape" fill="#00AD9F" fill-rule="nonzero"></path>
                                            <path d="M29.9703776,22.8331239 C43.7620558,28.939657 49.331772,45.4007463 52.2492424,60.268827 C55.4319373,77.2609192 54.9014882,95.5805186 62.593001,110.714101 C77.1803529,139.653758 96.2765227,172.575936 110.333426,182.39949" id="Shape" stroke="#047D74" stroke-linecap="round" stroke-linejoin="round"></path>
                                        </g>
                                        <g id="Group" transform="translate(110.594599, 460.061296) rotate(-50.000000) translate(-110.594599, -460.061296) translate(33.594599, 415.061296)">
                                            <path d="M39.7657261,4.04452737 C27.5653953,-0.73449856 11.6519205,-2.59300864 3.6951831,7.76154753 C-2.67020684,16.5230951 0.512488129,29.0016628 5.021306,38.8252161 C8.73445013,47.3212622 13.5084926,55.8173083 21.46523,60.3308327 C27.0349462,63.51685 33.4003361,64.3133543 39.5005015,65.1098587 C56.7400992,67.2338702 74.2449215,68.295876 91.7497438,68.0303745 C111.906812,68.0303745 136.572698,76.2609192 153.281847,89.0049883 C132.329105,48.9142708 80.3450869,20.2401152 39.7657261,4.04452737 Z" id="Shape" fill="#0056EC" fill-rule="nonzero"></path>
                                            <path d="M18.5477596,30.0636685 C33.9307853,30.5946714 49.313811,31.9221786 64.1663875,36.1702017 C79.2841886,40.6837261 137.368372,67.2338702 146.386007,78.6504321" id="Shape" stroke="#0B43A4" stroke-linecap="round" stroke-linejoin="round"></path>
                                        </g>
                                        <g id="Group" transform="translate(0.256180, 220.380805)">
                                            <path d="M202.10113,192.816052 C186.45288,168.124418 159.399973,150.866824 130.490494,147.149804 C109.007303,144.229288 86.9936624,148.21181 66.0409206,143.698285 C43.7620558,138.919259 23.8702123,124.847683 12.2003307,105.200576 C0.530449161,85.818971 -2.38702123,61.3928385 4.24359329,39.6217204 C9.28286032,23.1606311 20.4222927,7.49604609 36.8662167,2.18601729 C45.8838524,-0.73449856 55.6971619,-0.203495679 64.7147977,1.92051584 C73.2019842,4.04452737 80.8934971,7.49604609 88.0545608,12.0095706 C104.498485,22.3641268 117.759714,38.5597146 127.838248,55.5518068 C136.855884,71.2163918 159.399973,95.3770229 174.782999,111.041608 C183.800634,120.334158 190.166024,126.440691 190.166024,126.440691 C200.775007,139.715763 196.000965,177.151467 202.10113,192.816052 Z" id="Shape" fill="#52D2BC" fill-rule="nonzero"></path>
                                            <path d="M32.0921742,49.9762766 C83.5457429,73.0749019 139.508129,103.607568 175.843897,146.618801" id="Shape" stroke="#00AD9F" stroke-linecap="round" stroke-linejoin="round"></path>
                                        </g>
                                        <g id="Group" transform="translate(121.452319, 246.089609) rotate(-26.000000) translate(-121.452319, -246.089609) translate(63.452319, 88.089609)">
                                            <path d="M111.924773,315.663246 C111.924773,315.663246 35.2748692,253.535909 19.3613944,186.895048 C35.8053184,197.249604 49.0665474,213.445192 59.1450815,230.437284 C68.1627172,246.101869 90.7068066,270.2625 106.089832,285.927085 C107.68118,294.423131 109.802976,303.981183 111.924773,315.663246 Z" id="Shape" fill="#5275A0" fill-rule="nonzero" opacity="0.2"></path>
                                            <path d="M115.372693,68.4814054 C108.476853,89.987022 98.663544,110.696134 88.8502345,131.139745 C83.8109675,141.759803 62.8582256,166.451437 51.7187932,171.230463 C53.0449161,143.352812 53.0449161,110.961636 49.8622211,82.8184832 C46.6795262,55.7373362 56.4928357,35.2937253 45.8838524,10.0710885 C44.5577295,6.88507119 43.2316066,3.6990539 41.6402592,0.513036618 C42.7011575,0.778538058 43.4968312,1.0440395 44.5577295,1.57504238 C62.0625519,9.00908271 70.0192893,27.5941835 71.6106368,45.38278 C72.9367597,60.2508607 70.2845139,75.1189414 68.1627172,89.7215206 C67.3670435,96.6245581 66.5713697,103.527596 67.8974926,110.165132 C67.8974926,110.165132 67.8974926,110.430633 67.8974926,110.430633 C69.7540647,118.395676 81.4239462,117.864673 82.7500691,109.89963 L87.5241116,85.2079961 C88.8502345,77.7739558 90.441582,70.074414 96.5417473,65.0298866 C98.9287686,62.9058751 102.111464,61.8438694 105.028934,61.8438694 C110.333426,61.8438694 113.250896,64.7643852 115.372693,68.4814054 Z" id="Shape" fill="#5275A0" fill-rule="nonzero" opacity="0.2"></path>
                                            <path d="M111.924773,299.998661 C99.7244423,236.809319 93.3590524,226.985765 98.663544,211.32118 C105.559383,191.143071 101.581014,170.69946 107.946404,150.52135 C114.311794,130.07774 118.820612,108.306621 113.51612,87.5975091 C111.924773,80.9599731 108.476853,74.0569356 100.785341,73.7914342 C97.6026457,73.7914342 94.6851753,74.8534399 92.298154,76.9774515 C86.1979887,82.0219788 84.6066412,89.987022 83.2805183,97.1555609 L78.7717004,121.847195 C77.1803529,129.812238 65.775696,130.343241 63.9191239,122.378198 C63.9191239,122.378198 63.9191239,122.112696 63.9191239,122.112696 C62.3277764,115.47516 63.1234502,108.572123 64.1843485,101.669085 C66.0409206,86.8010048 68.9583909,72.1984255 67.632268,57.3303449 C66.0409206,39.2762469 58.0841831,20.9566475 40.5793608,13.5226072 C34.4791955,10.8675928 27.3181318,10.3365899 20.9527419,11.9295986 C2.65224581,16.7086245 -2.12179664,34.497221 0.795673742,49.6308031 C2.65224581,60.2508607 7.69151284,70.074414 12.2003307,80.1634687 C23.3397631,104.3241 15.1178011,126.360719 16.7091486,152.910863 C20.6875173,226.189261 111.924773,299.998661 111.924773,299.998661 Z" id="Shape" fill="#7EE8D4" fill-rule="nonzero"></path>
                                            <path d="M30.5008268,31.0457023 C39.5184625,75.9154457 48.5360982,121.316192 66.0409206,163.796422 C71.0801876,176.27499 73.7324334,192.470578 103.172362,226.454762" id="Shape" stroke="#00AD9F" stroke-linecap="round" stroke-linejoin="round"></path>
                                        </g>
                                    </g>
                                </g>
                            </g>
                            <g id="Group-2" transform="translate(1388.000000, 383.000000)">
                                <g id="Group" transform="translate(124.488552, 283.292159) rotate(-90.000000) translate(-124.488552, -283.292159) translate(70.488552, 202.792159)">
                                    <path d="M4.79344315,130.488534 C13.2979391,116.590347 8.96837751,98.6771284 11.9062943,82.7714254 C14.2257023,70.4174813 21.029299,59.1445073 30.7708125,51.2688679 C36.9559004,46.3272903 45.6150235,42.9299557 52.5732475,46.6361389 C54.1195195,47.4082604 55.8204186,48.4892305 57.3666906,47.717109 C58.2944538,47.2538361 58.6037082,46.172866 58.7583354,45.0918959 C60.4592346,36.444135 56.4389274,27.0242527 59.6860986,18.8397647 C61.541625,14.5158843 65.2526777,11.1185497 69.2729849,8.64776086 C77.0043448,3.70618323 85.9727223,0.926545806 95.2503542,0.463272903 C97.7243894,0.308848602 100.198425,0.463272903 102.363205,1.54424301 C106.228885,3.55175892 108.084412,8.33891226 107.62053,12.817217 C107.156649,17.1410974 104.682613,21.0017049 102.053951,24.5534639 C93.2402007,36.1352864 80.0968888,46.172866 78.3959896,60.6887503 C78.2413624,62.5418419 78.2413624,64.3949335 79.0144984,66.0936009 C79.7876344,67.6378439 81.3339064,68.8732383 82.2616696,70.4174813 C85.0449591,75.3590589 79.7876344,81.0727581 74.5303096,83.5435469 C69.8914937,85.8599114 64.6341689,87.2497301 59.5314714,87.713003 C55.9750458,88.0218516 51.9547387,88.1762759 49.4807035,90.801489 C44.9965147,95.7430667 50.0992123,103.464282 49.1714491,110.104527 C48.5529403,114.273983 45.6150235,117.516893 42.6771068,120.296531 C37.1105276,125.546957 31.0800669,130.33411 24.5857246,134.503566 C19.3283998,137.900901 13.7618207,140.834963 9.12300471,145.004419 C4.48418875,149.173875 0.773135992,154.73315 0.463881595,160.910122" id="Shape" fill="#5193F4" fill-rule="nonzero"></path>
                                    <path d="M15.9266014,117.05362 C17.3182462,110.258951 20.4107902,104.081979 23.5033342,97.9050069 C28.2967773,88.3307002 33.2448477,78.6019692 40.6669532,70.7263299 C46.2335323,64.7037821 53.0371291,60.0710531 58.7583354,54.2029297 C62.7786426,50.0334735 66.1804409,45.2463202 68.9637305,40.1503183 C70.3553753,37.3706809 71.7470201,34.4366191 73.6025465,31.9658303 C75.9219544,29.0317686 79.1691256,27.0242527 81.9524152,24.3990396 C85.6634679,21.0017049 88.7560119,16.8322488 90.7661655,12.1995198" id="Shape" stroke="#0B43A4" stroke-linecap="round" stroke-linejoin="round"></path>
                                </g>
                                <g id="Group" transform="translate(158.100685, 369.174325) rotate(-60.000000) translate(-158.100685, -369.174325) translate(102.600685, 311.674325)">
                                    <path d="M110.238721,114.263533 C104.826769,108.086561 99.7240716,101.755165 94.4667469,95.7326169 C91.0649485,91.8720094 87.5085229,88.0114018 83.642843,84.3052186 C81.7873166,82.452127 79.777163,80.7534597 77.7670094,79.0547924 C65.5514608,69.0172128 51.7896401,60.5238762 37.2546835,54.3469042 C28.4409331,50.640721 19.1633012,47.552235 11.5865685,41.5296872 C4.16446299,35.5071395 -1.24748896,25.6239842 1.22654622,16.5129504 C3.0820726,9.8727055 8.64865174,4.62227927 15.2976213,2.30591475 C21.7919636,-0.0104497647 29.0594419,0.143974536 35.7084115,1.53379325 C54.5729297,5.54882507 70.3449039,19.1381636 81.0141806,35.1982909 C81.1688078,35.5071395 81.323435,35.8159881 81.6326894,36.1248367 C89.5186765,48.1699322 94.9306285,61.4504221 99.7240716,74.8853362 C101.270344,79.2092167 102.661988,83.6875214 104.20826,88.0114018 C106.373041,94.3427982 113.022011,107.777712 110.238721,114.263533 Z" id="Shape" fill="#5193F4" fill-rule="nonzero"></path>
                                    <path d="M23.9567444,17.1306477 C44.5221618,20.9912552 59.0571184,34.735018 74.3652111,48.9420537 C89.6733037,63.1490894 100.651835,81.9888541 105.90916,102.218438" id="Shape" stroke="#0B43A4" stroke-linecap="round" stroke-linejoin="round"></path>
                                </g>
                                <g id="Group" transform="translate(152.223018, 326.948097) rotate(-90.000000) translate(-152.223018, -326.948097) translate(126.223018, 273.948097)">
                                    <path d="M15.6068757,97.2768599 C15.4522485,99.4388001 15.4522485,101.60074 15.9161301,103.762681 C10.8134325,102.527286 7.25700696,94.6516468 4.78297178,85.8494616 C2.46356381,77.3561251 1.38117342,68.2450913 0.917291823,64.0756352 C0.298783029,55.1190257 0.762664624,46.1624162 2.61819101,37.3602311 C10.5041781,49.4053266 15.9161301,62.6858165 20.7095732,76.1207307 C19.008674,81.0623083 17.6170293,85.8494616 16.5346389,90.9454636 C16.2253845,93.1074038 15.7615029,95.1149197 15.6068757,97.2768599 Z" id="Shape" fill="#5275A0" fill-rule="nonzero" opacity="0.2"></path>
                                    <path d="M51.3257585,23.1531954 C49.6248593,30.8744104 44.9860434,37.5146554 40.811109,44.3093246 C38.6463282,47.8610836 36.6361747,51.5672668 34.7806483,55.27345 C28.7501875,67.1641212 24.1113716,79.6724896 21.0188276,92.6441309 C20.0910644,96.9680113 19.4725556,100.983043 20.2456916,105.306924 C10.0402965,102.990559 6.01998937,74.267639 5.40148058,65.6198782 C4.16446299,50.1774481 6.79312536,34.4261694 13.1328405,20.2191337 C15.9161301,14.0421616 19.4725556,7.86518959 25.0391348,4.00458206 C30.6057139,-0.0104497647 38.3370738,-1.40026847 44.2129074,2.15149045 C47.7693329,4.15900636 49.9341137,7.71076529 51.0165041,11.5713728 C52.0988945,15.277556 52.2535217,19.2925879 51.3257585,23.1531954 Z" id="Shape" fill="#52D2BC" fill-rule="nonzero"></path>
                                    <path d="M16.3800117,96.813587 C10.0402965,81.0623083 13.9059765,47.552235 23.9567444,26.3961057 C27.0492884,20.0647094 31.3788499,14.0421616 37.4093107,10.4904027" id="Shape" stroke="#00AD9F" stroke-linecap="round" stroke-linejoin="round"></path>
                                </g>
                                <g id="Group" transform="translate(166.717554, 282.745010) rotate(-90.000000) translate(-166.717554, -282.745010) translate(125.717554, 226.245010)">
                                    <path d="M21.9876569,12.3434943 C20.2867577,20.0647094 15.6479417,26.7049543 11.4730074,33.4996236 C9.30822659,37.0513825 7.29807301,40.7575657 5.44254663,44.4637489 C2.65925706,39.8310199 0.803730679,34.5805937 0.185221885,29.3301674 C-0.742541306,20.373558 2.81388426,10.7992513 10.0813626,5.39440077 C13.483161,2.92361196 17.5034681,1.53379325 21.6784025,0.916096042 C22.7607929,4.46785497 22.9154201,8.48288679 21.9876569,12.3434943 Z" id="Shape" fill="#5275A0" fill-rule="nonzero" opacity="0.2"></path>
                                    <path d="M80.5913651,79.363641 C80.1274835,82.2977027 79.1997203,85.0773401 77.9627027,87.8569775 C73.4785139,97.5857085 64.0462548,105.924621 49.8205526,112.71929 C49.8205526,112.71929 49.0474166,97.2768599 48.8927894,93.2618281 C48.2742806,75.6574578 29.100508,65.9287268 16.8849593,52.9570855 C10.6998714,46.4712649 6.06105543,38.1323526 5.13329223,29.1757431 C4.20552904,20.2191337 7.76195461,10.644827 15.0294329,5.23997647 C21.2145209,0.761671741 29.100508,-0.164874066 36.6772407,0.452823138 C48.8927894,1.37936894 61.1083381,6.47537088 68.6850708,16.0496775 C68.9943252,16.3585261 69.3035796,16.821799 69.612834,17.1306477 C74.2516499,23.462044 76.5710579,31.183259 78.4265843,38.7500498 C81.3645011,52.0305397 82.7561459,65.9287268 80.5913651,79.363641 Z" id="Shape" fill="#00AD9F" fill-rule="nonzero"></path>
                                    <path d="M20.2867577,14.8142831 C33.5846967,21.6089524 46.8826358,29.9478646 54.6139957,42.7650816 C65.4378996,60.5238762 62.9638645,83.6875214 54.7686229,102.836135" id="Shape" stroke="#00AD9F" stroke-linecap="round" stroke-linejoin="round"></path>
                                </g>
                                <g id="Group" transform="translate(152.222080, 188.959306) rotate(-90.000000) translate(-152.222080, -188.959306) translate(80.222080, 107.459306)">
                                    <path d="M17.1531477,118.752288 C16.6892661,121.686349 15.7615029,124.465987 14.5244853,127.245624 C8.03014295,113.347437 2.15430941,95.1253694 0.762664624,72.8882701 C0.453410227,66.8657224 1.99968221,60.6887503 5.24685338,55.4383241 C5.55610778,55.7471727 5.86536217,56.2104456 6.17461657,56.5192942 C10.8134325,62.8506905 13.1328405,70.5719056 14.9883669,78.1386963 C17.9262837,91.4191862 19.3179284,105.317373 17.1531477,118.752288 Z" id="Shape" fill="#5275A0" fill-rule="nonzero" opacity="0.2"></path>
                                    <path d="M81.9419438,117.980166 C95.8583917,113.038588 110.393348,109.023557 123.227406,101.456766 C127.093086,99.1404013 130.804139,96.5151882 133.432801,92.9634292 C136.21609,89.4116703 137.762362,84.9333656 137.298481,80.4550608 C136.679972,75.9767561 133.742055,71.6528757 134.824446,67.174571 C135.442954,64.2405092 137.607735,61.9241447 139.308634,59.4533559 C143.328942,53.5852325 144.565959,45.8640174 142.401178,38.9149239 C140.236398,31.5025574 134.669818,25.634434 131.577275,18.6853404 C128.948612,12.9716413 128.020849,6.48582064 128.948612,0.308848602 C117.196945,0.463272903 106.527668,6.79466925 94.9306285,8.95660946 C86.1168782,10.6552768 76.9938735,9.72873097 68.1801231,11.7362469 C52.2535217,15.4424301 39.264837,29.3406172 36.7908019,45.5551688 C29.3686963,44.3197744 21.4827092,46.9449875 16.2253845,52.3498381 C10.8134325,58.2179615 7.72088855,66.4024495 8.18477015,74.4325131 C11.7411957,132.187202 44.9860434,162.454365 44.9860434,162.454365 C44.9860434,162.454365 76.5299919,119.833258 81.9419438,117.980166 Z" id="Shape" fill="#7EE8D4" fill-rule="nonzero"></path>
                                    <g transform="translate(32.471712, 13.898187)" id="Shape" stroke="#00AD9F" stroke-linecap="round" stroke-linejoin="round">
                                        <path d="M18.0809108,103.618706 C16.6892661,89.4116703 21.6373364,75.2046346 27.3585428,62.078569 C32.9251219,49.261352 39.4194642,36.7529837 47.9239601,25.7888583 C56.5830833,14.8247329 67.5616144,5.40485054 80.3956718,-1.42108547e-14"></path>
                                        <path d="M30.6057139,8.80218516 C29.2140691,21.4649778 30.1418323,36.7529837 33.5436307,49.261352"></path>
                                        <path d="M35.8630387,44.628623 C50.3979953,35.3631649 72.8189391,29.6494658 89.9825581,30.5760116"></path>
                                        <path d="M0.298783029,46.9449875 C17.7716565,54.357354 18.5447924,79.9917879 19.008674,87.2497301"></path>
                                        <path d="M23.8021172,71.0351785 C37.2546835,61.4608718 56.5830833,58.5268101 70.8087855,62.078569"></path>
                                        <path d="M60.294136,2.16194021 C56.2738289,7.10351785 55.1914385,12.9716413 55.6553201,17.1410974"></path>
                                        <path d="M59.521,13.5893385 C65.706088,10.5008525 73.9013295,9.72873097 82.7150798,11.8906712"></path>
                                    </g>
                                </g>
                                <g id="Group" transform="translate(108.104728, 348.362676) rotate(-90.000000) translate(-108.104728, -348.362676) translate(24.104728, 240.362676)">
                                    <path d="M24.420626,70.0981829 C26.1215252,69.9437586 37.2546835,61.7592707 41.584245,58.9796332 C42.8212626,58.2075117 44.0582802,57.4353902 44.8314162,56.1999958 C45.6045522,54.9646014 46.0684338,53.4203584 45.449925,52.184964 C44.676789,50.4862967 43.4397714,48.9420537 40.1926002,48.9420537 C34.6260211,48.9420537 32.6158675,50.7951453 29.9872051,53.5747827 C21.0188276,62.6858165 24.420626,70.0981829 24.420626,70.0981829 Z" id="Shape" fill="#4A49CA" fill-rule="nonzero"></path>
                                    <path d="M74.6744655,103.453832 C79.6225358,105.615772 84.7252334,107.777712 90.1371853,107.160015 C92.1473389,106.851167 94.4667469,105.924621 95.0852557,104.071529 C95.7037645,102.372862 94.9306285,100.51977 93.5389837,99.2843758 C92.1473389,98.0489814 90.4464397,97.5857085 88.7455405,97.1224356 C82.2511982,95.5781926 73.1281935,96.3503141 66.6338512,98.2034057 C66.6338512,98.2034057 71.7365487,102.218438 74.6744655,103.453832 Z" id="Shape" fill="#4A49CA" fill-rule="nonzero"></path>
                                    <path d="M106.836923,31.4921076 C104.672142,30.1022889 102.198107,28.2491973 102.198107,25.7784085 C102.198107,23.1531954 104.826769,21.3001038 107.455432,21.1456795 C110.084094,21.1456795 112.403502,22.5354982 114.413655,24.2341655 C122.608897,31.4921076 121.681134,39.6765956 121.681134,39.6765956 C121.681134,39.6765956 109.310958,33.0363507 106.836923,31.4921076 Z" id="Shape" fill="#4A49CA" fill-rule="nonzero"></path>
                                    <path d="M113.331265,9.4094326 C111.475739,8.63731109 109.465585,7.55634099 108.383195,5.85767368 C107.764686,4.93112787 107.455432,3.85015776 107.919313,2.92361196 C108.537822,1.37936894 109.465585,-0.164874066 113.485892,0.607247439 C126.165323,2.92361196 128.948612,11.5713728 128.948612,11.5713728 C128.948612,11.5713728 116.733063,10.9536756 113.331265,9.4094326 Z" id="Shape" fill="#4A49CA" fill-rule="nonzero"></path>
                                    <path d="M150.751047,28.7124702 C155.853745,28.2491973 161.111069,25.7784085 164.358241,21.7633767 C165.595258,20.2191337 166.677649,18.5204664 167.14153,16.6673747 C167.605412,14.8142831 167.14153,12.6523429 165.595258,11.2625242 C163.739732,9.7182812 160.956442,10.0271298 158.946289,11.2625242 C156.936135,12.4979186 155.699117,14.6598588 154.616727,16.821799 C153.379709,19.7558608 150.751047,28.7124702 150.751047,28.7124702 Z" id="Shape" fill="#4A49CA" fill-rule="nonzero"></path>
                                    <path d="M59.3663728,215.102602 C46.996197,204.138476 34.6260211,193.328775 22.2558452,182.36465 C15.6068757,176.496526 8.95790614,170.628403 4.78297178,162.907188 C-4.18540573,146.229363 0.917291823,124.609961 13.1328405,110.248501 C25.3483892,95.7326169 43.130517,87.2392803 60.9126448,80.907884 C78.8493998,74.7309119 97.4046636,70.2526072 114.413655,62.0681193 C125.082932,56.9721173 135.906836,49.2509023 138.690126,37.6690797 C140.391025,30.7199861 138.99938,23.1531954 134.824446,17.285072 C130.649511,11.5713728 123.691287,7.86518959 116.578436,7.40191669" id="Shape" stroke="#0B43A4" stroke-linecap="round" stroke-linejoin="round"></path>
                                    <path d="M159.41017,16.9762234 C156.008372,27.3226515 142.86506,33.6540479 136.834599,42.6106573" id="Shape" stroke="#0B43A4" stroke-linecap="round" stroke-linejoin="round"></path>
                                    <path d="M112.094248,28.8668945 C114.72291,31.646532 117.815454,33.8084722 120.134862,36.8969582 C124.928305,43.2283545 125.392187,53.5747827 118.279335,60.0606033" id="Shape" stroke="#0B43A4" stroke-linecap="round" stroke-linejoin="round"></path>
                                    <path d="M45.2952978,86.9304317 C56.2738289,95.269344 70.6541583,100.983043 84.415979,101.446316" id="Shape" stroke="#0B43A4" stroke-linecap="round" stroke-linejoin="round"></path>
                                    <path d="M20.2456916,102.218438 C15.1429941,87.3937046 20.7095732,69.63491 33.2343763,60.2150276" id="Shape" stroke="#0B43A4" stroke-linecap="round" stroke-linejoin="round"></path>
                                </g>
                                <g id="Group" transform="translate(140.213982, 75.012344) rotate(-90.000000) translate(-140.213982, -75.012344) translate(65.713982, -18.987656)">
                                    <path d="M1.54627198,9.57430667 C0.927763191,7.72121505 0.927763191,5.55927484 2.31940798,4.16945613 C3.40179837,3.08848602 5.25732475,2.62521312 6.64896953,3.24291032 C17.4728734,8.03006365 16.390483,25.0167368 16.390483,25.0167368 C16.390483,25.0167368 6.03046074,23.3180695 1.54627198,9.57430667 Z" id="Shape" fill="#4A49CA" fill-rule="nonzero"></path>
                                    <path d="M1.39164479,41.2312884 C-5.56657914,53.8940811 19.3283998,52.9675353 28.2967773,45.5551688 C28.2967773,45.5551688 7.42210553,30.4215873 1.39164479,41.2312884 Z" id="Shape" fill="#4A49CA" fill-rule="nonzero"></path>
                                    <path d="M32.9355933,10.5008525 C31.2346941,8.18448796 30.6161853,4.78715333 32.4717117,2.47078882 C33.8633565,0.772121505 36.1827644,0.308848602 38.3475452,0.772121505 C40.512326,1.23539441 43.60487,3.08848602 44.9965147,4.78715333 C53.1917563,14.9791572 49.3260763,25.0167368 49.3260763,25.0167368 C49.3260763,25.0167368 35.7188828,14.36146 32.9355933,10.5008525 Z" id="Shape" fill="#4A49CA" fill-rule="nonzero"></path>
                                    <path d="M132.206255,42.0034099 C131.587746,39.995894 131.742373,37.6795295 133.288645,36.2897107 C134.216408,35.3631649 135.608053,35.0543163 136.999698,35.2087406 C138.236715,35.3631649 139.473733,35.8264378 140.710751,36.2897107 C143.184786,37.5251052 145.194939,39.5326211 146.431957,42.0034099 C149.524501,48.3348062 147.35972,56.2104456 147.35972,56.2104456 C147.35972,56.2104456 133.752527,46.9449875 132.206255,42.0034099 Z" id="Shape" fill="#4A49CA" fill-rule="nonzero"></path>
                                    <path d="M100.971561,65.167055 C96.4873718,61.3064475 89.8384023,60.0710531 84.4264503,62.5418419 C83.0348056,63.1595391 81.797788,63.9316606 80.8700248,65.167055 C78.8598712,67.9466925 79.6330072,71.8073 81.6431608,74.5869374 C83.6533144,77.2121505 86.7458583,78.9108178 89.8384023,80.3006365 C95.4049814,82.7714254 104.064105,83.3891226 109.939938,84.7789413 C109.939938,84.7789413 109.939938,73.0426944 100.971561,65.167055 Z" id="Shape" fill="#4A49CA" fill-rule="nonzero"></path>
                                    <path d="M9.4322591,12.3539441 C13.1433119,24.3990396 23.5033342,33.5100733 35.100374,38.2972267 C46.6974139,43.2388043 59.3768442,44.4741987 72.0562745,45.2463202 C84.5810775,46.0184417 97.2605078,46.4817146 109.476056,49.7246249 C121.382351,52.9675353 133.134018,59.6077802 138.236715,70.7263299 C144.421803,84.3156684 139.009851,100.53022 130.196101,112.575315 C121.536978,124.774835 109.785311,134.503566 101.435442,146.85751 C97.5697622,152.571209 94.322591,159.211454 95.095727,166.006124 C96.1781174,175.117157 103.75485,181.757402 110.867701,187.471101" id="Shape" stroke="#0B43A4" stroke-linecap="round" stroke-linejoin="round"></path>
                                    <path d="M38.3475452,7.87563935 C46.6974139,17.1410974 53.3463835,31.5025574 54.8926554,43.7020772" id="Shape" stroke="#0B43A4" stroke-linecap="round" stroke-linejoin="round"></path>
                                    <path d="M10.3600223,43.3932286 C15.1534654,44.628623 19.9469086,45.8640174 24.8949789,45.8640174 C29.8430493,45.8640174 35.5642556,43.08438 39.1206812,39.6870454" id="Shape" stroke="#0B43A4" stroke-linecap="round" stroke-linejoin="round"></path>
                                    <path d="M140.401496,42.6211071 C144.885685,46.9449875 147.514347,52.9675353 147.823602,59.1445073 C147.978229,65.3214793 144.576431,72.8882701 140.556123,77.5209991" id="Shape" stroke="#0B43A4" stroke-linecap="round" stroke-linejoin="round"></path>
                                    <path d="M93.7040823,70.7263299 C102.67246,78.9108178 110.40382,85.5510628 120.29996,92.5001563 C124.784149,95.7430667 133.752527,99.7580985 137.772834,98.6771284" id="Shape" stroke="#0B43A4" stroke-linecap="round" stroke-linejoin="round"></path>
                                </g>
                            </g>
                            <g id="Group" transform="translate(1493.000000, 965.500000) scale(-1, 1) translate(-1493.000000, -965.500000) translate(1362.000000, 825.000000)">
                                <g id="Group-4">
                                    <path d="M22.644459,236.677978 C24.6188033,182.544421 52.7532091,132.34785 87.3042338,90.0252516 C115.932226,54.5923782 149.989664,22.6043675 192.438066,6.36430057 C205.76489,1.44306815 220.572472,-2.00179454 234.392882,1.44306815 C248.213292,4.88793084 260.552943,16.6988886 261.046529,30.9704626 C261.046529,42.7814204 253.149152,53.6081318 244.758189,61.9742269 C216.623783,90.0252516 180.592,107.741688 147.028148,127.918741 C88.784992,162.859491 33.5033525,209.611199 10.3048074,273.587221" id="Shape" fill="#52D2BC" fill-rule="nonzero"></path>
                                    <path d="M43.8686599,189.434146 C79.4068567,110.202305 171.213865,39.828681 231.924951,30.9704626" id="Shape" stroke="#00AD9F" stroke-linecap="round" stroke-linejoin="round"></path>
                                    <path d="M0.953746441,280.779957 C0.460160374,271.921739 30.0753244,247.8077 36.9855293,241.902221 C74.0044843,208.437841 118.42723,183.831679 164.824321,169.067982 C183.580591,163.162503 203.81762,158.733394 222.57389,163.654626 C241.330161,168.083735 258.605673,183.831679 260.580018,204.008732 C262.554362,223.693661 249.227538,242.886468 232.445612,252.728933 C215.663686,262.079274 195.920243,263.555644 176.670386,262.571398 C147.548808,261.095028 118.920816,253.713179 89.7992385,253.713179 C60.6776605,253.713179 19.2164309,256.665919 0.953746441,280.779957 Z" id="Shape" fill="#00AD9F" fill-rule="nonzero"></path>
                                    <path d="M31.0624965,253.221056 C90.7864106,220.740922 181.112661,200.071746 246.759608,207.945718" id="Shape" stroke="#00AD9F" stroke-linecap="round" stroke-linejoin="round"></path>
                                </g>
                            </g>
                            <g id="Group" transform="translate(1455.375774, 731.427860) scale(-1, 1) translate(-1455.375774, -731.427860) translate(1388.375774, 678.427860)">
                                <g id="Group-3">
                                    <path d="M131.577275,42.9299557 C129.721748,50.1878978 126.783831,57.44584 121.990388,63.3139634 C118.58859,67.3289953 114.413655,70.4174813 109.929467,73.0426944 C107.610059,74.4325131 105.136024,75.5134832 102.661988,76.5944533 C92.9204749,80.6094851 82.5604526,82.9258497 72.0458031,83.3891226 C56.7377105,84.0068198 41.1203634,80.6094851 26.4307796,84.9333656 C19.6271828,86.9408815 13.4420949,90.4926404 8.49402455,95.434218 C5.24685338,98.3682798 2.61819101,101.920039 0.453410227,105.626222 L2.46356381,92.9634292 C6.17461657,79.3740907 9.88566933,65.4759036 17.4624021,53.5852325 C22.2558452,45.8640174 28.5955603,39.0693482 35.3991571,32.8923761 C46.223061,23.0092209 58.1293552,14.2070357 71.2726671,7.87563935 C81.9419438,2.77963742 93.6936109,-0.926545806 105.445278,0.463272903 C117.196945,1.85309161 128.639358,9.26545806 132.35041,20.538432 C134.515191,27.6419499 133.432801,35.5175892 131.577275,42.9299557 Z" id="Shape" fill="#5193F4" fill-rule="nonzero"></path>
                                    <path d="M12.2050773,83.2346983 C23.4928628,66.7112981 40.1926002,53.8940811 59.2117456,47.5626847 C71.1180399,43.5476529 83.642843,42.1578342 95.5491373,38.6060753 C107.610059,35.2087406 119.516353,29.3406172 126.629204,18.994189" id="Shape" stroke="#0B43A4" stroke-linecap="round" stroke-linejoin="round"></path>
                                    <path d="M110.180981,73.4757279 C107.861573,74.8655466 105.387537,75.9465167 102.913502,77.0274869 C93.1719888,81.0425187 82.8119665,83.3588832 72.297317,83.8221561 C56.9892243,84.4398533 41.3718773,81.0425187 26.6822934,85.3663991 C19.8786967,87.373915 13.6936088,90.925674 8.74553841,95.8672516 C8.28165681,96.1761002 7.66314802,96.3305245 7.19926642,96.6393731 C5.96224884,86.2929449 31.784991,72.8580307 39.6709781,69.3062718 C53.7420532,62.9748755 69.6686546,60.195238 85.1313744,61.4306324 C91.9349712,62.0483297 98.8931951,63.2837241 104.459774,67.1443316 C106.624555,68.6885746 108.789336,70.8505148 110.180981,73.4757279 Z" id="Shape" fill="#5275A0" fill-rule="nonzero" opacity="0.2"></path>
                                    <path d="M84.9767472,67.4531802 C91.780344,67.9164531 98.7385679,69.3062718 104.305147,73.1668793 C109.871726,77.0274869 113.892033,83.8221561 112.500389,90.6168253 C110.954117,98.3380404 102.913502,103.434042 95.1821423,104.360588 C87.4507824,105.287134 79.4101681,103.125194 71.6788082,101.580951 C54.5151891,98.0291918 36.8876885,97.2570703 19.4148151,99.2645862 C15.0852535,99.7278591 10.9103192,100.654405 7.19926642,102.816345 C5.96224884,92.469917 31.784991,79.0350028 39.6709781,75.4832438 C53.7420532,69.1518475 69.5140274,66.2177858 84.9767472,67.4531802 Z" id="Shape" fill="#52D2BC" fill-rule="nonzero"></path>
                                    <path d="M13.848236,96.1761002 C26.6822934,84.9031262 59.4632595,77.3363355 82.8119665,79.8071243 C89.7701904,80.5792458 96.8830415,82.5867617 102.294993,87.2194907" id="Shape" stroke="#00AD9F" stroke-linecap="round" stroke-linejoin="round"></path>
                                </g>
                            </g>
                        </g>
                        <g id="Group" transform="translate(1554.500000, 910.500000) scale(-1, 1) translate(-1554.500000, -910.500000) translate(1525.000000, 897.000000)"></g>
                    </g>
                </g>
            </g>
        </g>
    </g>
</svg>